<svg xmlns="http://www.w3.org/2000/svg" xmlns:xlink="http://www.w3.org/1999/xlink" viewBox="0 0 373.29999 181">
  <defs>
    <style>
      .cls-1 {
        opacity: 0.39;
      }

      .cls-2 {
        fill: url(#linear-gradient);
      }

      .cls-3 {
        fill: url(#linear-gradient-2);
      }

      .cls-4 {
        fill: #e01b1b;
      }

      .cls-5 {
        fill: url(#linear-gradient-3);
      }

      .cls-6 {
        fill: url(#linear-gradient-4);
      }

      .cls-7 {
        fill: #681111;
      }

      .cls-8 {
        fill: url(#linear-gradient-5);
      }

      .cls-9 {
        fill: url(#linear-gradient-6);
      }
    </style>
    <linearGradient id="linear-gradient" x1="366.10278" y1="1085.05106" x2="364.00839" y2="1067.09896" gradientTransform="matrix(0.9714, -0.03361, -0.03458, -0.9994, 4.56557, 1126.86147)" gradientUnits="userSpaceOnUse">
      <stop offset="0" stop-color="#fe0000"/>
      <stop offset="0.05032" stop-color="#fe1700"/>
      <stop offset="0.2552" stop-color="#fe6e00"/>
      <stop offset="0.3994" stop-color="#fea500"/>
      <stop offset="0.469" stop-color="#feba00"/>
      <stop offset="0.5255" stop-color="#feb300"/>
      <stop offset="0.6067" stop-color="#fea000"/>
      <stop offset="0.703" stop-color="#fe8100"/>
      <stop offset="0.8108" stop-color="#fe5500"/>
      <stop offset="0.9268" stop-color="#fe1e00"/>
      <stop offset="0.9845" stop-color="#fe0000"/>
    </linearGradient>
    <linearGradient id="linear-gradient-2" x1="89.20342" y1="1086.8152" x2="86.87012" y2="1066.8152" gradientTransform="matrix(1, 0, 0, -1, -30, 1095)" xlink:href="#linear-gradient"/>
    <linearGradient id="linear-gradient-3" x1="318" y1="992" x2="389.60001" y2="992" gradientTransform="matrix(1, 0, 0, -1, -30, 1095)" gradientUnits="userSpaceOnUse">
      <stop offset="0" stop-color="#c11616"/>
      <stop offset="0.2848" stop-color="#c41515"/>
      <stop offset="0.5246" stop-color="#cf1111"/>
      <stop offset="0.748" stop-color="#e00b0b"/>
      <stop offset="0.9604" stop-color="#f90202"/>
      <stop offset="1" stop-color="#fe0000"/>
    </linearGradient>
    <linearGradient id="linear-gradient-4" x1="48" y1="1006.5" x2="129.81783" y2="1006.5" xlink:href="#linear-gradient-3"/>
    <linearGradient id="linear-gradient-5" x1="44.7498" y1="100" x2="48.58353" y2="100" gradientTransform="matrix(1, 0, 0, 1, 0, 0)" xlink:href="#linear-gradient-3"/>
    <linearGradient id="linear-gradient-6" x1="312.08314" y1="110.66667" x2="315.91686" y2="110.66667" gradientTransform="matrix(1, 0, 0, 1, 0, 0)" xlink:href="#linear-gradient-3"/>
  </defs>
  <title>banners</title>
  <g id="Rooster">
    <g id="banners-2" data-name="banners">
      <polygon class="cls-2" points="270.6 31.7 271 40.7 373.3 47.2 373 38.2 270.6 31.7"/>
      <polygon class="cls-3" points="0 9 0 18 116 28 116 19 0 9"/>
      <g id="Layer_47-2" data-name="Layer 47">
        <polygon class="cls-4" points="284 24 361.6 30.2 364.3 181 284 181 284 24"/>
        <polygon class="cls-5" points="288 177 288 29 357.1 34.5 359.6 177 288 177"/>
        <polygon class="cls-4" points="14 0 101 7 104 176 14 176 14 0"/>
        <polygon class="cls-6" points="18 172 18 5 97 11.3 99.818 172 18 172"/>
      </g>
    </g>
    <path class="cls-7" d="M41.3719,98.48229A5.81476,5.81476,0,0,1,34.442,95.6331a7.65839,7.65839,0,0,1,.77931-7.17611,23.15288,23.15288,0,0,1,5.22857-5.372,57.17078,57.17078,0,0,0,9.16425-8.89131A20.41417,20.41417,0,0,0,54.195,62.4736a22.82833,22.82833,0,0,1,.5577,11.99286A30.25468,30.25468,0,0,0,68.54335,61.73573a1.19063,1.19063,0,0,1,.46622-.54377c.65333-.31149,1.15551.65564,1.2005,1.378a14.88617,14.88617,0,0,1-4.28725,11.3095A24.65941,24.65941,0,0,0,80.6506,64.85636a19.17506,19.17506,0,0,1-4.82117,13.4371A27.16,27.16,0,0,1,63.6502,86.085c-1.21958.40052-2.76187,1.2-2.48112,2.4526.22558,1.00644,1.47873,1.32567,2.50361,1.44158a30.0659,30.0659,0,0,0,10.20662-.10656c3.33-.77853,6.53717-2.79466,7.941-5.91307A12.45081,12.45081,0,0,1,77.336,96.26812c6.06169,7.93,10.42881,17.33136,11.44644,27.26077s-1.52287,20.38207-7.86754,28.08751a28.79206,28.79206,0,0,0,3.572-12.12777c.213-5.40617-1.63186-10.73379-4.3501-15.41173A86.15344,86.15344,0,0,0,70.30195,111.197c-4.584-5.27972-9.89525-10.94523-16.86341-11.52246a45.0737,45.0737,0,0,1,3.55919,9.342,22.778,22.778,0,0,1-3.06986,17.00924c-1.49356,2.31639-3.49552,4.59694-3.47519,7.353.022,2.98448,2.39153,5.33523,4.34411,7.59245a15.34844,15.34844,0,0,1,3.76258,6.78024A7.18347,7.18347,0,0,1,56.30323,154.84c-3.04978,2.33157-7.76849.77535-10.12486-2.2553s-2.97033-7.02352-3.506-10.82489c-.485,2.00482-3.33408,2.63454-5.06719,1.51611s-2.46663-3.29582-2.668-5.34862a15.68941,15.68941,0,0,1,1.32468-7.98138c1.35241-2.97439,3.60009-5.4492,5.17845-8.31011s2.42389-6.50213.8-9.33744a7.79438,7.79438,0,0,0-4.26127-3.31049c-1.73176-.63116-4.22416-.24942-5.77272-.99424-1.36249-.65533-.61141-1.00082.34415-1.856.96664-.86514,1.96073-1.70153,2.9405-2.55179C37.0664,102.21864,39.43272,99.16845,41.3719,98.48229Z"/>
    <path class="cls-7" d="M307.3719,108.48229a5.81476,5.81476,0,0,1-6.92994-2.84919,7.65839,7.65839,0,0,1,.77931-7.17611,23.15288,23.15288,0,0,1,5.22857-5.372,57.17078,57.17078,0,0,0,9.16425-8.89131,20.41417,20.41417,0,0,0,4.581-11.72006,22.82833,22.82833,0,0,1,.5577,11.99286,30.25468,30.25468,0,0,0,13.79062-12.73073,1.19063,1.19063,0,0,1,.46622-.54377c.65333-.31149,1.15551.65564,1.2005,1.378a14.88617,14.88617,0,0,1-4.28725,11.3095,24.65941,24.65941,0,0,0,14.72779-9.02314,19.17506,19.17506,0,0,1-4.82117,13.4371A27.16,27.16,0,0,1,329.6502,96.085c-1.21958.40052-2.76187,1.2-2.48112,2.4526.22558,1.00644,1.47873,1.32567,2.50362,1.44158a30.0659,30.0659,0,0,0,10.20662-.10656c3.33-.77853,6.53717-2.79466,7.941-5.91307a12.45081,12.45081,0,0,1-4.48435,12.30854c6.06169,7.93,10.42881,17.33136,11.44644,27.26077s-1.52287,20.38207-7.86754,28.08751a28.79206,28.79206,0,0,0,3.572-12.12777c.213-5.40617-1.63186-10.73379-4.3501-15.41173a86.15344,86.15344,0,0,0-9.83484-12.87992c-4.584-5.27972-9.89525-10.94523-16.86341-11.52246a45.0737,45.0737,0,0,1,3.55919,9.342,22.778,22.778,0,0,1-3.06986,17.00924c-1.49356,2.31639-3.49552,4.59694-3.47519,7.353.022,2.98448,2.39153,5.33523,4.34411,7.59245a15.34844,15.34844,0,0,1,3.76258,6.78024,7.18347,7.18347,0,0,1-2.25613,7.08856c-3.04978,2.33157-7.76849.77535-10.12486-2.2553s-2.97033-7.02352-3.506-10.82489c-.485,2.00482-3.33408,2.63454-5.06719,1.51611s-2.46663-3.29582-2.668-5.34862a15.68941,15.68941,0,0,1,1.32468-7.98138c1.35241-2.97439,3.60009-5.4492,5.17845-8.31011s2.42389-6.50213.8-9.33744a7.79438,7.79438,0,0,0-4.26127-3.31049c-1.73176-.63116-4.22416-.24942-5.77272-.99424-1.36249-.65533-.61141-1.00082.34415-1.856.96664-.86514,1.96073-1.70153,2.9405-2.55179C303.0664,112.21864,305.43272,109.16845,307.3719,108.48229Z"/>
    <path class="cls-8" d="M46.66667,101.98438c2.5537,0,2.55793-3.96875,0-3.96875-2.5537,0-2.55793,3.96875,0,3.96875Z"/>
    <path class="cls-9" d="M314,112.651c2.5537,0,2.55793-3.96875,0-3.96875-2.5537,0-2.55793,3.96875,0,3.96875Z"/>
    <path class="cls-7" d="M61.38455,127.50023c1.62951-2.59373,4.89572-3.62362,7.93909-3.971a8.89652,8.89652,0,0,1,3.41226.12013,7.61777,7.61777,0,0,1,3.93278,3.05526,13.84747,13.84747,0,0,1,.89139,14.39977l.30295-6.39222c.08412-1.77494.06785-3.80495-1.25507-4.99128a5.55356,5.55356,0,0,0-2.50857-1.091c-2.40026-.56148-5.03928-.83114-7.23366.29324-2.99469,1.53484-3.03194,8.09915-4.54578,8.45C58.53579,138.25016,60.502,128.905,61.38455,127.50023Z"/>
    <path class="cls-7" d="M326.38455,137.50023c1.62951-2.59373,4.89572-3.62362,7.93909-3.971a8.89652,8.89652,0,0,1,3.41226.12013,7.61777,7.61777,0,0,1,3.93278,3.05526,13.84747,13.84747,0,0,1,.89139,14.39977l.30295-6.39222c.08412-1.77494.06785-3.80495-1.25507-4.99128a5.55356,5.55356,0,0,0-2.50857-1.091c-2.40026-.56148-5.03928-.83114-7.23366.29324-2.99469,1.53484-3.03194,8.09915-4.54578,8.45C323.53579,148.25016,325.502,138.905,326.38455,137.50023Z"/>
  </g>
</svg>
