<svg id="cart_1" data-name="cart 1" xmlns="http://www.w3.org/2000/svg" xmlns:xlink="http://www.w3.org/1999/xlink" viewBox="0 0 73.2634 72.41667">
  <defs>
    <style>
      .cls-1 {
        fill: url(#linear-gradient);
      }

      .cls-2 {
        fill: url(#linear-gradient-2);
      }

      .cls-3 {
        fill: url(#linear-gradient-3);
      }

      .cls-4 {
        fill: url(#linear-gradient-4);
      }

      .cls-5 {
        fill: url(#linear-gradient-5);
      }

      .cls-6 {
        fill: url(#linear-gradient-6);
      }

      .cls-7 {
        fill: url(#linear-gradient-7);
      }

      .cls-8 {
        fill: url(#linear-gradient-8);
      }

      .cls-9 {
        fill: url(#linear-gradient-9);
      }

      .cls-10 {
        fill: url(#linear-gradient-10);
      }

      .cls-11 {
        fill: url(#linear-gradient-11);
      }

      .cls-12 {
        fill: url(#linear-gradient-12);
      }

      .cls-13 {
        fill: url(#linear-gradient-13);
      }

      .cls-14 {
        fill: url(#linear-gradient-14);
      }

      .cls-15 {
        fill: url(#linear-gradient-15);
      }

      .cls-16 {
        fill: url(#linear-gradient-16);
      }

      .cls-17 {
        fill: url(#linear-gradient-17);
      }

      .cls-18 {
        fill: url(#linear-gradient-18);
      }

      .cls-19 {
        fill: url(#linear-gradient-19);
      }

      .cls-20 {
        fill: url(#linear-gradient-20);
      }

      .cls-21 {
        fill: url(#linear-gradient-21);
      }

      .cls-22 {
        fill: #070502;
      }

      .cls-23 {
        fill: url(#linear-gradient-22);
      }

      .cls-24 {
        fill: url(#linear-gradient-23);
      }

      .cls-25 {
        fill: url(#linear-gradient-24);
      }
    </style>
    <linearGradient id="linear-gradient" x1="10.2634" y1="39.5" x2="61.2634" y2="39.5" gradientUnits="userSpaceOnUse">
      <stop offset="0.04158" stop-color="#2f1d07"/>
      <stop offset="0.08339" stop-color="#391f08"/>
      <stop offset="0.15541" stop-color="#55250c"/>
      <stop offset="0.2484" stop-color="#822f12"/>
      <stop offset="0.27655" stop-color="#913214"/>
      <stop offset="0.99336" stop-color="#11120c"/>
    </linearGradient>
    <linearGradient id="linear-gradient-2" x1="12.2634" y1="55" x2="13.2634" y2="55" xlink:href="#linear-gradient"/>
    <linearGradient id="linear-gradient-3" x1="10.2634" y1="56.20833" x2="12.2634" y2="56.20833" xlink:href="#linear-gradient"/>
    <linearGradient id="linear-gradient-4" x1="12.2634" y1="32.20833" x2="13.2634" y2="32.20833" xlink:href="#linear-gradient"/>
    <linearGradient id="linear-gradient-5" x1="36.22041" y1="24.5" x2="37.30638" y2="24.5" xlink:href="#linear-gradient"/>
    <linearGradient id="linear-gradient-6" x1="34.2634" y1="25.5" x2="36.2634" y2="25.5" xlink:href="#linear-gradient"/>
    <linearGradient id="linear-gradient-7" x1="60.22041" y1="32" x2="61.30638" y2="32" xlink:href="#linear-gradient"/>
    <linearGradient id="linear-gradient-8" x1="58.2634" y1="33.20833" x2="60.2634" y2="33.20833" xlink:href="#linear-gradient"/>
    <linearGradient id="linear-gradient-9" x1="40.22041" y1="62" x2="41.30638" y2="62" xlink:href="#linear-gradient"/>
    <linearGradient id="linear-gradient-10" x1="38.2634" y1="63.20833" x2="40.2634" y2="63.20833" xlink:href="#linear-gradient"/>
    <linearGradient id="linear-gradient-11" x1="40.22041" y1="61" x2="41.30638" y2="61" xlink:href="#linear-gradient"/>
    <linearGradient id="linear-gradient-12" x1="38.2634" y1="62.20833" x2="40.2634" y2="62.20833" xlink:href="#linear-gradient"/>
    <linearGradient id="linear-gradient-13" x1="40.22041" y1="38" x2="41.30638" y2="38" xlink:href="#linear-gradient"/>
    <linearGradient id="linear-gradient-14" x1="0" y1="15.5" x2="73.2634" y2="15.5" xlink:href="#linear-gradient"/>
    <linearGradient id="linear-gradient-15" x1="0.2634" y1="17.45504" x2="46.09742" y2="17.45504" gradientUnits="userSpaceOnUse">
      <stop offset="0.04158" stop-color="#2f1d07"/>
      <stop offset="0.11883" stop-color="#391f08"/>
      <stop offset="0.25187" stop-color="#55250c"/>
      <stop offset="0.42365" stop-color="#822f12"/>
      <stop offset="0.47566" stop-color="#913214"/>
      <stop offset="0.6503" stop-color="#5a2411"/>
      <stop offset="0.80103" stop-color="#321a0e"/>
      <stop offset="0.92036" stop-color="#1a140d"/>
      <stop offset="0.99336" stop-color="#11120c"/>
    </linearGradient>
    <linearGradient id="linear-gradient-16" x1="10.2634" y1="34.20833" x2="12.2634" y2="34.20833" xlink:href="#linear-gradient"/>
    <linearGradient id="linear-gradient-17" x1="38.2634" y1="39.20833" x2="40.2634" y2="39.20833" xlink:href="#linear-gradient"/>
    <linearGradient id="linear-gradient-18" x1="40.2634" y1="50.5" x2="61.2634" y2="50.5" xlink:href="#linear-gradient"/>
    <linearGradient id="linear-gradient-19" x1="10.2634" y1="52" x2="40.2634" y2="52" xlink:href="#linear-gradient"/>
    <linearGradient id="linear-gradient-20" x1="-34.63644" y1="50.59034" x2="-17.55006" y2="50.59034" gradientTransform="matrix(-1, 0, 0, 1, 24.71333, 0)" gradientUnits="userSpaceOnUse">
      <stop offset="0.04158" stop-color="#988c80"/>
      <stop offset="0.08307" stop-color="#a19687"/>
      <stop offset="0.15453" stop-color="#b9b29b"/>
      <stop offset="0.24681" stop-color="#e0dfbc"/>
      <stop offset="0.27655" stop-color="#eeefc7"/>
      <stop offset="0.99336" stop-color="#988c80"/>
    </linearGradient>
    <linearGradient id="linear-gradient-21" x1="14.2634" y1="52.51218" x2="36.44994" y2="52.51218" gradientTransform="matrix(1, 0, 0, 1, 0, 0)" xlink:href="#linear-gradient-20"/>
    <linearGradient id="linear-gradient-22" x1="54.2634" y1="55" x2="67.2634" y2="55" xlink:href="#linear-gradient"/>
    <linearGradient id="linear-gradient-23" x1="58.2634" y1="55.5" x2="62.2634" y2="55.5" xlink:href="#linear-gradient"/>
    <linearGradient id="linear-gradient-24" x1="59.2634" y1="55.5" x2="61.2634" y2="55.5" gradientTransform="matrix(1, 0, 0, 1, 0, 0)" xlink:href="#linear-gradient-20"/>
  </defs>
  <title>cart1</title>
  <polygon class="cls-1" points="35.263 32 61.263 37 40.263 47 10.263 40 35.263 32"/>
  <polygon class="cls-2" points="13.263 64.548 13.263 46.086 12.263 45 12.263 65 13.263 64.548"/>
  <polygon class="cls-3" points="10.263 47 10.263 63.533 12.263 65.417 12.263 64 12.263 47 10.263 47"/>
  <polygon class="cls-4" points="13.263 41 13.263 24 12.263 23 12.263 41.417 13.263 41"/>
  <polygon class="cls-5" points="37.263 33 37.306 16.086 36.22 15 36.263 34 37.263 33"/>
  <polygon class="cls-6" points="34.263 17 34.263 33.533 36.263 34 36.263 34 36.263 17 34.263 17"/>
  <polygon class="cls-7" points="61.306 41.548 61.306 23.086 60.22 22 60.22 42 61.306 41.548"/>
  <polygon class="cls-8" points="58.263 24 58.263 40.533 60.263 42.417 60.263 41 60.263 24 58.263 24"/>
  <polygon class="cls-9" points="41.306 71.548 41.306 53.086 40.22 52 40.22 72 41.306 71.548"/>
  <polygon class="cls-10" points="38.263 54 38.263 70.533 40.263 72.417 40.263 71 40.263 54 38.263 54"/>
  <polygon class="cls-11" points="41.306 70.548 41.306 52.086 40.22 51 40.22 71 41.306 70.548"/>
  <polygon class="cls-12" points="38.263 53 38.263 69.533 40.263 71.417 40.263 70 40.263 53 38.263 53"/>
  <polygon class="cls-13" points="41.306 47.548 41.306 29.086 40.22 28 40.22 48 41.306 47.548"/>
  <path class="cls-14" d="M.2634,22c-2.23607,0,10.5,3,10.5,3l33.5,6a21.42218,21.42218,0,0,0,6-1l23-11s-4,0-6-1-16-16-16-18c0,0-17,6-26,3C19.2634,11,12.2634,22,.2634,22Z"/>
  <path class="cls-15" d="M25.2634,4S41.347,30.81813,45.80522,30.90906,2.2634,25,.2634,22C10.2634,21,15.2634,16,25.2634,4Z"/>
  <polygon class="cls-16" points="10.263 25 10.263 41.533 12.263 43.417 12.263 42 12.263 25 10.263 25"/>
  <polygon class="cls-17" points="38.263 30 38.263 46.533 40.263 48.417 40.263 47 40.263 30 38.263 30"/>
  <polygon class="cls-18" points="61.263 37 61.263 53 40.263 64 40.263 47 61.263 37"/>
  <polygon class="cls-19" points="40.263 47 40.263 64 10.263 56 10.263 40 40.263 47"/>
  <polygon class="cls-20" points="42.45 59 59.35 51.156 59.163 42.181 42.263 50.024 42.45 59"/>
  <polygon class="cls-21" points="36.263 60 14.263 54 14.45 45.024 36.45 51.024 36.263 60"/>
  <path class="cls-22" d="M67.2634,55c0,4.97056-2.02944,9-7,9s-7-3.02944-7-8,2.02944-10,7-10S67.2634,50.02944,67.2634,55Z"/>
  <path class="cls-23" d="M67.2634,55c0,4.97056-3.134,9-7,9s-6-4.02944-6-9,2.134-9,6-9S67.2634,50.02944,67.2634,55Z"/>
  <path class="cls-24" d="M60.2634,60c-1.41455,0-2-1-2-4,0-1.29687.36719-5,2-5,.59863,0,2,1,2,5S60.862,60,60.2634,60Z"/>
  <ellipse class="cls-25" cx="60.2634" cy="55.5" rx="1" ry="1.5"/>
</svg>
