<svg xmlns="http://www.w3.org/2000/svg" xmlns:xlink="http://www.w3.org/1999/xlink" viewBox="0 0 19.45905 67.35443">
  <defs>
    <style>
      .cls-1 {
        opacity: 0.39;
      }

      .cls-2 {
        fill: url(#linear-gradient);
      }

      .cls-3 {
        fill: #ff9372;
      }

      .cls-4 {
        fill: #913214;
      }

      .cls-5 {
        fill: #c11616;
      }

      .cls-6 {
        fill: #393218;
      }

      .cls-7 {
        fill: none;
      }
    </style>
    <linearGradient id="linear-gradient" x1="9.58418" y1="8.81903" x2="9.58418" y2="67.35237" gradientTransform="translate(-0.65895 0.19412) rotate(-1.12185)" gradientUnits="userSpaceOnUse">
      <stop offset="0.03715" stop-color="#fe0000"/>
      <stop offset="0.37297" stop-color="#f70606" stop-opacity="0.99557"/>
      <stop offset="0.88282" stop-color="#e51616" stop-opacity="0.98339"/>
      <stop offset="1" stop-color="#e01b1b" stop-opacity="0.98"/>
    </linearGradient>
  </defs>
  <title>civilian</title>
  <g id="charactr_1" data-name="charactr 1">
    <g>
      <path id="body" class="cls-2" d="M19.27669,31.46126a17.01461,17.01461,0,0,0-1.23838-3.27107l-.79658-1.73406a5.035,5.035,0,0,1-.43671-2.619,6.22785,6.22785,0,0,1,.29891-1.76841,2.10218,2.10218,0,0,1,1.184-1.28c.138-.04893.29922-.09126.36512-.222a.48767.48767,0,0,0,.0313-.24038Q18.584,17.77911,18.34359,15.24a5.16384,5.16384,0,0,0-.214-1.20413A5.3121,5.3121,0,0,0,17.515,12.898c-.763-1.17295-1.72051-2.536-2.48352-3.709a9.04577,9.04577,0,0,1-1.22635-.4525l-.00544-.00488c-.8899,1.1203-1.54484,3.47446-3.16133,3.81283l-.159-.86131a1.63661,1.63661,0,0,0-1.12771.94869c-.26126.5299-.42138,1.10742-.71186,1.62185-.18322.32445-.41542.61852-.61216.935a5.02088,5.02088,0,0,0-.66695,3.52206c-1.96526,1.73372-4.04874,3.56093-4.70291,6.09866a13.21713,13.21713,0,0,0-.31139,2.68919q-.20466,4.369-.4093,8.738a6.3391,6.3391,0,0,0,.04419,1.46,3.146,3.146,0,0,1,.10383.70439,2.22665,2.22665,0,0,1-.49027,1.09577C.44015,41.20485-.48239,43.36911.27672,45.286c.38738.97814,1.17359,1.76451,1.52047,2.75774a10.57155,10.57155,0,0,1,.31858,1.44658A19.37305,19.37305,0,0,0,5.068,55.79871a.6.6,0,0,0,.26765.27239c.28106.1044.52881-.24758.54112-.54716a2.2143,2.2143,0,0,1,.04893-.88851q.12713,2.79186.25424,5.58375a5.1815,5.1815,0,0,1-.165,1.97627c-.55725,1.56814-4.08181,3.39577-5.68937,3.82631,7.03782,1.86257,13.03667,1.74509,16.32683-.179a10.83776,10.83776,0,0,1-1.6998-4.67824c-.618-4.26786,1.74821-8.38284.84779-12.60017a9.54332,9.54332,0,0,0,.66136-5.9201l-.5225-1.83982a1.91658,1.91658,0,0,1-.06893-1.23311,3.511,3.511,0,0,1,.42345-.62664,2.10024,2.10024,0,0,0,.23821-1.89112,3.467,3.467,0,0,0,2.57129-2.14844A5.70978,5.70978,0,0,0,19.27669,31.46126Z"/>
      <path class="cls-3" d="M6.55406,2.51438a1.39558,1.39558,0,0,0,.06313.14394,2.13928,2.13928,0,0,0-.73235,1.84974c.02625.69085.23121,1.36317.29305,2.05175a4.98953,4.98953,0,0,1-.19848,1.90283,1.13285,1.13285,0,0,1,1.09878.21512,3.1365,3.1365,0,0,1,.27017.62167A1.2572,1.2572,0,0,0,8.496,9.91035a3.69942,3.69942,0,0,0,1.31867-.3417,11.22462,11.22462,0,0,1,.82922,3.25752c1.61649-.33837,2.26591-2.97417,3.15581-4.09446a1.55173,1.55173,0,0,1-.384-1.76833C13.69047,3.5203,8.77055,3.786,6.55406,2.51438Z"/>
      <path class="cls-4" d="M16.84758.00055c-.66927-.02228-1.12028.64008-1.63384,1.06983a.52058.52058,0,0,1-.31656.15041c-.18493.0002-.31728-.16824-.46323-.2818s-.41321-.14408-.47078.03166c-.02562.07816.00617.16684-.02123.2444-.07655.21668-.3999.0771-.57714-.06916A4.04684,4.04684,0,0,0,10.46652.44715c-1.016.07639-2.01822.32725-3.03713.325A.86165.86165,0,0,0,7.02851.831a.66537.66537,0,0,0-.263.29953,1.57815,1.57815,0,0,0-.21145,1.38387c1.6438,2.71418,6.497,2.64239,6.86166,4.449a2.21507,2.21507,0,0,1,.07773-.21077c.29394-.66472.80978-1.21241,1.10334-1.8773.41268.188.80843-.354.80347-.80745a4.01327,4.01327,0,0,1-.04809-1.34777L15.6747,2.64a1.10844,1.10844,0,0,0,1.48918.33712,1.74075,1.74075,0,0,0,.77873-1.435C17.97747.8403,17.54979.02392,16.84758.00055Z"/>
      <path class="cls-5" d="M7.71861,19.23027A7.26181,7.26181,0,0,0,5.94,22.85439a18.08874,18.08874,0,0,0-.24264,4.07571c.28114.0816.438-.04016.58192-.2951.60848-1.07823.87168-2.31594,1.39349-3.43869a5.77133,5.77133,0,0,0,.79272-2.19283A9.896,9.896,0,0,1,6.381,23.4618a6.39213,6.39213,0,0,1,.2749-2.02451A10.1125,10.1125,0,0,1,7.71861,19.23027Z"/>
      <path class="cls-3" d="M9.98561,17.66389c.1918-.00969.38491.00724.57563-.01533a1.40565,1.40565,0,0,0,.69655-.28693.94646.94646,0,0,1,.10057.45061.325.325,0,0,1-.29576.30455.49868.49868,0,0,1,.13826.5197.58669.58669,0,0,1,.43125.32336.369.369,0,0,1-.17237.47392.37742.37742,0,0,1-.28976.592c-.0498.23343.0848.52109-.08147.69233a.51873.51873,0,0,1-.263.11763l-1.12585.26546a.73969.73969,0,0,1-.38168.02147c-.15232-.04641-.25992-.18587-.408-.2443a.58344.58344,0,0,0-.60625.17822,2.02589,2.02589,0,0,0-.33771.57512A7.36385,7.36385,0,0,1,6.65055,23.572c-.085.09016-.19577.18581-.31679.15922-.1636-.03594-.19826-.25156-.1914-.41892A7.032,7.032,0,0,1,7.218,19.86264a14.5564,14.5564,0,0,1,1.16788-1.30253A2.19977,2.19977,0,0,1,9.98561,17.66389Z"/>
      <path class="cls-5" d="M14.06256,19.53062a9.297,9.297,0,0,0,.9217.66235,2.59952,2.59952,0,0,0,.6865.33162c.71729.19619,1.49561-.152,2.2176.02617.207.05106.438.20352.40828.41462a14.12657,14.12657,0,0,1-2.534-.10979,3.66284,3.66284,0,0,1-1.08045-.3264A10.50154,10.50154,0,0,1,13.318,19.50665a1.93947,1.93947,0,0,0-1.5869-.4529,2.70682,2.70682,0,0,1,2.14121.33717A1.054,1.054,0,0,1,14.06256,19.53062Z"/>
      <path class="cls-5" d="M15.09482,25.89616c.034.10325.10392.21655.21259.219.11665.00259.19048-.12169.233-.23037a13.3381,13.3381,0,0,0,.443-3.22491,2.22057,2.22057,0,0,1,1.06338-1.8629,2.77452,2.77452,0,0,1-2.03172-.28173,28.7063,28.7063,0,0,1,.09438,2.88416A8.1049,8.1049,0,0,0,15.09482,25.89616Z"/>
      <path class="cls-5" d="M17.14149,16.88481,16.94126,18.658a1.20287,1.20287,0,0,1-.25642.73689c-.24336-1.273.29494-2.57378.21185-3.86719a8.12007,8.12007,0,0,0-1.05709-3.05622l-.81561-1.617a17.21146,17.21146,0,0,1,1.62954,2.5399,5.666,5.666,0,0,1,.54271,2.912C17.17491,16.4968,17.2707,16.74326,17.14149,16.88481Z"/>
      <path class="cls-5" d="M8.33567,25.6658c.5735-.935,1.32461-1.74627,1.97827-2.62707A6.3063,6.3063,0,0,0,11.66147,20.079c.13088.18127.00029.43-.12867.61265L9.43513,23.66249a5.9296,5.9296,0,0,0-1.38006,2.52824C8.15317,26.0285,8.23165,25.83538,8.33567,25.6658Z"/>
      <path class="cls-5" d="M7.21929,25.59774a5.40834,5.40834,0,0,1,.6546-.85005,2.01964,2.01964,0,0,1,.44186-.41014,2.01887,2.01887,0,0,1,.9125-.2169,1.15068,1.15068,0,0,0,.47012-.10334.39164.39164,0,0,0,.21969-.39589.42883.42883,0,0,0-.38008-.29273c-.16889-.02375-.34064.00867-.511.0008a2.16408,2.16408,0,0,0-.4974-.02287.94662.94662,0,0,0-.32444.14614,3.62634,3.62634,0,0,0-1.72223,3.3255C6.84894,26.68,7.0386,25.91073,7.21929,25.59774Z"/>
      <path class="cls-3" d="M6.28913,29.66l-1.23782.76139a3.67125,3.67125,0,0,1-.67908.355,2.8134,2.8134,0,0,1-.90543.136c-.09859.00141-.21517-.0093-.26543-.09413-.07163-.12088.0331-.32776-.09214-.39146a.28606.28606,0,0,0-.13771-.01118c-.21151.005-.451-.31431-.44584-.52581-.24816.07441-.49286.107-.6529-.09672a.66636.66636,0,0,1-.04949-.73c.06105-.1041.404-.17371.39869-.29427A7.8281,7.8281,0,0,1,.77,28.60867c-.1865-.042-.41281-.14917-.39895-.33985.01561-.21461.30389-.2667.519-.26255a14.38827,14.38827,0,0,0,2.48633-.16809,8.02378,8.02378,0,0,1,1.08-.132c.62-.01143,1.63285-.08867,2.24969-.15216a7.71823,7.71823,0,0,1,1.6045-.12876c-.04429.4162.05055,1.29016-.36312,1.53756a5.07717,5.07717,0,0,1-.76825.22A6.06738,6.06738,0,0,0,6.28913,29.66Z"/>
      <path class="cls-5" d="M7.929,26.81586a2.0816,2.0816,0,0,1,.34024,1.61572q-.07193,1.11586-.10708,2.23369a11.95823,11.95823,0,0,0,.62344,5.01691c.7337,1.75121,2.224,3.17329,2.61256,5.03181a4.0095,4.0095,0,0,1,.93495-3.09556c.64033-.82024,1.57685-1.37384,2.19967-2.20745.74775-1.00081.96785-2.29809,1.57639-3.38916a4.83808,4.83808,0,0,0,.85941-1.875,4.02888,4.02888,0,0,0-.11653-1.0152c-.49856-2.72757.24236-5.52642.134-8.29707a28.94712,28.94712,0,0,0-.803,8.5017,4.92182,4.92182,0,0,1-.33513,2.1543c-.44344.91266-.97783,1.654-1.47246,2.54a6.26156,6.26156,0,0,1-1.194,1.67451,6.25252,6.25252,0,0,1-1.27069.81262,2.60145,2.60145,0,0,1-.62.26327,1.699,1.699,0,0,1-1.61909-.63949,3.78724,3.78724,0,0,1-.7073-1.67078A37.29,37.29,0,0,1,8.61124,28.572C8.57342,27.81214,8.58864,27.195,7.929,26.81586Z"/>
      <path class="cls-5" d="M14.97687,34.70723a3.48,3.48,0,0,1-.66594-1.44668.81488.81488,0,0,1,.2271-.745.92405.92405,0,0,1,.40064-.15712,4.0902,4.0902,0,0,1,3.28162.77919,2.73032,2.73032,0,0,0-1.917-.50817,1.89821,1.89821,0,0,0,1.2986,1.29017A2.38011,2.38011,0,0,1,16.94,35.44368c-.34692.4683-.36143,1.06524-.94622.77735C15.62566,36.03978,15.21054,35.0592,14.97687,34.70723Z"/>
      <path class="cls-5" d="M6.75973,29.83417l-.20395,2.9243a19.68464,19.68464,0,0,0,.04655,4.68145c.181,1.05935.53481,2.08423.69881,3.14634a17.9224,17.9224,0,0,1,.10609,3.22438l-.258,9.46891a72.135,72.135,0,0,1-.21134-13.37609q-.85522,2.85-1.53278,5.7493c-.31635,1.35381-.668,2.823-1.75008,3.696.75452-3.676,2.69737-7.26134,2.099-10.966-1.31538.56556-.91864,2.68561-1.93946,3.68961q.61522-4.09949,1.60252-8.13143a6.54981,6.54981,0,0,0-1.48824,1.94134A6.10431,6.10431,0,0,1,2.367,37.21662c.7189-1.263,1.48514-2.5018,2.22908-3.75056l1.12887-1.89491C5.97175,31.15686,6.727,30.30323,6.75973,29.83417Z"/>
      <path class="cls-5" d="M4.15086,39.64881a19.15728,19.15728,0,0,1,.1825,3.912,6.641,6.641,0,0,1-.0882,1.09056c-.07221.37565-.50352,2.15314-.93614,2.13785-.6977-.02467-.506-1.68178-.4876-2.04314a13.03671,13.03671,0,0,1,.41325-2.658C3.37875,41.54141,4.2369,40.13215,4.15086,39.64881Z"/>
      <path class="cls-5" d="M5.13386,64.367c1.4748-1.951,1.87535-4.49117,2.11939-6.92469a81.54012,81.54012,0,0,0,.0949-15.2511,1.95956,1.95956,0,0,1,.04576-.835.65935.65935,0,0,1,.627-.46916Q8.113,42.056,8.09965,43.23c-.07639,6.69144-.08407,13.2067-1.26809,19.793a2.23221,2.23221,0,0,1-.47693,1.20655C6.04746,64.54369,5.37591,64.73373,5.13386,64.367Z"/>
      <path class="cls-5" d="M8.42623,55.17563a55.72655,55.72655,0,0,1,.70458-8.45775,4.71714,4.71714,0,0,1,.90474-2.441.87086.87086,0,0,0,.23307-.34842.699.699,0,0,0-.18522-.54483c-.92717-1.26221-1.19973-.69141-1.24723.60666q-.06934,1.895-.13891,3.79008C8.60706,50.24171,8.44311,52.71285,8.42623,55.17563Z"/>
      <path class="cls-5" d="M12.29805,47.27112c.58428,6.11879,1.045,12.40821,3.65264,17.97429a40.90224,40.90224,0,0,1-.1046-16.40564,2.72394,2.72394,0,0,0,.07637-1.00649,2.08844,2.08844,0,0,0-.52616-.966A5.63057,5.63057,0,0,0,11.9832,45.076C11.807,45.66376,12.23725,46.63442,12.29805,47.27112Z"/>
      <path class="cls-5" d="M14.47033,36.80522a.44205.44205,0,0,1,.43955.19419,1.29824,1.29824,0,0,1,.18176.47274l1.08529,4.51893-.58286-2.28347c-.1678-.6574-.33128-1.72231-.92907-2.11731-.17632-.11651-.49184.146-.64676-.02379-.1955-.21426-.05538-1.05725-.031-1.33227A.524.524,0,0,1,14.47033,36.80522Z"/>
      <path class="cls-5" d="M10.86192,43.64062a10.54613,10.54613,0,0,1-2.19756-2.18695,8.60549,8.60549,0,0,1-1.02307-2.29693,20.20327,20.20327,0,0,1-.83534-7.583A15.75976,15.75976,0,0,0,6.68,37.90788,7.27138,7.27138,0,0,0,7.34836,40.007a9.11817,9.11817,0,0,0,.92259,1.33456,28.75443,28.75443,0,0,0,5.89112,6.01712c.33213.23212,1.29329,1.109,1.6051.46365.23573-.48787-.81669-.99316-1.11314-1.212C13.36333,45.65748,12.1084,44.6504,10.86192,43.64062Z"/>
      <path class="cls-5" d="M8.80067,26.35386l1.39325-1.88107c.07059-.09531.18339-.20232.28968-.14969.0792.03921.09563.14306.10123.23125.13755,2.16722-.242,4.3832.27287,6.49285a45.06872,45.06872,0,0,1,.78481-9.95008,4.25219,4.25219,0,0,1-.97666,1.7051A11.19683,11.19683,0,0,0,8.80067,26.35386Z"/>
      <path class="cls-5" d="M10.15956,13.38069c.36066,1.25389-.462,2.55647-.38537,3.859a12.76,12.76,0,0,1,1.15-3.25488c.29108-.63831.57941-1.278.84879-1.92576a2.7921,2.7921,0,0,1-.33684.83444.94514.94514,0,0,1-.74567.44529c-.50128-.00193-.01181-.94949-.51669-.91305C9.513,12.47336,10.10041,13.17505,10.15956,13.38069Z"/>
      <path class="cls-6" d="M10.07672,1.02776a3.74385,3.74385,0,0,1,1.1084.21026,10.79137,10.79137,0,0,1,1.15141.31058,6.46046,6.46046,0,0,1,1.04883.45224,6.26458,6.26458,0,0,0,.74369.46574C13.62828,1.12032,11.25306.84019,10.07672,1.02776Z"/>
      <path class="cls-6" d="M13.42964,4.5457a3.08515,3.08515,0,0,1-.78309.71321,1.05842,1.05842,0,0,0,.65058-.37434l.49129-.47327a1.81478,1.81478,0,0,0,.27169-.30425,1.38965,1.38965,0,0,0,.15636-.97233A4.35887,4.35887,0,0,1,13.42964,4.5457Z"/>
      <path class="cls-6" d="M13.63867,3.03287a2.511,2.511,0,0,1-.46395.42335,2.512,2.512,0,0,1-.64379.262l-.40059.12122a1.70305,1.70305,0,0,0,.891-.1868,1.70823,1.70823,0,0,0,1.03178-.78707,2.94306,2.94306,0,0,0,.12427-.38951A4.1741,4.1741,0,0,0,13.63867,3.03287Z"/>
      <path class="cls-6" d="M14.34427,4.16208a3.01449,3.01449,0,0,1-.32575.79675,1.24506,1.24506,0,0,1-.20318.28909,1.14145,1.14145,0,0,1-.88569.23375,1.68469,1.68469,0,0,0,.646-.45963,3.12744,3.12744,0,0,0,.74665-1.56974c.08454.25249.0955,1.44228.263,1.502a1.08476,1.08476,0,0,0-.15428-1.08391"/>
      <path class="cls-6" d="M17.26661.54688a.5234.5234,0,0,1,.20475.03528.598.598,0,0,1,.26971.47876,1.47877,1.47877,0,0,1-.19573,1.22585.6807.6807,0,0,1-.48271.24548.49723.49723,0,0,1-.458-.26121.39374.39374,0,0,1,.12793-.49246.25057.25057,0,0,0-.0229.34284.35608.35608,0,0,0,.34788.10575.63279.63279,0,0,0,.31945-.19956A.8889.8889,0,0,0,17.62242,1.34.675.675,0,0,0,17.1867.77595a.85594.85594,0,0,0-.3869-.02081,1.62854,1.62854,0,0,0-.8975.45648A1.66092,1.66092,0,0,1,17.26661.54688Z"/>
      <path class="cls-6" d="M16.27106.33323a1.21229,1.21229,0,0,1,.73763-.2129,2.33473,2.33473,0,0,1-1.08223.49886A1.62985,1.62985,0,0,1,16.27106.33323Z"/>
      <path class="cls-6" d="M16.64028,6.2051A9.35423,9.35423,0,0,1,15.3286,8.02828a31.69816,31.69816,0,0,1-2.49905,2.56509c-.94869.86956-2.0176,1.79891-2.19773,3.07315.67612-1.702,2.21319-2.87858,3.63713-4.03019C15.89284,8.323,18.46073,5.91375,17.543,3.51057,16.95812,3.98529,17.00151,5.50229,16.64028,6.2051Z"/>
      <path class="cls-7" d="M17.84846,2.74984c-.23565.07973-.48159.28731-.4247.52949a.38807.38807,0,0,0,.27825.26634.50059.50059,0,0,0,.48775-.12888.47266.47266,0,0,0,.09849-.49154.47156.47156,0,0,0-.73181-.15172"/>
      <path class="cls-4" d="M6.46077,6.27857a.56518.56518,0,0,0,.38307.04686l.106-.093a.55073.55073,0,0,0,.15.52083A.99439.99439,0,0,1,7.51508,5.896C7.14026,5.82355,6.84252,6.27591,6.46077,6.27857Z"/>
      <path class="cls-4" d="M7.16784,5.33594a1.4941,1.4941,0,0,1-.91249.28121c-.08617-.00251-.19095-.00352-.23545.07032a.14953.14953,0,0,0,.049.186.3282.3282,0,0,0,.19982.05357,1.37591,1.37591,0,0,0,.89737-.42019c.08371-.07651.19377-.16406.29757-.11836C7.38021,5.33076,7.25,5.27639,7.16784,5.33594Z"/>
      <path class="cls-4" d="M6.56029,8.25333a.30331.30331,0,0,1,.20422-.19076c.09213-.03032.14312-.01943.09842.04059s-.08441.1354-.15718.15284A.31031.31031,0,0,1,6.56029,8.25333Z"/>
      <path class="cls-4" d="M10.34638,6.27132a.48575.48575,0,0,1-.32262.20566.67747.67747,0,0,1-.33482-.12417c-.08469-.04534-.20156-.09572-.28731-.042a.97224.97224,0,0,1,.16937.23747A.42571.42571,0,0,0,9.939,6.7045a.82738.82738,0,0,0,.68947-.52062,1.55825,1.55825,0,0,0,.0593-.89639A1.30477,1.30477,0,0,1,10.34638,6.27132Z"/>
      <path class="cls-4" d="M10.08348,5.39287A2.58868,2.58868,0,0,0,9.8154,5.2573a.34192.34192,0,0,1-.0336.30809.293.293,0,0,1-.32335.09531.107.107,0,0,0,.03547.12793.297.297,0,0,0,.1335.05047.47166.47166,0,0,0,.31637-.01627.47761.47761,0,0,0,.18921-.29154.09178.09178,0,0,0-.04952-.13842Z"/>
      <path class="cls-6" d="M9.68073,10.2731l.01361-.044c.05175-.15442.18159-.28539.0058-.4313a3.048,3.048,0,0,0-.33041,1.054,13.0428,13.0428,0,0,0,.07935,6.47967,13.20544,13.20544,0,0,1-.1832-3.6781c.04589-.62887.12026-1.25531.206-1.87987.04159-.30281.089-.60477.13157-.90743A4.30238,4.30238,0,0,1,9.68073,10.2731Z"/>
      <path class="cls-4" d="M6.92275,20.43108a3.02811,3.02811,0,0,0-.082,1.46378,1.164,1.164,0,0,0,.33764.68533c.06291.0535.13707.00175.21951-.003a.24525.24525,0,0,1-.031.20069,1.08,1.08,0,0,1-.1322.16221c-.135.15241-.23718.33133-.37.48568a.78783.78783,0,0,1-.51183.30334.17346.17346,0,0,1-.14989-.04568.20588.20588,0,0,1-.03314-.12169l-.03349-.59237A3.42724,3.42724,0,0,1,6.371,21.5931C6.53518,21.18371,6.76468,20.84287,6.92275,20.43108Z"/>
      <path class="cls-4" d="M10.43708,18.863a2.90655,2.90655,0,0,1,.82978-.15632c.03986-.0016-.08117-.13056-.10447-.13957-.06027-.02332-.17849.02267-.2374.03933A1.32687,1.32687,0,0,0,10.43708,18.863Z"/>
      <path class="cls-4" d="M10.75626,19.44362a.995.995,0,0,0,.59187.0342C11.18161,19.28692,10.93166,19.52706,10.75626,19.44362Z"/>
      <path class="cls-4" d="M11.17139,19.98182l-.383.0106a.587.587,0,0,0,.437.11129.11865.11865,0,0,0-.12408-.13123"/>
      <path class="cls-4" d="M8.09588,21.34891a.92992.92992,0,0,1,.39968-.49158.80133.80133,0,0,1,.20751-.04886.51257.51257,0,0,1,.243.0081,1.18143,1.18143,0,0,1,.22181.14844A.707.707,0,0,0,9.43,21.06a2.4832,2.4832,0,0,0,1.33216-.26545.86483.86483,0,0,0,.25124-.13512.29294.29294,0,0,0,.11035-.25173.19476.19476,0,0,1-.00451.23329.52054.52054,0,0,1-.19922.14948,3.19473,3.19473,0,0,1-1.3945.36781.84644.84644,0,0,1-.36124-.05642,1.79657,1.79657,0,0,0-.37234-.19636.42557.42557,0,0,0-.34214.1068,1.09646,1.09646,0,0,0-.22521.29178,8.01858,8.01858,0,0,1-.72085,1.17645.55623.55623,0,0,1-.14263.12873c-.03383-.12146.29037-.47555.36171-.59059Q7.92489,21.69274,8.09588,21.34891Z"/>
      <path class="cls-4" d="M11.34,19.95352a.37445.37445,0,0,0,.154-.11258.29887.29887,0,0,0,.03008-.15146l.00222-.10711a.22009.22009,0,0,1-.04781.22266.43193.43193,0,0,1-.128.08122l-.07843.03765c-.02645.0127-.1248.06373-.09094.10551C11.20454,20.05826,11.32207,19.96335,11.34,19.95352Z"/>
      <path class="cls-4" d="M11.10472,20.24515a.32451.32451,0,0,1,.01231-.125.11047.11047,0,0,1,.09187-.076,2.85438,2.85438,0,0,0-.003.347c.00278.05317-.0056.25009-.08238.15181C11.07882,20.48564,11.10691,20.31347,11.10472,20.24515Z"/>
      <path class="cls-4" d="M11.50878,19.5843a.16183.16183,0,0,0-.07168-.12078.37514.37514,0,0,0,.05791-.57289c-.077-.0787-.186-.12129-.2584-.20424a.59948.59948,0,0,0,.22166.10061.35849.35849,0,0,1,.12793.56756c-.03052.03446-.07.06783-.07306.11376-.00285.04291.02781.08063.036.12284.00761.03906-.00035.08157-.03967.08761A.594.594,0,0,0,11.50878,19.5843Z"/>
      <path class="cls-4" d="M11.18616,18.36841a.39638.39638,0,0,0-.20174-.20624.21592.21592,0,0,1,.18887.01421.2876.2876,0,0,1,.12239.14853.21418.21418,0,0,1-.03109.22609.17645.17645,0,0,1-.12681.04979A.28176.28176,0,0,0,11.18616,18.36841Z"/>
      <path class="cls-4" d="M10.61967,18.011a.76409.76409,0,0,0-.46433-.00608c-.0795.02742-.15188.07193-.229.10555a.89749.89749,0,0,1-.4133.07273.48579.48579,0,0,0,.35433-.00211c.115-.03766.223-.0955.33982-.12734a.80437.80437,0,0,1,.39209-.00733,1.56788,1.56788,0,0,0,.163.03784,1.01711,1.01711,0,0,1,.19581.01622C10.88409,18.14857,10.69754,18.03433,10.61967,18.011Z"/>
      <path class="cls-4" d="M10.93253,18.10693a.35029.35029,0,0,0,.32111-.24237.81509.81509,0,0,0,.01166-.4252.7018.7018,0,0,1,.07485.218.7142.7142,0,0,1,.02047.20038.28575.28575,0,0,1-.07651.18243.43735.43735,0,0,1-.1849.09159C11.04377,18.12476,10.9765,18.14141,10.93253,18.10693Z"/>
      <path class="cls-4" d="M8.186,28.02264a1.49992,1.49992,0,0,1-.01559.25167.9834.9834,0,0,1-.597.74145,2.267,2.267,0,0,0,.43677-.00879.25748.25748,0,0,0,.20081-.07978.25277.25277,0,0,0,.03131-.13344q.02983-.66347.01244-1.32794a.14131.14131,0,0,0-.01222-.06513.11706.11706,0,0,0-.1423-.03433c-.07122.04542-.02013.09518.00258.15933A1.483,1.483,0,0,1,8.186,28.02264Z"/>
      <path class="cls-4" d="M4.3279,30.77075a2.69892,2.69892,0,0,0,.77539-.38927l1.1653-.75212a4.4672,4.4672,0,0,1,.6147-.35213,4.47107,4.47107,0,0,1,1.01277-.26666,1.71079,1.71079,0,0,0-.96371.11905,5.01636,5.01636,0,0,0-.85765.48075,6.97729,6.97729,0,0,1-1.82364.94949c-.11518.03322-.86614.04445-.86391.15834C3.39265,30.99983,4.20724,30.80146,4.3279,30.77075Z"/>
      <path class="cls-4" d="M3.26158,30.39314a.22745.22745,0,0,0,.02617.28613.41056.41056,0,0,0,.29378.08187q.11782-.00068.23524-.01238a.02366.02366,0,0,1-.01811.03061,3.34835,3.34835,0,0,1-.4897.09278.15663.15663,0,0,1-.07267-.01461c-.04683-.02627-.05622-.08846-.06036-.142l-.00952-.12307a.27218.27218,0,0,1,.01779-.15311C3.21,30.39255,3.214,30.41749,3.26158,30.39314Z"/>
      <path class="cls-4" d="M3.99491,30.17231A6.20618,6.20618,0,0,0,5.29317,29.577l.25839-.14349a4.95525,4.95525,0,0,1-.93983.59332,2.94515,2.94515,0,0,1-1.06964.28566A3.78557,3.78557,0,0,1,3.99491,30.17231Z"/>
      <path class="cls-4" d="M2.91524,30.42227a.12266.12266,0,0,1-.05252-.00725.12615.12615,0,0,1-.03189-.0224.77958.77958,0,0,1-.25908-.54714.57229.57229,0,0,0,.22429.41839.27817.27817,0,0,0,.075.05141.417.417,0,0,0,.17337.01137c.0758-.00224.19807.0311.17531.12987A.86085.86085,0,0,0,2.91524,30.42227Z"/>
      <path class="cls-4" d="M2.9229,29.70977a1.05177,1.05177,0,0,0-.33013.18109.40082.40082,0,0,1-.09678.06658.33694.33694,0,0,1-.1217.0173l-.18687.00346a.46839.46839,0,0,1-.11542-.00741.52993.52993,0,0,1-.35145-.4645c.118.14131.17186.26847.37761.30125A2.349,2.349,0,0,0,2.9229,29.70977Z"/>
    </g>
    <path class="cls-4" d="M11.45678,7.29676a9.287,9.287,0,0,1,.47947,2.04545A3.88985,3.88985,0,0,0,11.40407,6.528,12.59229,12.59229,0,0,0,8.70218,4.0408,3.61616,3.61616,0,0,1,7.14376.89817a1.24209,1.24209,0,0,0-.94967,1.0976,2.02857,2.02857,0,0,0,.47763,1.44131A5.91925,5.91925,0,0,0,7.82807,4.47343a10.65675,10.65675,0,0,0,1.18851.80567c.819.45474,1.83307.77285,2.22314,1.62459C11.34317,7.12958,11.37305,7.06284,11.45678,7.29676Z"/>
    <path class="cls-5" d="M2.97027,23.48213a.4838.4838,0,0,0-.14844-.22491,2.33294,2.33294,0,0,1-1.70178.798H.925a3.82393,3.82393,0,0,1-1.13965.0863,13.959,13.959,0,0,0,1.29407,3.60675c.2182.11072-.0932.06653.09619.22156.07959.06519,3.3595-.2049,3.3595-.2049Q3.75268,25.62349,2.97027,23.48213Z"/>
    <path d="M1.06377,65.46919c3.468-.86725,5.20239-2.80926,5.15643-6.44683-.00721-.571.2038-3.0657-.12431-3.44262q-1.14255.27241-1.3488-.63494-.17958-.40921-.37173-.81267c-.24784-.54159-.50331-1.07978-.74682-1.62336C2.776,50.60565,2.5758,47.96967,1.27569,46.31123c-.065-.08287-.21128.02837-.14724.11361,1.04146,1.38631,1.107,3.3371,1.76612,4.93576.42289,1.02566,1.22555,3.93244,2.0906,4.45806.9169.55712,1.13878-.214,1.18948-1.093.00709-.12287-.17734-.11914-.18909,0-.18852,1.91276.18057,3.82018-.04241,5.724-.34549,2.94981-2.307,4.11844-4.9204,4.87066a.07721.07721,0,0,0,.041.14879Z"/>
    <path d="M1.30635,46.29652c-2.18995-2.88175.24746-5.89176.73216-8.85482a44.86387,44.86387,0,0,0,.19389-7.41387.10065.10065,0,0,0-.20117,0c-.05909,3.70721.07431,7.039-1.15651,10.59424-.70181,2.02718-1.13492,3.99685.34268,5.7431.041.04847.128-.01723.089-.06864Z"/>
    <path d="M1.47033,27.813a14.6717,14.6717,0,0,1-1.355-3.38065.12511.12511,0,0,0-.24107.06646,14.93742,14.93742,0,0,0,1.3802,3.44037c.078.14076.294.01481.21587-.12618Z"/>
    <path d="M3.59432,22.98384c2.95245-2.04193,3.43681-5.39986,4.95259-8.4297.07178-.14348-.1438-.27024-.21587-.12618-1.48094,2.9602-1.96823,6.338-4.8629,8.34-.13145.09091-.00659.30769.12618.21587Z"/>
    <path d="M-.07894,24.28294a6.9945,6.9945,0,0,0,1.42157-.14927A12.46538,12.46538,0,0,0,2.782,23.56946c.09528-.04.05524-.19775-.04361-.1582A5.01742,5.01742,0,0,1-.046,24.03932c-.18668-.03113-.20473.25592-.033.24362Z"/>
  </g>
</svg>
