<svg xmlns="http://www.w3.org/2000/svg" xmlns:xlink="http://www.w3.org/1999/xlink" viewBox="0 0 512 180">
  <defs>
    <style>
      .cls-1 {
        opacity: 0.39;
      }

      .cls-2 {
        fill: url(#linear-gradient);
      }

      .cls-3 {
        fill: url(#linear-gradient-2);
      }

      .cls-4 {
        fill: url(#linear-gradient-3);
      }

      .cls-5 {
        fill: url(#linear-gradient-4);
      }

      .cls-10, .cls-11, .cls-12, .cls-13, .cls-14, .cls-15, .cls-6, .cls-7, .cls-8, .cls-9 {
        stroke: #000;
        stroke-miterlimit: 10;
      }

      .cls-10, .cls-11, .cls-6, .cls-7 {
        stroke-width: 0.75px;
      }

      .cls-6 {
        fill: url(#linear-gradient-5);
      }

      .cls-7 {
        fill: url(#linear-gradient-6);
      }

      .cls-8 {
        stroke-width: 0.8239px;
        fill: url(#linear-gradient-7);
      }

      .cls-9 {
        stroke-width: 0.8239px;
        fill: url(#linear-gradient-8);
      }

      .cls-10 {
        fill: url(#linear-gradient-9);
      }

      .cls-11 {
        fill: url(#linear-gradient-10);
      }

      .cls-12, .cls-13, .cls-14, .cls-15 {
        stroke-width: 0.76709px;
      }

      .cls-12 {
        fill: url(#linear-gradient-11);
      }

      .cls-13 {
        fill: url(#linear-gradient-12);
      }

      .cls-14 {
        fill: url(#linear-gradient-13);
      }

      .cls-15 {
        fill: url(#linear-gradient-14);
      }

      .cls-16 {
        font-size: 14px;
        font-family: Ming, Ming;
      }

      .cls-17 {
        letter-spacing: -0.05099em;
      }

      .cls-18 {
        letter-spacing: -0.012em;
      }

      .cls-19 {
        letter-spacing: 0.003em;
      }

      .cls-20 {
        letter-spacing: -0.03599em;
      }

      .cls-21 {
        letter-spacing: -0.00997em;
      }

      .cls-22 {
        letter-spacing: -0.00202em;
      }

      .cls-23 {
        letter-spacing: 0.00698em;
      }

      .cls-24 {
        letter-spacing: -0.00105em;
      }

      .cls-25 {
        letter-spacing: -0.03195em;
      }

      .cls-26 {
        letter-spacing: 0.00293em;
      }

      .cls-27 {
        letter-spacing: -0.01395em;
      }

      .cls-28 {
        letter-spacing: -0.01402em;
      }

      .cls-29 {
        letter-spacing: -0.00293em;
      }

      .cls-30 {
        letter-spacing: -0.00502em;
      }

      .cls-31 {
        letter-spacing: -0.04994em;
      }

      .cls-32 {
        letter-spacing: -0.00098em;
      }

      .cls-33 {
        letter-spacing: -0.03202em;
      }

      .cls-34 {
        letter-spacing: -0.02002em;
      }

      .cls-35 {
        letter-spacing: -0.00893em;
      }

      .cls-36 {
        letter-spacing: 0.02504em;
      }

      .cls-37 {
        letter-spacing: -0.00705em;
      }

      .cls-38 {
        letter-spacing: 0.00502em;
      }

      .cls-39 {
        letter-spacing: -0.01193em;
      }

      .cls-40 {
        letter-spacing: -0.01004em;
      }

      .cls-41 {
        letter-spacing: -0.02302em;
      }

      .cls-42 {
        letter-spacing: 0.00007em;
      }

      .cls-43 {
        letter-spacing: -0.00698em;
      }

      .cls-44 {
        letter-spacing: 0.00495em;
      }

      .cls-45 {
        letter-spacing: -0.01095em;
      }

      .cls-46 {
        letter-spacing: 0.00997em;
      }
    </style>
    <linearGradient id="linear-gradient" x1="256.5" y1="180" x2="256.5" gradientUnits="userSpaceOnUse">
      <stop offset="0.03715" stop-color="#c11616"/>
      <stop offset="0.06447" stop-color="#c31515"/>
      <stop offset="0.60735" stop-color="#ee0606"/>
      <stop offset="0.88496" stop-color="#fe0000"/>
    </linearGradient>
    <linearGradient id="linear-gradient-2" x1="472.85177" y1="173.35859" x2="472.85177" y2="-7.58276" gradientUnits="userSpaceOnUse">
      <stop offset="0.03715" stop-color="#e01b1b"/>
      <stop offset="0.29591" stop-color="#ee0e0e"/>
      <stop offset="0.64891" stop-color="#fa0404"/>
      <stop offset="1" stop-color="#fe0000"/>
    </linearGradient>
    <linearGradient id="linear-gradient-3" x1="347.41173" y1="72.55904" x2="453.29301" y2="72.55904" gradientUnits="userSpaceOnUse">
      <stop offset="0.03715" stop-color="#fefee2"/>
      <stop offset="0.39151" stop-color="#fefee6"/>
      <stop offset="0.7605" stop-color="#fffff3"/>
      <stop offset="1" stop-color="#fff"/>
    </linearGradient>
    <linearGradient id="linear-gradient-4" x1="271.84874" y1="174.72069" x2="338.73236" y2="136.10541" xlink:href="#linear-gradient-3"/>
    <linearGradient id="linear-gradient-5" x1="363.27328" y1="104.34151" x2="379.61551" y2="104.34151" gradientTransform="translate(276.08459 -269.50953) rotate(60)" gradientUnits="userSpaceOnUse">
      <stop offset="0" stop-color="#fff"/>
      <stop offset="1" stop-color="#feba00"/>
    </linearGradient>
    <linearGradient id="linear-gradient-6" x1="364.27328" y1="102.34151" x2="380.61551" y2="102.34151" gradientTransform="translate(274.85254 -271.37555) rotate(60)" xlink:href="#linear-gradient-5"/>
    <linearGradient id="linear-gradient-7" x1="-22.12293" y1="1664.2901" x2="-5.78071" y2="1664.2901" gradientTransform="matrix(-0.86603, 0.60339, -0.5, -1.04511, 1177.02641, 1864.06902)" xlink:href="#linear-gradient-5"/>
    <linearGradient id="linear-gradient-8" x1="-23.74179" y1="1663.35855" x2="-7.39957" y2="1663.35855" gradientTransform="matrix(-0.86603, 0.60339, -0.5, -1.04511, 1175.26832, 1862.20352)" xlink:href="#linear-gradient-5"/>
    <linearGradient id="linear-gradient-9" x1="3046.21123" y1="1209.07291" x2="3062.55345" y2="1209.07291" gradientTransform="translate(850.15054 3381.86693) rotate(-120)" xlink:href="#linear-gradient-5"/>
    <linearGradient id="linear-gradient-10" x1="3047.21123" y1="1207.07291" x2="3063.55345" y2="1207.07291" gradientTransform="translate(850.17692 3382.10042) rotate(-120)" xlink:href="#linear-gradient-5"/>
    <linearGradient id="linear-gradient-11" x1="1234.97818" y1="-276.94101" x2="1251.32041" y2="-276.94101" gradientTransform="matrix(0.90595, -0.5, 0.52305, 0.86603, -667.73082, 1018.88436)" xlink:href="#linear-gradient-5"/>
    <linearGradient id="linear-gradient-12" x1="1235.97818" y1="-278.94101" x2="1252.32041" y2="-278.94101" gradientTransform="matrix(0.90595, -0.5, 0.52305, 0.86603, -667.82809, 1018.89261)" xlink:href="#linear-gradient-5"/>
    <linearGradient id="linear-gradient-13" x1="1242.49864" y1="-267.38" x2="1258.84087" y2="-267.38" gradientTransform="matrix(0.90595, -0.5, 0.52305, 0.86603, -667.54484, 1018.36451)" xlink:href="#linear-gradient-5"/>
    <linearGradient id="linear-gradient-14" x1="1243.49864" y1="-269.38" x2="1259.84087" y2="-269.38" gradientTransform="matrix(0.90595, -0.5, 0.52305, 0.86603, -667.64211, 1018.37276)" xlink:href="#linear-gradient-5"/>
  </defs>
  <title>coins</title>
  <g id="coins">
    <rect class="cls-2" width="513" height="180"/>
    <path class="cls-3" d="M450.11887,139.15766c1.194,2.75177,2.40935,5.49962,3.86136,8.12443a50.59019,50.59019,0,0,0,58.17943,24.15135c2.227-.63693,4.56055-1.53888,5.86-3.45632,1.51811-2.24,1.20593-5.18509,1.164-7.89076-.07936-5.12169,1.02549-10.17586,1.83906-15.23315,2.23109-13.86888,2.28707-27.984,2.33775-42.03113l.38778-107.49252c-14.1684-3.48958-28.968-3.06365-43.553-2.61643L426.05348-5.62667c-.3383,1.97361,1.52325,3.5283,2.91645,4.96656,5.09872,5.26364,5.32036,13.727,3.01095,20.68177s-6.69737,12.99824-10.02563,19.52706c1.63127.8903,3.22128-1.1352,4.31494-2.63773,3.438-4.72328,10.21259-6.4033,15.73331-4.49262s9.64869,6.9563,11.18986,12.59135a11.80623,11.80623,0,0,1,.33024,5.723,16.23835,16.23835,0,0,1-2.50888,5.06L440.44279,72.029c-2.40307,3.69063-6.53814,7.91295-6.56973,12.52389-.07956,11.61249,4.527,24.3564,8.41267,35.13593C444.65849,126.27118,447.33425,132.74019,450.11887,139.15766Z"/>
    <path class="cls-4" d="M451.3098,54.69079c3.32653-5.43743,2.32293-12.98922-1.92356-17.743a18.276,18.276,0,0,0-17.46633-5.20548c-4.10642.94758-4.52739,5.67611-7.99074,7.62236a17.58452,17.58452,0,0,1-3.26447,1.12732c-2.38113.77474-4.46,2.2666-6.7606,3.25525a34.205,34.205,0,0,1-6.0753,1.76189c-9.90687,2.22039-20.09859,4.45268-30.12969,2.88638-1.11828-.17461-2.22866-.39592-3.33865-.61717l-4.66692-.93021c-2.70716-.53959-5.41456-1.07922-8.13262-1.56088a2.88528,2.88528,0,0,0-1.34442-.02236c-1.027.31574-1.35245,1.56225-1.80324,2.53757-1.577,3.412-6.29513,5.13717-6.57567,8.88551a1.1512,1.1512,0,0,0,.08436.62086,1.26788,1.26788,0,0,0,.87214.52509A11.41572,11.41572,0,0,0,364.504,53.60494a2.10919,2.10919,0,0,1-.05368,2.54421c-.50691.76411-1.2683,1.32357-1.834,2.04523a9.26014,9.26014,0,0,0-1.35532,2.85494c-2.14825,6.46691-3.64661,13.7867-9.03673,17.95594-1.35746,1.05-2.93948,1.87245-3.96923,3.24533s-1.25253,3.58861.10517,4.6383a4.16037,4.16037,0,0,0,1.83115.68544A18.00039,18.00039,0,0,0,363.087,84.99275c3.29512-2.13992,5.91442-5.38389,9.5916-6.76787,4.0658-1.53025,8.60174-.49165,12.93187-.84151,2.9249-.23632,5.77881-1.11366,8.71108-1.22614s6.15642.73448,7.81974,3.152c1.98732,2.88839,2.38654,7.78054-.16118,10.18915a18.13036,18.13036,0,0,0-1.8916,1.73364c-.86827,1.093-1.08675,2.55834-1.73641,3.79381-.81518,1.55026-2.25585,2.65281-3.48471,3.90092a17.99763,17.99763,0,0,0-5.09774,11.62166,3.73,3.73,0,0,0,.48738,2.40539c.85155,1.16846,2.70832,1.10006,3.91356.30141a12.05317,12.05317,0,0,0,2.80084-3.27565,19.817,19.817,0,0,1,9.0248-6.91744,40.3988,40.3988,0,0,0,4.3727-1.64557c2.73511-1.41289,4.64336-3.9803,6.70116-6.27,6.14178-6.8338,14.23581-11.67975,20.415-18.47976,3.91739-4.311,6.98027-9.31429,10.01839-14.28423l4.47249-7.31638a1.17742,1.17742,0,0,0-.75677.905"/>
    <path d="M348.49631,86.46045q-1.36983-2.15733.20656-3.248l.717-.624c.82616-.73865,1.6594-1.46994,2.48993-2.20369q2.13621-1.88726,4.27857-3.76764c2.77117-2.44324,5.49126-4.9736,8.398-7.25705a31.4373,31.4373,0,0,1,10.116-5.4108c3.31235-1.0478,6.72456-1.77941,9.86743-3.29972.45933-.22219.12876-1.03494-.35217-.83534-4.40093,1.8265-9.1539,2.64294-13.50133,4.586-4.27227,1.90947-7.79967,5.02841-11.25728,8.11193-3.92379,3.49927-8.23122,6.8273-11.87548,10.6143-1.36088,1.41418-1.82383,4.59935,1.02588,4.17038.46941-.07066.36424-.89123-.11319-.83635Z"/>
    <path d="M370.27894,66.19737c3.79807-.97539,7.59976-1.93653,11.39871-2.90847,1.18362-.30282,5.04374-.518,4.79359-2.48316-.035-.27525-.413-.5534-.64016-.26517-1.32532,1.6815-5.59141,2.0172-7.62458,2.54878-2.73126.71409-5.45937,1.43973-8.19131,2.15127a.49652.49652,0,0,0,.26376.95675Z"/>
    <path d="M401.74416,58.08553a35.01982,35.01982,0,0,1,5.492-1.96483.434.434,0,0,0-.23053-.83621,21.24835,21.24835,0,0,0-5.76226,1.94431c-.57523.27377-.073,1.13438.50078.85672Z"/>
    <path d="M397.316,52.56568c1.34086-.31348,2.68942-.63761,4.05-.846.52056-.07972.31171-.92684-.22223-.80608-1.34523.30426-2.72578.49612-4.0915.6953-.61608.08985-.37163,1.1053.26376.95675Z"/>
    <path d="M386.75111,61.24534a.49639.49639,0,0,0,0-.99219.49639.49639,0,0,0,0,.99219Z"/>
    <path d="M348.0918,86.73216a9.26425,9.26425,0,0,0,10.789.54563c1.05372-.66775,1.97441-1.52724,3.03466-2.18539,1.23689-.76779,2.60432-1.07541,3.88211-1.72237,2.63515-1.33423,4.18372-3.79588,7.19477-4.59905,5.22688-1.39424,10.83012-.01687,16.16167-.77783,5.47614-.7816,13.27242-1.90509,14.76669,5.24072.10988.52546.90176.38748.91308-.12357.08807-3.9751-4.1685-6.42006-7.65631-6.8298-2.73473-.32127-5.47053.27939-8.16624.65772a56.52054,56.52054,0,0,1-9.24969.24587,22.80467,22.80467,0,0,0-7.40118.69321c-2.52573.799-3.95621,2.52537-6.0489,3.99348-1.3991.98152-3.07548,1.29867-4.53992,2.15638-1.19786.70157-2.20586,1.67888-3.37646,2.41968a8.83953,8.83953,0,0,1-9.83936-.3159c-.35794-.233-.80641.3268-.4639.60124Z"/>
    <path d="M403.58565,83.4292c2.07307,2.62423-1.0438,5.10889-2.71715,6.72935a12.93283,12.93283,0,0,0-2.7836,3.96715,12.78766,12.78766,0,0,1-3.94454,4.67483,11.34934,11.34934,0,0,0-2.88457,3.41009c-1.33158,2.4893-4.55278,13.33779,1.07361,12.94,2.939-.20777,3.76906-3.38279,5.2032-5.38356,2.21232-3.0864,5.83652-4.6696,9.16064-6.25562,3.23057-1.54139,6.2474-3.151,8.47385-6.03157,2.60872-3.37518,4.87868-7.15895,7.18388-10.74583.39753-.61856-.57061-1.16812-.97815-.57175-2.17939,3.18915-4.20444,6.48819-6.4191,9.65372-2.36749,3.384-5.543,5.13735-9.17585,6.87021a31.02964,31.02964,0,0,0-7.15416,4.19664,12.92949,12.92949,0,0,0-2.46428,2.83877c-.37913.5965-.66155,1.24719-1.02858,1.84941a7.47294,7.47294,0,0,1-1.12469,1.58393q-1.47434,1.775-2.49365-.37129c-1.331-1.31672-1.225-1.32078-1.08959-2.95841a26.41233,26.41233,0,0,1,.36192-2.76478,14.22677,14.22677,0,0,1,1.76749-4.90838c1.69368-2.71447,4.7268-3.80517,6.15982-6.7659A15.08641,15.08641,0,0,1,401.632,90.922a16.50312,16.50312,0,0,0,2.74682-2.9348,4.4095,4.4095,0,0,0-.09157-5.25961c-.40373-.49855-1.09183.20758-.70158.70158Z"/>
    <path d="M422.66606,85.85742a8.46674,8.46674,0,0,1,2.66989-2.69634c.43886-.24212-.0182-.90692-.4355-.56443a15.70248,15.70248,0,0,0-1.59815,1.34449,9.18922,9.18922,0,0,0-1.16916,1.60476c-.20434.3449.31411.63938.53292.31151Z"/>
    <path d="M418.78122,92.25181c3.39223-3.56385,7.27111-5.46943,11.50721-7.76943a24.201,24.201,0,0,0,7.92881-7.31747A70.76424,70.76424,0,0,0,449.43108,52.8895a.49262.49262,0,0,0-.94921-.26169c-2.77223,8.39352-5.97552,16.769-11.26959,23.94967a25.98618,25.98618,0,0,1-9.71971,8.11007,29.85544,29.85544,0,0,0-9.26378,7.01183c-.32919.37464.20262.91993.55243.55243Z"/>
    <path d="M444.83532,66.00646c1.77564-3.06834,3.69725-6.03524,5.61714-9.01453a37.14267,37.14267,0,0,0,2.1706-3.5103,26.08784,26.08784,0,0,1,1.48729-3.47216c.31259-.45178-.34652-.87078-.7178-.55384a4.25422,4.25422,0,0,0-1.15542,2.2855A22.0051,22.0051,0,0,1,449.912,56.117c-1.934,3.161-3.85027,6.3228-5.93343,9.38864-.35718.52567.53443,1.0577.85672.50078Z"/>
    <path d="M356.09239,75.74884a56.56907,56.56907,0,0,0,3.56335-8.33206c1.0035-2.89619,2.02424-9.587,5.28251-10.422,2.934-.75189,6.42121-.01044,9.42054-.11537,2.56505-.08973,5.4228-.4709,7.58543-1.93446.21265-.14391.08651-.544-.18662-.44266a27.0713,27.0713,0,0,1-10.75634,1.50517c-2.39466-.07218-6.17707-.88719-8.2157.79729-1.80393,1.49056-2.33538,4.86323-2.98723,6.92709a60.43583,60.43583,0,0,1-4.56267,11.51624c-.3128.55835.55433,1.063.85672.50078Z"/>
    <path d="M375.85084,56.46631a23.98813,23.98813,0,0,0,9.76367-.588.34013.34013,0,0,0-.18069-.65541,16.876,16.876,0,0,1-9.45111.269c-.67413-.18944-.86837.885-.13188.97447Z"/>
    <path d="M388.53265,62.26336a.49639.49639,0,0,0,0-.99219.49639.49639,0,0,0,0,.99219Z"/>
    <path d="M364.24524,56.13825c.66641-1.22763,1.49954-3.79729,2.659-4.526,1.094-.68753,3.33014-.33524,4.62042-.38237a30.33624,30.33624,0,0,0,8.43786-1.36043c.52416-.16746.27123-1.01322-.2243-.81361-3.66806,1.47757-7.76609,1.1557-11.63637,1.34759a3.34254,3.34254,0,0,0-1.97518.39925c-1.22012.97011-1.88153,3.607-2.529,4.957-.20619.42991.41462.80774.6476.37854Z"/>
    <path d="M363.06093,44.74367c-1.67617-1.39-3.56386-.13023-4.73817,1.32327-1.17029,1.44852-1.80947,3.22012-2.811,4.77391-.93066,1.4439-2.32565,2.38376-3.30782,3.752-1.40834,1.96187-.53439,3.65044,1.75357,3.79526,1.75529.1111,4.18506.45765,5.8356-.32085,1.6168-.76258,2.94161-2.57132,4.13421-3.84691a.42212.42212,0,0,0-.59662-.59662c-2.17145,2.02279-3.82119,3.904-7.02643,3.89817-1.20324-.00218-4.78605.67186-3.59956-2.27518.30941-.76851,1.39962-1.45293,1.98514-2.03116,1.59731-1.57743,4.98562-10.11664,7.93554-7.90742.324.24267.74936-.30415.4355-.56443Z"/>
    <path d="M361.81259,45.73971c3.8149.43623,7.59166.81077,11.36987,1.52722.48469.09191.69552-.644.20561-.74581a58.56115,58.56115,0,0,0-11.57548-1.41422c-.417-.00145-.39465.58769,0,.63281Z"/>
    <path d="M374.02587,48.01108a.49639.49639,0,0,0,0-.99219.49639.49639,0,0,0,0,.99219Z"/>
    <path class="cls-5" d="M265.32113,162.46488q-4.59085-21.24923-8.16456-42.70134c3.367-1.474,7.25309,1.3057,8.78362,4.64734a74.93908,74.93908,0,0,0-.68074-11.68449,9.46492,9.46492,0,0,1,9.78646,7.39167,45.25623,45.25623,0,0,0,.64662,4.69243c.71517,2.3654,2.67608,4.09577,4.26536,5.98807a52.03342,52.03342,0,0,1,5.26439,8.36743c1.73174,3.11029,4.173,6.54238,7.73211,6.61692-.0098-2.78764-1.58516-5.28537-2.71832-7.83233-2.48136-5.57728-2.92822-11.8136-3.3402-17.904-.19357-2.86169-1.33336-6.69123-1.9-9.50292,3.46015.90559,7.26678,2.06225,9.09148,5.13848a16.99484,16.99484,0,0,1,1.6,5.71259,45.20626,45.20626,0,0,0,3.42613,10.52929,58.00952,58.00952,0,0,0,5.49066,9.51548c.68653.9652,1.84924,2.02266,2.887,1.45168-.54013-6.413-.32015-13.39871,3.58375-18.51512a18.90613,18.90613,0,0,1,8.07574-5.85869,2.01166,2.01166,0,0,1,1.14665-.20454c.829.17833,1.10257,1.20364,1.21513,2.04407.24166,1.80431.38957,3.90184-.912,5.17455-.45853.44835-1.05667.74011-1.48845,1.21427a5.05551,5.05551,0,0,0-.92193,3.2549l-.27313,5.91764a5.37554,5.37554,0,0,0,.06688,1.46884,4.67161,4.67161,0,0,0,.8829,1.6773c3.366,4.52713,8.65206,7.13886,13.73472,9.58658l3.66493,1.765c3.53034,1.70015,7.12512,3.44432,9.95233,6.15737,4.20892,4.039,5.98172,11.15735,9.50192,15.80885a53.14707,53.14707,0,0,0,4.22984,4.66414,108.40054,108.40054,0,0,1,7.19642,8.27434c-2.119,2.12259-5.61359,1.421-8.60272,1.66735-3.42008.28188-6.547,1.98243-9.873,2.82779-4.697,1.19385-9.63167.65274-14.4716.40339-11.79344-.6076-23.758.55751-35.32752-1.8089a7.3866,7.3866,0,0,1-3.14711-1.20448A12.00224,12.00224,0,0,1,293.65,184.5826a22.81963,22.81963,0,0,0-5.57938-4.95408l-5.73693-4.06407a124.80324,124.80324,0,0,0-12.0697-7.87026,15.86471,15.86471,0,0,1-3.60436-2.36271C265.62886,164.3238,265.62554,163.8739,265.32113,162.46488Z"/>
    <path d="M374.9671,47.97788a72.805,72.805,0,0,0,27.01626-.65294,118.18753,118.18753,0,0,0,25.4878-8.77844c.48219-.22993.06075-.91406-.414-.70832-7.93122,3.43694-15.91537,6.68855-24.38613,8.56149-8.77564,1.94035-18.65718,3.09089-27.44014.62146-.62907-.17687-.88139.86264-.26376.95675Z"/>
    <path d="M400.42411,76.3363a7.308,7.308,0,0,1,.97587.31646,3.06757,3.06757,0,0,1,.77995.35507c.35251.32745.78252-.30692.38343-.49694-.1558-.07418-.26042-.22155-.41539-.3081a2.8996,2.8996,0,0,0-.47726-.21106,3.24675,3.24675,0,0,0-1.177-.16952.263.263,0,0,0-.06958.51409Z"/>
    <path d="M406.55361,85.4285l.1468-.58721a.49652.49652,0,0,0-.95675-.26376l-.1468.58721a.49652.49652,0,0,0,.95675.26376Z"/>
    <path d="M406.222,83.88427a.49639.49639,0,0,0,0-.99219.49639.49639,0,0,0,0,.99219Z"/>
    <path d="M424.883,39.539a26.87116,26.87116,0,0,0,2.58073-2.88705,22.971,22.971,0,0,0,2.35146-3.03776.38454.38454,0,0,0-.60124-.4639c-1.89337,1.6854-3.01246,4.0867-5.03254,5.68714-.49082.38886.22564,1.14456.70158.70158Z"/>
    <path d="M426.79573,36.987c-.61173-5.09969,8.17035-5.64087,11.59119-5.2403a17.04049,17.04049,0,0,1,10.8086,5.47729c6.63355,7.5721,4.10308,18.2886,2.30061,27.11635-.1017.49807.64115.71325.76841.21184,2.47771-9.76258,4.48435-22.78108-4.6111-29.902a18.55056,18.55056,0,0,0-12.81392-3.75085c-3.85465.31853-8.52083,1.64748-9.036,6.08771-.07409.63858,1.06869.63774.99219,0Z"/>
    <path d="M425.28943,37.87913c-1.127-6.17946,6.24485-8.5731,11.02468-8.31462,5.324.28791,10.54085,1.51889,14.25637,5.53866,7.14779,7.73309,7.11255,17.74671,5.98387,27.5853-.0474.41316.60317.41161.64844,0,1.19943-10.90686.84919-24.352-9.64456-30.95947-2.35513-1.48292-5.21617-1.93966-7.91455-2.40009a20.3848,20.3848,0,0,0-7.99711-.11594c-4.12216.95236-7.43281,4.44446-7.33161,8.798a.49385.49385,0,1,0,.97447-.13188Z"/>
    <path d="M422.68115,39.31147a75.41219,75.41219,0,0,1,8.97329-15.42405c3.61421-4.58214,7.81479-8.58282,11.74155-12.88a.30487.30487,0,0,0-.43089-.43089A115.92092,115.92092,0,0,0,430.343,24.31429c-3.38064,4.35814-6.789,9.37694-8.10448,14.81056-.06169.2548.32219.44542.44266.18662Z"/>
    <path d="M430.55662,24.77713a129.05583,129.05583,0,0,1,19.08307-14.49231.34792.34792,0,0,0-.35094-.60038A65.63051,65.63051,0,0,0,430.413,24.6335a.10162.10162,0,0,0,.14363.14363Z"/>
    <path d="M438.15958,18.96247c4.55674-2.88878,9.37321-4.85876,14.83814-4.96886,5.74245-.11569,10.89073,1.59859,15.97367,4.115a.35965.35965,0,0,0,.36277-.62062c-9.24932-5.41715-22.90846-6.17479-31.36393,1.22911-.13343.11684.04.34007.18935.2454Z"/>
    <path d="M452.64573,16.68538c7.55686-.519,13.31564,4.69508,17.39523,10.596a32.25855,32.25855,0,0,1,5.567,18.08773.29314.29314,0,0,0,.58594,0,33.06265,33.06265,0,0,0-6.68836-20.00858c-3.46967-4.54243-10.5386-11.39493-16.90347-8.99737-.16033.06039-.15485.33589.04361.32226Z"/>
    <path d="M427.85464,28.92322c3.46871-4.56181,4.8564-10.33973,5.34743-15.96384a34.24016,34.24016,0,0,0,.07011-8.04568,13.36405,13.36405,0,0,0-3.8803-6.91964c-.3169-.33136-.93046.11325-.65032.50177,1.66438,2.30831,3.45821,4.31661,3.735,7.28506a42.98591,42.98591,0,0,1-.136,7.58339,33.40329,33.40329,0,0,1-4.9582,15.28293c-.19276.3057.26548.5479.47221.276Z"/>
    <path d="M433.843,81.55475a.49639.49639,0,0,0,0-.99219.49639.49639,0,0,0,0,.99219Z"/>
    <path d="M433.33456,81.04021a114.15771,114.15771,0,0,0,5.8182,30.31576,245.94048,245.94048,0,0,0,11.24629,29.06048c7.38642,15.73084,20.95135,28.57392,38.26579,32.29884,9.72457,2.09208,20.50457,1.37925,29.49569-3.09193.43521-.21643.05349-.82552-.3746-.64086-17.13375,7.3911-36.34477,4.27-50.61018-7.7192-14.25139-11.9774-20.519-30.33893-26.31-47.45662-3.58833-10.60677-6.26969-21.52647-6.539-32.76647-.01529-.63827-1.01792-.63837-.99219,0Z"/>
    <path d="M475.325,55.35311a11.67115,11.67115,0,0,0,.18381,3.93809c.07012.38176.7167.20475.58007-.15992a9.35719,9.35719,0,0,1-.46464-3.73767c.009-.16838-.27428-.212-.29925-.0405Z"/>
    <ellipse class="cls-6" cx="371.44439" cy="104.34151" rx="4.57356" ry="9.05561" transform="translate(95.3598 373.85103) rotate(-60)"/>
    <ellipse class="cls-7" cx="372.44439" cy="102.34151" rx="4.57356" ry="9.05561" transform="translate(97.59185 373.71706) rotate(-60)"/>
    <ellipse class="cls-8" cx="356.96399" cy="116.28527" rx="9.05561" ry="5.51932" transform="translate(196.8886 455.87535) rotate(-82.80546)"/>
    <ellipse class="cls-9" cx="357.07365" cy="114.41654" rx="9.05561" ry="5.51932" transform="translate(198.83855 454.34945) rotate(-82.80546)"/>
    <ellipse class="cls-10" cx="370.04723" cy="132.15778" rx="4.57356" ry="9.05561" transform="translate(-11.82514 39.56123) rotate(-6.02352)"/>
    <ellipse class="cls-11" cx="367.84156" cy="132.52524" rx="4.57356" ry="9.05561" transform="translate(-11.87588 39.3318) rotate(-6.02352)"/>
    <path d="M263.88952,158.85133c-.38522,6.3558,6.27341,9.58672,10.71969,12.73113,6.23882,4.4121,12.44171,9.04845,19.0677,12.872a.41829.41829,0,0,0,.42191-.72181c-5.17054-3.47408-10.43352-6.80421-15.5838-10.31234-2.507-1.70765-4.98314-3.4717-7.45223-5.23382-2.96194-2.11387-7.27368-4.92956-6.19881-9.20332a.49386.49386,0,1,0-.97447-.13188Z"/>
    <path d="M265.0216,159.28171c-1.13688-6.97831-2.68685-13.89216-4.08888-20.82132q-1.07057-5.29106-2.13063-10.58423c-.36111-1.79537-1.15154-3.93917-1.16937-5.77123-.009-.92024-.41437-1.18535.78749-1.42655a5.29336,5.29336,0,0,1,2.4504.45534,8.86078,8.86078,0,0,1,5.96849,7.06784,20.59026,20.59026,0,0,0,.578,3.97784,17.676,17.676,0,0,0,1.81813,3.31588c1.73055,2.85086,1.69941,6.07812,3.02562,9.06,1.24065,2.78949,3.35795,5.04063,3.79586,8.15813.08566.60983,1.01171.35035.92661-.25546-.5506-3.91975-3.6444-6.76178-4.59638-10.56562a26.19652,26.19652,0,0,0-1.67714-5.837c-1.22177-2.38651-2.50259-3.98037-2.76563-6.78576-.54578-5.82093-5.26122-10.25776-11.29826-9.42632-.27148.03739-.3844.36778-.33831.59584,2.62708,12.999,4.91741,26.13922,8.0511,39.02542.10647.43783.7326.24482.66294-.18276Z"/>
    <path d="M266.36579,123.14521c-.27023-1.93047-.47887-3.868-.70513-5.80389-.10566-.904-.83161-3.50472-.38327-4.23572.525-.856,3.36942.37153,4.18885.79883a10.28675,10.28675,0,0,1,3.3675,2.83906c2.12977,2.71228,2.43289,5.6103,2.74493,8.905a5.35818,5.35818,0,0,0,2.06138,4.14243,15.52328,15.52328,0,0,1,4.55512,5.20584c1.04394,1.99381,1.85163,4.11823,3.05825,6.02527,2.49372,3.94128,6.95481,6.07871,9.22819,10.17281.344.61943,1.30292.06187.95117-.556-2.26819-3.9841-6.58639-6.06667-9.09594-9.84271-2.27475-3.42275-3.19211-7.78851-6.37815-10.5782-.93178-.81587-1.97916-1.30094-2.63867-2.406-.83912-1.40606-.69327-2.95016-.90056-4.53583a15.2479,15.2479,0,0,0-1.859-5.71193,11.03246,11.03246,0,0,0-9.95752-5.63067.46506.46506,0,0,0-.46139.46139c.37305,3.63226.90042,7.24753,1.24981,10.88224a.49384.49384,0,1,0,.97447-.13188Z"/>
    <path d="M295.60177,150.19159c2.09667-1.86546,4.46-1.21565,6.95216-1.60767.39424-.062.35736-.67248,0-.76088a8.64314,8.64314,0,0,0-7.54325,1.77745c-.38724.37976.1917.94646.5911.5911Z"/>
    <path d="M290.8,146.33069a5.17451,5.17451,0,0,1,1.41223.05646c.24459.02659.394-.21538.41948-.41948.34978-2.80679-1.38166-5.27452-2.24866-7.84255a49.87209,49.87209,0,0,1-2.03787-9.919c-.74215-6.04766-1.06694-12.13978-2.98646-17.96912l-.49512.65a9.92749,9.92749,0,0,1,9.95824,7.46041c.43861,1.877.26386,3.8334.593,5.72517a13.85108,13.85108,0,0,0,2.05131,4.66723c1.94545,3.48085,2.57942,7.38335,4.90283,10.743,1.54942,2.24047,3.7152,5.46038,6.80071,4.90387.69659-.12564.40722-1.21692-.29492-1.06975-2.55751.53608-4.87764-3.30015-6.02372-5.083a26.38757,26.38757,0,0,1-2.79719-5.90109,25.65387,25.65387,0,0,0-2.11221-4.86782c-1.37683-2.40254-1.53548-4.53708-1.78333-7.2253-.54809-5.94454-5.17546-10.5453-11.29473-10.37961a.51837.51837,0,0,0-.49512.65c1.99042,6.01215,2.2753,12.31858,3.08656,18.55267a53.07273,53.07273,0,0,0,1.47737,7.6948,35.60615,35.60615,0,0,0,1.45627,4.081c.27484.65242,2.54235,4.95752.54321,4.51773-.72217-.15887-.84276.99489-.13188.97447Z"/>
    <path d="M307.71241,143.279a7.23689,7.23689,0,0,0,.1232-4.61677,11.69667,11.69667,0,0,1,.4382-7.059c.20956-.5901-.72155-.83782-.93415-.25753a11.36638,11.36638,0,0,0-.92119,5.25741c.24791,2.23091,1.30477,4.18375.44265,6.44125-.20512.53712.63746.74709.85128.23469Z"/>
    <path d="M309.15864,129.70061c.06115-2.60463,1.69973-4.4719,3.61933-6.05595a28.88857,28.88857,0,0,1,5.41-3.95118,1.74232,1.74232,0,0,1,2.5604-.1424,4.70809,4.70809,0,0,1,.47029,2.08233,5.13431,5.13431,0,0,1-1.3488,3.51832c-.89085.93564-2.18623,1.1902-2.72851,2.45357-.5944,1.38478-.376,3.25315-.466,4.73507-.09482,1.561-.61146,3.6236.00814,5.13857.54794,1.33975,1.9541,1.9076,2.99637,2.80658a27.793,27.793,0,0,1,4.44288,5.41214c.39769.57408,1.34414.03148.94442-.552a29.36916,29.36916,0,0,0-4.59669-5.65072c-1.01121-.88907-2.0489-1.32432-2.54892-2.61517-.58722-1.516-.19634-3.4399-.10666-5.03722.112-1.9957.33367-3.5792,1.79129-5.03339a12.47592,12.47592,0,0,0,1.53332-1.44648,6.37177,6.37177,0,0,0,1.12616-4.487c-.14868-1.16866-.7212-2.94217-2.02591-3.20383-1.66649-.33422-3.63122,1.90028-4.82841,2.77916-3.19493,2.34548-7.10779,4.88008-7.24486,9.24965a.4964.4964,0,0,0,.99219,0Z"/>
    <path d="M320.05042,145.2716a10.457,10.457,0,0,1,4.99614.61287.36888.36888,0,0,0,.28294-.67113,9.02566,9.02566,0,0,0-5.411-.91621.49386.49386,0,1,0,.13188.97447Z"/>
    <path d="M309.78671,145.36174a10.20972,10.20972,0,0,0,1.35557-.54778c.41627-.21265.73145-.51394,1.1344-.73293.46683-.2537-.01015-.95534-.4639-.60124A6.07328,6.07328,0,0,1,310.77051,144c-.39735.19853-.7924.3891-1.20811.54816-.498.19055-.29686.991.2243.81361Z"/>
    <path d="M325.69525,146.43185c3.19566.21533,5.75627,3.16247,8.83712,4.07a31.07068,31.07068,0,0,1,9.84454,4.34058c6.26136,4.54339,7.51414,12.347,11.20583,18.68688a.473.473,0,0,0,.81625-.47712c-3.99048-6.57713-4.85052-14.35747-11.47232-19.1503-3.09167-2.23774-6.5345-3.25307-10.13706-4.33316-3.24018-.97145-5.68343-3.8221-9.09437-4.12911-.63212-.0569-.638.9492,0,.99219Z"/>
    <path d="M349.4347,168.41685c4.62354,4.42643,9.26977,9.26236,14.45121,13.0339.36694.26709.77388-.305.47337-.61351-4.47791-4.59667-9.59747-8.65516-14.223-13.122-.45958-.44381-1.16376.25911-.70158.70158Z"/>
    <path d="M274.29809,156.24669a56.1892,56.1892,0,0,1,6.14339,6.14492c.44083.51406,1.19669-.23773.74578-.74578a66.13763,66.13763,0,0,0-6.18759-6.10073c-.48127-.41682-1.18715.28665-.70158.70158Z"/>
    <path d="M282.26842,164.08389c3.48775,4.21727,8.18644,6.93841,13.05866,9.28068,2.46535,1.18519,4.97061,2.28632,7.423,3.49881,2.67517,1.32266,5.07985,3.00613,7.66668,4.45311.45771.256.97514-.3666.57278-.74234-3.81073-3.55857-9.44835-5.48737-14.09739-7.68487-5.147-2.43287-10.15133-5.13676-13.9221-9.507-.42033-.48715-1.1037.21535-.70158.70158Z"/>
    <path d="M275.11657,155.51342a12.60693,12.60693,0,0,1,11.15-1.67432c3.614,1.12447,5.61533,4.62872,9.15676,5.64861,2.03.58461,4.19908.6297,6.26809,1.0581a56.56244,56.56244,0,0,1,6.242,1.71155c4.27919,1.41181,8.32635,3.35172,12.51827,4.98041.51818.20133.87582-.65142.37926-.8996a95.736,95.736,0,0,0-13.03228-5.33387,53.35889,53.35889,0,0,0-7.16668-1.81978c-2.78536-.4969-5.466-.53367-7.76113-2.40931-2.66074-2.17446-5.01473-3.92515-8.5491-4.36045a15.1097,15.1097,0,0,0-9.706,2.24194c-.55481.33386-.009,1.22745.50078.85672Z"/>
    <path d="M317.30452,164.69515a34.48239,34.48239,0,0,1,15.21863,3.29418c4.31473,2.13759,7.18393,6.25994,10.69019,9.413a.44949.44949,0,0,0,.63529-.63529c-3.14062-3.60058-6.91343-7.88614-11.36181-9.86812-4.50106-2.00546-10.32722-3.50556-15.26641-2.82531-.35676.04914-.26561.62727.08411.62151Z"/>
    <path d="M333.22937,163.04326c-.60065,2.16886.27088,5.22729,2.64544,5.93854.3401.10187.49046-.35664.22876-.54261-1.62293-1.15334-2.86609-2.97876-1.96747-5.01366.29433-.66649-.71749-1.0656-.90674-.38227Z"/>
    <path d="M337.74672,169.58362a.49639.49639,0,0,0,0-.99219.49639.49639,0,0,0,0,.99219Z"/>
    <path d="M339.736,171.57295a.49639.49639,0,0,0,0-.99219.49639.49639,0,0,0,0,.99219Z"/>
    <ellipse class="cls-12" cx="313.64297" cy="157.47176" rx="9.47305" ry="4.57356" transform="translate(-6.57302 13.83685) rotate(-2.50108)"/>
    <ellipse class="cls-13" cx="313.40555" cy="155.24795" rx="9.47305" ry="4.57356" transform="translate(-6.4762 13.82437) rotate(-2.50108)"/>
    <path d="M341.6194,173.36942a14.71116,14.71116,0,0,1,2.18511,1.816,11.509,11.509,0,0,1,.84628.94495,5.64645,5.64645,0,0,1,.90218,1.21381c.21444.56207.9778.04578.5876-.34205a14.6913,14.6913,0,0,1-.91769-1.31317c-.283-.35678-.57039-.70932-.87058-1.05132a18.94922,18.94922,0,0,0-2.13172-2.0474.494.494,0,1,0-.60118.77915Z"/>
    <path d="M329.98836,153.27117a.49639.49639,0,0,0,0-.99219.49639.49639,0,0,0,0,.99219Z"/>
    <path d="M331.39306,151.30709a4.103,4.103,0,0,0,.41613-.92234,2.53615,2.53615,0,0,0,.10662-.46013c.02786-.21245-.04172-.43537-.01037-.64117.08872-.58235-.79219-.49939-.64787,0a2.93862,2.93862,0,0,1-.05661.93391,3.83738,3.83738,0,0,1-.25769.9001c-.10331.26833.30774.4176.4498.18963Z"/>
    <path d="M332.254,153.27717a1.57989,1.57989,0,0,1,.95494-1.08242c.41037-.21753.99017-.19935,1.267-.58519l-.2668.153c.13472-.0105.2689-.0186.4039-.02441.5418-.02333.4002-.87134-.09657-.71359a1.05229,1.05229,0,0,1-.33738.07324,1.69278,1.69278,0,0,0-.48635.07825,4.6893,4.6893,0,0,0-1.04811.45367,1.89854,1.89854,0,0,0-.9584,1.57057.29037.29037,0,0,0,.5678.07684Z"/>
    <ellipse class="cls-14" cx="325.64297" cy="161.47176" rx="9.47305" ry="4.57356" transform="translate(-6.73614 14.36432) rotate(-2.50108)"/>
    <ellipse class="cls-15" cx="325.40555" cy="159.24795" rx="9.47305" ry="4.57356" transform="translate(-6.63932 14.35184) rotate(-2.50108)"/>
    <text class="cls-16" transform="translate(9 43.33789)"><tspan class="cls-17">T</tspan><tspan class="cls-18" x="6.00586" y="0">r</tspan><tspan x="10.48535" y="0">aditional</tspan><tspan class="cls-19" x="54.69629" y="0">l</tspan><tspan class="cls-20" x="57.80469" y="0">y</tspan><tspan x="62.95703" y="0">, </tspan><tspan class="cls-21" x="69.9707" y="0">r</tspan><tspan x="74.47852" y="0">ed e</tspan><tspan class="cls-22" x="96.30469" y="0">n</tspan><tspan class="cls-21" x="102.53418" y="0">v</tspan><tspan x="107.89648" y="0">elop</tspan><tspan class="cls-23" x="129.59668" y="0">e</tspan><tspan x="135.64453" y="0">s or </tspan><tspan class="cls-21" x="158.86914" y="0">r</tspan><tspan x="163.37695" y="0">ed pa</tspan><tspan class="cls-24" x="191.4043" y="0">c</tspan><tspan class="cls-25" x="196.70996" y="0">k</tspan><tspan class="cls-26" x="202.21289" y="0">e</tspan><tspan x="208.2041" y="0">ts </tspan><tspan class="cls-27" x="221.2793" y="0">a</tspan><tspan class="cls-21" x="226.89355" y="0">r</tspan><tspan x="231.40137" y="0">e passed </tspan><tspan class="cls-28" x="279.30859" y="0">o</tspan><tspan x="285.4541" y="0">ut </tspan><tspan class="cls-28" x="0" y="16.7998">d</tspan><tspan x="6.21582" y="16.7998">u</tspan><tspan class="cls-29" x="12.34766" y="16.7998">r</tspan><tspan x="16.9541" y="16.7998">ing the </tspan><tspan class="cls-30" x="56.16699" y="16.7998">N</tspan><tspan class="cls-22" x="63.88086" y="16.7998">e</tspan><tspan x="69.80273" y="16.7998">w </tspan><tspan class="cls-31" x="81.31055" y="16.7998">Y</tspan><tspan x="87.2334" y="16.7998">e</tspan><tspan class="cls-28" x="93.18359" y="16.7998">a</tspan><tspan x="98.79688" y="16.7998">r&apos;s celeb</tspan><tspan class="cls-18" x="141.66504" y="16.7998">r</tspan><tspan x="146.14453" y="16.7998">ations. Th</tspan><tspan class="cls-23" x="197.27051" y="16.7998">e</tspan><tspan x="203.31836" y="16.7998">se </tspan><tspan class="cls-21" x="217.99023" y="16.7998">r</tspan><tspan x="222.49805" y="16.7998">ed pa</tspan><tspan class="cls-32" x="250.52539" y="16.7998">c</tspan><tspan class="cls-33" x="255.83203" y="16.7998">k</tspan><tspan class="cls-19" x="261.33398" y="16.7998">e</tspan><tspan x="267.32617" y="16.7998">ts almo</tspan><tspan class="cls-32" x="304.98535" y="16.7998">s</tspan><tspan x="310.17969" y="16.7998">t </tspan><tspan x="0" y="33.59961">al</tspan><tspan class="cls-34" x="8.875" y="33.59961">w</tspan><tspan class="cls-35" x="16.58887" y="33.59961">a</tspan><tspan class="cls-22" x="22.27344" y="33.59961">y</tspan><tspan x="27.90137" y="33.59961">s con</tspan><tspan class="cls-23" x="54.54297" y="33.59961">t</tspan><tspan x="58.99414" y="33.59961">ain mon</tspan><tspan class="cls-32" x="99.62109" y="33.59961">e</tspan><tspan class="cls-20" x="105.55762" y="33.59961">y</tspan><tspan x="110.70996" y="33.59961">, usual</tspan><tspan class="cls-19" x="144.07031" y="33.59961">l</tspan><tspan x="147.17871" y="33.59961">y </tspan><tspan class="cls-18" x="156.34863" y="33.59961">v</tspan><tspan class="cls-28" x="161.68262" y="33.59961">a</tspan><tspan class="cls-36" x="167.2959" y="33.59961">r</tspan><tspan x="172.29395" y="33.59961">ying f</tspan><tspan class="cls-37" x="200.99414" y="33.59961">r</tspan><tspan x="205.54297" y="33.59961">om a c</tspan><tspan class="cls-27" x="239.4082" y="33.59961">o</tspan><tspan x="245.55469" y="33.59961">uple of doll</tspan><tspan class="cls-28" x="303.28906" y="33.59961">a</tspan><tspan class="cls-38" x="308.90234" y="33.59961">r</tspan><tspan x="313.62012" y="33.59961">s </tspan></text>
    <text class="cls-16" transform="translate(9 99.33789)"><tspan class="cls-18">t</tspan><tspan x="4.18555" y="0">o se</tspan><tspan class="cls-21" x="25.19922" y="0">ve</tspan><tspan class="cls-39" x="36.37109" y="0">r</tspan><tspan x="40.85156" y="0">al h</tspan><tspan class="cls-40" x="59.58203" y="0">u</tspan><tspan x="65.57324" y="0">nd</tspan><tspan class="cls-21" x="78.24316" y="0">r</tspan><tspan x="82.75098" y="0">ed. </tspan><tspan class="cls-41" x="102.12695" y="0">P</tspan><tspan class="cls-21" x="109.02832" y="0">e</tspan><tspan x="114.83887" y="0">r cu</tspan><tspan class="cls-32" x="134.45215" y="0">s</tspan><tspan class="cls-18" x="139.64648" y="0">t</tspan><tspan x="143.83203" y="0">om, the </tspan><tspan class="cls-21" x="186.71289" y="0">a</tspan><tspan x="192.38281" y="0">m</tspan><tspan class="cls-28" x="201.74902" y="0">o</tspan><tspan class="cls-21" x="207.89453" y="0">u</tspan><tspan x="213.88672" y="0">nt of </tspan><tspan x="0" y="16.7998">mon</tspan><tspan class="cls-32" x="21.96582" y="16.7998">e</tspan><tspan x="27.90234" y="16.7998">y in the </tspan><tspan class="cls-40" x="70.08301" y="16.7998">r</tspan><tspan class="cls-42" x="74.58984" y="16.7998">ed pa</tspan><tspan class="cls-32" x="102.61719" y="16.7998">c</tspan><tspan class="cls-25" x="107.92383" y="16.7998">k</tspan><tspan class="cls-26" x="113.42676" y="16.7998">e</tspan><tspan x="119.41797" y="16.7998">ts sh</tspan><tspan class="cls-27" x="144.04297" y="16.7998">o</tspan><tspan x="150.18945" y="16.7998">uld be of e</tspan><tspan class="cls-21" x="204.94238" y="16.7998">v</tspan><tspan x="210.30469" y="16.7998">en </tspan><tspan x="0" y="33.59961">n</tspan><tspan class="cls-43" x="6.25781" y="33.59961">u</tspan><tspan x="12.29199" y="33.59961">mb</tspan><tspan class="cls-21" x="28.02832" y="33.59961">e</tspan><tspan class="cls-44" x="33.83887" y="33.59961">r</tspan><tspan x="38.55566" y="33.59961">s, as odd n</tspan><tspan class="cls-43" x="94.24609" y="33.59961">u</tspan><tspan x="100.28027" y="33.59961">mb</tspan><tspan class="cls-21" x="116.0166" y="33.59961">e</tspan><tspan class="cls-44" x="121.82715" y="33.59961">r</tspan><tspan x="126.54395" y="33.59961">s </tspan><tspan class="cls-27" x="135.26563" y="33.59961">a</tspan><tspan class="cls-40" x="140.87988" y="33.59961">r</tspan><tspan x="145.38672" y="33.59961">e as</tspan><tspan class="cls-19" x="165.86816" y="33.59961">s</tspan><tspan x="171.11816" y="33.59961">ocia</tspan><tspan class="cls-45" x="191.66992" y="33.59961">t</tspan><tspan x="195.87012" y="33.59961">ed with </tspan><tspan class="cls-46" x="0" y="50.40039">c</tspan><tspan x="5.45996" y="50.40039">ash gi</tspan><tspan class="cls-21" x="35.61523" y="50.40039">v</tspan><tspan x="40.97754" y="50.40039">en </tspan><tspan class="cls-28" x="56.69922" y="50.40039">d</tspan><tspan x="62.91504" y="50.40039">u</tspan><tspan class="cls-29" x="69.04688" y="50.40039">r</tspan><tspan x="73.65332" y="50.40039">ing f</tspan><tspan class="cls-40" x="96.69727" y="50.40039">u</tspan><tspan x="102.68848" y="50.40039">n</tspan><tspan class="cls-21" x="108.94629" y="50.40039">e</tspan><tspan class="cls-18" x="114.75684" y="50.40039">r</tspan><tspan x="119.23633" y="50.40039">als</tspan></text>
  </g>
</svg>
