<?xml version="1.0" encoding="utf-8"?>
<!-- Generator: Adobe Illustrator 21.0.2, SVG Export Plug-In . SVG Version: 6.00 Build 0)  -->
<svg version="1.1" id="market" xmlns="http://www.w3.org/2000/svg" xmlns:xlink="http://www.w3.org/1999/xlink" x="0px" y="0px"
	 viewBox="0 0 542 224.8" style="enable-background:new 0 0 542 224.8;" xml:space="preserve">
<style type="text/css">
	.st0{fill:url(#SVGID_1_);}
	.st1{fill:url(#SVGID_2_);}
	.st2{fill:url(#SVGID_3_);}
	.st3{fill:url(#SVGID_4_);}
	.st4{fill:url(#SVGID_5_);}
	.st5{fill:url(#SVGID_6_);}
	.st6{fill:url(#SVGID_7_);}
	.st7{fill:url(#SVGID_8_);}
	.st8{fill:url(#SVGID_9_);}
	.st9{fill:url(#SVGID_10_);}
	.st10{fill:url(#SVGID_11_);}
	.st11{fill:url(#SVGID_12_);}
	.st12{fill:url(#SVGID_13_);}
	.st13{fill:url(#SVGID_14_);}
	.st14{fill:url(#SVGID_15_);}
	.st15{fill:url(#SVGID_16_);}
	.st16{fill:url(#SVGID_17_);}
	.st17{fill:url(#SVGID_18_);}
	.st18{fill:url(#SVGID_19_);}
	.st19{fill:url(#SVGID_20_);}
	.st20{fill:url(#SVGID_21_);}
	.st21{fill:none;}
	.st22{font-family:'Ming';}
	.st23{font-size:20px;}
</style>
<title>crackerdiv-15</title>
<linearGradient id="SVGID_1_" gradientUnits="userSpaceOnUse" x1="-13" y1="-23.5" x2="529" y2="-23.5" gradientTransform="matrix(1 0 0 1 13 132.823)">
	<stop  offset="1.106000e-02" style="stop-color:#FF833D"/>
	<stop  offset="1" style="stop-color:#FF9372"/>
</linearGradient>
<rect y="6.8" class="st0" width="542" height="205"/>
<g>
	
		<linearGradient id="SVGID_2_" gradientUnits="userSpaceOnUse" x1="462.1409" y1="-130.0977" x2="469.7116" y2="-130.0977" gradientTransform="matrix(1 0 0 1 13 132.823)">
		<stop  offset="1.106000e-02" style="stop-color:#49241E"/>
		<stop  offset="0.3274" style="stop-color:#A3181D"/>
		<stop  offset="0.334" style="stop-color:#9F191D"/>
		<stop  offset="0.3819" style="stop-color:#841C1D"/>
		<stop  offset="0.4363" style="stop-color:#6E1F1E"/>
		<stop  offset="0.5005" style="stop-color:#5D211E"/>
		<stop  offset="0.5798" style="stop-color:#52231E"/>
		<stop  offset="0.691" style="stop-color:#4B241E"/>
		<stop  offset="1" style="stop-color:#49241E"/>
	</linearGradient>
	<polygon class="st1" points="475.1,-30.3 480.5,35.7 482.7,35.7 	"/>
	
		<linearGradient id="SVGID_3_" gradientUnits="userSpaceOnUse" x1="458.8975" y1="-137.6684" x2="462.1409" y2="-137.6684" gradientTransform="matrix(1 0 0 1 13 132.823)">
		<stop  offset="1.106000e-02" style="stop-color:#49241E"/>
		<stop  offset="0.3274" style="stop-color:#A3181D"/>
		<stop  offset="0.334" style="stop-color:#9F191D"/>
		<stop  offset="0.3819" style="stop-color:#841C1D"/>
		<stop  offset="0.4363" style="stop-color:#6E1F1E"/>
		<stop  offset="0.5005" style="stop-color:#5D211E"/>
		<stop  offset="0.5798" style="stop-color:#52231E"/>
		<stop  offset="0.691" style="stop-color:#4B241E"/>
		<stop  offset="1" style="stop-color:#49241E"/>
	</linearGradient>
	<polygon class="st2" points="471.9,18.4 475.1,-30.3 475.1,20.6 	"/>
	
		<linearGradient id="SVGID_4_" gradientUnits="userSpaceOnUse" x1="448.0815" y1="94.2628" x2="497.8321" y2="94.2628" gradientTransform="matrix(1 0 0 1 13 132.823)">
		<stop  offset="1.106000e-02" style="stop-color:#C11616"/>
		<stop  offset="0.5487" style="stop-color:#E01B1B"/>
		<stop  offset="0.5822" style="stop-color:#EA1212"/>
		<stop  offset="0.6484" style="stop-color:#F50808"/>
		<stop  offset="0.7415" style="stop-color:#FC0202"/>
		<stop  offset="1" style="stop-color:#FE0000"/>
	</linearGradient>
	<path class="st3" d="M484.9,190.4c0,0-13-7.6-23.8,8.7l26,64.9c0,0,17.3,7.6,23.8-9.7L484.9,190.4z"/>
	
		<linearGradient id="SVGID_5_" gradientUnits="userSpaceOnUse" x1="455.6527" y1="-50.6054" x2="462.1409" y2="-50.6054" gradientTransform="matrix(1 0 0 1 13 132.823)">
		<stop  offset="1.106000e-02" style="stop-color:#49241E"/>
		<stop  offset="0.3274" style="stop-color:#A3181D"/>
		<stop  offset="0.334" style="stop-color:#9F191D"/>
		<stop  offset="0.3819" style="stop-color:#841C1D"/>
		<stop  offset="0.4363" style="stop-color:#6E1F1E"/>
		<stop  offset="0.5005" style="stop-color:#5D211E"/>
		<stop  offset="0.5798" style="stop-color:#52231E"/>
		<stop  offset="0.691" style="stop-color:#4B241E"/>
		<stop  offset="1" style="stop-color:#49241E"/>
	</linearGradient>
	<polygon class="st4" points="468.7,194.7 475.1,-30.3 471.9,194.7 	"/>
	
		<linearGradient id="SVGID_6_" gradientUnits="userSpaceOnUse" x1="449.2005" y1="-46.8193" x2="462.1409" y2="-46.8193" gradientTransform="matrix(1 0 0 1 13 132.823)">
		<stop  offset="1.106000e-02" style="stop-color:#49241E"/>
		<stop  offset="0.3274" style="stop-color:#A3181D"/>
		<stop  offset="0.334" style="stop-color:#9F191D"/>
		<stop  offset="0.3819" style="stop-color:#841C1D"/>
		<stop  offset="0.4363" style="stop-color:#6E1F1E"/>
		<stop  offset="0.5005" style="stop-color:#5D211E"/>
		<stop  offset="0.5798" style="stop-color:#52231E"/>
		<stop  offset="0.691" style="stop-color:#4B241E"/>
		<stop  offset="1" style="stop-color:#49241E"/>
	</linearGradient>
	<polygon class="st5" points="462.2,201.8 475.1,-30.3 466.5,202.3 	"/>
	
		<linearGradient id="SVGID_7_" gradientUnits="userSpaceOnUse" x1="445.1884" y1="-63.4027" x2="462.8626" y2="-63.4027" gradientTransform="matrix(1 0 0 1 13 132.823)">
		<stop  offset="1.106000e-02" style="stop-color:#49241E"/>
		<stop  offset="0.3274" style="stop-color:#A3181D"/>
		<stop  offset="0.334" style="stop-color:#9F191D"/>
		<stop  offset="0.3819" style="stop-color:#841C1D"/>
		<stop  offset="0.4363" style="stop-color:#6E1F1E"/>
		<stop  offset="0.5005" style="stop-color:#5D211E"/>
		<stop  offset="0.5798" style="stop-color:#52231E"/>
		<stop  offset="0.691" style="stop-color:#4B241E"/>
		<stop  offset="1" style="stop-color:#49241E"/>
	</linearGradient>
	<polygon class="st6" points="461.1,161.9 475.9,-23.1 458.2,159.4 	"/>
	
		<linearGradient id="SVGID_8_" gradientUnits="userSpaceOnUse" x1="462.1409" y1="-110.19" x2="466.4682" y2="-110.19" gradientTransform="matrix(1 0 0 1 13 132.823)">
		<stop  offset="1.106000e-02" style="stop-color:#49241E"/>
		<stop  offset="0.3274" style="stop-color:#A3181D"/>
		<stop  offset="0.334" style="stop-color:#9F191D"/>
		<stop  offset="0.3819" style="stop-color:#841C1D"/>
		<stop  offset="0.4363" style="stop-color:#6E1F1E"/>
		<stop  offset="0.5005" style="stop-color:#5D211E"/>
		<stop  offset="0.5798" style="stop-color:#52231E"/>
		<stop  offset="0.691" style="stop-color:#4B241E"/>
		<stop  offset="1" style="stop-color:#49241E"/>
	</linearGradient>
	<polygon class="st7" points="477.4,73.6 475.1,-28.5 479.5,73.7 	"/>
	
		<linearGradient id="SVGID_9_" gradientUnits="userSpaceOnUse" x1="376.9593" y1="440.5379" x2="426.7096" y2="440.5379" gradientTransform="matrix(0.8973 0.4414 -0.4414 0.8973 296.0721 -332.6118)">
		<stop  offset="1.106000e-02" style="stop-color:#C11616"/>
		<stop  offset="0.5487" style="stop-color:#E01B1B"/>
		<stop  offset="0.5822" style="stop-color:#EA1212"/>
		<stop  offset="0.6484" style="stop-color:#F50808"/>
		<stop  offset="0.7415" style="stop-color:#FC0202"/>
		<stop  offset="1" style="stop-color:#FE0000"/>
	</linearGradient>
	<path class="st8" d="M477.4,206.6c0,0-8.3-12.5-25.2-2.7l-5.4,69.7c0,0,12.2,14.4,25.6,1.8L477.4,206.6z"/>
	
		<linearGradient id="SVGID_10_" gradientUnits="userSpaceOnUse" x1="913.324" y1="-421.4685" x2="973.8903" y2="-421.4685" gradientTransform="matrix(0.6015 -0.7989 0.7989 0.6015 255.5247 1184.1707)">
		<stop  offset="1.106000e-02" style="stop-color:#C11616"/>
		<stop  offset="0.5487" style="stop-color:#E01B1B"/>
		<stop  offset="0.5822" style="stop-color:#EA1212"/>
		<stop  offset="0.6484" style="stop-color:#F50808"/>
		<stop  offset="0.7415" style="stop-color:#FC0202"/>
		<stop  offset="1" style="stop-color:#FE0000"/>
	</linearGradient>
	<path class="st9" d="M462.6,148.1c0,0,14.1-15.1,27.7-6.2c6.4,23.8,19.1,64.5,19.1,64.5s-9.8,13-25.3,6.7L462.6,148.1z"/>
	
		<linearGradient id="SVGID_11_" gradientUnits="userSpaceOnUse" x1="628.2541" y1="-212.8597" x2="647.7217" y2="-212.8597" gradientTransform="matrix(0.9203 -0.3911 0.3911 0.9203 -8.5012 650.7265)">
		<stop  offset="3.761000e-02" style="stop-color:#913214"/>
		<stop  offset="0.3529" style="stop-color:#943014"/>
		<stop  offset="0.6022" style="stop-color:#9E2A15"/>
		<stop  offset="0.8281" style="stop-color:#AF2115"/>
		<stop  offset="1" style="stop-color:#C11616"/>
	</linearGradient>
	<path class="st10" d="M493.3,200.3c4.9-2.1,9.9-1.6,11.1,1.2c1.2,2.7-1.9,6.7-6.8,8.8c-4.9,2.1-9.9,1.6-11.1-1.2
		S488.4,202.4,493.3,200.3z"/>
	
		<linearGradient id="SVGID_12_" gradientUnits="userSpaceOnUse" x1="482.9941" y1="-169.4021" x2="543.5599" y2="-169.4021" gradientTransform="matrix(0.9657 -0.2596 0.2596 0.9657 -6.476 492.3456)">
		<stop  offset="1.106000e-02" style="stop-color:#C11616"/>
		<stop  offset="0.5487" style="stop-color:#E01B1B"/>
		<stop  offset="0.5822" style="stop-color:#EA1212"/>
		<stop  offset="0.6484" style="stop-color:#F50808"/>
		<stop  offset="0.7415" style="stop-color:#FC0202"/>
		<stop  offset="1" style="stop-color:#FE0000"/>
	</linearGradient>
	<path class="st11" d="M444.2,158.3c0,0,20.4-3.2,25.7,12.1c-9.6,22.7-24.6,62.6-24.6,62.6s-15.7,4.2-24.1-10.3L444.2,158.3z"/>
	
		<linearGradient id="SVGID_13_" gradientUnits="userSpaceOnUse" x1="381.6133" y1="220.5987" x2="401.0809" y2="220.5987" gradientTransform="matrix(0.9661 0.2581 -0.2581 0.9661 113.6945 -90.6061)">
		<stop  offset="3.761000e-02" style="stop-color:#913214"/>
		<stop  offset="0.3529" style="stop-color:#943014"/>
		<stop  offset="0.6022" style="stop-color:#9E2A15"/>
		<stop  offset="0.8281" style="stop-color:#AF2115"/>
		<stop  offset="1" style="stop-color:#C11616"/>
	</linearGradient>
	<path class="st12" d="M425.4,221c0.8-2.9,5.6-4.1,10.8-2.7s8.8,4.9,8,7.7c-0.8,2.9-5.6,4.1-10.8,2.7
		C428.3,227.4,424.7,223.9,425.4,221z"/>
	
		<linearGradient id="SVGID_14_" gradientUnits="userSpaceOnUse" x1="455.6523" y1="-64.7226" x2="505.4028" y2="-64.7226" gradientTransform="matrix(1 0 0 1 13 132.823)">
		<stop  offset="1.106000e-02" style="stop-color:#C11616"/>
		<stop  offset="0.5487" style="stop-color:#E01B1B"/>
		<stop  offset="0.5822" style="stop-color:#EA1212"/>
		<stop  offset="0.6484" style="stop-color:#F50808"/>
		<stop  offset="0.7415" style="stop-color:#FC0202"/>
		<stop  offset="1" style="stop-color:#FE0000"/>
	</linearGradient>
	<path class="st13" d="M492.4,31.4c0,0-13-7.6-23.8,8.7l26,64.9c0,0,17.3,7.6,23.8-9.7L492.4,31.4z"/>
	
		<linearGradient id="SVGID_15_" gradientUnits="userSpaceOnUse" x1="464.3046" y1="7.7401" x2="514.0552" y2="7.7401" gradientTransform="matrix(1 0 0 1 13 132.823)">
		<stop  offset="1.106000e-02" style="stop-color:#C11616"/>
		<stop  offset="0.5487" style="stop-color:#E01B1B"/>
		<stop  offset="0.5822" style="stop-color:#EA1212"/>
		<stop  offset="0.6484" style="stop-color:#F50808"/>
		<stop  offset="0.7415" style="stop-color:#FC0202"/>
		<stop  offset="1" style="stop-color:#FE0000"/>
	</linearGradient>
	<path class="st14" d="M501.1,103.8c0,0-13-7.6-23.8,8.7l26,64.9c0,0,17.3,7.6,23.8-9.7L501.1,103.8z"/>
	
		<linearGradient id="SVGID_16_" gradientUnits="userSpaceOnUse" x1="765.4298" y1="-402.3359" x2="825.9959" y2="-402.3359" gradientTransform="matrix(0.7858 -0.6185 0.6185 0.7858 101.4294 920.3566)">
		<stop  offset="1.106000e-02" style="stop-color:#C11616"/>
		<stop  offset="0.5487" style="stop-color:#E01B1B"/>
		<stop  offset="0.5822" style="stop-color:#EA1212"/>
		<stop  offset="0.6484" style="stop-color:#F50808"/>
		<stop  offset="0.7415" style="stop-color:#FC0202"/>
		<stop  offset="1" style="stop-color:#FE0000"/>
	</linearGradient>
	<path class="st15" d="M462.2,78.2c0,0,17.5-11,28.4,1.1c0.1,24.7,2,67.2,2,67.2s-12.7,10-26.2,0L462.2,78.2z"/>
	
		<linearGradient id="SVGID_17_" gradientUnits="userSpaceOnUse" x1="509.7358" y1="-122.3475" x2="529.2034" y2="-122.3475" gradientTransform="matrix(0.9898 -0.1428 0.1428 0.9898 -17.4149 337.1324)">
		<stop  offset="3.761000e-02" style="stop-color:#913214"/>
		<stop  offset="0.3529" style="stop-color:#943014"/>
		<stop  offset="0.6022" style="stop-color:#9E2A15"/>
		<stop  offset="0.8281" style="stop-color:#AF2115"/>
		<stop  offset="1" style="stop-color:#C11616"/>
	</linearGradient>
	<path class="st16" d="M478.5,136.5c5.3-0.8,10,1,10.4,4s-3.5,6-8.9,6.7c-5.3,0.8-10-1-10.4-4S473.2,137.3,478.5,136.5z"/>
	
		<linearGradient id="SVGID_18_" gradientUnits="userSpaceOnUse" x1="477.8258" y1="706.8104" x2="527.5763" y2="706.8104" gradientTransform="matrix(0.5888 0.8083 -0.8083 0.5888 716.8951 -668.9628)">
		<stop  offset="1.106000e-02" style="stop-color:#C11616"/>
		<stop  offset="0.5487" style="stop-color:#E01B1B"/>
		<stop  offset="0.5822" style="stop-color:#EA1212"/>
		<stop  offset="0.6484" style="stop-color:#F50808"/>
		<stop  offset="0.7415" style="stop-color:#FC0202"/>
		<stop  offset="1" style="stop-color:#FE0000"/>
	</linearGradient>
	<path class="st17" d="M470.7,131c0,0-1.5-14.9-21-14.1l-37.2,59.2c0,0,4.1,18.4,21.9,13.5L470.7,131z"/>
	
		<linearGradient id="SVGID_19_" gradientUnits="userSpaceOnUse" x1="417.7986" y1="-43.1909" x2="466.4676" y2="-43.1909" gradientTransform="matrix(1 0 0 1 13 132.823)">
		<stop  offset="1.106000e-02" style="stop-color:#C11616"/>
		<stop  offset="0.5487" style="stop-color:#E01B1B"/>
		<stop  offset="0.5822" style="stop-color:#EA1212"/>
		<stop  offset="0.6484" style="stop-color:#F50808"/>
		<stop  offset="0.7415" style="stop-color:#FC0202"/>
		<stop  offset="1" style="stop-color:#FE0000"/>
	</linearGradient>
	<path class="st18" d="M479.5,59.5c0,0-18.4-9.7-23.8-7.6L430.8,119c0,0,11.9,8.7,22.7,8.7L479.5,59.5z"/>
	
		<linearGradient id="SVGID_20_" gradientUnits="userSpaceOnUse" x1="408.0648" y1="-83.5916" x2="468.6306" y2="-83.5916" gradientTransform="matrix(1 0 0 1 13 132.823)">
		<stop  offset="1.106000e-02" style="stop-color:#C11616"/>
		<stop  offset="0.5487" style="stop-color:#E01B1B"/>
		<stop  offset="0.5822" style="stop-color:#EA1212"/>
		<stop  offset="0.6484" style="stop-color:#F50808"/>
		<stop  offset="0.7415" style="stop-color:#FC0202"/>
		<stop  offset="1" style="stop-color:#FE0000"/>
	</linearGradient>
	<path class="st19" d="M460,13c0,0,20.5,2.2,21.6,18.4c-15.1,19.5-40,54.1-40,54.1s-16.2,0-20.5-16.2L460,13z"/>
	
		<linearGradient id="SVGID_21_" gradientUnits="userSpaceOnUse" x1="359.6271" y1="332.3763" x2="379.0948" y2="332.3763" gradientTransform="matrix(0.866 0.5 -0.5 0.866 280.3554 -398.9609)">
		<stop  offset="3.761000e-02" style="stop-color:#913214"/>
		<stop  offset="0.3529" style="stop-color:#943014"/>
		<stop  offset="0.6022" style="stop-color:#9E2A15"/>
		<stop  offset="0.8281" style="stop-color:#AF2115"/>
		<stop  offset="1" style="stop-color:#C11616"/>
	</linearGradient>
	<path class="st20" d="M425.6,68.7c1.5-2.6,6.5-2.5,11.1,0.2c4.7,2.7,7.2,7,5.7,9.6s-6.5,2.5-11.1-0.2
		C426.7,75.6,424.1,71.3,425.6,68.7z"/>
</g>
<rect x="27" y="31" class="st21" width="363" height="167"/>
<text transform="matrix(1 0 0 1 27 44.3398)"><tspan x="0" y="0" class="st22 st23">In ancient China firecrackers were made using </tspan><tspan x="0" y="24" class="st22 st23">bamboo stems filled with gunpowder that were </tspan><tspan x="0" y="48" class="st22 st23">burnt to create small explosions. Traditionally </tspan><tspan x="0" y="72" class="st22 st23">firecrackers were traditionally used to drive away </tspan><tspan x="0" y="96" class="st22 st23">evil spirits. Today, this tradition has evolved into </tspan><tspan x="0" y="120" class="st22 st23">the use of firecrackers during the festive season. </tspan></text>
</svg>
