<svg id="market" xmlns="http://www.w3.org/2000/svg" xmlns:xlink="http://www.w3.org/1999/xlink" viewBox="0 0 72.99998 364.14888">
  <defs>
    <style>
      .cls-1, .cls-3 {
        stroke: #c19b98;
        stroke-miterlimit: 10;
      }

      .cls-1 {
        fill: url(#linear-gradient);
      }

      .cls-2 {
        fill: url(#linear-gradient-2);
      }

      .cls-3 {
        fill: none;
      }

      .cls-4 {
        fill: #c19b98;
      }

      .cls-5 {
        opacity: 0.39;
      }
    </style>
    <linearGradient id="linear-gradient" x1="196.06175" y1="1.08788" x2="134.17039" y2="352.17745" gradientTransform="matrix(-1, 0, 0, 1, 196.00033, 0)" gradientUnits="userSpaceOnUse">
      <stop offset="0.01106" stop-color="#49241e"/>
      <stop offset="0.32743" stop-color="#a3181d"/>
      <stop offset="0.33399" stop-color="#9f191d"/>
      <stop offset="0.38185" stop-color="#841c1d"/>
      <stop offset="0.43631" stop-color="#6e1f1e"/>
      <stop offset="0.50045" stop-color="#5d211e"/>
      <stop offset="0.57978" stop-color="#52231e"/>
      <stop offset="0.69105" stop-color="#4b241e"/>
      <stop offset="1" stop-color="#49241e"/>
    </linearGradient>
    <linearGradient id="linear-gradient-2" x1="189.86353" y1="26.69177" x2="137.03244" y2="326.38535" gradientTransform="matrix(-1, 0, 0, 1, 196.00033, 0)" gradientUnits="userSpaceOnUse">
      <stop offset="0.01106" stop-color="#fefee2"/>
      <stop offset="0.05851" stop-color="#fafadc"/>
      <stop offset="0.20736" stop-color="#f1f2cc"/>
      <stop offset="0.32743" stop-color="#eeefc7"/>
      <stop offset="0.58268" stop-color="#f1f1cb"/>
      <stop offset="0.8607" stop-color="#f8f9d9"/>
      <stop offset="1" stop-color="#fefee2"/>
    </linearGradient>
  </defs>
  <title>map</title>
  <g id="map">
    <polygon class="cls-1" points="72.5 53.989 72.5 294.989 0.5 362.989 0.5 34.989 0.5 0.989 72.5 53.989"/>
    <polygon class="cls-2" points="61.807 287.006 61.807 63.057 11.193 25.8 11.193 334.807 61.807 287.006"/>
    <line class="cls-3" x1="11.19307" y1="53.98873" x2="61.50016" y2="81.39177"/>
    <line class="cls-3" x1="59.50016" y1="103.98873" x2="8.50016" y2="80.98873"/>
    <line class="cls-3" x1="11.19307" y1="118.12096" x2="61.50016" y2="134.98873"/>
    <line class="cls-3" x1="64.50016" y1="157.98873" x2="11.19307" y2="153.98873"/>
    <line class="cls-3" x1="63.57384" y1="184.24818" x2="10.11939" y2="183.72929"/>
    <line class="cls-3" x1="66.10405" y1="209.99288" x2="13.58918" y2="219.98459"/>
    <line class="cls-3" x1="64.76234" y1="240.31307" x2="14.93089" y2="259.6644"/>
    <line class="cls-3" x1="57.54626" y1="270.87711" x2="12.14697" y2="299.10035"/>
    <line class="cls-3" x1="30.00016" y1="37.73502" x2="30.00016" y2="319.55369"/>
    <line class="cls-3" x1="48.50016" y1="53.26218" x2="48.50016" y2="299.48873"/>
    <path class="cls-4" d="M62.8368,75.10091c-3.68073,6.15244-11.32511,7.56684-17.23558,10.70791-3.64187,1.93545-11.02873,7.77694-6.34206,12.30787a4.665,4.665,0,0,0,3.443,1.10029,11.08971,11.08971,0,0,1,2.87366.062c1.95255.54529,2.6374,2.384,2.79118,4.1965.23517,2.77187-.992,6.014.77566,8.49557a6.75965,6.75965,0,0,0,3.29527,2.14431c1.22689.48658,2.68723.81075,3.46074,2.01356.82641,1.28507.4116,2.81956.018,4.12846a35.13357,35.13357,0,0,0-1.7202,5.83841,19.95893,19.95893,0,0,0,.26241,6.41611c.06081.30624.52454.17574.46707-.12877a18.31386,18.31386,0,0,1,.44525-8.8734,30.416,30.416,0,0,0,1.49016-4.68863c.30756-2.3864-.91789-3.96183-3.053-4.90476-2.22175-.9812-4.27987-1.378-4.88709-4.158-.45091-2.06432.18914-4.20162.02324-6.28289-.17064-2.14079-.95091-4.20924-3.204-4.79409-2.00391-.52017-4.27248.65623-6.02644-1.01959-2.38588-2.27959-.62054-5.67969,1.1906-7.60063,2.4453-2.59355,5.88534-4.122,9.11748-5.471,5.11541-2.135,10.61325-4.03334,13.67136-8.98848.336-.54437-.52871-1.04907-.85672-.50078Z"/>
    <path class="cls-4" d="M49.33234,140.88936a32.43048,32.43048,0,0,1-7.43737,7.41919c-.20952.15982-.03044.5028.21293.36428a22.13537,22.13537,0,0,0,7.51451-7.61391c.11567-.1854-.16913-.346-.29007-.16955Z"/>
    <path class="cls-4" d="M49.64773,142.5802c.691-.94561,1.32347-1.99527,2.07475-2.88751.23159-.275-.22524-.58558-.37424-.28876-.53061,1.05707-1.25128,2.06329-1.85566,3.08557-.06014.10172.08837.18209.15515.09069Z"/>
    <path class="cls-4" d="M40.896,149.23462a21.4245,21.4245,0,0,1-7.097,2.9161,11.45588,11.45588,0,0,0-4.55043,1.6829c-1.82392,1.41753-2.60395,3.98407-1.12543,5.8762a.32108.32108,0,0,0,.314.083c6.73911-1.4037,12.57527,4.23175,19.29,3.02677,2.45725-.441,3.75713-1.90318,5.47917-3.55075,2.7542-2.6351,6.43166-3.76985,9.99766-4.84541.54787-.16525.31122-1.03184-.23676-.85881-3.688,1.16451-7.45946,2.42016-10.31125,5.15386-1.97027,1.88869-3.496,3.38063-6.40123,3.52864a17.21307,17.21307,0,0,1-6.4713-1.18688,39.38953,39.38953,0,0,0-6.96019-2.11c-.87684-.13168-1.88759.03151-2.73-.13278q-.4824.06434-.96346.1383-1.88337-1.59378-.67569-3.316c1.45-2.38553,4.64753-2.55871,7.0767-3.17089a23.90553,23.90553,0,0,0,5.86592-2.37757c.559-.31307.03353-1.20657-.50078-.85672Z"/>
    <path class="cls-4" d="M28.01007,140.10842c-3.94293.49677-7.90109.76143-11.84548,1.23784a.32639.32639,0,0,0-.31047.40757,6.31484,6.31484,0,0,0,6.462,4.37727c3.9-.366,5.71918-4.6798,9.29074-5.77693.426-.13086.22853-.81626-.18276-.66294-3.58222,1.33532-6.01605,6.01236-10.06669,5.82322a5.76658,5.76658,0,0,1-3.75348-1.83032c-1.56427-1.67754.102-1.7848,1.52207-1.91091,2.96978-.26375,5.90939-.51313,8.88411-.6726.6474-.03471.62036-1.07035,0-.99219Z"/>
    <path class="cls-4" d="M12.28518,70.07693c2.24257-1.79643,4.97383-2.1782,7.60871-3.095a22.09964,22.09964,0,0,0,5.49358-2.80542c1.93205-1.36417,6.24122-4.3694,3.88335-7.05566a3.944,3.944,0,0,0-3.6819-1.02692c-1.41333.21293-1.26039.78787-.30238-1.24543.753-1.59824.49757-1.466,1.82583-1.70562a29.84527,29.84527,0,0,0,3.54362-.75063,32.77223,32.77223,0,0,0,11.58494-6.659c.229-.20378-.06458-.56446-.32189-.41718-4.62035,2.6445-8.412,5.99421-13.84814,6.97323-2.19172.39472-6.67724,1.60683-4.57055,4.80453a.35048.35048,0,0,0,.38453.15648c2.32455-.64845,7.23658-.98222,4.4256,3.42279a9.00733,9.00733,0,0,1-1.769,1.67548A21.19281,21.19281,0,0,1,21.162,65.68648c-3.11894,1.34216-6.582,1.75264-9.478,3.6113a.494.494,0,1,0,.60118.77915Z"/>
    <path class="cls-4" d="M17.14631,278.83451c.34548,5.26366.70944,10.52011,1.01824,15.78555s.17205,10.565.51523,15.82289a.30879.30879,0,0,0,.61719,0c.22188-5.24419-.24-10.58456-.498-15.82289-.25951-5.26883-.71139-10.55232-1.37918-15.78555-.02161-.16938-.28522-.17949-.27344,0Z"/>
    <path class="cls-4" d="M19.33773,277.21337c4.93974-2.55449,10.01848-5.09435,14.72938-8.04979a.31665.31665,0,0,0-.31939-.54642c-5.002,2.42734-9.84653,5.38472-14.6308,8.21844a.21892.21892,0,0,0,.22081.37777Z"/>
    <path class="cls-4" d="M23.30474,309.29787a64.84919,64.84919,0,0,1,13.822-8.35077c.41238-.17463.05782-.81853-.35882-.61387a72.85113,72.85113,0,0,0-13.83237,8.48611c-.26678.2143.09394.689.36923.47854Z"/>
    <path class="cls-4" d="M34.33542,270.45288c-.07391,8.81571-.14781,17.92143.93517,26.681.05262.42558.69372.45528.6875,0-.12146-8.89-.84633-17.78049-.97423-26.681a.32441.32441,0,0,0-.64844,0Z"/>
    <path class="cls-4" d="M11.1691,192.17077c4.93107.68457,6.54525,5.38656,8.61328,9.1965a45.0078,45.0078,0,0,0,6.80642,9.4198,22.281,22.281,0,0,0,7.59233,5.58415,20.41274,20.41274,0,0,0,4.57152,1.03558c1.371.22519,6.56835,2.23807,4.81466,3.71533-1.17875.99295-5.12887.33522-6.5392.035a17.70457,17.70457,0,0,1-5.675-2.49833c-2.31461-1.444-5.04752-3.31726-7.87664-2.16955-1.9885.80669-3.8029,3.72226-5.985.4017-.60381-.91884-.62286-1.85149-1.52039-2.63943-2.02968-1.78185-5.19772-1.38965-6.86631-3.704a.40657.40657,0,0,0-.70157.41008c1.41126,2.74868,4.94508,2.06682,6.98735,3.95389,1.771,1.63638,1.774,5.72546,5.2069,4.21789,2.54565-1.11794,3.90275-2.96405,6.99238-1.6755,2.16232.90181,3.98533,2.437,6.13073,3.37695a16.3444,16.3444,0,0,0,11.189.66077.34637.34637,0,0,0,.20471-.50317c-2.0943-3.53027-4.87957-3.797-8.562-4.59728-4.35517-.94654-7.81115-4.16943-10.65089-7.4292-3.08928-3.54622-5.13693-7.46183-7.379-11.53572-1.59493-2.898-3.77838-5.51023-7.29729-5.66981-.23268-.01055-.29413.38129-.05608.41434Z"/>
    <path class="cls-4" d="M47.19841,210.846c-1.77811-.3578-2.19622,1.80112-1.25413,2.96444,1.6463,2.03289,5.38938,3.51946,7.90712,2.55078a3.6081,3.6081,0,0,0,2.04768-5.031c-1.22973-2.69127-4.539-3.42222-7.22175-2.94746-.42228.07473-.29947.706.09761.72126a10.22618,10.22618,0,0,1,4.46741.67006c1.77077.9199,3.13579,3.40538,1.5177,5.13161-1.25648,1.34045-3.32606,1.16163-4.87809.579a12.61008,12.61008,0,0,1-1.99984-1.01116,8.15482,8.15482,0,0,1-.73327-.47263q-2.047-1.08706-.01274-2.6946a.23542.23542,0,0,0,.06231-.46038Z"/>
  </g>
</svg>
