<svg id="nian" xmlns="http://www.w3.org/2000/svg" xmlns:xlink="http://www.w3.org/1999/xlink" viewBox="0 0 314 262.24571">
  <defs>
    <style>
      .cls-1 {
        fill: url(#linear-gradient);
      }

      .cls-2 {
        fill: url(#linear-gradient-2);
      }

      .cls-3 {
        fill: #eeefc7;
      }

      .cls-4 {
        fill: url(#linear-gradient-3);
      }

      .cls-5 {
        fill: #988c80;
      }

      .cls-6 {
        fill: url(#linear-gradient-4);
      }

      .cls-7 {
        fill: url(#linear-gradient-5);
      }
    </style>
    <linearGradient id="linear-gradient" x1="96" y1="224.74571" x2="314" y2="224.74571" gradientUnits="userSpaceOnUse">
      <stop offset="0.04646" stop-color="#988c80"/>
      <stop offset="1" stop-color="#eeefc7"/>
    </linearGradient>
    <linearGradient id="linear-gradient-2" x1="11" y1="198.74571" x2="300" y2="198.74571" gradientUnits="userSpaceOnUse">
      <stop offset="0.01106" stop-color="#282c35"/>
      <stop offset="0.02801" stop-color="#31343b"/>
      <stop offset="0.09632" stop-color="#514f50"/>
      <stop offset="0.17086" stop-color="#6b6562"/>
      <stop offset="0.25258" stop-color="#7f776f"/>
      <stop offset="0.34524" stop-color="#8d8379"/>
      <stop offset="0.4581" stop-color="#958a7e"/>
      <stop offset="0.64823" stop-color="#988c80"/>
      <stop offset="1" stop-color="#eeefc7"/>
    </linearGradient>
    <linearGradient id="linear-gradient-3" x1="0" y1="233.24571" x2="98" y2="233.24571" xlink:href="#linear-gradient"/>
    <linearGradient id="linear-gradient-4" x1="172" y1="236.74571" x2="241" y2="236.74571" gradientUnits="userSpaceOnUse">
      <stop offset="0.03715" stop-color="#49241e"/>
      <stop offset="0.29335" stop-color="#5d211e"/>
      <stop offset="0.81389" stop-color="#8f1b1d"/>
      <stop offset="1" stop-color="#a3181d"/>
    </linearGradient>
    <linearGradient id="linear-gradient-5" x1="182.47205" y1="249.63861" x2="229.11428" y2="222.70971" gradientUnits="userSpaceOnUse">
      <stop offset="0.03715" stop-color="#49241e"/>
      <stop offset="0.07647" stop-color="#53231e"/>
      <stop offset="0.25956" stop-color="#7e1d1d"/>
      <stop offset="0.40245" stop-color="#99191d"/>
      <stop offset="0.48673" stop-color="#a3181d"/>
      <stop offset="1" stop-color="#49241e"/>
    </linearGradient>
  </defs>
  <title>nian</title>
  <g id="Layer_46" data-name="Layer 46">
    <polyline class="cls-1" points="98 226.246 300 188.246 314 221.246 162 257.246 96 261.246 98 226.246"/>
    <polyline class="cls-2" points="11 204.246 205 171.246 300 188.246 98 226.246 11 204.246"/>
    <path class="cls-3" d="M140.18186,63.53386c3.67359,1.722,8.0249.35112,11.66733-1.43587s7.29258-4.03525,11.34968-4.06007a5.74169,5.74169,0,0,0,2.24824-.23444c1.51976-.65209,1.853-2.6759,1.6127-4.31211s-.82526-3.32366-.31593-4.897c.95519-2.95064,5.02657-3.64675,6.6372-6.29714,1.7941-2.95228-.1923-6.82106.559-10.19305.92159-4.13627,5.437-6.1781,9.2489-8.02943a5.87488,5.87488,0,0,0,2.58435-1.95953,8.13513,8.13513,0,0,0,.75477-3.35452A12.96573,12.96573,0,0,1,196.85026,7.90715a21.36127,21.36127,0,0,0,4.21175-.78759c1.5669-.619,2.77526-1.87938,4.147-2.85747a13.25528,13.25528,0,0,1,13.06157-1.17964,5.57248,5.57248,0,0,0,2.51527.8135,5.132,5.132,0,0,0,2.52264-1.17807c4.711-3.224,11.94933-4.111,15.5776.29618,3.07345-.93292,7.83038.02,8.727,3.10423a26.24029,26.24029,0,0,0,.8343,3.57822c1.76478,3.90992,9.03031,4.69963,8.33441,8.93256-.4215,2.56384-4.001,4.48438-2.96332,6.86642,4.55929,1.555,9.445,3.12634,14.10482,1.90533,2.6252-.68787,5.63149-2.17326,7.79694-.5375,1.4366,1.0852,1.73966,3.08381,1.93018,4.87411l.842,7.91213a21.40788,21.40788,0,0,1,.0215,6.55759,43.70558,43.70558,0,0,1-1.489,4.57794c-1.82726,5.64955-1.18147,11.81594-2.53753,17.59672s-6.05427,11.70962-11.951,11.01312c-5.20134-.61437-9.55132-6.19739-14.60433-4.81953-3.28456.89564-5.07391,4.39969-6.08066,7.65192a44.04814,44.04814,0,0,0-1.9663,12.99582,8.57211,8.57211,0,0,0,.72377,4.03671,14.00792,14.00792,0,0,0,2.12645,2.59943,15.02494,15.02494,0,0,1,.49042,18.7586c-1.71913,2.14738-4.00138,3.75632-6.07776,5.56056-14.105,12.25629-17.61643,35.02186-7.86,50.95861,2.17636,3.555,4.91815,6.78532,6.6222,10.58936a3.75715,3.75715,0,0,1,.33824,3.0769,3.964,3.964,0,0,1-1.97071,1.61966,71.05972,71.05972,0,0,1-18.06818,6.11806c-5.94613,1.15378-12.90416,1.24038-17.139-3.09018-4.51609-4.61815-4.46164-13.53019-4.64145-19.987-.05994-2.15252-.09616-4.30727-.27148-6.45348a70.21412,70.21412,0,0,0-8.072-26.8272c-.36508-.65246-.82516-1.3573-1.55544-1.51758-1.61567-.35459-2.30975,1.98251-2.20717,3.63345a79.84079,79.84079,0,0,0,9.51367,33.07018c1.57778,2.90065,3.34541,6.489,1.57563,9.27665-1.19577,1.88351-3.57612,2.57041-5.75931,3.02991a90.91992,90.91992,0,0,1-12.50393,1.73582c-4.63561.31773-10.05447-.08883-12.72692-3.88986-1.46008-2.07668-1.74393-4.73469-1.9339-7.26616a159.712,159.712,0,0,1-.32751-20.04542c.17-3.34686.40659-6.948-1.36688-9.79146-2.284-3.662-7.16657-4.78543-11.47016-4.45984s-8.49184,1.7502-12.80742,1.80188a10.72146,10.72146,0,0,1-4.612-.81175c-1.391-.63854-2.54685-1.70041-3.90415-2.40784a13.08642,13.08642,0,0,0-7.89425-.92134,26.99,26.99,0,0,0-21.91642,20.17273c1.931,1.52589,3.54547,4.99774,3.87662,7.43649a23.93757,23.93757,0,0,1-.42512,7.34066,19.534,19.534,0,0,0-.49379,5.69687c.51655,4.26548,3.9542,7.47235,6.83958,10.656s5.53827,7.49992,4.09133,11.5456c-1.181,3.30209-1.73946,4.46368-4.94653,5.88258s-6.79727,1.652-10.30194,1.77794q-4.91186.17654-9.82838.12618c-5.78906-.05935-10.97788-4.39205-14.30712-9.12839a13.83525,13.83525,0,0,1-1.88059-3.62567c-.92826-2.84086-.63368-5.91741-.32906-8.89051a22.55779,22.55779,0,0,0-12.44592-22.9601c-3.1082,3.68109-3.70684,8.97618-2.71791,13.69141s3.368,9.00416,5.71114,13.21381c.75349,1.35373,1.52722,2.94306.9608,4.3851-.64815,1.65014-2.67218,2.20034-4.42412,2.47193a79.06716,79.06716,0,0,1-15.44974.86163c-2.37788-.10082-4.91491-.37241-6.752-1.88552-2.49037-2.05117-2.89494-5.68614-2.7483-8.90915s.62447-6.61812-.73187-9.5455a24.20728,24.20728,0,0,0-2.556-3.80968,25.68637,25.68637,0,0,1-4.4107-19.15954c.69121-3.9888,2.32862-7.77168,2.95414-11.7713,1.19015-7.60986-1.35328-15.26767-1.78171-22.95811A42.37658,42.37658,0,0,1,34.40886,96.304c1.92463-2.1966,4.17417-7.0704,6.27908-9.09489,2.67509-2.5729,6.3168-3.8481,9.39579-5.92072,2.1647-1.45717,4.05055-3.3096,6.27687-4.67076a34.2314,34.2314,0,0,1,8.67967-3.33294l13.97626-3.95329c4.06239-1.14908,7.74688-.342,11.96465-.52577a5.58024,5.58024,0,0,0,2.17555-.389,7.65122,7.65122,0,0,0,1.63974-1.274c3.06233-2.67286,7.36386-3.27934,11.40561-3.71093,5.375-.574,10.84543-1.03591,16.155-.0216C127.61411,64.41436,135.33577,61.2622,140.18186,63.53386Z"/>
    <polygon class="cls-4" points="11 204.246 0 234.246 94 262.246 98 226.246 11 204.246"/>
  </g>
  <path class="cls-5" d="M229.08892,28.855a2.18878,2.18878,0,0,0-1.03531,2.42c-.83195-2.39818,8.4322-.26638,8.301-2.95165C234.33408,28.05771,230.90389,27.70225,229.08892,28.855Z"/>
  <path class="cls-5" d="M205.76322,25.047a2.66367,2.66367,0,0,0,1.00206-2.7364c.31744.68907-.47819,1.37383-1.19972,1.60833a3.07956,3.07956,0,0,1-2.65145-.17319,1.60377,1.60377,0,0,1-.372-2.36624c1.81537-1.69129,3.28653,2.66384,3.48683-.35428.14259-2.14856-2.41607-2.96722-3.93792-2.013C197.80075,21.70226,201.22476,28.61761,205.76322,25.047Z"/>
  <path class="cls-5" d="M188.13058,15.4183a7.08911,7.08911,0,0,0,1.64334,7.30037,5.94639,5.94639,0,0,0,7.21357.44644,5.08045,5.08045,0,0,0,.97574-.89293A4.472,4.472,0,0,0,198.928,18.686a4.25,4.25,0,0,0-2.181-2.98966,3.55414,3.55414,0,0,0-3.41439.02835,2.78168,2.78168,0,0,0-1.26,3.06533,2.29344,2.29344,0,0,0,2.81468,1.50314c-.88657.27617-1.71184-.90823-1.3542-1.76518a2.13511,2.13511,0,0,1,2.3514-1.05821,1.96511,1.96511,0,0,1,1.30165.73874,1.8408,1.8408,0,0,1,.29189.80988,2.74322,2.74322,0,0,1-2.259,2.96593,5.35267,5.35267,0,0,1-3.467-1.22661,4.31479,4.31479,0,0,1-.91561-.72086,3.03067,3.03067,0,0,1-.64806-2.07133,9.93212,9.93212,0,0,1,1.87965-4.80825c.74376-1.21567,2.036-2.6019,2.46933-3.875C192.34558,7.92042,188.66835,13.74275,188.13058,15.4183Z"/>
  <path class="cls-5" d="M192.93488,34.55933a4.78893,4.78893,0,0,1-1.22833-1.98567,6.22174,6.22174,0,0,1,.20582-4.46106,5.47062,5.47062,0,0,1,3.01628-2.927,4.423,4.423,0,0,1,4.10839.52108,2.35,2.35,0,0,1,.97835,1.42,2.93955,2.93955,0,0,1-.67609,2.07268c.33844.12694.54648-.39506.467-.74769a2.46372,2.46372,0,0,0-3.00179-1.64814,3.32548,3.32548,0,0,0-2.2546,2.81943,2.37815,2.37815,0,0,0,.57317,2.01115,2.91879,2.91879,0,0,0,1.945.626,4.87045,4.87045,0,0,0,2.25881-.34985c1.35942-.635,1.30651-3.7211,2.53726-2.54448.87284.83445.4827,2.77946-.06876,3.62505C200.12671,35.54962,195.27143,36.73848,192.93488,34.55933Z"/>
  <path class="cls-5" d="M205.00786,5.39377a1.68525,1.68525,0,0,1,.70327-1.96056,4.57815,4.57815,0,0,1,2.1449-.63275,43.16429,43.16429,0,0,1,4.41874-.27187l-2.9821.29672c-.69069.06872-1.54591.2776-1.68216.95819-.53445,2.66961,5.253-.23233,5.95845-.28347C213.22063,5.7958,206.05019,7.693,205.00786,5.39377Z"/>
  <path class="cls-5" d="M204.64838,11.1495a2.195,2.195,0,0,1-1.64333-2.11367.93071.93071,0,0,1,.08415-.50323,1.01508,1.01508,0,0,1,.41866-.35619,6.66631,6.66631,0,0,1,4.29959-.74,3.25522,3.25522,0,0,1,2.24844,1.24913,2.77889,2.77889,0,0,1-.17564,2.97833,6.17877,6.17877,0,0,1-2.44395,1.94691,8.05779,8.05779,0,0,1-2.0246.75839,8.43015,8.43015,0,0,1-4.37911-.51942c-1.18092-.408-2.44894-1.06205-2.80936-2.25835a2.91916,2.91916,0,0,1,1.54249-3.1879,6.64955,6.64955,0,0,1,3.72828-.58218,3.20416,3.20416,0,0,0-2.38115-.45686,5.30413,5.30413,0,0,0-3.454,1.0979c-1.11629,1.10636-1.02,2.91469-.7577,4.46431a5.3201,5.3201,0,0,0,1.46,3.30582,5.67061,5.67061,0,0,0,3.391.94988l2.42212.14718a5.191,5.191,0,0,0,1.73144-.08917A5.20532,5.20532,0,0,0,207.974,15.814a12.79423,12.79423,0,0,0,3.063-3.833,4.36424,4.36424,0,0,0-.45864-4.64254c-1.24047-1.34634-3.32306-1.38294-5.14947-1.258a3.33357,3.33357,0,0,0-1.426.318,2.98093,2.98093,0,0,0-1.21622,2.03526,3.589,3.589,0,0,0,.57287,3.38022,2.10071,2.10071,0,0,0,2.64143.188,1.48807,1.48807,0,0,0,.50963-1.97915C206.08078,10.52788,205.45262,11.27822,204.64838,11.1495Z"/>
  <path class="cls-5" d="M218.27562,11.8634a4.8418,4.8418,0,0,0,5.32694-2.75075c.17106-.404.24081-.9631-.12813-1.20043a.94248.94248,0,0,0-.4261-.118,4.56854,4.56854,0,0,0-2.54595.50247,2.71411,2.71411,0,0,1,5.35008-.386,4.26046,4.26046,0,0,1-.1941,2.20321,3.72434,3.72434,0,0,1-.69128,1.36761,4.65537,4.65537,0,0,1-2.88945,1.18185c-2.60182.41414-5.39964.80159-7.76287-.36292a2.53905,2.53905,0,0,1-1.10842-.91073,3.15726,3.15726,0,0,1-.31032-1.52135l-.10464-3.01987a4.67206,4.67206,0,0,1,.06415-1.21668,3.14462,3.14462,0,0,1,2.0539-2.09015,8.77334,8.77334,0,0,1,3.01418-.37984,6.54188,6.54188,0,0,1,2.78848.40908c.61092.28206,1.20815.76153,1.87139.648.97506-.1669,1.34324-1.473,2.26465-1.833a.98529.98529,0,0,1-.21472,1.15608,12.02474,12.02474,0,0,0-.9017.8895,5.95761,5.95761,0,0,1-.55555.87572c-1.58169,1.55074-4.93544-.55667-6.75.82462C214.36245,7.70277,215.55925,11.8634,218.27562,11.8634Z"/>
  <path class="cls-5" d="M212.259,14.00385c-1.19331.48421-2.51909,1.1043-2.92256,2.32727a4.08444,4.08444,0,0,0-.11629,1.53662,4.6686,4.6686,0,0,0,.662,2.44115c.81769,1.15581,2.38848,1.43367,3.79584,1.5881a5.56793,5.56793,0,0,0,3.30218-.3294,5.669,5.669,0,0,0,1.05889-.82394,7.5608,7.5608,0,0,0,2.21776-2.79519,7.52738,7.52738,0,0,0,.34307-1.96219,3.72916,3.72916,0,0,0-.06255-1.42181,2.20764,2.20764,0,0,0-3.138-1.05261,2.98183,2.98183,0,0,0-1.16449,3.34033,2.437,2.437,0,0,1,.24542-3.36872,4.74179,4.74179,0,0,1,2.99479-.74458,3.12547,3.12547,0,0,1,2.22691.52766,2.66338,2.66338,0,0,1,.68627,1.39269,9.32335,9.32335,0,0,1,.21606,2.89088l-.34669,1.31252a9.40892,9.40892,0,0,1-13.24244,5.25427,5.59982,5.59982,0,0,1-2.69362-2.679,6.43326,6.43326,0,0,1,.44967-4.90269,7.26586,7.26586,0,0,1,2.24723-3.10828,3.48168,3.48168,0,0,1,3.6541-.38717Z"/>
  <path class="cls-5" d="M209.02554,28.72316a2.77171,2.77171,0,0,1,2.23157,1.84585,1.7724,1.7724,0,0,1-1.46895,2.2143,2.475,2.475,0,0,0,2.32135-2.68489,3.87668,3.87668,0,0,0-2.34469-3.02391,6.09742,6.09742,0,0,0-7.46459,2.42571,7.29634,7.29634,0,0,0,.61735,8.05363A9.12589,9.12589,0,0,0,210.49322,40.86a10.422,10.422,0,0,0,6.644-2.84,7.26644,7.26644,0,0,0,1.32648-1.64985c1.03911-1.831.96614-4.06372.86405-6.16652a4.126,4.126,0,0,0-.20711-1.31209,4.12675,4.12675,0,0,0-.767-1.13153c-1.37006-1.604-3.04466-3.34948-5.15267-3.27035a6.93493,6.93493,0,0,1,2.658,9.7407c-2.29494,3.75187-6.98624,3.90287-10.05463,1.05668A3.78154,3.78154,0,0,1,209.02554,28.72316Z"/>
  <path class="cls-5" d="M183.95649,56.3205a1.41805,1.41805,0,0,0,.45208,1.23368c2.57491,2.64606,6.8081-2.45564,4.90478-3.74232-1.38347-.93526-1.29827,1.86275-1.68417,2.34443A2.72979,2.72979,0,0,1,183.95649,56.3205Z"/>
  <path class="cls-5" d="M207.45889,59.84768a2.32913,2.32913,0,0,1-.2181,1.6295c-.61069.96477-2.007.923-3.13808.76683a5.58364,5.58364,0,0,1-1.85048-.47676A1.89329,1.89329,0,0,1,201.172,60.283c-.02489-.47191.17521-1.00547-.10947-1.38266-.68065.63389-1.42126,1.427-1.28514,2.34706.17063,1.15333,1.557,1.63627,2.71408,1.779a19.87977,19.87977,0,0,0,3.13388.137,2.10982,2.10982,0,0,0,1.81742-.727,2.80606,2.80606,0,0,0,.26582-.96459c.14186-.76647.46458-1.49274.579-2.26381.10274-.6927-.53727-3.2786-1.75057-2.32959C205.96208,57.32806,207.33055,59.08253,207.45889,59.84768Z"/>
  <path class="cls-5" d="M225.76669,66.86919a3.60773,3.60773,0,0,1-2.61734,1.76908,2.83774,2.83774,0,0,1-2.76825-1.36482A2.36182,2.36182,0,0,0,221.803,70.0451a4.37529,4.37529,0,0,0,4.89276-1.18767,6.98644,6.98644,0,0,0,1.6001-5.00249,2.818,2.818,0,0,0-3.19-2.69637C225.15189,63.27758,227.17792,64.50027,225.76669,66.86919Z"/>
  <path class="cls-5" d="M209.3471,47.97521a3.75771,3.75771,0,0,1,4.40965-.18742,2.17565,2.17565,0,0,1,.79875.91374,2.95612,2.95612,0,0,1,.17316.92324,4.42576,4.42576,0,0,1-.17494,1.99654,1.63839,1.63839,0,0,1-1.53725,1.09722c1.22875-.01159,2.6873-.15144,3.28914-1.22276a3.52919,3.52919,0,0,0,.3375-1.38631,4.74676,4.74676,0,0,0-.44849-3.26495c-.235-.33058-.55426-.5981-.763-.94581-.16891-.2813-.25927-.60532-.43821-.88035a2.91936,2.91936,0,0,0-2.22295-1.02718,6.81052,6.81052,0,0,0-5.42975,1.34991,6.26156,6.26156,0,0,0-1.29275,1.83731,8.59758,8.59758,0,0,0-.93969,3.6979.75658.75658,0,0,0,.2346.66544C208.40047,53.5517,207.87406,49.195,209.3471,47.97521Z"/>
  <path class="cls-5" d="M191.05167,47.3488a5.992,5.992,0,0,0,6.56805-2.97552,7.504,7.504,0,0,0-.38967-7.41005c3.03421,1.30976,4.329,5.1114,3.82348,8.37735-.57151,3.69247-3.29815,7.15717-6.96,7.9a8.7754,8.7754,0,0,1-8.25337-3.09814,11.20875,11.20875,0,0,1-2.26244-8.6998c-2.36944.71634-5.34982,1.27475-6.97485-.5925a6.48336,6.48336,0,0,1-.93911-1.63724c-1.22829-2.72705-2.45107-5.94182-1.04489-8.58154a9.213,9.213,0,0,1,1.78247-2.17086,13.67129,13.67129,0,0,1,3.72976-2.82564,5.30016,5.30016,0,0,1,4.54339-.1158,4.54867,4.54867,0,0,1,2.148,5.05381,5.72589,5.72589,0,0,1-4.04915,3.948,2.60175,2.60175,0,0,1-1.84-.04262,1.21281,1.21281,0,0,1-.61754-1.56652,3.69954,3.69954,0,0,0,4.70629-1.2295,2.7657,2.7657,0,0,0,.05449-3.03124,3.04554,3.04554,0,0,0-2.35986-1.0941c-3.43305-.14879-6.09013,3.57146-5.87144,7.00077a5.09714,5.09714,0,0,0,1.248,3.23624,4.72784,4.72784,0,0,0,4.49,1.06876,6.43948,6.43948,0,0,0,3.46124-10.33845,4.83977,4.83977,0,0,1,3.16774,6.64509,3.33914,3.33914,0,0,1,3.95362-.25892,6.3026,6.3026,0,0,1,2.48894,3.359c.58273,1.60055.75128,3.54926-.32308,4.871s-3.68723,1.19377-4.09836-.45919a2.247,2.247,0,0,0,3.10058-1.02065,2.73352,2.73352,0,0,0-1.03412-3.24915C187.80649,34.73248,184.57719,45.57208,191.05167,47.3488Z"/>
  <path class="cls-5" d="M232.19887,1.61092a2.76895,2.76895,0,0,0,3.49421,1.96251l.18341-1.53941a4.09353,4.09353,0,0,1,2.17637.04872,1.48972,1.48972,0,0,1,.97454,1.73854c-.24517.68316-1.0626.93446-1.77072,1.09376-2.4962.56154-5.5523.95261-7.21294-.99382a2.2082,2.2082,0,0,1-.19983-2.85533A3.09293,3.09293,0,0,1,231.9961.41256L236.10093.234c-1.00182.15364-1.01082.7752-1.91466,1.23382C233.57082,1.78012,232.05993.9349,232.19887,1.61092Z"/>
  <path class="cls-5" d="M244.67685,8.36051a5.10072,5.10072,0,0,0-4.83164-3.27559,2.91331,2.91331,0,0,0-1.39456.35459,2.64982,2.64982,0,0,0-.93431,3.10346,5.27667,5.27667,0,0,0,2.28408,2.57542,10.97842,10.97842,0,0,0,8.47568,1.37334c-1.9302,1.39257-4.576.70047-6.95392.59776-4.44945-.19219-8.78348,1.91189-13.2244,1.57606-1.697-.12833-3.60929-.84126-4.12221-2.464a3.73864,3.73864,0,0,1,.28744-2.61817,6.56137,6.56137,0,0,1,7.31634-3.56421,4.57489,4.57489,0,0,0-4.67261,1.595,4.57489,4.57489,0,0,0-.34529,4.92525,22.17047,22.17047,0,0,0,6.55242.78542,17.309,17.309,0,0,0,.56895-7.33348c3.70434-1.49982,8.6531-3.08106,12.56-2.23966a4.45826,4.45826,0,0,1,2.622,1.30612c1.26782,1.565.26232,3.8967.58407,5.885-.93281.43182-1.62331-.8751-2.22229-1.71045C246.34552,8.00362,246.06018,7.75034,244.67685,8.36051Z"/>
  <path class="cls-5" d="M238.59516,17.6056,232.931,15.54251a11.86644,11.86644,0,0,0,5.62836,2.83931c-1.0308,1.56488-3.361,1.53987-5.12514.90807s-3.458-1.70062-5.33089-1.63887c.37128,1.274-.52308,2.58013-.50073,3.907a3.88576,3.88576,0,0,0,2.23979,3.17567,11.44771,11.44771,0,0,0,3.939.97262,2.11138,2.11138,0,0,0,1.24991-.09986.73043.73043,0,0,0,.30128-1.06131,1.06421,1.06421,0,0,0-.81888-.22171l-2.68676.0353c-.573-.93855.4284-2.1875,1.5201-2.31929a5.96874,5.96874,0,0,1,3.12515.89774,20.66178,20.66178,0,0,0,16.53992.338,15.26253,15.26253,0,0,1,2.57014-.96663c4.81812-1.06176,5.37278-8.28774-.48775-6.71347C248.64911,17.32643,245.54733,20.07748,238.59516,17.6056Z"/>
  <path class="cls-5" d="M266.58135,27.80543a5.98633,5.98633,0,0,1,6.36884.13915c2.049,1.396,2.63495,5.65919,2.97509,8.1151.26928,1.94429.08466,4.24363-1.51225,5.385-1.272.90915-2.98375.75594-4.52017,1.04577s-3.22011,1.587-2.77606,3.08618c.35417,1.19568,1.77725,1.61769,2.9043,2.15141a7.72118,7.72118,0,0,1,4.21345,5.465,4.34089,4.34089,0,0,1-.72746,3.634,4.95176,4.95176,0,0,1-1.85347,1.21652A14.5996,14.5996,0,0,1,261.067,58.344c-2.75942-.99828-5.17513-2.8215-7.97291-3.70657a25.50517,25.50517,0,0,0-5.10849-.8793,8.54456,8.54456,0,0,0-4.01.22669,2.92982,2.92982,0,0,0-1.9775,3.14678c.31933,1.31426,2.41224,1.88569,3.07679.70772.304-.53889.23815-1.24025.59214-1.7477a2.50915,2.50915,0,0,1,1.66119-.80133c3.78258-.74817,8.23532-1.31693,11.01835,1.35186,1.0756,1.03145,1.73758,2.42858,2.78293,3.49067,2.59667,2.63826,6.78572,2.60914,10.48163,2.401a5.17527,5.17527,0,0,0,2.99168-.79748c1.05367-.8365,1.27959-2.3143,1.49663-3.642.88253-5.39887,2.86272-10.5911,3.483-16.02634s-.40876-11.50136-4.51406-15.117C272.58088,24.76012,269.143,25.70182,266.58135,27.80543Z"/>
  <path class="cls-5" d="M235.7442,31.64008a4.05466,4.05466,0,0,0-.29671,1.34546,2.67739,2.67739,0,0,0,2.08964,2.57933,6.50954,6.50954,0,0,1-.90477-2.96418,3.02148,3.02148,0,0,1,1.36218-2.6568,4.70249,4.70249,0,0,1,2.79793-.30484c3.82022.36713,11.232,2.60557,14.809.83984,3.44753-1.70183,2.63361-4.24422-.53228-4.64685-1.53168-.19479-3.3018.58845-4.87084.57762-1.88022-.013-3.62622-.7169-5.4833-.72618A9.59042,9.59042,0,0,0,235.7442,31.64008Z"/>
  <path class="cls-5" d="M214.24653,86.78365a25.802,25.802,0,0,1-6.63391-2.69222,8.70255,8.70255,0,0,1-4.09587-5.64546,17.52392,17.52392,0,0,0,9.46894,5.9041,52.18051,52.18051,0,0,0,11.25391,1.3763c5.19077.25457,10.60745.13845,15.727.87865C242.87031,99.24434,219.71836,88.43178,214.24653,86.78365Z"/>
  <path class="cls-5" d="M214.05568,60.85491c-1.98321,1.46918-2.6361,4.11721-2.9502,6.56526a13.91963,13.91963,0,0,0,.24074,5.99529,5.92915,5.92915,0,0,0,4.05728,4.11446c.08371,1.5872,1.78963,2.60076,3.362,2.83268,3.17539.46836,6.34666-1.04288,8.826-3.08133a10.87551,10.87551,0,0,0,4.05353-5.934c.57839-2.8245-1.20285-6.266-4.08047-6.44394A7.67737,7.67737,0,0,1,216.66878,75.247a6.81933,6.81933,0,0,1-2.82235-7.21839c.58229-2.02562,2.19248-3.56814,3.77436-4.96093a8.1715,8.1715,0,0,1,1.96759-1.40239,5.66785,5.66785,0,0,1,5.67861,1.04347,14.70546,14.70546,0,0,1,3.57412,4.85626l.47627-4.17006a3.034,3.034,0,0,0,3.82667-.65087,6.3915,6.3915,0,0,0,1.40618-3.91922,6.06917,6.06917,0,0,0-.44808-3.17,2.81188,2.81188,0,0,0-2.56961-1.65221c.90358.11969,1.27429,1.20364,1.45349,2.09732.31156,1.55371.49121,3.47853-.78416,4.419a2.86336,2.86336,0,0,1-2.98164.02692,8.4233,8.4233,0,0,1-2.30934-2.10772,3.00793,3.00793,0,0,1-.97-2.01248c.08828-1.27826,1.68711-1.85683,2.96492-1.76229s2.61413.53378,3.79793.04353a12.59952,12.59952,0,0,0-3.95488-1.829,4.27355,4.27355,0,0,0-4.03776,1.09014,7.01988,7.01988,0,0,0-9.64667-8.22969,5.16436,5.16436,0,0,1,5.66268,1.36123c.1347,1.79427,1.26188,4.60082,1.39658,6.39509a36.06769,36.06769,0,0,1-5.33993,2.69855,10.64153,10.64153,0,0,1-4.60949.9982,4.48712,4.48712,0,0,1-3.85354-2.37543,5.88224,5.88224,0,0,1-.40121-2.31538c-.04407-2.37163.72786-5.253,3.02553-5.84231.34828-.59365-.649-1.07151-1.32767-.957-3.3909.57193-5.344,4.31794-5.61529,7.746A2.92963,2.92963,0,0,0,205.0785,56.305,19.06108,19.06108,0,0,0,214.05568,60.85491Z"/>
  <path class="cls-5" d="M202.19549,56.01632a5.70849,5.70849,0,0,1,2.46378.71627c1.86746,1.08216,2.78331,3.29131,3.144,5.41932.27265-1.85538.53049-3.8295-.23637-5.54085a6.412,6.412,0,0,0-3.82238-3.24657,14.16455,14.16455,0,0,0-5.09449-.585c-1.64128.05044-3.42908.27877-4.57517,1.45471a6.76636,6.76636,0,0,0-1.42967,2.95939,24.1362,24.1362,0,0,0-1.18193,9.48985c.39115,3.18588,2.02979,6.364,4.847,7.90226a13.09677,13.09677,0,0,0,5.76081,1.295,14.8417,14.8417,0,0,0,5.73536-.656,6.76927,6.76927,0,0,0,4.13478-3.81814,17.66937,17.66937,0,0,1-10.98859.70327,12.90965,12.90965,0,0,0,8.22553-9.5214c-2.68037,2.40518-9.7564,7.39731-13.28905,3.95777C191.61,62.37981,197.48057,55.68636,202.19549,56.01632Z"/>
  <path class="cls-5" d="M138.81185,69.84924q6.72264-.3372,13.42047-1.03785c2.37814-.2488,4.756-.53243,7.099-1.00957,3.42005-.69648,7.09127-1.78155,10.27509-.35147,4.37294,1.9642,8.44616,6.26233,12.36851,9.0184,7.40447,5.20281,14.69415,13.60415,22.51374,18.15931,10.439,6.08105,23.11755,10.33716,34.52275,6.35307-9.75186-1.27333-19.79949-1.03575-28.51332-5.59528-3.868-2.024-7.01611-5.16276-10.09948-8.25323L186.61352,73.31572c-2.702-2.70823-5.45315-5.4539-8.80651-7.29518a30.97238,30.97238,0,0,0-9.6263-3.07009,65.95161,65.95161,0,0,0-10.829-.98844l7.42436-1.48593a15.7211,15.7211,0,0,1,5.77241-.42625,18.54656,18.54656,0,0,1,5.82124,2.65305,17.923,17.923,0,0,0,7.66392,2.73583,7.89449,7.89449,0,0,0,7.15563-3.177,12.08809,12.08809,0,0,0,1.391-3.99793c.46717-2.11738.28421-5.20127-1.87595-5.38907a3.89049,3.89049,0,0,1,.74675,5.0222,6.94291,6.94291,0,0,1-4.5678,2.92464,8.1529,8.1529,0,0,1-6.07319-.798,5.11745,5.11745,0,0,1-2.39117-5.36563c.73386-2.83217,4.31748-4.095,7.14614-3.34774s5.03946,2.89348,7.11227,4.95822c1.34872-2.95977-.89029-6.51055-3.80859-7.94679a10.61887,10.61887,0,0,0-11.51252,1.60556,13.78579,13.78579,0,0,1-2.407,2.063c-1.66065.91375-3.69932.58941-5.56226.23989-.866-1.93258.11356-4.2997,1.74809-5.64624a13.13353,13.13353,0,0,1,5.84525-2.31733A7.2782,7.2782,0,0,0,167.64751,54.7c-8.78037.27581-15.15147,10.19985-23.93459,10.03311a18.855,18.855,0,0,0-3.87811-.03442,3.02493,3.02493,0,0,0-2.62647,2.4718C137.1241,68.66493,137.52649,69.08227,138.81185,69.84924Z"/>
  <path class="cls-5" d="M94.18594,203.2662c2.428-.19847,5.39454.59136,6.92895-1.3008.99518-1.2272.79955-3.0069.47525-4.55326a48.00811,48.00811,0,0,0-3.68283-10.86964,7.05436,7.05436,0,0,1,3.7744,3.39477,42.32082,42.32082,0,0,0,2.61388,4.487c1.45855,1.87362,3.62547,3.18622,4.7375,5.28413a12.01467,12.01467,0,0,1,1.029,5.3821,3.77177,3.77177,0,0,1-.21028,1.645,3.48357,3.48357,0,0,1-1.26391,1.32475c-6.06441,4.26684-14.14535,4.32577-21.44747,3.03652,4.32311.405,8.8473.78218,12.86075-.87476.97378-.402,1.90051-.91866,2.89764-1.25865a6.7418,6.7418,0,0,0,2.59465-1.14757c1.07592-1.0162,1.00239-2.71874.8491-4.19073a.95863.95863,0,0,0-.15646-.515c-.27439-.34013-.81436-.16239-1.20871.02592a15.40306,15.40306,0,0,1-6.43511,1.49658c-2.19708.0253-7.12325,1.50972-8.63754.54719A6.83306,6.83306,0,0,1,94.18594,203.2662Z"/>
  <path class="cls-5" d="M238.02449,96.29021c.868,3.65923-1.233,7.28089-3.0269,10.58624A81.05737,81.05737,0,0,0,225.247,143.562c-.55508-1.73743.19546-3.61552,1.12346-5.18575,2.97351-5.03138,7.75189-8.677,11.87055-12.82351s7.81745-9.401,7.60925-15.24166c-.1557-4.36773-2.47063-8.32648-4.72008-12.07366-.19441-.32385-.51178-.69746-.86954-.57626-.284.0962-.3767.44558-.4155.74289-.70949,5.43657,2.29408,11.12517.47874,16.29858a18.49971,18.49971,0,0,1-3.08832,5.0196l-6.05781,7.83026a66.53976,66.53976,0,0,1,4.44387-16.47323c1.18709-2.86967,2.58921-5.702,3.06338-8.7711"/>
  <path class="cls-5" d="M224.19258,143.757a264.25434,264.25434,0,0,0-1.42452,34.84894c.04942,1.95967.16792,4.05831,1.35378,5.61924,2.48982,3.27732,8.36553,2.58659,10.39857,6.16525a8.89582,8.89582,0,0,0-1.2176-8.43813,47.75689,47.75689,0,0,1-6.45531-11.9983C223.72762,160.83238,221.85451,153.10954,224.19258,143.757Z"/>
  <path class="cls-5" d="M193.96455,139.81208a5.22765,5.22765,0,0,0-1.38481-2.371,8.65407,8.65407,0,0,0-2.04749-1.02307c-4.78379-2.17284-6.40707-8.88669-11.3798-10.58312a23.82166,23.82166,0,0,1,3.8291,8.93908,12.18437,12.18437,0,0,0,.60813,2.39342,11.66284,11.66284,0,0,0,1.54854,2.36117,36.95985,36.95985,0,0,1,5.9591,12.94382c.48547,1.84438,1.35195,14.0345,2.54264,14.5341C199.74827,169.56944,194.78838,142.1275,193.96455,139.81208Z"/>
  <path class="cls-5" d="M174.36813,106.64072c.421,4.43147,2.13928,8.62787,3.98235,12.67982,2.40367,5.28439,5.1392,10.572,9.37862,14.538a25.52631,25.52631,0,0,0,17.71041,6.80181,7.41585,7.41585,0,0,0,3.52486-.74061A8.65756,8.65756,0,0,0,210.974,138.158c2.95709-3.19041,6.05144-6.65559,6.704-10.95642a8.70324,8.70324,0,0,1-2.29385,7.53057c-8.9534,9.164-6.91234,24.70919-5.54632,37.44794l-3.41468-25.66587a3.75263,3.75263,0,0,0-.60417-1.88c-.92882-1.17334-2.734-.83611-4.23017-.86629a12.8542,12.8542,0,0,1-5.75063-1.96094c-6.56569-3.59109-12.77321-8.1749-16.97086-14.37037S172.14826,113.78749,174.36813,106.64072Z"/>
  <path class="cls-5" d="M175.4161,143.992c1.62411,3.91871,1.508,8.304,1.5244,12.54592a170.72459,170.72459,0,0,0,3.07763,31.60552,14.28659,14.28659,0,0,1-4.84846.41029l7.735-.0432q.12443-9.39939-.48177-18.78951l2.02063,4.19027,1.71528,2.33073a16.17817,16.17817,0,0,1,1.59,5.51529,5.49163,5.49163,0,0,1-2.31423,4.98632,8.11182,8.11182,0,0,1-3.738.82775.70891.70891,0,0,0,.14377,1.07068,2.04838,2.04838,0,0,0,1.20618.25244l8.37693.00715a3.32727,3.32727,0,0,0,1.76289-.32487,2.61453,2.61453,0,0,0,.935-1.18057c1.52426-3.308-.14347-7.13573-1.78812-10.38559l-5.273-10.41952-.817-2.91808c-1.86589-4.68458-2.2496-9.80653-2.61278-14.83593l-.3716-5.146c-.24619-3.40923-.50585-6.87974-1.75909-10.05981-1.62708-4.12869-4.82072-7.46361-8.34267-10.16349l.42171,1.21259c.82379,2.36874,4.7028,5.34,5.85252,7.56885a9.255,9.255,0,0,1,1.29272,4.162,3.63617,3.63617,0,0,1-2.18533,3.4944,7.9379,7.9379,0,0,1-3.13718-.01636,8.88235,8.88235,0,0,0-8.72744,5.50411c2.50907,1.2103,5.98726-1.10726,8.10569.70175a5.04488,5.04488,0,0,1,1.3496,3.18546,52.78173,52.78173,0,0,1,.62167,7.83852"/>
  <path class="cls-5" d="M167.16556,156.32365a8.9712,8.9712,0,0,1,1.13854,3.91447l-.64683-11.48441a5.12354,5.12354,0,0,0-.55325-2.44838c-1.59678-2.57407-4.65525-1.6245-4.67142.92843C162.418,149.54447,166.14592,154.176,167.16556,156.32365Z"/>
  <path class="cls-5" d="M166.10488,147.86957c2.64647.12,5.468.19845,7.74025-1.16356,3.16693-1.89828,4.229-5.90333,5.0169-9.51057-2.44816.82906-3.982,4.2738-6.50858,3.72847-2.298-.496-2.50073-3.62732-2.46408-5.978.11833-7.58973-2.84206-14.84824-5.75251-21.85875a90.088,90.088,0,0,1,2.69693,25.54294,2.6587,2.6587,0,0,1-.43044,1.62924,2.70612,2.70612,0,0,1-1.76875.72469l-5.00521.7325a71.515,71.515,0,0,0-3.62117-22.51992c.48428,6.82951.9215,13.96073-1.7623,20.25946a4.36277,4.36277,0,0,1-1.94246,2.43486c-1.19125.542-2.56739.03978-3.87456-.02511-1.55671-.07728-4.687.928-5.02456,2.779-.5245,2.8765,2.49708,2.28992,4.54274,2.4012C153.99608,147.37509,160.05306,147.5951,166.10488,147.86957Z"/>
  <path class="cls-5" d="M93.66016,154.92011a25.5454,25.5454,0,0,1,6.63746-7.20436c1.40109-1.10032,3.02985-2.52624,2.71446-4.27961-.25788-1.43368-1.8047-2.53744-1.61437-3.98164,1.6634.54616,3.50147-.684,4.20475-2.28731a9.26069,9.26069,0,0,0,.26822-5.1712c-.87971-5.50686-2.82084-10.963-2.25263-16.51066l5.21137,18.32958c.46335,1.62971,1.3171,3.58708,3.00987,3.659.64909-7.22852-3.56352-14.42552-2.08552-21.531a149.79546,149.79546,0,0,0,7.24151,27.14261c-3.31586-.56347-6.47736,1.44456-9.17342,3.45544a36.419,36.419,0,0,0-7.77625,7.27026,14.86914,14.86914,0,0,0-3.179,9.9554c3.42139,2.2272,4.118,6.95553,3.73694,11.02015s-1.49113,8.2196-.40934,12.1561c-2.06973-2.76536-1.72861-6.56681-1.55312-10.01648s-.17061-7.44316-2.972-9.46382c-.80985-.58415-2.25693-.74258-2.54075.21478-.19248.64926.34751,1.25766.77075,1.78629A7.1087,7.1087,0,0,1,91.29775,179.931c1.08866-.47125,1.29455-5.95052,1.18579-6.9874-.23859-2.27468-1.86147-4.01866-2.0444-6.26156C90.16816,163.3596,92.09909,157.66028,93.66016,154.92011Z"/>
  <path class="cls-5" d="M124.40833,123.99251c.66689,6.01854,1.06354,12.57221,5.05086,17.1295,1.06059,1.21219,2.70028,2.29341,4.19338,1.68933,1.38207-.55916,1.87-2.243,2.091-3.71739a36.36376,36.36376,0,0,0-1.84151-17.89661l3.822,14.687c.77137,2.9642,2.04572,6.43931,5.03647,7.10031a29.49573,29.49573,0,0,0,3.46119.13761c1.15124.11471,2.41511.75872,2.60637,1.89975l-14.08422,2.33636a5.75418,5.75418,0,0,1-3.04291-.04631,7.7753,7.7753,0,0,1-2.00424-1.45727c-4.13723-3.46779-10.21818-3.387-15.44728-2.0458a7.117,7.117,0,0,0-.08032-6.23508,81.96186,81.96186,0,0,1,11.19967,2.27017c-.4101-4.15053-2.29344-8.0343-2.83212-12.17011-.30436-2.33677-.17307-4.70783-.34039-7.05839-.53722-7.54705-4.26294-14.747-3.69861-22.39348C122.10431,105.88044,123.47932,115.60838,124.40833,123.99251Z"/>
  <path class="cls-5" d="M134.25975,62.6878q3.49807,3.56741,6.714,7.39758a38.3214,38.3214,0,0,1,5.605,8.21586,39.23731,39.23731,0,0,1,2.45964,7.72423,154.69805,154.69805,0,0,1,4.0461,38.75225c-.13417,5.98815-.63319,12.04837-2.61411,17.701-.168.47936-.61172,1.06315-1.05.80647a145.481,145.481,0,0,0-1.71367-49.54646,68.69433,68.69433,0,0,0-1.68512-6.6686,45.02014,45.02014,0,0,0-3.56327-8.27292,17.6024,17.6024,0,0,0-5.39576-6.41435c-2.36025-1.54708-5.54351-2.08919-8.028-.75077a144.49212,144.49212,0,0,1,15.62287,71.06981c-.78786.24968-1.20157-.909-1.21056-1.73544-.24879-22.87451-7.63078-45.02681-15.66362-66.44592-.46112-1.22954-1.0175-2.5656-2.18824-3.16037a5.36214,5.36214,0,0,0-2.64406-.35063l-7.81528.287c-3.66151.13448-7.46855.30657-10.7,2.03356a2.25384,2.25384,0,0,0-1.35157,1.48738,2.34248,2.34248,0,0,0,.62981,1.6203c1.19649,1.606,2.38435,3.3043,3.51989,4.954,5.41521,7.86717,8.38942,17.23968,9.55727,26.71876s.594,19.0969-.62665,28.56933a5.32133,5.32133,0,0,0,.1487,2.85388,1.80557,1.80557,0,0,0,2.35357,1.0266,2.256,2.256,0,0,0,.75762-.8537c1.38647-2.35908,1.5293-5.22613,1.53232-7.96247a108.43677,108.43677,0,0,0-2.98331-25.36554c-1.42269-5.93554-3.35886-12.07346-1.9798-18.01929a29.89932,29.89932,0,0,1,.43368,4.38212,22.65078,22.65078,0,0,0,1.70294,5.39061c5.19818,13.17127,5.29315,26.77685,3.76113,40.57163l-.51681,4.65468a14.69807,14.69807,0,0,1-6.11747-.90179,1.88535,1.88535,0,0,1-.9788-.64932,2.01731,2.01731,0,0,1-.158-1.30718l1.62856-15.6565a68.57412,68.57412,0,0,0,.49925-7.353c-.02459-6.2744-1.76483-12.40577-3.64945-18.3905C110.09,91.134,106.98407,82.80279,100.38525,77.6834c-2.28765-1.77478-5.08809-3.29689-6.06933-6.02092a5.5858,5.5858,0,0,1,.59349-3.4196,9.807,9.807,0,0,1,6.24221-4.83445,29.07359,29.07359,0,0,1,8.0671-.79807l21.17312-.10993c1.601-.00831,3.38013-.087,4.51337-1.218l-.64547,1.40533"/>
  <path class="cls-5" d="M97.57134,73.92551A80.32348,80.32348,0,0,0,67.96616,76.7671,31.18924,31.18924,0,0,0,61.445,79.312c-2.4889,1.38448-4.64281,3.30126-7.07883,4.7768a23.33607,23.33607,0,0,1-10.76934,3.32534,1.9467,1.9467,0,0,1,.73949-2.54528,10.8051,10.8051,0,0,1,2.74186-1.05328c2.49673-.87845,4.35682-2.93111,6.35878-4.66244,6.41134-5.54465,14.90562-8.11934,23.31229-9.20388A79.94228,79.94228,0,0,1,93.992,69.60239C95.63272,71.08666,96.65917,71.90982,97.57134,73.92551Z"/>
  <path class="cls-5" d="M38.76,91.70354c1.06455-2.91527,3.35079-5.5738,6.385-6.226,2.289-.492,4.75792.18381,6.97-.58308a27.33018,27.33018,0,0,1-5.3016,5.812c-2.70672,2.44588-3.93368,4.3069-6.98694,6.30347C33.855,100.9148,30.2843,107.78627,29.05461,114.8145s-.35945,14.255.98978,21.2613A157.53192,157.53192,0,0,0,36.967,160.88342a44.26554,44.26554,0,0,0-4.65167-6.07279,87.39483,87.39483,0,0,0,.2229,29.03023c.55238,3.12541,1.32431,6.32791,3.253,8.84852a11.529,11.529,0,0,0,12.07618,3.95854l-8.70018.08968a3.35223,3.35223,0,0,0-1.68068.31145c-1.13552.66576-1.03588,2.48762-.10553,3.41878a5.48692,5.48692,0,0,0,3.65165,1.24759,6.84336,6.84336,0,0,1-7.03861-1.12856c-2.53789-2.23012-3.02183-5.97355-2.962-9.35152s.465-6.90955-.88189-10.008c-.5405-1.2434-1.34572-2.36265-1.832-3.62826-1.54235-4.01454.29878-8.93933-1.92308-12.62155-.75569-1.25238-1.95-2.28146-2.30844-3.69959-.38158-1.50978.278-3.05978.80032-4.52683,3.13336-8.80085,1.54569-18.46955.60554-27.76412s-.95519-19.47167,4.6092-26.97569c2.368-3.19337,5.60335-5.672,7.91559-8.9059"/>
  <path class="cls-5" d="M53.25288,141.60694a22.98475,22.98475,0,0,1-.3346,13.73749c-.83535,2.43662-2.07909,4.72021-2.87141,7.17115a41.40063,41.40063,0,0,0-1.50307,9.90562c-.34588,4.96053-.626,10.23935,1.7774,14.59252,2.047,3.70759,6.05593,7.19511,4.88137,11.26411q-6.32292,1.80161-12.59007,3.79175a85.08034,85.08034,0,0,0,9.78194.70256c2.75281.03859,6.0214-.35388,7.325-2.77874,1.28863-2.39693-.13151-5.29666-1.52523-7.634-3.42686-5.74709-6.02586-14.73-2.98563-20.69063.71061-1.39321,1.73628-2.70957,1.84659-4.26964.19651-2.77912-2.58157-5.43423-1.57839-8.03341a10.4771,10.4771,0,0,1,1.01577-1.69178,11.1728,11.1728,0,0,0,1.21769-6.93653C57.33394,146.57323,55.60864,145.06123,53.25288,141.60694Z"/>
  <path class="cls-5" d="M44.50476,155.30941a4.50458,4.50458,0,0,1-4.39732-1.47743,6.20282,6.20282,0,0,1-1.37632-4.55359c.22914-2.89345,2.47875-5.67725,5.36823-5.9519a3.66265,3.66265,0,0,0-3.86772-.4083,6.73511,6.73511,0,0,0-2.88573,2.83821c-1.70225,2.9005-2.02875,6.751-.21771,9.58487s5.97722,4.10561,8.777,2.24249c2.23664-1.48838,3.12625-4.46277,3.03034-7.021C47.56162,152.17971,46.88114,154.68486,44.50476,155.30941Z"/>
  <path class="cls-5" d="M53.06261,132.06447a33.32954,33.32954,0,0,1,.1508-7.01917c.648-3.95472,2.68749-7.52314,4.69114-10.99373a18.687,18.687,0,0,1,3.96613-5.298,8.38677,8.38677,0,0,0-3.057,3.97767,39.10622,39.10622,0,0,0-3.48208,14.10788,78.073,78.073,0,0,0,1.13917,15.11263c.51318,3.63888,1.37043,7.44267,1.43978,11.09088C53.02679,148.86077,53.30632,137.91351,53.06261,132.06447Z"/>
  <path class="cls-5" d="M59.86622,170.6229a8.17051,8.17051,0,0,0,3.46345.37027,2.39327,2.39327,0,0,0,1.38959-.34222,2.18294,2.18294,0,0,0,.66345-1.18292A12.63265,12.63265,0,0,0,61.04,156.28875c.41769-.64987,1.42868-.39766,2.07571.02441,3.3759,2.20213,4.51506,6.6538,4.46454,10.68413a7.77283,7.77283,0,0,1-.237,2.05811,5.42358,5.42358,0,0,1-5.59373,3.57727,7.84338,7.84338,0,0,1-5.79548-3.79907c-1.93207-3.07153-2.28089-7.82043.15812-10.67787C57.00357,162.13213,54.68475,168.46363,59.86622,170.6229Z"/>
  <path class="cls-5" d="M47.65672,114.19365a67.176,67.176,0,0,0-2.35852,13.85686,6.44427,6.44427,0,0,0,6.91133-1.35924,13.19165,13.19165,0,0,0,2.63728-4.99822A150.3769,150.3769,0,0,1,64.86524,99.71522l-3.535,9.02472c-.43931,1.12153-.87939,2.24535-1.20456,3.40513-.55986,1.99685-.7717,4.07233-1.16773,6.108a27.38713,27.38713,0,0,1-3.98218,10.035A8.39627,8.39627,0,0,1,50.847,131.882a5.95839,5.95839,0,0,1-5.70021-1.42476,8.37477,8.37477,0,0,1-2.49149-5.47619c-.555-6.79535,5.24591-10.183,6.90481-15.90537A15.63693,15.63693,0,0,0,47.65672,114.19365Z"/>
  <path class="cls-5" d="M87.80464,129.51746a5.8512,5.8512,0,0,0,1.7938,4.497c1.71,1.46677,4.216,1.38311,6.463,1.2195a2.53358,2.53358,0,0,0,1.26624-.32007,2.31171,2.31171,0,0,0,.69439-.9146,13.415,13.415,0,0,0,.9785-9.36449c-.54487-2.062-1.85474-4.18973-3.94687-4.604a3.53459,3.53459,0,0,1,2.34026-.69292c2.02648.13872,3.50254,1.94658,4.52252,3.70314,2.2542,3.88206,3.52992,8.89022,1.29429,12.783-2.48177,4.32136-8.5073,5.50647-13.22579,3.90361a8.76227,8.76227,0,0,1-4.85869-3.52355c-1.70632-2.87093-.72772-6.61893.99919-9.48165a3.7295,3.7295,0,0,1,1.74668-1.629C88.6189,126.43931,87.81284,127.929,87.80464,129.51746Z"/>
  <path class="cls-5" d="M85.70676,177.59673c1.39688,2.51621,5.19486,3.68286,7.29,1.70985,1.33184-1.25417,1.59742-3.26692,1.52134-5.09475-.0956-2.29683-.79254-4.84449-2.79361-5.976-.31382-.17745-.69878-.38126-.71882-.74122-.02787-.50062.64845-.69717,1.14745-.64818a6.77535,6.77535,0,0,1,4.7529,3.19289,20.0621,20.0621,0,0,1,2.23223,5.45763,11.43,11.43,0,0,1,.63657,3.27851,6.975,6.975,0,0,1-3.31923,5.60958,11.53192,11.53192,0,0,1-6.49591,1.61673,5.68377,5.68377,0,0,1-2.59343-.53285,4.80437,4.80437,0,0,1-1.70273-1.68764c-1.46974-2.28672-3.37846-10.12974-.69039-11.77864C84.84177,173.87984,84.74423,175.86292,85.70676,177.59673Z"/>
  <g id="plaque">
    <polygon class="cls-6" points="172 231.246 231 218.246 241 240.246 181 255.246 172 231.246"/>
    <polygon class="cls-7" points="176.828 233.868 228.929 222.388 235.935 237.801 183.243 250.974 176.828 233.868"/>
  </g>
</svg>
