<svg id="Layer_1" data-name="Layer 1" xmlns="http://www.w3.org/2000/svg" xmlns:xlink="http://www.w3.org/1999/xlink" viewBox="0 0 50.35156 71.17707">
  <defs>
    <style>
      .cls-1, .cls-2, .cls-33, .cls-34 {
        stroke: #000;
        stroke-miterlimit: 10;
      }

      .cls-1 {
        fill: url(#linear-gradient);
      }

      .cls-2 {
        fill: url(#linear-gradient-2);
      }

      .cls-3 {
        fill: url(#linear-gradient-3);
      }

      .cls-11, .cls-12, .cls-13, .cls-16, .cls-17, .cls-18, .cls-19, .cls-21, .cls-22, .cls-23, .cls-24, .cls-25, .cls-4, .cls-5, .cls-6 {
        opacity: 0.13;
      }

      .cls-4 {
        fill: url(#linear-gradient-4);
      }

      .cls-5 {
        fill: url(#linear-gradient-5);
      }

      .cls-7 {
        fill: url(#linear-gradient-6);
      }

      .cls-8 {
        fill: url(#linear-gradient-7);
      }

      .cls-9 {
        fill: url(#linear-gradient-8);
      }

      .cls-10 {
        fill: url(#linear-gradient-9);
      }

      .cls-11 {
        fill: url(#linear-gradient-10);
      }

      .cls-12 {
        fill: url(#linear-gradient-11);
      }

      .cls-13 {
        fill: url(#linear-gradient-12);
      }

      .cls-14 {
        fill: url(#linear-gradient-13);
      }

      .cls-15 {
        fill: url(#linear-gradient-14);
      }

      .cls-16 {
        fill: url(#linear-gradient-15);
      }

      .cls-17 {
        fill: url(#linear-gradient-16);
      }

      .cls-18 {
        fill: url(#linear-gradient-17);
      }

      .cls-19 {
        fill: url(#linear-gradient-18);
      }

      .cls-20 {
        fill: url(#linear-gradient-19);
      }

      .cls-21 {
        fill: url(#radial-gradient);
      }

      .cls-22 {
        fill: url(#radial-gradient-2);
      }

      .cls-23 {
        fill: url(#radial-gradient-3);
      }

      .cls-24 {
        fill: url(#radial-gradient-4);
      }

      .cls-25 {
        fill: url(#radial-gradient-5);
      }

      .cls-26 {
        fill: url(#linear-gradient-20);
      }

      .cls-27 {
        fill: url(#radial-gradient-6);
      }

      .cls-28 {
        fill: url(#linear-gradient-21);
      }

      .cls-29 {
        fill: url(#radial-gradient-7);
      }

      .cls-30 {
        fill: url(#linear-gradient-22);
      }

      .cls-31 {
        fill: url(#linear-gradient-23);
      }

      .cls-32 {
        fill: url(#linear-gradient-24);
      }

      .cls-33 {
        fill: url(#linear-gradient-25);
      }

      .cls-34 {
        fill: url(#linear-gradient-26);
      }
    </style>
    <linearGradient id="linear-gradient" x1="4.96753" y1="35.84376" x2="-0.03284" y2="35.84376" gradientUnits="userSpaceOnUse">
      <stop offset="0" stop-color="#bc5044"/>
      <stop offset="0.15916" stop-color="#b74e42"/>
      <stop offset="0.35883" stop-color="#a7483d"/>
      <stop offset="0.58018" stop-color="#8e3e35"/>
      <stop offset="0.81545" stop-color="#6a3129"/>
      <stop offset="1" stop-color="#49241e"/>
    </linearGradient>
    <linearGradient id="linear-gradient-2" x1="25.3125" y1="5.24969" x2="25.3125" y2="0.11005" gradientUnits="userSpaceOnUse">
      <stop offset="0" stop-color="#bc5044"/>
      <stop offset="0.29456" stop-color="#903f36"/>
      <stop offset="0.60195" stop-color="#6a3129"/>
      <stop offset="0.848" stop-color="#522721"/>
      <stop offset="1" stop-color="#49241e"/>
    </linearGradient>
    <linearGradient id="linear-gradient-3" x1="69.73586" y1="7.36293" x2="2.73586" y2="51.0296" gradientUnits="userSpaceOnUse">
      <stop offset="0" stop-color="#393218"/>
      <stop offset="0.01772" stop-color="#3c351b"/>
      <stop offset="0.16796" stop-color="#4f462c"/>
      <stop offset="0.34341" stop-color="#5c5338"/>
      <stop offset="0.56724" stop-color="#645a3f"/>
      <stop offset="1" stop-color="#665c41"/>
    </linearGradient>
    <linearGradient id="linear-gradient-4" x1="-639.45951" y1="1134.98808" x2="-544.57268" y2="1040.10125" gradientTransform="matrix(1.3012, 0.07809, 1.16178, -0.6988, -468.83363, 850.09686)" gradientUnits="userSpaceOnUse">
      <stop offset="0" stop-color="#665c41"/>
      <stop offset="0.35542" stop-color="#63593e"/>
      <stop offset="0.61104" stop-color="#5a5136"/>
      <stop offset="0.83469" stop-color="#4a4228"/>
      <stop offset="1" stop-color="#393218"/>
    </linearGradient>
    <linearGradient id="linear-gradient-5" x1="-490.18983" y1="-1111.09136" x2="-828.39748" y2="-1449.29901" gradientTransform="matrix(1.3012, 0.07809, -1.16178, 0.6988, -611.21673, 936.22049)" gradientUnits="userSpaceOnUse">
      <stop offset="0.01106" stop-color="#2f1d07"/>
      <stop offset="1" stop-color="#2f1d07"/>
    </linearGradient>
    <linearGradient id="linear-gradient-6" x1="-579.34211" y1="-1207.05744" x2="-538.35402" y2="-1207.05744" gradientTransform="matrix(1.3012, 0.07809, -1.16178, 0.6988, -611.21673, 936.22049)" gradientUnits="userSpaceOnUse">
      <stop offset="0" stop-color="#eeefc7"/>
      <stop offset="0.264" stop-color="#ebecc5"/>
      <stop offset="0.45389" stop-color="#e3e3be"/>
      <stop offset="0.62062" stop-color="#d6d3b3"/>
      <stop offset="0.77395" stop-color="#c2bda3"/>
      <stop offset="0.91677" stop-color="#aaa08f"/>
      <stop offset="1" stop-color="#988c80"/>
    </linearGradient>
    <linearGradient id="linear-gradient-7" x1="-606.49485" y1="-1212.44451" x2="-578.65663" y2="-1212.44451" gradientTransform="matrix(1.3012, 0.07809, -1.16178, 0.6988, -611.08001, 935.65664)" xlink:href="#linear-gradient-6"/>
    <linearGradient id="linear-gradient-8" x1="-606.49479" y1="-1216.54806" x2="-578.65663" y2="-1216.54806" gradientTransform="matrix(1.3012, 0.07809, -1.16178, 0.6988, -611.08001, 935.65664)" xlink:href="#linear-gradient-6"/>
    <linearGradient id="linear-gradient-9" x1="-598.25963" y1="-1216.54806" x2="-586.6075" y2="-1216.54806" gradientTransform="matrix(1.3012, 0.07809, -1.16178, 0.6988, -611.08001, 935.65664)" gradientUnits="userSpaceOnUse">
      <stop offset="0.01106" stop-color="#49241e"/>
      <stop offset="0.4823" stop-color="#a3181d"/>
      <stop offset="0.57436" stop-color="#9c191d"/>
      <stop offset="0.70967" stop-color="#881c1d"/>
      <stop offset="0.87081" stop-color="#68201e"/>
      <stop offset="1" stop-color="#49241e"/>
    </linearGradient>
    <linearGradient id="linear-gradient-10" x1="-577.42287" y1="-1199.56567" x2="-543.70024" y2="-1199.56567" gradientTransform="matrix(1.3012, 0.07809, -1.16178, 0.6988, -611.21673, 936.22049)" xlink:href="#linear-gradient-9"/>
    <linearGradient id="linear-gradient-11" x1="-577.42294" y1="-1202.90305" x2="-543.7003" y2="-1202.90305" xlink:href="#linear-gradient-9"/>
    <linearGradient id="linear-gradient-12" x1="-585.37374" y1="-1210.68219" x2="-583.04331" y2="-1210.68219" gradientTransform="matrix(1.3012, 0.07809, -1.16178, 0.6988, -611.21673, 936.22049)" xlink:href="#linear-gradient-9"/>
    <linearGradient id="linear-gradient-13" x1="-605.25099" y1="-1202.14907" x2="-585.51081" y2="-1202.14907" xlink:href="#linear-gradient-9"/>
    <linearGradient id="linear-gradient-14" x1="-587.70417" y1="-1206.39867" x2="-585.64791" y2="-1206.39867" gradientTransform="matrix(1.3012, 0.07809, -1.16178, 0.6988, -611.21673, 936.22049)" xlink:href="#linear-gradient-9"/>
    <linearGradient id="linear-gradient-15" x1="-612.24221" y1="-1228.45678" x2="-584.96252" y2="-1228.45678" gradientTransform="matrix(1.3012, 0.07809, -1.16178, 0.6988, -611.21673, 936.22049)" xlink:href="#linear-gradient-9"/>
    <linearGradient id="linear-gradient-16" x1="-612.51635" y1="-1202.51486" x2="-584.96249" y2="-1202.51486" gradientTransform="matrix(1.3012, 0.07809, -1.16178, 0.6988, -611.21673, 936.22049)" xlink:href="#linear-gradient-9"/>
    <linearGradient id="linear-gradient-17" x1="-578.9308" y1="-1207.12283" x2="-577.14871" y2="-1207.12283" gradientTransform="matrix(1.3012, 0.07809, -1.16178, 0.6988, -611.21673, 936.22049)" xlink:href="#linear-gradient-9"/>
    <linearGradient id="linear-gradient-18" x1="-583.45463" y1="-1202.44034" x2="-543.01488" y2="-1202.44034" xlink:href="#linear-gradient-9"/>
    <linearGradient id="linear-gradient-19" x1="-614.14024" y1="-1228.67836" x2="-614.14024" y2="-1254.09543" xlink:href="#linear-gradient-9"/>
    <radialGradient id="radial-gradient" cx="-572.0766" cy="1091.21721" r="11.1038" gradientTransform="matrix(1.3012, 0.07809, 1.16178, -0.6988, -468.83363, 850.09686)" gradientUnits="userSpaceOnUse">
      <stop offset="0.06195" stop-color="#fefee2"/>
      <stop offset="0.34138" stop-color="#fefee2" stop-opacity="0.77547"/>
      <stop offset="0.9824" stop-color="#fefee2" stop-opacity="0.21574"/>
      <stop offset="1" stop-color="#fefee2" stop-opacity="0.2"/>
    </radialGradient>
    <radialGradient id="radial-gradient-2" cx="-593.73586" cy="1091.49137" r="11.1038" xlink:href="#radial-gradient"/>
    <radialGradient id="radial-gradient-3" cx="-605.66217" cy="1082.30676" r="11.10379" xlink:href="#radial-gradient"/>
    <radialGradient id="radial-gradient-4" cx="-597.71133" cy="1087.3789" r="11.10379" xlink:href="#radial-gradient"/>
    <radialGradient id="radial-gradient-5" cx="-568.64951" cy="1094.91847" r="11.1038" xlink:href="#radial-gradient"/>
    <linearGradient id="linear-gradient-20" x1="158.59547" y1="1167.86238" x2="158.59547" y2="1160.46838" gradientTransform="matrix(-1.35011, -0.04787, 1.10457, -0.70152, -1045.01346, 869.53211)" gradientUnits="userSpaceOnUse">
      <stop offset="0" stop-color="#ff9372"/>
      <stop offset="0.34032" stop-color="#ff8c5a"/>
      <stop offset="0.74007" stop-color="#ff8545"/>
      <stop offset="1" stop-color="#ff833d"/>
    </linearGradient>
    <radialGradient id="radial-gradient-6" cx="345.4056" cy="1211.93871" r="1.53687" gradientTransform="matrix(-1.12589, -0.03283, 1.13527, -0.70301, -957.36465, 906.81483)" xlink:href="#radial-gradient"/>
    <linearGradient id="linear-gradient-21" x1="-845.88258" y1="1098.7937" x2="-845.88258" y2="1087.40025" gradientTransform="matrix(1.08284, 0.1967, 1.36759, -0.67508, -552.8507, 943.34968)" xlink:href="#linear-gradient-20"/>
    <radialGradient id="radial-gradient-7" cx="-737.16267" cy="661.65977" r="1.51476" gradientTransform="matrix(1.40223, 0.24069, 2.16147, -1.06186, -364.90006, 916.38998)" xlink:href="#radial-gradient"/>
    <linearGradient id="linear-gradient-22" x1="2.48828" y1="60.99546" x2="59.48828" y2="60.99546" gradientUnits="userSpaceOnUse">
      <stop offset="0.04646" stop-color="#5b6599"/>
      <stop offset="1" stop-color="#9ea2bd"/>
    </linearGradient>
    <linearGradient id="linear-gradient-23" x1="13.52311" y1="28.75044" x2="61.88921" y2="28.75044" gradientTransform="matrix(0.99748, 0.05472, -0.00023, 1.00251, -0.65528, 15.53503)" xlink:href="#linear-gradient-9"/>
    <linearGradient id="linear-gradient-24" x1="4.87226" y1="29.38215" x2="62.87226" y2="29.38215" gradientTransform="matrix(0.99748, 0.05472, -0.00023, 1.00251, -0.65528, 15.53503)" xlink:href="#linear-gradient-9"/>
    <linearGradient id="linear-gradient-25" x1="5.09253" y1="36.00455" x2="0.09216" y2="36.00455" xlink:href="#linear-gradient"/>
    <linearGradient id="linear-gradient-26" x1="25.3125" y1="5.49933" x2="25.3125" y2="0.35968" xlink:href="#linear-gradient-2"/>
  </defs>
  <title>opendoor</title>
  <polygon class="cls-1" points="0.5 1.207 0.5 70.48 4.968 70.48 4.968 5.674 0.5 1.207"/>
  <path class="cls-2" d="M49.98828.81708C49.96.75653,49.92487.7,49.90112.63672H.63672V.64319L5.10425,5.11035l44.884.13934Z" transform="translate(-0.13672 0.56385)"/>
  <rect class="cls-3" x="0.98828" y="1.81385" width="48.86328" height="68.86322"/>
  <g>
    <path class="cls-4" d="M49.98828,33.1817C33.33081,32.6709,16.78479,32.08844.63672,31.262V65.66522a387.48373,387.48373,0,0,0,39.57562.86334c3.062-.0791,6.1825-.18872,8.89374-.03247.3028.01746.59015.04364.8822.06714Z" transform="translate(-0.13672 0.56385)"/>
    <polygon class="cls-5" points="49.852 25.667 41.813 25.882 0.5 25.472 0.5 32.213 25.741 33.661 49.852 34.297 49.852 25.667"/>
    <g class="cls-6">
      <polygon class="cls-7" points="49.852 39.926 25.601 54.513 49.852 56.564 49.852 39.926"/>
    </g>
    <g class="cls-6">
      <path class="cls-8" d="M49.98828,30.34418,24.928,31.06409.63672,46.25281v7.52386L18.66,53.84015l8.12872.06647L49.98828,39.95233ZM15.34235,43.91827l14.97546-9.00763,17.14722-.2843L32.30908,43.74249Z" transform="translate(-0.13672 0.56385)"/>
      <path class="cls-9" d="M15.34232,43.91827l16.96676-.17577L47.465,34.62635l-17.14717.28429ZM30.52165,35.378l15.12991-.25087L32.11436,43.26964l-14.97065.15508Z" transform="translate(-0.13672 0.56385)"/>
      <path class="cls-10" d="M15.34232,43.91827l16.96676-.17577L47.465,34.62635l-17.14717.28429ZM30.52165,35.378l15.12991-.25087L32.11436,43.26964l-14.97065.15508Z" transform="translate(-0.13672 0.56385)"/>
    </g>
    <polygon class="cls-11" points="49.852 52.67 45.821 55.094 46.713 55.148 49.852 53.26 49.852 52.67"/>
    <path class="cls-12" d="M48.98987,51.76233l.99841.05994v-.52673l-3.05609-.18341L48.491,50.1745l1.49725.10345v-.549l-.48877-.043.48877-.32007v-1.2309l-.59711-.03583.59711-.35913v-.76392l-.09381-.00562-1.75189,1.05371-1.2486-.07489,1.75183-1.05377-1.2486-.07489-1.75189,1.05371-1.2486-.075,1.75189-1.05371L44.9,46.67072l-1.75183,1.05371-2.31891-.13916-2.38892,1.437L36.835,48.92584l-.79633.479,1.60541.09631-1.59265.95795L34.446,50.36279l-.79633.47894,2.6756.16058,2.38892-1.43689,1.427.08563-3.82227,2.299-4.1026-.24622-.79626.479,1.60535.09631-2.07037,1.24536,1.07019.06421,2.07043-1.2453,2.49719.14984,2.22968-1.34113,1.33783.08032-4.1806,2.51459,1.15942.06958,4.1806-2.51459,1.427.08563-.1593.09576-2.07037,1.24536,2.49725.14984-2.22968,1.34113L41.855,54.284l2.22961-1.34113,2.67566.16058Zm-7.944-1.00348-1.60541-.09637,2.38892-1.43689-2.31885-.13916,1.43335-.86212,3.92426.23547Zm1.07025.06421,3.82227-2.299,3.92419.23547L48.27,49.71747l-2.49725-.14984-2.22968,1.34106Zm-.07007,1.57611,1.43335-.86218.15924-.09576,2.38892-1.437,1.75964.12158-2.36481,1.42242,2.49719.14984-1.59259.95795Z" transform="translate(-0.13672 0.56385)"/>
    <polygon class="cls-13" points="49.852 34.74 17.612 54.244 20.466 54.415 49.852 36.74 49.852 34.74"/>
    <g class="cls-6">
      <path class="cls-14" d="M25.19611,48.96484l.637-.38318-4.0835-.13971,1.91113-1.14954-2.31885-.13916,1.91113-1.14954-.89185-.05353-2.07043,1.24536-1.2486-.075,1.91113-1.14954-1.22949.03156-1.75189,1.05371-1.07025-.06421,1.75189-1.05371-1.07025-.06427-2.07037,1.24536-2.1405-.12848L11.038,48.3952,7.63611,48.362l1.646-1.00854,2.04541.04163,2.54816-1.53271-.89185-.05353-2.07037,1.2453-1.08905-.033,1.77063-1.0849-.89185-.05353L8.85913,46.99188l-1.49408-.04529,1.75189-1.05377L8.40344,45.85,6.01453,47.28693l2.277.04633L6.598,48.35187l-3.56775-.03473,2.05414-1.29675L2.97,46.99426l1.90424-1.14532-.89191-.05353-1.97345,1.187-.96619-.012,1.72925-1.037-.7135-.04285-1.42169.8551v.6015l2.74042-.00787-1.53339.96619-1.207-.01178v.33716l.67957.007-.67957.42822v.88226l.93951.00806-.93951.56512v.70795l2.09991-1.26306,1.1604.01L.63672,51.93756v.3996l.46619.028L4.98584,49.9859l1.42535.01233-1.83,1.10071,1.96216.11774L4.6322,52.36621l.89185.05353L7.43518,51.2702l2.1405.12848L12.12384,49.866l1.15771.06946L9.23169,52.43152l1.05109-.04224,3.98157-2.3949,1.2486.075-1.91113,1.14954,2.31885.13916L14.171,52.42133l.88971.04395,1.75189-1.05371,2.31885.13916,2.38892-1.43689,1.427.08563.47778-.28741-3.74585-.22479,1.43335-.86212Zm-20.65363.62341L1.122,49.52173l1.38062-.87152,3.53857.03662Zm1.05872.02063,1.48712-.91119,3.38843.035-1.5636.94055ZM9.34,51.06848l-3.5675-.21411,1.41235-.84949,2.32074.02,2.12836-1.28015,1.34991.01392ZM13.593,49.74341l-1.15063-.069L14.51276,48.429l-2.31653-.02252,1.76868-1.06384,3.21069.19269Zm4.39807.36932,2.31885.13916-1.43335.86212-3.74585-.22479,3.50372-2.10748,1.427.08563Zm.22931-1.67187L15.99072,49.782l-1.2486-.075,3.98151-2.39484,3.5675.21411L20.53925,48.58Z" transform="translate(-0.13672 0.56385)"/>
      <polygon class="cls-15" points="27.748 47.794 25.964 47.687 27.716 46.633 26.824 46.579 24.435 48.016 27.111 48.177 27.748 47.794"/>
    </g>
    <polygon class="cls-16" points="49.852 29.649 18.784 30.294 16.077 31.923 49.852 31.456 49.852 29.649"/>
    <polygon class="cls-17" points="0.5 46.19 0.5 46.523 29.321 46.729 18.797 53.059 0.5 52.774 0.5 52.971 18.479 53.251 17.377 53.914 18.268 53.967 31.028 46.41 0.5 46.19"/>
    <polygon class="cls-18" points="49.852 40.422 26.671 54.577 28.455 54.684 49.852 41.552 49.852 40.422"/>
    <path class="cls-19" d="M49.98828,54.66547,27.70612,53.11884,31.68762,50.724l.7135.04279.79633-.47894-.7135-.04285,1.75183-1.05371.7135.04285.63708-.38318-1.07025-.06427,1.59259-.95795L37.179,47.893l.47778-.28741-1.07025-.06421,1.91113-1.14954,11.49066.68958V46.66L33.6051,45.67682,32.968,46.06l2.31891.13916L32.898,47.636l2.6756.16058-1.59265.95795-4.99445-.29974-.79633.479,4.8161.289-1.59259.95795-4.6377-.27832-.79633.47894,2.1405.12848-1.43335.86212-2.31891-.13916-.637.38318,3.5675.21411,2.07037-1.2453L30.439,50.649l-3.663,2.20325-4.6377-.27832-.63708.38318-.89819.89429,29.38525,1.94794ZM34.26764,47.40222l1.91113-1.14954,1.427.08563-1.91113,1.14954Z" transform="translate(-0.13672 0.56385)"/>
    <g class="cls-6">
      <path class="cls-20" d="M49.98828,22.07837a2.202,2.202,0,0,0-.24994.01477,17.026,17.026,0,0,1-1.824.3736c-.31073-.00513-.37518-.13495-.615-.18018-.69568-.13123-2.32733.47021-3.14337.40277a1.85668,1.85668,0,0,1-.50812-.13947,4.83643,4.83643,0,0,0-1.96436-.03961c-.39032.05511-.8067.139-1.16254.15826a4.65259,4.65259,0,0,1-.81494-.046,17.00368,17.00368,0,0,0-4.64093.16235c.112-.18713-.32544-.23389-.78625-.19214s-.9837.14343-1.40234.14984c-.90942.014-1.09332-.4209-2.12427-.2981a10.69121,10.69121,0,0,1-2.10937.32019c-.17694-.04083-.18353-.147-.26843-.22394a2.17857,2.17857,0,0,0-1.48389-.04132c-.39325.0849-.79736.21869-1.1759.27136-1.08221.15045-1.09631-.44324-2.17639-.29565-.37463.05121-.788.18457-1.16187.23468-.82745.1109-.98914-.22131-1.65088-.24969-.88385-.03784-2.42584.46948-3.19873.368a1.968,1.968,0,0,1-.49359-.16064,3.326,3.326,0,0,0-1.17078-.12909c-.50848.01642-1.09125.097-1.61652.127-.34558.01971-.66327.01733-.97955.01489l-3.937-.03c-2.90448-.02216-6.07977.10376-8.69263-.09955v4.21759c1.87524-.284-.46771.79236,1.61743.35889,4.545-1.213,2.063.53271,4.08783.01715,4.72467-1.203,1.07239.8963,3.59259.19891,4.88245-1.29889,2.24261.54266,4.42529-.06879,3.71222-.94519,1.00708.57886,3.52722-.11853,4.56677-1.10712,1.86163.41693,4.0661-.08868,4.22925-1.02118,2.22089.43683,4.08783.01715,3.98438-1.34863,2.6944.14923,4.40356-.17462,3.489-1.16681.8056.46307,3.52722-.11853,5.44312-1.16321,1.40985.81042,4.42535-.06879,4.34357-1.32874,3.05365.16913,5.416-.43237,4.20752-1.127.5553.97229,3.59253.19891a9.04555,9.04555,0,0,1,2.58264-.53558Z" transform="translate(-0.13672 0.56385)"/>
    </g>
    <path class="cls-21" d="M49.98828,37.75848a46.77576,46.77576,0,0,0-9.90466,4.25757c-7.12457,4.28534-6.43146,8.14752,1.5481,8.6264a40.37574,40.37574,0,0,0,8.35657-.511Z" transform="translate(-0.13672 0.56385)"/>
    <path class="cls-22" d="M41.11561,41.8673c7.12456-4.28535,6.43144-8.14752-1.54813-8.6264S19.3436,35.84778,12.219,40.13313s-6.43144,8.14752,1.54813,8.6264S33.991,46.15265,41.11561,41.8673Z" transform="translate(-0.13672 0.56385)"/>
    <path class="cls-23" d="M13.37848,38.72778A46.87471,46.87471,0,0,0,.63672,40.108V52.78711a52.26035,52.26035,0,0,0,14.28986-5.43292C22.05115,43.06885,21.358,39.20667,13.37848,38.72778Z" transform="translate(-0.13672 0.56385)"/>
    <path class="cls-24" d="M29.61682,35.80426c-7.97955-.47888-20.22388,2.60687-27.34845,6.89221-.61145.3678-1.1413.73016-1.63165,1.08911v7.06311a16.39674,16.39674,0,0,0,3.17981.47418c7.97955.47888,20.22388-2.60687,27.34839-6.89221S37.59637,36.28314,29.61682,35.80426Z" transform="translate(-0.13672 0.56385)"/>
    <path class="cls-25" d="M49.98828,39.04889c-.39172.2135-.77936.42822-1.14532.64838-6.99738,4.20886-6.43628,8.00165,1.14532,8.58966Z" transform="translate(-0.13672 0.56385)"/>
    <g class="cls-6">
      <path class="cls-26" d="M28.69851,42.73609l3.87953-.00847c.54479-.00119.58417.26332.08752.58781l-5.6374,3.68316a4.122,4.122,0,0,1-1.89352.59213,7.05842,7.05842,0,0,1-3.87953.00847c-.54479.00119-.58417-.26332-.08753-.58781l5.6374-3.68316A4.122,4.122,0,0,1,28.69851,42.73609Z" transform="translate(-0.13672 0.56385)"/>
      <path class="cls-27" d="M27.892,43.4197a7.44191,7.44191,0,0,1,3.47512-1.03c.95565.02787.9492.53419-.01441,1.1309a7.44191,7.44191,0,0,1-3.47512,1.03C26.922,44.52273,26.92841,44.0164,27.892,43.4197Z" transform="translate(-0.13672 0.56385)"/>
    </g>
    <g class="cls-6">
      <path class="cls-28" d="M36.10433,35.79257l-4.18-.95079a5.80754,5.80754,0,0,0-2.90914.62347l-11.499,5.40785c-1.013.47642-1.36165.97547-.77466,1.109.36067.89919,1.93816,1.11228,4.18.95079a5.80755,5.80755,0,0,0,2.90915-.62347l11.499-5.40785C36.34272,36.42512,36.69132,35.92608,36.10433,35.79257Z" transform="translate(-0.13672 0.56385)"/>
      <path class="cls-29" d="M33.70915,36.73808c1.80823-.88833,2.32313-1.77169,1.15006-1.973a11.1527,11.1527,0,0,0-5.39813,1.24388c-1.80823.88833-2.32313,1.77169-1.15006,1.973A11.1527,11.1527,0,0,0,33.70915,36.73808Z" transform="translate(-0.13672 0.56385)"/>
    </g>
  </g>
  <polygon class="cls-30" points="49.852 70.677 49.852 55.498 4.863 51.689 2.488 51.314 2.488 70.677 49.852 70.677"/>
  <path class="cls-31" d="M49.98828,50.97961l-3.43011-.18817.00055-2.16809L46.36328,45.656l2.15723.11835L48.51978,48.928l1.46851.08057v-.78845l-.29163-.016L49.6972,46.036l.29108.016v-.98553l-.487-.02673.00073-3.15363-2.74561-.15063.00055-2.36523-1.1767-.06458-.00055,2.36523-1.765-.0968.00055-2.36523-1.1767-.06458L42.638,41.50952,40.67682,41.402l.00049-2.16815-.98059-.05377-.00049,2.16815-2.94171-.16138-.00073,3.15363L32.2431,44.093l.00049-2.16815,2.74567.15063L34.99,38.92181,34.0094,38.868l-.00049,2.16815-1.76508-.0968.00049-2.16815-1.1767-.06458-.00049,2.16815-1.56891-.08606.00049-2.16815-1.1767-.06451-.00073,3.15363,2.74561.15063-.00049,2.16809-4.31451-.43378-.19537-2.96729L24.007,40.48755l.00055-2.16815-1.3728-.07532-.00055,2.16815-1.3728-.07532.00049-2.16815-1.3728-.07532-.00049,2.16815-1.3728-.07532.00049-2.16809-1.3728-.07532L17.14294,40.111l-2.5495-.13983-.00067,2.95654-1.76508-.0968-.00024.98553,1.76508.0968-.00049,1.971-1.765-.0968-.00024.98553,2.94177.16138.00067-2.9566,1.56891.08612-.0011,4.73047-4.51068-.24744-.00018.98547,1.765.09686-.00061,2.56232,1.1767.06458.00061-2.56238,2.74561.15063.00067-2.75946,1.47089.08069-.00122,5.174,1.27472.06995.00122-5.174,1.56891.08606v.19708l-.00061,2.56238,2.74561.15057-.00061,2.75946,1.1767.06458.00061-2.75946,2.94171.16138.00067-2.75946,1.56891.08606-.00128,5.51892.98059.05377.00128-5.51886,1.765.0968-.00061,2.75946,2.74561.15057-.00073,3.15369,1.1767.06451.00067-2.95654,2.94177.16138.00067-2.95654,1.765.0968L42.635,54.32129l1.1767.06451.00134-5.91309,1.76508.0968-.00073,3.15369,2.94171.16138L48.51849,54.644l1.1767.06451.00061-2.75946.29248.01605Zm-29.905-4.79413-1.76508-.09686.00073-2.95654-2.5495-.13983.00037-1.77393,4.31458.23663Zm2.74561.15057L21.26,46.25l.0011-4.73047,4.31451.23669-.00043,1.971-2.74561-.15063Zm5.68665,3.26855-4.70673-.25818.00037-1.77393.00006-.19714.00067-2.95654,1.96118.13745-.00067,2.9267,2.74561.15063ZM31.0658,46.7879l-4.51068-.24744.00043-1.9292,4.51068.3161Zm1.1767.06458.00043-1.84265,4.51062.31616-.00043,1.77393ZM39.498,50.20709l-4.51062-.24744.00043-1.97107,2.94177.16138.00067-2.95654,1.56891.08606Zm3.13849-2.58734-1.765-.0968.00067-2.95654L37.93048,44.405l.00043-1.97107,4.70679.25818Zm2.94177.16138-1.56891-.08606.0011-4.92761,4.51068.24744L48.52069,44.986,45.579,44.82458Z" transform="translate(-0.13672 0.56385)"/>
  <path class="cls-32" d="M49.98828,54.359,10.6684,51.58215l.0011-4.92755.78448.043.00024-.98553-.78448-.043.00049-2.16815.78448.043.00018-.78839L10.2782,42.691l.00049-1.971,1.1767.06458.00012-.59131-1.1767-.06458.00055-2.36523,39.70892,2.17828v-.78839L4.2,36.64148l-.00018.78845,2.5495.13983L6.7486,40.52631l2.94171.16138-.00043,1.97107-5.49127-.30127-.00024.98553,5.29517.29047L9.493,45.60455l-5.099-.27972-.00024.98547,2.35339.12915-.00037,1.77393-2.54956-.13989-.00018.78845,3.92236.21515L8.12,46.51471l1.1767.06458-.001,4.53339-5.099-.27972-.00018.78839.588,1.80621L49.98828,56.3855ZM9.29822,40.07489l-1.56891-.08606.00055-2.3653,1.56891.08612Z" transform="translate(-0.13672 0.56385)"/>
  <polygon class="cls-33" points="5.093 70.677 5.093 5.924 0.5 1.332 0.5 70.677 5.093 70.677"/>
  <path class="cls-34" d="M49.98828.79639c-.0257-.05536-.06549-.10187-.08716-.15967H.63672V.76819L5.22925,5.36035l44.759.139Z" transform="translate(-0.13672 0.56385)"/>
</svg>
