<svg xmlns="http://www.w3.org/2000/svg" xmlns:xlink="http://www.w3.org/1999/xlink" viewBox="0 0 512 180">
  <defs>
    <style>
      .cls-1 {
        opacity: 0.39;
      }

      .cls-2 {
        fill: url(#linear-gradient);
      }

      .cls-3 {
        fill: url(#linear-gradient-2);
      }

      .cls-4 {
        fill: url(#linear-gradient-3);
      }

      .cls-5 {
        fill: url(#linear-gradient-4);
      }

      .cls-6 {
        fill: url(#linear-gradient-5);
      }

      .cls-7 {
        fill: url(#linear-gradient-6);
      }

      .cls-8 {
        fill: url(#linear-gradient-7);
      }

      .cls-9 {
        fill: url(#linear-gradient-8);
      }

      .cls-10 {
        fill: url(#linear-gradient-9);
      }

      .cls-11 {
        fill: url(#linear-gradient-10);
      }

      .cls-12 {
        fill: url(#linear-gradient-11);
      }

      .cls-13 {
        fill: url(#linear-gradient-12);
      }

      .cls-14 {
        fill: url(#linear-gradient-13);
      }

      .cls-15 {
        fill: none;
      }

      .cls-16 {
        fill: url(#linear-gradient-14);
      }

      .cls-17 {
        fill: url(#linear-gradient-15);
      }

      .cls-18 {
        fill: url(#linear-gradient-16);
      }

      .cls-19 {
        fill: #2f1d07;
      }

      .cls-20 {
        font-size: 14px;
        font-family: Ming, Ming;
      }

      .cls-21 {
        letter-spacing: -0.012em;
      }

      .cls-22 {
        letter-spacing: -0.00199em;
      }

      .cls-23 {
        letter-spacing: -0.009em;
      }

      .cls-24 {
        letter-spacing: -0.01399em;
      }

      .cls-25 {
        letter-spacing: -0.00098em;
      }

      .cls-26 {
        letter-spacing: -0.01001em;
      }

      .cls-27 {
        letter-spacing: 0.00499em;
      }

      .cls-28 {
        letter-spacing: -0.003em;
      }

      .cls-29 {
        letter-spacing: -0.01796em;
      }

      .cls-30 {
        letter-spacing: -0.00698em;
      }

      .cls-31 {
        letter-spacing: -0.01301em;
      }

      .cls-32 {
        letter-spacing: -0.06201em;
      }

      .cls-33 {
        letter-spacing: -0.04998em;
      }

      .cls-34 {
        letter-spacing: -0.07799em;
      }

      .cls-35 {
        letter-spacing: -0.021em;
      }

      .cls-36 {
        letter-spacing: -0.00101em;
      }

      .cls-37 {
        letter-spacing: -0.01099em;
      }

      .cls-38 {
        letter-spacing: -0.00997em;
      }

      .cls-39 {
        letter-spacing: -0.00701em;
      }

      .cls-40 {
        letter-spacing: 0.02501em;
      }

      .cls-41 {
        letter-spacing: -0.03599em;
      }

      .cls-42 {
        letter-spacing: -0.00003em;
      }

      .cls-43 {
        letter-spacing: -0.052em;
      }

      .cls-44 {
        letter-spacing: 0.00701em;
      }

      .cls-45 {
        letter-spacing: -0.00499em;
      }

      .cls-46 {
        letter-spacing: -0.05001em;
      }

      .cls-47 {
        letter-spacing: -0.05298em;
      }

      .cls-48 {
        letter-spacing: -0.01998em;
      }

      .cls-49 {
        letter-spacing: 0.00698em;
      }

      .cls-50 {
        letter-spacing: 0.02598em;
      }

      .cls-51 {
        letter-spacing: -0.03198em;
      }

      .cls-52 {
        letter-spacing: -0.00896em;
      }

      .cls-53 {
        letter-spacing: -0.05301em;
      }

      .cls-54 {
        letter-spacing: -0.03899em;
      }

      .cls-55 {
        letter-spacing: -0.03896em;
      }

      .cls-56 {
        letter-spacing: -0.043em;
      }

      .cls-57 {
        letter-spacing: -0.049em;
      }

      .cls-58 {
        letter-spacing: -0.02699em;
      }

      .cls-59 {
        letter-spacing: -0.06198em;
      }
    </style>
    <linearGradient id="linear-gradient" x1="260.5" y1="184" x2="260.5" y2="-2" gradientUnits="userSpaceOnUse">
      <stop offset="0.03715" stop-color="#eeefc7"/>
      <stop offset="0.49399" stop-color="#f8f9d8"/>
      <stop offset="0.88496" stop-color="#fefee2"/>
    </linearGradient>
    <linearGradient id="linear-gradient-2" x1="454.78411" y1="29.94209" x2="488.56044" y2="29.94209" gradientUnits="userSpaceOnUse">
      <stop offset="0.03715" stop-color="#e01b1b"/>
      <stop offset="0.09573" stop-color="#da1a1a"/>
      <stop offset="0.27606" stop-color="#cc1818"/>
      <stop offset="0.49852" stop-color="#c31616"/>
      <stop offset="0.88496" stop-color="#c11616"/>
    </linearGradient>
    <linearGradient id="linear-gradient-3" x1="354.16893" y1="49.99901" x2="398.8448" y2="49.99901" gradientUnits="userSpaceOnUse">
      <stop offset="0.03715" stop-color="#fefee2"/>
      <stop offset="0.33306" stop-color="#f8f8d7"/>
      <stop offset="0.88496" stop-color="#eeefc7"/>
    </linearGradient>
    <linearGradient id="linear-gradient-4" x1="434.90352" y1="27.51299" x2="434.90352" y2="130.99243" gradientUnits="userSpaceOnUse">
      <stop offset="0" stop-color="#fefee2"/>
      <stop offset="0.13037" stop-color="#f6f6d4"/>
      <stop offset="0.29423" stop-color="#f0f1ca"/>
      <stop offset="0.50442" stop-color="#eeefc7"/>
      <stop offset="0.71697" stop-color="#ecedc6"/>
      <stop offset="0.7967" stop-color="#e6e6c1"/>
      <stop offset="0.85409" stop-color="#dcdab8"/>
      <stop offset="0.90078" stop-color="#cdc9ac"/>
      <stop offset="0.94095" stop-color="#bab39c"/>
      <stop offset="0.97598" stop-color="#a29889"/>
      <stop offset="0.98894" stop-color="#988c80"/>
    </linearGradient>
    <linearGradient id="linear-gradient-5" x1="355.93486" y1="71.63966" x2="432.07135" y2="71.63966" gradientUnits="userSpaceOnUse">
      <stop offset="0.03715" stop-color="#11120c"/>
      <stop offset="0.04141" stop-color="#12120c"/>
      <stop offset="0.4448" stop-color="#562310"/>
      <stop offset="0.73643" stop-color="#812e13"/>
      <stop offset="0.88496" stop-color="#913214"/>
    </linearGradient>
    <linearGradient id="linear-gradient-6" x1="435.57542" y1="122.67751" x2="446.87934" y2="122.67751" xlink:href="#linear-gradient-5"/>
    <linearGradient id="linear-gradient-7" x1="437.63457" y1="100.4695" x2="498.47117" y2="100.4695" xlink:href="#linear-gradient-5"/>
    <linearGradient id="linear-gradient-8" x1="399.03617" y1="104.43462" x2="404.10054" y2="104.43462" xlink:href="#linear-gradient-5"/>
    <linearGradient id="linear-gradient-9" x1="466.01151" y1="91.96552" x2="474.90653" y2="91.96552" xlink:href="#linear-gradient-5"/>
    <linearGradient id="linear-gradient-10" x1="423.67179" y1="91.50329" x2="451.26914" y2="91.50329" xlink:href="#linear-gradient-5"/>
    <linearGradient id="linear-gradient-11" x1="450.99481" y1="90.7978" x2="457.20366" y2="90.7978" xlink:href="#linear-gradient-5"/>
    <linearGradient id="linear-gradient-12" x1="419.64127" y1="91.47039" x2="432.72236" y2="91.47039" xlink:href="#linear-gradient-5"/>
    <linearGradient id="linear-gradient-13" x1="433.06292" y1="137.94579" x2="457.92382" y2="137.94579" gradientUnits="userSpaceOnUse">
      <stop offset="0.03715" stop-color="#9ea2bd"/>
      <stop offset="0.13867" stop-color="#878db1"/>
      <stop offset="0.26277" stop-color="#747ba6"/>
      <stop offset="0.40528" stop-color="#666f9f"/>
      <stop offset="0.58053" stop-color="#5d679a"/>
      <stop offset="0.88496" stop-color="#5b6599"/>
    </linearGradient>
    <linearGradient id="linear-gradient-14" x1="454.02124" y1="34.83939" x2="462.47626" y2="34.83939" gradientUnits="userSpaceOnUse">
      <stop offset="0.03715" stop-color="#9ea2bd"/>
      <stop offset="0.35767" stop-color="#7f85ac"/>
      <stop offset="0.68783" stop-color="#656e9e"/>
      <stop offset="0.88496" stop-color="#5b6599"/>
    </linearGradient>
    <linearGradient id="linear-gradient-15" x1="464.47419" y1="32.64585" x2="469.77988" y2="32.64585" xlink:href="#linear-gradient-3"/>
    <linearGradient id="linear-gradient-16" x1="452.09955" y1="147.57048" x2="485.15321" y2="147.57048" xlink:href="#linear-gradient-13"/>
  </defs>
  <title>rooster</title>
  <g id="Rooster">
    <rect class="cls-2" y="-2" width="521" height="186"/>
    <g>
      <path class="cls-3" d="M454.81523,45.97446c1.08231,1.16759.10551,3.23094.95915,4.57481a.81548.81548,0,0,0,.35273.33423,1.00392,1.00392,0,0,0,.83342-.16079c2.93243-1.59744,5.04643-4.34226,6.929-7.1003a6.3399,6.3399,0,0,1,2.56334-2.5538,6.35217,6.35217,0,0,0,1.23194-.4974c.88787-.60389.91176-1.88032.84184-2.95182.39236-.30069.93667.13929,1.14593.58714s.3831,1.011.85923,1.14394c.45652.12743.89224-.23215,1.23059-.56405,1.25437-1.23045,2.595-2.65171,2.62505-4.40856a4.497,4.497,0,0,0-1.66649-3.33918,11.54821,11.54821,0,0,0-3.35332-1.85919,2.95083,2.95083,0,0,1,2.31461-1.31084c.91476-.115,1.85164-.029,2.75487-.21389a16.30363,16.30363,0,0,0,2.84526-1.11732,15.21871,15.21871,0,0,1,6.73136-.91507,6.49681,6.49681,0,0,0,1.97041-.05211,1.87758,1.87758,0,0,0,1.4204-1.23833,33.916,33.916,0,0,0,.90047-12.76647l-1.01047-.11077-.64272,4.534a2.28954,2.28954,0,0,1-.64089,1.5447,1.54034,1.54034,0,0,1-2.17872-.73871,3.80714,3.80714,0,0,1,.00533-2.58817,6.7773,6.7773,0,0,0,.41-2.59309.74475.74475,0,0,0-.93809.24305,2.41181,2.41181,0,0,0-.36868.98858c-.28607,1.269-1.00386,2.70856-2.3,2.81919a2.52518,2.52518,0,0,1-2.3797-2.14129,13.18852,13.18852,0,0,1,.03014-3.48235,1.17221,1.17221,0,0,0-.1949-.848.86421.86421,0,0,0-.79572-.21639,2.1685,2.1685,0,0,0-1.504,1.99583c-.10827.88653.05808,1.793-.0847,2.67463a2.04862,2.04862,0,0,1-1.63983,1.85677c-.91585.05387-1.63177-.83871-1.85193-1.72933s-.11827-1.83349-.30544-2.73162c-.14585-.69989-.63475-1.46838-1.34855-1.42823a1.26263,1.26263,0,0,0-1.01112.808,4.11464,4.11464,0,0,0-.24185,1.33453,25.42052,25.42052,0,0,1-1.048,5.50556.39887.39887,0,0,1-.1671.26054c-.12921.06387-.2789-.0257-.39238-.11455a7.47976,7.47976,0,0,1-2.33333-3.12642,1.05966,1.05966,0,0,0-.46095-.64862.78389.78389,0,0,0-.5358.00776,2.772,2.772,0,0,0-1.6808,2.62224,15.67279,15.67279,0,0,0,.49731,3.27718,3.0333,3.0333,0,0,1,.00558,1.3278,3.53064,3.53064,0,0,1-1.45079,1.69737,3.49765,3.49765,0,0,1-1.10679.63975c-1.2523.3572-2.45106-.74278-3.086-1.87977-.1621-.29029-.37569-.63272-.70814-.62789-.32829.00477-.53457.34883-.65638.65372a13.1335,13.1335,0,0,0-.10282,7.943,2.97461,2.97461,0,0,0,1.43477,2.23658,6.72745,6.72745,0,0,0,1.3168.22391,3.82625,3.82625,0,0,1,2.50171,1.96383,11.33443,11.33443,0,0,1,1.04449,3.10058c.053.22836.09246.50535-.07965.66453a.62928.62928,0,0,1-.38621.12667,4.54307,4.54307,0,0,1-1.736-.19825,3.36526,3.36526,0,0,1-.82554,2.29393,2.37672,2.37672,0,0,1-.73043.68782c-.65734.374-1.605.37634-1.9531,1.04776a4.47135,4.47135,0,0,0-.17841,1.33211,3.86855,3.86855,0,0,1-1.01821,1.66537C455.05914,44.9485,454.66965,45.3319,454.81523,45.97446Z"/>
      <path class="cls-4" d="M367.926,66.13216a8.07243,8.07243,0,0,1-.8584-3.88569,16.61981,16.61981,0,0,1,2.0835-9.17952,9.27425,9.27425,0,0,1,7.84645-4.63347c-2.19558,2.70022-4.37733,5.715-4.56212,9.19033,3.178-2.619,6.36142-5.23992,9.74316-7.58989,4.68947-3.25871,9.74386-5.98489,14.28941-9.44151a7.36472,7.36472,0,0,0,1.88976-1.86768,2.73712,2.73712,0,0,0,.28745-2.54665,2.93083,2.93083,0,0,0-2.11956-1.46226,16.56381,16.56381,0,0,0-2.66178-.16135c-2.00562-.08752-3.95923-.67281-5.95983-.83958a28.72286,28.72286,0,0,0-5.34233.2206l-5.10236.52979c-4.54095.47149-9.35809,1.05207-12.91905,3.909a23.39952,23.39952,0,0,0-3.58516,3.88584,41.532,41.532,0,0,0-5.101,7.59929,14.74127,14.74127,0,0,0-1.50083,8.89592A28.49153,28.49153,0,0,1,359.05355,48.386a17.97311,17.97311,0,0,1,9.15681-6.56317,3.43835,3.43835,0,0,1,3.24116.30181l-1.20158.792c-2.0015,1.31932-4.35486,2.90713-6.21738,4.4163a13.69827,13.69827,0,0,0-3.0438,3.15816,13.11948,13.11948,0,0,0-.97528,1.935c-1.4057,3.30742-2.32953,6.9597-1.67218,10.49282.25893,1.39171.89416,2.88323,2.20478,3.41819a43.98182,43.98182,0,0,1,2.22554-6.82413c.12718-.30336.29874-.64169.61805-.72069.53576-.13256.8913.53179,1.0414,1.0629C365.16072,62.43687,365.84038,64.44482,367.926,66.13216Z"/>
      <path class="cls-5" d="M500.92535,57.92346c-.47943-2.32776-2.175-4.214-2.98651-6.44775-1.26227-3.47443-.77783-8.26538-4.10364-9.879-.05127-.02484-.10529-.03491-.157-.05743-.001-.01349.00293-.022.00153-.03589-.05627-.54681-.60211-.90851-1.12756-1.07019a5.83048,5.83048,0,0,1-1.55823-.5152,4.40674,4.40674,0,0,1-1.26123-2.08655,11.20559,11.20559,0,0,0-3.395-3.95038,38.42633,38.42633,0,0,0-5.82593-3.89709q-1.42227-.77371-2.9071-1.42419c-.49908-.21838-1.00354-.426-1.52155-.59454a7.47608,7.47608,0,0,0-5.91223.3219c-.15063.08459-.31262.19867-.33423.37-.03723.29474.33246.44482.61609.53314a5.64193,5.64193,0,0,1,3.16315,3.49976,5.22827,5.22827,0,0,1,.4389,1.62939,6.35449,6.35449,0,0,1-1.21942,3.50281,3.96607,3.96607,0,0,1-1.36047,1.5755,1.36575,1.36575,0,0,1-1.84576-.39276,6.48418,6.48418,0,0,1-.23737-.90845c-.098-.29816-.37335-.59161-.67938-.52209a.67108.67108,0,0,0-.42139.42969c-.33459.79791-.04938,1.85156-.65863,2.46588a4.3505,4.3505,0,0,1-1.33435.64233,4.38516,4.38516,0,0,0-1.288,1.07446,53.62027,53.62027,0,0,0-5.41473,7.017,20.73,20.73,0,0,0-9.47742,6.72369c-3.09515,3.8598-5.21881,8.98383-9.7915,10.87292-4.20593,1.73755-9.16235-.01288-12.63007-2.95978s-5.84979-6.93225-8.56329-10.58551-6.03326-7.1734-10.3927-8.4787c.18658,5.0191-.1665,11.06769-4.53595,13.54431a12.32066,12.32066,0,0,1-4.80011,1.27057c-6.33667.687-12.86713.29657-18.946,2.21307s-11.82379,7.05792-11.71973,13.43085a29.08567,29.08567,0,0,1,25.28528-12.556c2.17957,4.71753,4.79431,10.10583,2.954,14.96582a10.68045,10.68045,0,0,0-1.04553,3.24921c-.1059,2.73138,2.93323,5.24316,1.88293,7.76678-1.98407.80115-4.21661.71912-6.26593,1.33447a9.83737,9.83737,0,0,0-6.64355,10.67206c.60809.13318,1.12823-.41461,1.53485-.88593,4.54053-5.2627,12.06244-7.35913,16.23273-12.91974a28.43333,28.43333,0,0,0,5.86084,21.32367q.76639-5.50507,1.53284-11.01013c.64026.36877.643,1.2735.5838,2.01a41.73354,41.73354,0,0,0,2.33044,17.43311,11.45432,11.45432,0,0,0,2.93744,4.91644,53.67475,53.67475,0,0,1-1.5611-13.63086c.00854-.598.32886-1.42834.89594-1.23846a31.43567,31.43567,0,0,0,6.36108,13.4787q.16132-5.68011.32251-11.36023c1.27942,2.4726,1.87225,5.24542,3.04523,7.77026s3.17139,4.933,5.90723,5.44873q-.5788-3.87524-1.15753-7.75049l1.00861,2.26605a25.77918,25.77918,0,0,0,2.349,4.50793,58.8895,58.8895,0,0,0,4.52808,6.00629,1.4732,1.4732,0,0,0,.80511.58215c.80414.13171,1.17078-.93115,1.45435-1.69519,1.13489-3.05774,5.45325-3.78864,8.33734-2.2655s4.64594,4.504,6.26038,7.338c3.77258-7.13153,7.602-14.34515,13.0144-20.32825,5.42987-6.00244,12.43707-10.76019,16.29413-17.87616,1.472-2.71588,2.45477-5.73145,4.39374-8.13635,2.98541-3.7027,8.0954-5.80206,9.65-10.29712.66089-1.911.55847-3.99506.93878-5.981C499.44226,64.842,501.65076,61.44519,500.92535,57.92346Z"/>
      <path class="cls-6" d="M428.25562,72.57373a2.6731,2.6731,0,0,1-.84027-.83435,5.183,5.183,0,0,0-1.78046-1.40955,3.85348,3.85348,0,0,0,1.79138-.18872,6.50108,6.50108,0,0,1,2.5282-.54114,15.09825,15.09825,0,0,0,2.11688.42584,6.97482,6.97482,0,0,0-3.62726-2.75891,20.76,20.76,0,0,0-4.54-.9317,7.27268,7.27268,0,0,0,1.64722-.41388,4.054,4.054,0,0,0-2.788-4.53351,12.07715,12.07715,0,0,1-2.06244-.50342,4.75047,4.75047,0,0,1-1.102-.8252,5.53444,5.53444,0,0,1-1.5285-2.1,1.24591,1.24591,0,0,0-.4364-.618.63311.63311,0,0,0-.1319-.05231,29.10958,29.10958,0,0,0-1.97821-3.69159,18.02884,18.02884,0,0,1,5.02,6.86963c.62738-1.24927.04877-2.74646-.58911-3.99042a42.93235,42.93235,0,0,0-8.69415-11.58557c-.10028-.09473-.2027-.18854-.306-.28119l.03992-.00684a54.65963,54.65963,0,0,0-8.13007-6.2392,54.62456,54.62456,0,0,0-5.92413-2.85358,10.63983,10.63983,0,0,0-4.03857-1.14325c-.28931-.00275-.63342.053-.75677.31464-.0722.1532-.05029.35-.16412.4754a.56469.56469,0,0,1-.42743.12311q-1.29034.00815-2.58063.01642a1.32638,1.32638,0,0,1-.7749-.15466c-.19281-.13348-.30164-.36011-.48364-.50806a1.56773,1.56773,0,0,0-1.12946-.1955q-4.43793.35312-8.89532.32434a30.73376,30.73376,0,0,0-6.201.31659,8.10482,8.10482,0,0,0-5.04919,3.02966,3.79287,3.79287,0,0,1,2.90063-.12024,9.83439,9.83439,0,0,1-3.21173,1.65631,19.16,19.16,0,0,0-7.4353,5.39178,13.16749,13.16749,0,0,0-1.5907,2.30225,10.10559,10.10559,0,0,0-1.14154,5.42712,14.57658,14.57658,0,0,1,14.44153-10.3147l.08545.79529a2.693,2.693,0,0,1,1.84186-.27118,39.39909,39.39909,0,0,0-4.336,3.82642,14.0508,14.0508,0,0,0-2.2392,1.52246,21.60929,21.60929,0,0,0-6.1087,9.38239l-.22894,1.21q.59125.3978,1.1825.79565,1.263-1.48233,2.52606-2.9646a31.48737,31.48737,0,0,0,4.072,10.26282,44.07161,44.07161,0,0,1,.15924-10.89,8.61771,8.61771,0,0,1,2.52991-5.18091c1.72675-1.45575,4.15265-1.65607,6.4071-1.791-3.17542,2.71057-5.55908,7.07251-4.16754,11.00873a13.43168,13.43168,0,0,1,10.26178-7.70374c3.5329-.48138,7.08539.48029,10.5213,1.43292,2.369.6568,4.97546,1.49182,6.19061,3.62878a67.31516,67.31516,0,0,0-12.49323,1.74487A32.59862,32.59862,0,0,0,377.24268,62.79a16.12994,16.12994,0,0,0-6.67847,7.28455,23.831,23.831,0,0,1,5.35626-4.02277,14.70835,14.70835,0,0,0-3.1167,4.86462,30.7634,30.7634,0,0,1,8.8432-5.89789,15.85491,15.85491,0,0,1,10.44989-.776,31.31751,31.31751,0,0,0-14.62378,14.18182,10.56068,10.56068,0,0,0-1.41992,6.43268c.21716,1.23126.80017,2.4826.43719,3.679a6.66077,6.66077,0,0,1-1.245,1.94281,18.06362,18.06362,0,0,0-2.41858,5.20013c-.853,2.53021-1.67792,5.18237-1.304,7.82617s2.37012,5.15533,5.02832,5.40747a14.47945,14.47945,0,0,1,.63452-11.83221,26.10977,26.10977,0,0,1,7.951-9.12976c2.66315-2.03058,6.12054-3.79114,9.25031-3.09583-.01392.231-.03284.46167-.04626.69269a4.41372,4.41372,0,0,1,1.837.53125,1.63759,1.63759,0,0,1,.81506,1.61877c-.3028,1.46356-2.646,1.22119-3.60553,2.36713a3.30473,3.30473,0,0,0-.45428.81757l-.66174,1.513a21.46743,21.46743,0,0,0-7.2049,6.54761,15.2238,15.2238,0,0,1,2.12781-6.364,9.76953,9.76953,0,0,0-3.33295,6.67346,17.24829,17.24829,0,0,0,1.18384,7.50281.644.644,0,0,0,.33228-.35376,24.65557,24.65557,0,0,1,2.52191-3.77753c.45526-.56207.99384-1.07312,1.50671-1.59949a30.53562,30.53562,0,0,0,4.24579-3.795c.77966-.84216,1.63867-1.79456,2.78369-1.87164q-.10364,1.795-.35565,3.57715a19.31633,19.31633,0,0,0,2.72137-5.30493.94321.94321,0,0,0,.03845-.70142c-.10632-.2157-.47333-.288-.57312-.06915a32.36005,32.36005,0,0,1,8.09949-6.62115c-.37933-1.0047-2.019-.87048-2.57281-1.79059a1.11179,1.11179,0,0,1,1.11652-1.67743,3.67083,3.67083,0,0,0-1.769-.184,1.48644,1.48644,0,0,0-1.26514,1.51465q-.99811-.37939-1.99615-.75873a11.23246,11.23246,0,0,0-.54919-14.29492,8.33517,8.33517,0,0,1,4.20874.95551q2.01407.849,4.02808,1.698-.61707-1.04388-1.23413-2.08771,1.5542.87973,3.10834,1.75952a11.59936,11.59936,0,0,0-.43817,4.38574,4.88911,4.88911,0,0,1,2.28326-3.667,11.05786,11.05786,0,0,1,4.18732-1.50452,9.71849,9.71849,0,0,0-1.84552,5.27A20.38651,20.38651,0,0,1,426.11,73.556c-2.89581,2.39386-5.78534,5.01062-7.2984,8.44958s-1.2876,7.9137,1.4859,10.44824a3.365,3.365,0,0,1-.25323-2.02637q.46143.65414.92279,1.30829a7.61651,7.61651,0,0,1-.05048-4.34058,21.50486,21.50486,0,0,1,1.63757-4.07861A27.22529,27.22529,0,0,1,424.954,79.0824c2.00488-2.73767,4.9198-4.68628,7.03357-7.34076a13.88715,13.88715,0,0,1-2.42218.83582A1.98307,1.98307,0,0,1,428.25562,72.57373Z"/>
      <path class="cls-7" d="M436.34648,123.00611l.7514-3.55379.72926,4.32025a2.25091,2.25091,0,0,0,2.3122-.43026,5.45256,5.45256,0,0,0,1.37774-2.038,20.41275,20.41275,0,0,0,1.64263-5.93076l.01814,2.97153a1.61653,1.61653,0,0,0,1.48451-1.30854,1.23324,1.23324,0,0,0,.42348,1.00955,11.29332,11.29332,0,0,0,.8885-4.089,40.11171,40.11171,0,0,1,.34257,7.84153l.49733-1.71873c-.06013,1.1773.08379,2.35616.063,3.53482a6.01692,6.01692,0,0,1-.90012,3.36581,2.98149,2.98149,0,0,1-3.052,1.30941,2.0103,2.0103,0,0,1-1.32073-2.75546,9.78768,9.78768,0,0,1-1.463,3.66582,5.13748,5.13748,0,0,1-3.20593,2.17419.74438.74438,0,0,1-.491-.0367c-.24973-.13974-.27968-.48076-.27924-.767a37.57323,37.57323,0,0,0-.09849-6.5165,12.72453,12.72453,0,0,1-.37106-4.92066C435.94713,120.41558,436.135,121.71529,436.34648,123.00611Z"/>
      <path class="cls-8" d="M480.32305,86.89564a4.08109,4.08109,0,0,1-2.07128-.12794l2.942-2.06989-1.58555-.42682a25.165,25.165,0,0,1,4.38861-8.661l-.7555,4.91174a44.7308,44.7308,0,0,1,3.29487-4.7585l-.30462,2.44962c.97152.14,1.63073-.93253,2.0127-1.83672l2.403-5.68848a4.39188,4.39188,0,0,0,.614,3.1464,28.91741,28.91741,0,0,0,1.45729-10.27823,16.82166,16.82166,0,0,1-1.40779,12.26634c-.85431,1.58435-1.98205,3.50137-1.0194,5.02233.80927.226,1.55462-.48953,2.06378-1.15793a26.94959,26.94959,0,0,0,5.09671-11.7021c.91791.17158,1.09192,1.40473.99574,2.33357a24.68715,24.68715,0,0,1-9.44083,16.85245,2.26159,2.26159,0,0,0-.66.66007,2.43872,2.43872,0,0,0-.08846,1.467,10.13009,10.13009,0,0,1-2.036,7.35449,5.54024,5.54024,0,0,0-1.34024,2.20155,13.00759,13.00759,0,0,0-.05578,1.42981c-.11379,1.49039-1.21915,2.695-2.30364,3.72365a54.96808,54.96808,0,0,1-7.24859,5.7949c-2.23458,1.49566-4.88468,3.38138-4.69916,6.06391a10.43214,10.43214,0,0,1,.16239,1.72282c-.05651.5754-.46334,1.18655-1.04149,1.18993a1.84294,1.84294,0,0,0-.52215-.00283c-.29821.09008-.4048.449-.46794.75409a54.90435,54.90435,0,0,1-6.11607,16.13939c-.212.36991-.52547.78935-.949.7404a1.53725,1.53725,0,0,1-.70859-.44172,2.17236,2.17236,0,0,0-3.33682,1.41529c-1.585-.27691-3.44014-.76939-3.9867-2.28267a6.36259,6.36259,0,0,1-.12054-2.33223c.07973-3.14752-1.35722-6.14593-4.24883-7.39166-.73168-.31522-.86078-1.3021-.73465-2.08874a4.108,4.108,0,0,0,.05733-2.34893c-.77852-1.69324.31532-4.26682.74091-6.08122a2.14232,2.14232,0,0,1,.39915-.94229c.47112-.54141,1.45938-.66688,1.57339-1.37545l-3.194-.48384a28.09288,28.09288,0,0,0,8.9692-4.44472,4.19394,4.19394,0,0,0-1.27343,1.69269,7.03877,7.03877,0,0,0,3.22612-1.888,5.13342,5.13342,0,0,0-1.20322,2.34193,22.493,22.493,0,0,0,4.748-4.32711l-1.79285.00222c-6.93127.0086-13.9967,4.91747-20.90318,4.33169l4.50291-1.13637-3.98247-.04238,2.85366-.26527-4.15926-.3125q1.97325-.6598,3.968-1.25275l-5.40014-.38456a45.28689,45.28689,0,0,1,8.75108-1.15072,7.51545,7.51545,0,0,0-4.66025-.40279,44.38662,44.38662,0,0,0,12.55421-2.18257,24.93055,24.93055,0,0,1,3.47282-1.0047c1.45147-.25085,2.94084-.16927,4.40247-.3518a17.2506,17.2506,0,0,0,7.48621-3.11907,21.07952,21.07952,0,0,0-4.49747-.677,17.944,17.944,0,0,0,11.75439-5.624c.95917-1.03246,1.90334-2.24755,3.27912-2.5529A12.7908,12.7908,0,0,1,477.18,94.99317c1.443.13969,2.48824-1.294,3.21157-2.55039l2.31031-4.01286a2.03238,2.03238,0,0,0,.39265-1.31233c-.08148-.45946-.67147-.82821-1.02886-.52819"/>
      <path class="cls-9" d="M403.27615,96.45845c-.81968.04631-1.37587.83268-1.76061,1.55794a21.5704,21.5704,0,0,0-1.94223,14.81338c.7922-2.812,2.04326-5.47035,3.03359-8.21881a19.60546,19.60546,0,0,0,1.42545-8.57148"/>
      <path class="cls-10" d="M466.01151,91.546A4.58551,4.58551,0,0,0,468.72814,93.04a2.87491,2.87491,0,0,0,2.55725-.11057,3.61923,3.61923,0,0,1-1.2897-.23563,14.27553,14.27553,0,0,1,4.91084-1.96027c-.65412.12782-1.51562-.15458-2.22154-.06991a6.50656,6.50656,0,0,0-2.058.662A6.81434,6.81434,0,0,1,466.01151,91.546Z"/>
      <path class="cls-11" d="M428.16214,93.68539a7.82912,7.82912,0,0,0-.627,2.92013c3.1923-3.71139,4.18986-9.18406,8.10921-12.11728a37.69156,37.69156,0,0,0,3.30658-2.28816A12.43063,12.43063,0,0,0,441.6174,77.736c1.06177,2.37695.686,5.13.123,7.67172a59.45654,59.45654,0,0,1-2.15232,7.40427,2.05111,2.05111,0,0,1,1.72426-.85431,17.92315,17.92315,0,0,1,7.9178.924,2.28467,2.28467,0,0,0-2.22771-.36625,6.163,6.163,0,0,1-2.31762.40406,7.92409,7.92409,0,0,1,1.99992.27736,5.39746,5.39746,0,0,0-2.862.81412c.33614-.281.88318.11473.90382.55234a1.80229,1.80229,0,0,1-.55478,1.15638l7.09736-2.74372-2.74143,3.03087,2.52138-1.22446c-3.00328,3.25333-6.91248,5.50145-10.75654,7.6985a11.44864,11.44864,0,0,0,2.64176-.12535c-1.47074.89761-3.294.89819-4.98027,1.25207-2.33329.48965-4.7627,1.68882-6.97579.80212l.71253-1.26622-1.45867-.48082a.5013.5013,0,0,1-.27077-.15976.5675.5675,0,0,1-.03335-.39906,2.28037,2.28037,0,0,0-1.38874-2.34691,1.25963,1.25963,0,0,0-.90727-.04907c-.5231.20566-.71315.83428-.83733,1.38247l-.80718,3.56322c.02944-.547-.6596-.77431-1.097-.65288-.6005.1667-.767.8117-1.04506,1.26988-.40414-.65675.00433-1.85223.15144-2.55292a22.36167,22.36167,0,0,1,2.33707-6.26311C426.848,95.53032,427.75557,94.63633,428.16214,93.68539Z"/>
      <path class="cls-12" d="M450.99481,91.90221a11.20421,11.20421,0,0,0,3.71328-1.23937,11.42192,11.42192,0,0,0,1.09652-.78628.7315.7315,0,0,1,1.00858.00229c.2144.122.46374.33468.37029.563a.48875.48875,0,0,1-.20874.20709,8.58714,8.58714,0,0,1-4.32763.937C452.19955,91.60308,451.43459,91.987,450.99481,91.90221Z"/>
      <path class="cls-13" d="M423.07515,90.04582l.19233,1.01495a38.40446,38.40446,0,0,1,4.26357-5.32994,29.49861,29.49861,0,0,1,5.19131-4.37723l-2.174,2.99783a3.11214,3.11214,0,0,0,1.68776-1.18962A29.65245,29.65245,0,0,1,430.32913,86.34c-1.37183,1.9924-2.98211,3.80933-4.40735,5.76389a17.83478,17.83478,0,0,0-3.21329,6.44959.51026.51026,0,0,0,.41377-.29379c-.07176.71208-1.199.78625-1.49974,1.43568-.22863.49371.04378,1.258-.44265,1.50179l-.28629-.90524c-.23183.44367-.68819,1.17541-1.18955,1.2953-.29949-1.81813.5404-4.22408,1.09525-5.94194.30982-.95924.6672-1.90259,1.05184-2.83415q.3027-.73311.627-1.45706C422.59443,91.09277,423.12544,90.31125,423.07515,90.04582Z"/>
      <path d="M354.5243,69.14875c-.64612-7.783-1.19085-15.59787,3.70615-22.2217,2.33267-3.15524,5.01752-6.72541,8.37948-8.83659,3.49475-2.19457,7.80554-2.62211,11.821-2.96717a101.76053,101.76053,0,0,1,11.81292-.40975,20.82337,20.82337,0,0,1,12.00664,4.11456c6.02918,4.277,12.22648,8.927,16.74165,14.84863,3.80228,4.98667,6.95664,11.14105,13.18317,13.45719.82437.30665,1.18524-1.01741.36339-1.31813a15.22379,15.22379,0,0,0-14.41512,1.6353c-2.37182,1.65915-4.45492,3.743-7.41719,4.29113-3.65.67544-7.25407-.7978-10.59722-2.06148-.66068-.24973-1.0982.67757-.65795,1.13026a8.556,8.556,0,0,1,.08877,11.75659c-.53965.581.32392,1.4512.87283.87283a9.935,9.935,0,0,0-.00525-13.58578l-.65795,1.13026c4.76124,1.89164,10.135,3.39568,14.84013.5775,2.38028-1.4257,4.30852-3.47371,6.88647-4.57928A12.93644,12.93644,0,0,1,432.012,67.065l.52666-1.24923c-6.99516-2.58357-9.986-10.13642-14.67307-15.3835a67.40882,67.40882,0,0,0-9.12479-8.20639,67.32644,67.32644,0,0,0-9.10057-6.458c-3.37446-1.8074-7.01668-2.22077-10.79484-2.23587a106.83918,106.83918,0,0,0-13.118.72672c-3.648.4373-7.33259,1.21409-10.37369,3.38924-2.85407,2.04137-5.0818,5.00034-7.20044,7.75895-5.49962,7.1609-5.44822,15.23036-4.21209,23.8207.04729.32863.61079.25407.58315-.07892Z"/>
      <path d="M410.86129,103.10063a27.42229,27.42229,0,0,0,.893,11.30429c.76468,2.53532,1.76168,5.45019,4.25528,6.74.37137.19209.901-.13011.75153-.57775a25.193,25.193,0,0,1-.61339-13.0762.44571.44571,0,0,0-.85881-.23676,22.185,22.185,0,0,0,.48557,13.585l.75153-.57775c-2.696-1.389-3.63644-5.14622-4.26156-7.87059a26.883,26.883,0,0,1-.411-9.2902c.07616-.633-.9158-.62644-.99219,0Z"/>
      <path d="M415.74969,108.26732c1.22135,3.91387,1.95265,9.86223,6.221,11.6975a.56476.56476,0,0,0,.83575-.47959,69.28929,69.28929,0,0,0,.11565-11.53933.51206.51206,0,0,0-1.02344,0c-.0154,3.86158.08292,7.68022-.20306,11.53933l.83575-.47959c-3.93177-1.68661-4.68957-7.33534-5.87014-10.98962-.18607-.576-1.09374-.33256-.91155.2513Z"/>
      <path d="M422.43723,109.89029c1.26511,5.125,3.03145,9.6209,8.2743,11.65849.50573.19655.78959-.582.35819-.84962-2.19548-1.36176-4.11909-2.31094-5.44074-4.67385a25.82876,25.82876,0,0,1-2.22746-6.40086.50043.50043,0,0,0-.96428.26584Z"/>
      <path d="M471.11241,113.76153a25.13252,25.13252,0,0,0,4.19437-3.63047c.48579-.51128-.33385-1.29359-.76235-.76235a19.81034,19.81034,0,0,1-3.89731,3.59681c-.47591.33974-.03212,1.13114.46529.796Z"/>
      <path d="M432.50473,67.01939a3.42662,3.42662,0,0,0,3.17357,1.29211,8.942,8.942,0,0,0,5.16244-1.165.4613.4613,0,0,0-.46529-.796c-1.45612.71323-5.82349,1.9344-7.014.16816-.35446-.52587-1.21073-.03506-.85672.50078Z"/>
      <path d="M439.66923,67.40658a99.39146,99.39146,0,0,0,8.51922-6.00478c.40225-.34813-.112-.96247-.55384-.7178a98.13721,98.13721,0,0,0-8.46616,5.86586c-.51808.36375-.026,1.22277.50078.85672Z"/>
      <path d="M447.03742,62.51834c.0789-3.504,2.93933-5.96284,5.432-8.05843a63.9043,63.9043,0,0,1,7.564-5.26167.4222.4222,0,0,0-.42586-.72855A41.45158,41.45158,0,0,0,450.491,54.88c-2.29174,2.08151-4.37107,4.39577-4.44579,7.6383a.4964.4964,0,0,0,.99219,0Z"/>
      <path d="M455.98021,55.6784c-.35275.45427-.714.90321-1.05879,1.3635-.33969.45343-.64231.98223-1.02012,1.40217-.34322.3815.30431.8561.546.4213.27522-.49507.67481-.95207.99558-1.42111.32557-.47607.63246-.96615.94835-1.44871.15992-.2443-.22722-.55389-.411-.31716Z"/>
      <path d="M454.03485,61.51543a9.50668,9.50668,0,0,1,1.19389-3.87642c.247-.372-.40981-.708-.59259-.24983a21.167,21.167,0,0,0-.87153,2.08775,10.03228,10.03228,0,0,0-.3079,2.0385c-.02551.37825.53305.35929.57813,0Z"/>
      <path d="M456.23442,70.601a15.83112,15.83112,0,0,1,1.13848-7.85276.38119.38119,0,1,0-.69969-.295,19.36172,19.36172,0,0,0-1.431,8.14774c.02683.64387,1.05483.62774.99219,0Z"/>
      <path d="M460.06358,68.25027a48.23651,48.23651,0,0,0,1.566-8.54809c.04043-.49249-.70012-.47333-.75781,0a83.3984,83.3984,0,0,1-1.38071,8.39025.29713.29713,0,0,0,.57254.15784Z"/>
      <path d="M459.64837,60.5482c.08658-5.508,2.5867-9.90345,5.00177-14.67693a.3401.3401,0,0,0-.58689-.34305c-2.76144,4.44751-5.32607,9.65311-4.82894,15.02a.20717.20717,0,0,0,.41406,0Z"/>
      <path d="M463.67889,55.3249c.83939-2.54476,1.60557-5.12575,2.48815-7.653.14842-.425-.55509-.62556-.678-.18692-.72184,2.57589-1.57014,5.12919-2.33748,7.69458-.10144.33915.41769.4778.52734.14538Z"/>
      <path d="M466.6035,66.83677a23.814,23.814,0,0,0,.27544,9.72217c.12315.48062.81078.27052.73074-.20146a25.37214,25.37214,0,0,1-.04944-9.257c.12164-.62936-.85656-.88748-.95675-.26376Z"/>
      <path d="M469.99635,69.58941c-.14234,2.41736-.32472,4.844-.34971,7.26566-.00567.54925.77974.523.83594,0,.25906-2.411.36343-4.84513.506-7.26566.03756-.63783-.95476-.63565-.99219,0Z"/>
      <path d="M456.2925,50.08249l-.31474-2.80445a.43351.43351,0,0,0-.08619-.66889c-2.02671-1.54295.96674-2.37028,1.09166-3.51871.04522-.41574-.28423-.78872-.171-1.07223.12559-.31438,1.65544-.81568,1.94455-1.02569a5.07209,5.07209,0,0,0,1.15143-1.07729,3.61871,3.61871,0,0,0,.72476-2.36832.43386.43386,0,0,0-.86719,0c-.18181,3.26856-2.57645,2.33733-3.92423,4.12275-.157.208-.029.49141-.099.69676a4.37142,4.37142,0,0,1-.47461,1.32118c-.9362,1.27158-1.50289,2.57093.19375,3.657l-.08619-.66889a2.3501,2.3501,0,0,0,.56609,4.00712.34792.34792,0,0,0,.35094-.60038Z"/>
      <path d="M457.5108,46.77751a3.14233,3.14233,0,0,1,.78928-2.06341c.43345-.47092.87563-.50877,1.32725-.852.50407-.38307.40135-.42973.51514-.98784.253-1.24105.01451-.99746.96107-1.61644a6.03332,6.03332,0,0,0,.81527-.58833,4.03856,4.03856,0,0,0,1.15744-1.95115c.12735-.44111-.524-.60529-.678-.18692a4.27343,4.27343,0,0,1-1.84368,2.20207,4.14225,4.14225,0,0,0-.75655.53421c-.5161.58206-.29253,1.18075-.65959,1.75728-.46249.72642-1.32159.94307-1.74776,1.77327a3.12488,3.12488,0,0,0-.27887,2.03323c.0373.235.38946.16426.399-.054Z"/>
      <path class="cls-14" d="M441.00841,132.27019a1.11591,1.11591,0,0,1-.094.55619,1.26743,1.26743,0,0,1-.55946.42831c-.67473.35914-1.25382.87638-1.92,1.25121a2.59835,2.59835,0,0,1-2.19345.31272c-.69249-.2805-1.30415-1.02859-2.01788-.80766a2.87012,2.87012,0,0,0,3.01061,2.10964,8.3664,8.3664,0,0,0,3.73393-1.38019,5.12025,5.12025,0,0,1,.6381,3.26593.93641.93641,0,0,1-.1414.5682.92085.92085,0,0,1-.41665.24953,34.34651,34.34651,0,0,1-5.05839,1.46223,4.58349,4.58349,0,0,0-2.92692,1.34627,4.11293,4.11293,0,0,1,2.88526.51836,9.4243,9.4243,0,0,0,1.08177.66812,3.48936,3.48936,0,0,0,2.535-.1012,21.666,21.666,0,0,1,2.43358-.9057,2.28237,2.28237,0,0,1,1.35506.03847,2.95227,2.95227,0,0,1,.962.74915c1.45959,1.51268,2.95414,3.13967,4.95094,3.79647,1.87738.61753,4.02819.30818,5.76419,1.25275a8.20437,8.20437,0,0,0-2.87979-3.72617,24.464,24.464,0,0,0-4.13478-2.37812,25.86738,25.86738,0,0,1,2.85516.15806,8.93063,8.93063,0,0,0,1.89432.09829,7.62172,7.62172,0,0,0,1.99849-.58735l2.61849-1.038c.31849-.12625.70029-.4742.47157-.72926a.53263.53263,0,0,0-.25642-.13117A23.99467,23.99467,0,0,0,448.711,138.43c-.093-1.73647,2.98428-2.34086,2.8722-4.0762q-2.6613,1.20459-5.373,2.29335a1.57238,1.57238,0,0,1-1.10483.151c-.50605-.18777-.67191-.80942-.75189-1.34323a28.96139,28.96139,0,0,1-.24325-6.384.54742.54742,0,0,0-.083-.41854.53925.53925,0,0,0-.32016-.12956l-1.55837-.2596C440.30411,127.956,441.00408,131.16349,441.00841,132.27019Z"/>
      <path d="M460.30424,48.34049c.95572-1.27566,2.27072-1.29033,2.96251-2.87824.82029-1.88283,1.58775-3.023,3.52982-3.81485.63783-.26008,1.21656-.30358,1.57929-.9515.32453-.57968.03186-1.16146.16939-1.7663.329-1.44691.58558.059,1.23731.59725a1.57588,1.57588,0,0,0,2.38063-.17153c.30364-.35262-.22313-.86579-.50823-.50823-1.12394,1.40956-2.08124-.97517-2.45-1.46649a.37055.37055,0,0,0-.40411-.16445c-.773.24963-.92536.64118-1.02342,1.43836q.02244.5521.05222,1.10386a2.85943,2.85943,0,0,1-1.82927,1.36811c-.41532.25289-.82084.39679-1.22139.68788a7.43765,7.43765,0,0,0-2.11594,2.91438,8.3766,8.3766,0,0,1-2.11319,2.46376,2.70727,2.70727,0,0,0-.71786.872c-.1822.312.2666.55046.47221.276Z"/>
      <path class="cls-15" d="M406.79311,113.43071a15.96418,15.96418,0,0,0-.6098,4.50748q-.09588,3.40838.14083,6.81529a21.21887,21.21887,0,0,0,1.78767-3.53524c1.35653-3.15732,2.76941-6.48208,2.7616-9.97976-.00184-.825.18945-1.822-.71218-1.92191a1.5485,1.5485,0,0,0-1.19864.52548A9.21255,9.21255,0,0,0,406.79311,113.43071Z"/>
      <path d="M402.07259,84.82458c1.25518.54556,2.537,1.03769,3.75666,1.65974l-.1283-.99561c-.6353.6239-1.207,1.30916-1.89737,1.87748-.74348.612-1.61106,1.01012-2.36241,1.59014-.44341.34229-.22,1.14786.40936.971a10.34685,10.34685,0,0,0,4.846-3.67042.63917.63917,0,0,0-.37885-.93122c-1.31259-.39722-2.5768-.93033-3.86286-1.40784-.52132-.19356-.89862.68231-.38227.90674Z"/>
      <path d="M401.27529,89.98318q-5.57956,4.94741-11.16353,9.89c-2.39974,2.13281-5.03213,4.41875-4.91044,7.89747l.86622-.23462a10.67918,10.67918,0,0,1-.36759-12.24759c2.58488-3.975,7.3018-5.80793,11.89352-5.82548a.49.49,0,0,0,.48777-.48777,5.21006,5.21006,0,0,0-5.25184-4.47c-3.572-.10363-6.98708,2.60921-9.64509,4.68249-5.92567,4.6221-10.68425,12.0308-7.63943,19.68555l.73686-.56647c-7.77424-5.44015-2.72864-15.50489,2.24231-20.81124a43.951,43.951,0,0,1,8.67139-7.14928,44.46,44.46,0,0,1,4.64006-2.54394c.83167-.39373,2.42928-.59951,2.861-1.45859.71174-1.41623-1.24567-2.37393-2.30318-2.48059-2.12343-.21418-4.31388,1.40593-5.67507,2.87705a25.11679,25.11679,0,0,0-4.22589,7.3032c-.41291.95776-.84417,3.02389-1.61461,3.71781l-.14587.3005-3.41372-.7585c-.30229-.381-.12294-1.67058-.09138-2.11168a17.18729,17.18729,0,0,1,.60505-3.19818,26.59852,26.59852,0,0,1,14.51785-17.0805.58637.58637,0,0,0-.13875-1.06164c-9.66446-2.02946-17.88994,3.97739-24.00055,10.81359l.88885.51742c2.77442-13.40747,17.54385-17.36352,29.43748-16.88594a.55676.55676,0,0,0,.54608-.54608c.15011-2.05835-1.79722-2.89641-3.473-3.45781a33.3076,33.3076,0,0,0-10.93848-2.05352c-5.31867.08689-10.71377,2.51955-12.918,7.60322l.98619.12889a8.86211,8.86211,0,0,1,3.98842-10.1493c.36967-.22075.36016-.93335-.13164-1.00722a8.677,8.677,0,0,0-8.75445,4.533c-2.429,4.12784-1.58442,9.20719-.46931,13.59837l.8767-.51035a21.38813,21.38813,0,0,1-4.0795-7.79219.56023.56023,0,0,0-1.01032-.132,20.26327,20.26327,0,0,0-3.34082,7.63531l.93941-.248c-4.19689-3.93325-2.0233-10.68856.8328-14.7412a19.231,19.231,0,0,1,5.98814-5.39576c1.54188-.91514,2.90127-1.63318,3.56558-3.37015a.58067.58067,0,0,0-.55575-.72956c-5.36384-.05428-10.054,2.97468-13.03995,7.30991-3.64878,5.29758-4.1959,12.03728-3.69,18.26842.0631.77728,1.28613.78154,1.21875,0-.481-5.57985-.15051-11.46868,2.66559-16.45021a15.12172,15.12172,0,0,1,12.84564-7.97544l-.55575-.72956c-.67926,1.86121-2.8217,2.4884-4.32869,3.49788A18.34321,18.34321,0,0,0,362.9486,47.868,20.16383,20.16383,0,0,0,358.707,54.0557c-1.77327,4.07822-2.253,9.33828,1.25624,12.63766a.56731.56731,0,0,0,.93941-.248,20.23926,20.23926,0,0,1,3.21146-7.37615l-1.01032-.132a22.50755,22.50755,0,0,0,4.40373,8.2401c.3525.42086.9967-.03538.8767-.51035-.87652-3.46929-1.61359-7.30685-.45307-10.8032,1.17774-3.54824,4.445-6.52282,8.37224-5.98654l-.13164-1.00722A10.09171,10.09171,0,0,0,371.699,60.25779c.11477.4096.79019.57162.98619.12889a12.214,12.214,0,0,1,9.529-6.83306,22.13573,22.13573,0,0,1,7.99215.41535c1.70676.35973,7.91931,1.26422,7.78434,3.78116l.54608-.54608c-12.38187-.25857-27.51079,3.75285-30.4631,17.69536-.10293.48611.51015.93717.88885.51742,5.85346-6.488,13.68275-12.37542,22.93964-10.44548l-.13875-1.06164A27.72839,27.72839,0,0,0,377.838,78.46442c-1.054,2.57184-2.46244,6.32824-1.59916,9.13631.55495,1.80513,2.713,3.37909,4.51394,2.12086,1.10278-.77045,1.52205-2.37351,2.02342-3.54664.71686-1.67738,1.41116-3.37035,2.266-4.98389a15.57124,15.57124,0,0,1,2.908-4.10411,8.10637,8.10637,0,0,1,2.87586-1.86576c.7596-.244,2.83878-.58338,2.32725.824-.14421.39675-2.10531.94844-2.58992,1.18995q-1.27577.6358-2.50983,1.35109a45.39121,45.39121,0,0,0-4.84078,3.25461,41.19121,41.19121,0,0,0-8.1015,8.11654c-4.196,5.69639-6,14.53319.66422,19.21565a.5062.5062,0,0,0,.73686-.56647c-2.59265-6.5545.90223-13.06819,5.84129-17.39294,2.29222-2.00712,5.18192-4.29946,8.12535-5.247,1.824-.58719,4.34748-.65771,5.71462.99011,1.76082,2.12233-.687,1.58065-2.03118,1.84538-8.54611,1.683-14.78924,11.49011-8.89756,19.20318.2554.33436.88289.27394.86622-.23462-.13317-4.0633,4.17838-6.81063,6.88884-9.20008q4.47594-3.94582,8.957-7.88579c.47993-.42227-.22477-1.12438-.70158-.70158Z"/>
      <path d="M402.00936,91.06107c-.293,1.6495-.23657,3.94869,1.01843,5.22129a.35437.35437,0,0,0,.5876-.34205c-.166-.71088-.509-1.35524-.65461-2.07468a6.60882,6.60882,0,0,1,.00533-2.5408c.11772-.62569-.84542-.89052-.95675-.26376Z"/>
      <path d="M404.03265,98.65435c.418,3.64474,1.27487,7.73793,5.00392,9.33991a.48553.48553,0,0,0,.718-.412,70.40351,70.40351,0,0,1,1.41346-8.605.46134.46134,0,0,0-.88894-.24507,47.17127,47.17127,0,0,0-1.47881,8.8501l.604-.4601c-3.40024-1.42814-4.06154-5.20656-4.3794-8.46781-.06171-.6331-1.06452-.63063-.99219,0Z"/>
      <path d="M429.56238,114.41045c.32389,4.09074,2.31474,8.87814,6.02948,11.028a.48255.48255,0,0,0,.58224-.75461c-2.98659-3.04833-5.23281-5.84492-5.69766-10.27339-.06039-.57528-.96094-.59205-.91406,0Z"/>
      <path d="M435.73848,125.09985c.06264,2.02076.11643,4.04167.14554,6.0632a.57161.57161,0,0,0,.40723.53487,3.75048,3.75048,0,0,0,4.0253-1.192c1.30077-1.43087,1.498-3.50876,1.47669-5.34489-.00623-.53581-.89685-.70357-.97447-.13188a11.82741,11.82741,0,0,1-.9012,4.08055,2.78306,2.78306,0,0,1-3.3314,1.51848l.40723.53487c-.08873-2.02043-.15281-4.0416-.208-6.0632-.01837-.6725-1.06779-.67472-1.04687,0Z"/>
      <path d="M441.03822,127.8996a2.853,2.853,0,0,0,3.67625.89982c1.63179-.77867,2.16147-2.66781,2.23659-4.32586.03077-.6791-.96975-.6511-1.03906,0a4.67276,4.67276,0,0,1-1.25418,3.07331,1.84248,1.84248,0,0,1-2.72914-.16776c-.3583-.55551-1.24864-.042-.89045.52049Z"/>
      <path d="M447.0509,123.17519a1.75166,1.75166,0,0,0,.4892,1.727.40493.40493,0,0,0,.63218-.08146,15.80408,15.80408,0,0,0,1.34821-5.77606c.02826-.585-.82325-.55341-.89062,0a34.3721,34.3721,0,0,1-1.19328,5.4659l.67276-.17762a.707.707,0,0,1-.1017-.894c.22332-.59423-.81608-.89417-.95675-.26376Z"/>
      <path class="cls-16" d="M455.4082,33.09024a2.5095,2.5095,0,0,1,.50242-.48356,3.04,3.04,0,0,1,.90394-.362l1.59345-.44687a.9492.9492,0,0,1,.44276-.051c.31748.06566.48038.42255.75953.58742a2.36127,2.36127,0,0,0,.487.17,2.37415,2.37415,0,0,1,.94852.636,6.29078,6.29078,0,0,1,1.43023,4.35735.45358.45358,0,0,1-.10348.35953.39722.39722,0,0,1-.22408.07708,3.85235,3.85235,0,0,1-2.07433-.73149,10.92053,10.92053,0,0,0-2.82613-.96977,3.45366,3.45366,0,0,1-.90151-.273,4.80635,4.80635,0,0,0-.5571-.31089,1.43738,1.43738,0,0,0-.66134-.05216c-.18828.02189-.88638.352-1.008.303-.25409-.10235.05355-.67511.12277-.8492A7.243,7.243,0,0,1,455.4082,33.09024Z"/>
      <path d="M448.9785,113.80125c-.07714,1.717-.93667,3.15737-.83125,4.921.10774,1.80248.59118,3.55936.70078,5.36995a.43389.43389,0,0,0,.86719,0c.24192-1.834-.42027-3.55095-.53211-5.36995-.1079-1.75485.72106-3.21271.78758-4.921.02489-.63909-.96359-.63654-.99219,0Z"/>
      <path d="M448.63973,123.66245a1.90574,1.90574,0,0,0-.394,2.16926c.58989,1.21118,2.15835.94091,3.0261,1.87946.94564,1.0228.415,2.41208,1.18465,3.45859a3.82884,3.82884,0,0,0,2.90289,1.25547.518.518,0,0,0,.13707-1.01283c-1.32509-.36455-2.06725-.3544-2.39415-1.95348a5.10561,5.10561,0,0,0-.49192-1.6884,3.86259,3.86259,0,0,0-1.04006-1.14949c-.54282-.3963-3.40409-1.10262-2.229-2.257.45777-.44971-.27361-1.17417-.70158-.70158Z"/>
      <path d="M453.31172,132.05634c-.336,1.36074-.659,3.02737.27051,4.23529.95929,1.24657,2.66975,1.34373,4.09276,1.086.48662-.08814.32649-.77909-.11007-.81333-1.07491-.08431-2.5281.06242-3.23122-.92784-.6773-.9539-.36354-2.2791-.118-3.33089.1369-.58632-.759-.83652-.904-.24922Z"/>
      <path d="M462.35584,136.34814c3.78091-4.85774,7.05565-11.39141,6.85555-17.71518-.01661-.525-.85721-.69417-.95912-.1298a50.72449,50.72449,0,0,1-1.79469,8.40646,30.12086,30.12086,0,0,1-4.86409,8.67618c-.43252.53891.33894,1.30635.76235.76235Z"/>
      <path d="M469.08783,118.96642a1.17273,1.17273,0,0,0,1.97981-.6613,10.56285,10.56285,0,0,0-.09327-2.26864,14.80327,14.80327,0,0,1,.56739-2.90841.45531.45531,0,0,0-.8282-.34916,5.596,5.596,0,0,0-.74071,2.47944,7.893,7.893,0,0,0-.02248,1.55723q.03019.26364.06631.52651a.71842.71842,0,0,1-.22726.92275.49638.49638,0,0,0-.70158.70158Z"/>
      <path d="M478.35841,107.74307c3.18153-2.598,7.575-6.01954,7.67345-10.56157a.48667.48667,0,0,0-.95145-.12877,14.64711,14.64711,0,0,1-2.71347,5.5182,29.14175,29.14175,0,0,1-4.76118,4.19666.61845.61845,0,1,0,.75266.97548Z"/>
      <path d="M478.08551,68.17773c.25,3.05016.041,6.03531.00046,9.08211-.004.30416.489.38822.54478.07373a32.63144,32.63144,0,0,0,.00164-9.15584c-.03766-.3435-.57592-.35441-.54687,0Z"/>
      <path d="M481.81823,68.782c-.17292,2.57279-.82355,5.11283-.94535,7.67215-.0187.39289.52147.41345.64453.08723.88766-2.35313.96041-5.27265,1.06644-7.75937.02111-.495-.73282-.48807-.76562,0Z"/>
      <path d="M488.16476,64.47649a30.76618,30.76618,0,0,1-1.28882,13.49014c-.154.52619.60108.69758.79854.22015a27.24433,27.24433,0,0,0,1.447-13.97406c-.08482-.62691-1.04887-.36453-.95675.26376Z"/>
      <path d="M490.33035,59.1717c1.83045,5.50582.52158,10.8471-.53821,16.3481-.1043.54139.69244.77686.83621.23053,1.42829-5.42739,2.39273-11.37751.47041-16.79047-.16984-.47824-.93155-.27886-.76841.21184Z"/>
      <path d="M486.09312,44.83349c1.79244,2.9261,3.76657,5.70725,5.34813,8.7635a27.117,27.117,0,0,1,2.88086,11.54567c.01933.49016.80614.46979.75,0-.45278-3.78914-.74457-7.29136-2.38673-10.81246a47.50884,47.50884,0,0,0-6.15054-9.83754c-.20408-.24885-.60621.07231-.44172.34083Z"/>
      <path d="M488.73459,44.17048c4.43542,3.07066,6.80968,9.61835,8.06567,14.61336.12647.503.89334.29008.77594-.21392-1.19537-5.13179-3.81333-12.04418-8.53405-14.92562-.33906-.207-.626.30572-.30756.52618Z"/>
      <path d="M495.05911,59.97373a19.6114,19.6114,0,0,1,.47844,8.10064.35.35,0,1,0,.69057.09346,19.81234,19.81234,0,0,0-.6266-8.34363.28149.28149,0,0,0-.54241.14953Z"/>
      <path d="M492.34013,44.01626c4.4039,5.69673,9.12341,11.58223,7.2911,19.252a.38314.38314,0,0,0,.73828.20353c2.22725-7.51479-2.88663-14.55806-7.67582-19.8091-.22267-.24414-.54429.10683-.35355.35355Z"/>
      <path d="M497.97293,67.96527c.97221,7.2515-3.49726,14.5939-9.4996,18.48025a.45347.45347,0,0,0,.4574.78252c3.05463-1.64789,5.97069-5.25655,7.669-8.265a20.3513,20.3513,0,0,0,2.36542-10.99781c-.02444-.65235-1.07481-.61626-.99219,0Z"/>
      <path d="M488.42226,88.16291c.39391,4.12716-2.7529,7.034-4.24363,10.58139-.16564.39416.50255.67438.69255.292,1.73669-3.4956,4.78026-6.70744,4.223-10.87336-.05579-.41706-.71359-.437-.67187,0Z"/>
      <path d="M472.30885,39.2675c.13128-1.59517,2.003-2.04253,2.3566-3.63636a4.86487,4.86487,0,0,0-.80231-3.46615c-.239-.41756-.85446-.04946-.64086.3746a7.35325,7.35325,0,0,1,.71507,1.84789,2.54839,2.54839,0,0,1-1.22823,2.65889,3.78011,3.78011,0,0,0-1.37474,2.08925c-.20168.66852.91308.87774.97447.13188Z"/>
      <path d="M462.19947,37.43392c-2.01142-.977-4.254-1.31226-6.36171-2.02331-.43454-.1466-.73969.55142-.316.74966,2.00144.93658,4.33171.83212,6.177,2.13037.52372.36846,1.07825-.57624.50078-.85672Z"/>
      <path d="M461.58293,36.21707c-1.86554-2.65-5.61437-1.8421-7.96727-.29919l.51392.29491a4.70491,4.70491,0,0,1,1.86986-3.07961c.91157-.67473,2.046-.562,3.08311-.939.47834-.17384.27137-.94467-.21184-.76841-1.47405.5377-2.75118.31695-3.89246,1.57017a4.55409,4.55409,0,0,0-1.53174,3.21681.34483.34483,0,0,0,.43233.32934c2.43751-.92893,5.11237-2.32713,7.32373-.03156.18618.19327.54174-.06427.38037-.29349Z"/>
      <path class="cls-17" d="M464.47727,33.51354a1.26353,1.26353,0,0,0,.13628.58952,1.37672,1.37672,0,0,0,1.0806.51046,11.78672,11.78672,0,0,0,1.67286.08052,2.5736,2.5736,0,0,0,.91832-.146,2.18908,2.18908,0,0,0,.841-.68349,2.87023,2.87023,0,0,0,.61748-1.22666,1.6822,1.6822,0,0,0-.2599-1.32156,1.94914,1.94914,0,0,0-1.311-.6844C466.29922,30.36757,464.38693,31.52439,464.47727,33.51354Z"/>
      <path d="M458.83651,32.00189c.36111.67509,1.24,1.29256,2.00933.85448.72948-.41539.45837-1.109,1.56079-1.1254.58719-.00872.92175.42535,1.51668.14023.682-.32685.67939-2.22966.88459-2.26081a7.12488,7.12488,0,0,0,1.03346.69538,1.59223,1.59223,0,0,0,1.22232-.30288c.38879-.248.029-.87008-.36277-.62062-.604.38465-1.34864-.6671-1.86288-.73342a.88113.88113,0,0,0-.50022.0062c-.5707.226-.40818.87476-.473,1.32867-.08011.56133.25848.33443-.32511.88872-.60287.5726-.338.24127-.95137.19934a2.44483,2.44483,0,0,0-.90688-.04459,1.279,1.279,0,0,0-.59959.34785c-.11235.1134-.15547.36281-.27327.45461-.36569.285-.95552.35767-1.06538-.21-.13016-.67259-1.26686-.291-.90674.38227Z"/>
      <path d="M458.90577,31.53773c-3.08484.18933-2.92481-3.43875-2.75053-5.457.05708-.66095-.05366-5.08378,1.33128-4.40808.16407.08.3813,1.33006.74589,1.639a2.44829,2.44829,0,0,0,1.5162.47191,4.34346,4.34346,0,0,0,3.89245-2.20466c1.09129-2.23786-.63069-4.78859.70012-6.95272.25113-.40838-.38734-.77835-.64086-.3746a4.9235,4.9235,0,0,0-.63186,3.21428,12.33252,12.33252,0,0,1,.13892,2.61883c-.24372,1.66643-3.26128,4.73-4.93209,1.96708-.43164-.71377-.77386-2.99864-2.21585-1.64355-.55928.52558-.37258,2.68655-.43546,3.40536a26.357,26.357,0,0,0-.28393,5.0157c.21419,1.97566,1.53308,3.6261,3.6384,3.2456.302-.05458.23424-.55595-.07269-.53711Z"/>
      <path d="M464.61283,14.46839a18.08863,18.08863,0,0,1,.80211,1.73964.43178.43178,0,1,0,.7925-.33411,18.09463,18.09463,0,0,1-.68787-1.7878.494.494,0,1,0-.90674.38227Z"/>
      <path d="M467.1112,17.42148c.71045.40806,1.61516.62231,1.98192-.31636a8.03263,8.03263,0,0,0,.19163-2.19013,26.16865,26.16865,0,0,1,.39709-3.2341,5.10081,5.10081,0,0,1,.13908-.61053l1.6947-.22781a10.5637,10.5637,0,0,1-.00828,1.72182,5.82652,5.82652,0,0,0,.20489,2.15615,1.6473,1.6473,0,0,0,2.01951,1.10765.41445.41445,0,0,0-.22015-.79854c-2.32523.36041.36177-7.51412-3.35079-5.67614-1.03724.51351-1.24415,1.80755-1.40506,2.83132-.1148.73037-.20461,1.46858-.27252,2.20451-.06925.75043.22385,3.02094-1.12822,2.45386-.3352-.14059-.5474.40394-.24381.57831Z"/>
      <path d="M474.33166,15.65726a2.07434,2.07434,0,0,0,1.68423-1.83259c.13823-.79262-.05223-1.60207.089-2.39386.0961-.53861.31172-1.41614.86267-1.67089,1.5333-.709,1.03653.657.91185,1.37141-.21313,1.22126-.57736,2.48856.03537,3.66338a2.2989,2.2989,0,0,0,2.27958,1.35621c.46585-.02593.46645-.75784,0-.72656-1.54105.10332-1.98974-1.58666-1.86221-2.79572.07917-.75058.37331-1.4788.42671-2.22846.05312-.74567-.2673-1.72547-1.17785-1.74258-.87194-.01639-1.54545,1.05318-1.85386,1.7345-.61382,1.356.197,4.23786-1.5222,4.80562a.2385.2385,0,0,0,.12669.45954Z"/>
      <path d="M480.8925,16.09327c1.13194-.27574,1.474-1.09257,1.89217-2.10014.05944-.14322.60592-1.73744.7638-1.69854.68177.168.06982,1.70643-.02788,1.99416a4.28911,4.28911,0,0,0-.35318,2.29607,1.747,1.747,0,0,0,1.95813,1.57051c1.5933-.23909,1.98893-2.14374,2.15406-3.44.05587-.43855-.18215-3.57525.80919-2.25322.60085.80128.16029,3.455.1558,4.406-.01862,3.94078.01269,9.61539-5.60076,8.7493-1.96166-.30266-3.55311-.70914-5.35263.32493a9.79777,9.79777,0,0,1-4.61489,1.54,10.55821,10.55821,0,0,0-3.33343.66085c-.41607.17327-.24909.85775.19107.69308,2.11211-.79017,4.46415-.35753,6.52816-1.29019,1.56048-.70513,2.41371-1.61856,4.29655-1.491,1.09.07384,2.14217.45455,3.23834.51153,4.53829.23588,5.36657-4.36611,5.39114-7.94322.00509-.74105.68838-9.084-1.92062-7.77763-1.18562.59366-.13147,3.55863-.65294,4.48665l-.13875.608-2.45515-.01072c-.24213-.32665.48224-1.70446.63222-2.14134a3.43787,3.43787,0,0,0,.103-2.5497.33127.33127,0,0,0-.40363-.22918c-2.1696.84016-1.41228,3.82213-3.4042,4.74113-.19863.09164-.05481.39125.14448.3427Z"/>
      <path d="M467.42743,32.491a3.21474,3.21474,0,0,1-.66582.43711c-.28113.12739-.45948.12567-.49465-.17535l-.11242.2714.06492-.08207a.39458.39458,0,1,0-.66594-.38766.87493.87493,0,0,0,.45516,1.16534,1.51549,1.51549,0,0,0,1.62883-.46945c.312-.33913.57837-.944.07529-1.24929a.5775.5775,0,0,0-.89558.32174.3167.3167,0,0,0,.61021.16823Z"/>
      <path d="M464.43192,32.84187c-.58019,1.43-.02165,2.05022,1.43681,2.18591,1.61221.15,3.24322.2279,3.88249-1.55554.399-1.11308.37116-2.51583-.937-2.9306A4.18964,4.18964,0,0,0,464.531,32.118a.30339.30339,0,1,0,.47854.36923,3.7035,3.7035,0,0,1,2.82135-1.48755c1.63433-.03555,1.97741,1.35424,1.27332,2.57621-.60113,1.04329-1.65406.98688-2.705.94346-.51106-.02112-1.32353.04964-1.69517-.39045a1.92207,1.92207,0,0,1-.18006-1.27459c.00363-.05711-.07378-.05755-.09208-.01246Z"/>
      <path class="cls-18" d="M452.09955,151.7273c3.96824.61052,8.10481-.10266,11.9816.94146,3.32185.89466,6.15921,2.999,9.165,4.67239s6.5367,2.95923,9.84565,2.01795a24.965,24.965,0,0,0-5.08406-3.3767c-1.82878-.82224-3.97474-1.288-5.19278-2.88077a1.42675,1.42675,0,0,1-.362-.93731c.04672-.61018.6938-.9715,1.271-1.17475,3.77775-1.33018,8.31424-.78016,11.42916-3.29772-4.80314-1.60957-10.07926.3481-15.10565-.28137a.72519.72519,0,0,1-.45816-.17374.74321.74321,0,0,1-.08142-.64777,40.28266,40.28266,0,0,1,1.38547-5.31737,5.47262,5.47262,0,0,0-4.16424,4.51441c-.02815.21355-.06336.46167-.2496.56988-.29976.17415-.62828-.17211-.79993-.47332a45.60417,45.60417,0,0,1-3.19676-6.8873,6.69648,6.69648,0,0,0-1.77211-3.1007,2.18533,2.18533,0,0,0-3.16467.59c.8333,2.712,1.14836,5.57869,3.29689,7.60607q-1.11315.16555-2.23624.25123a3.67907,3.67907,0,0,1-1.16747-.04279,3.9041,3.9041,0,0,1-.94645-.42478,10.84078,10.84078,0,0,1-3.30206-2.4508c.81,1.16613,1.53512,2.4242,2.3451,3.59033a3.07029,3.07029,0,0,0,2.27738,1.51179l4.46187,1.24508a14.22278,14.22278,0,0,1,.202,2.82773c-2.97361,1.013-6.27908.12643-9.3549.765"/>
      <path d="M469.26609,29.299c.469.67055,1.26442.60731,1.86769,1.07838.64922.50695.92432,1.33254,1.4808,1.91465a.37659.37659,0,0,0,.589-.45443,9.65177,9.65177,0,0,0-1.35863-1.80356,2.78083,2.78083,0,0,0-.92593-.60475c-.1645-.064-.70528-.16609-.72845-.38066-.09686-.89708-1.34715-.354-.92446.25039Z"/>
      <path d="M474.753,28.13759a3.9882,3.9882,0,0,0,1.61359,1.9575c.3816.28234.79115.5286,1.171.81365.4299.32257.74719.75259,1.171,1.06833a.35466.35466,0,0,0,.51644-.397,4.22994,4.22994,0,0,0-1.80811-1.67326,6.22373,6.22373,0,0,1-2.19984-1.96484.25506.25506,0,0,0-.46408.19565Z"/>
      <path d="M475.675,28.13388c2.81543,1.55322,5.7304,2.37861,8.281,4.43474.346.27889.84372-.19713.49718-.49718a19.09109,19.09109,0,0,0-8.67582-4.18031c-.13947-.02378-.24338.16494-.10234.24275Z"/>
      <path d="M479.48688,31.14126c4.4272-.70386,8.83554,4.69455,10.7559,8.045.21562.37619.75314.04605.5734-.33517-1.95825-4.15324-6.72394-8.41851-11.46118-8.68426-.68183-.03825-.61954,1.09393.13188.97447Z"/>
      <path d="M487.48893,37.31124a24.2327,24.2327,0,0,1,5.7447,4.15038,15.98418,15.98418,0,0,1,3.50234,6.20781.31279.31279,0,0,0,.60267-.16615c-.89858-5.46224-5.45585-7.71449-9.24853-10.9712-.55813-.47925-1.21907.44093-.60118.77915Z"/>
      <path d="M481.56194,54.26594c.38831,1.91446.84782,3.82642,1.18506,5.74783.0642.3658.67.21332.565-.15577-.5325-1.87266-.95037-3.79049-1.43366-5.67929-.05274-.20612-.35806-.11817-.3164.08723Z"/>
      <path d="M482.54918,53.69251a32.50985,32.50985,0,0,1,1.2244,7.246.32833.32833,0,0,0,.65625,0,23.36594,23.36594,0,0,0-.92391-7.50979.49652.49652,0,0,0-.95675.26376Z"/>
      <path d="M485.91035,51.51049a23.41717,23.41717,0,0,1,1.5073,9.09258c-.01113.43488.64591.42873.67188,0a25.45073,25.45073,0,0,0-1.22243-9.35634c-.194-.61433-1.18376-.3257-.95675.26376Z"/>
      <path d="M460.24465,135.818c1.58626,2.84219,2.85867,5.85266,4.27554,8.7803a10.4987,10.4987,0,0,0,3.70994,4.72795c.41525.26127.78788-.38787.38248-.65435-2.041-1.34161-2.97756-3.50187-3.98527-5.62848-1.192-2.51561-2.45777-5.01456-3.476-7.60769-.26369-.67155-1.25606-.24363-.90674.38227Z"/>
      <path d="M466.94858,145.46224a5.59641,5.59641,0,0,1,3.74966-3.61209l-.50145-.50145c-.49863,1.57869-3.11133,6.32543-.52746,7.08541.95717.28153,2.53689-.16719,3.524-.24727,1.31825-.10695,2.63686-.20946,3.95512-.31621,2.16266-.17511,6.06765-1.17851,7.44058,1.21185l.3883-.67667a39.47056,39.47056,0,0,0-8.982,1.07456c-1.22512.29826-4.12923.54085-4.56873,2.05232-.47391,1.6298,1.94613,2.60138,2.98409,3.21788,2.88676,1.71458,5.68809,3.56226,8.42492,5.50635l.24349-.899c-3.22329-.23244-6.57185-.61172-9.4212-2.26416-2.02827-1.17627-3.54655-2.97669-5.78933-3.795-2.358-.86036-4.9836-.84467-7.45748-.99121q-4.77015-.28257-9.54007-.56894l.12751.94217a13.17065,13.17065,0,0,1,5.7509-.92855c1.43316.11255,2.9091.69137,4.36432.61259,1.556-.08424,2.96059-1.03747,2.70359-2.77242-.32279-2.17906-2.61276-2.82556-4.41481-3.27289a8.53953,8.53953,0,0,1-6.85728-8.014l-.95912.1298c1.4204,3.93094,4.501,8.10491,9.22754,6.5939a.50228.50228,0,0,0,.29461-.72416c-.46306-1.03074-3.995-7.35254-2.80659-8.1a.49647.49647,0,0,0-.50078-.85672c-.99736.59738-.95637,1.50516-.65356,2.5528a54.12324,54.12324,0,0,0,3.10961,6.9015l.29461-.72416c-4.22185,1.36108-6.79326-2.50329-8.02377-5.9028-.17648-.48755-.98646-.455-.95912.1298a9.47453,9.47453,0,0,0,5.80159,8.45032c.94446.37578,3.65624.49868,4.20638,1.30455l-.46291,3.32334-.6632-.02178a10.13608,10.13608,0,0,1-2.29568-.39793,13.89261,13.89261,0,0,0-7.41135.79174.4821.4821,0,0,0,.12751.94217q4.77029.27876,9.54007.566c3.349.2,6.67772.21041,9.49858,2.25933a22.89236,22.89236,0,0,0,5.62849,3.487,27.958,27.958,0,0,0,7.54095,1.31248c.5205.03767.59673-.64792.24349-.899-1.74113-1.23748-3.50468-2.44112-5.30648-3.58877-1.35944-.86589-4.66256-2.06321-4.94471-3.62413q-.76938-1.07444.59906-1.07093.84972-.27975,1.712-.51786,1.29282-.35706,2.60968-.61962a38.59613,38.59613,0,0,1,6.98514-.6973.45409.45409,0,0,0,.3883-.67667c-1.47218-2.53119-4.77248-1.92076-7.2284-1.71562-2.0479.17106-4.87836.91426-6.92147.5819q-1.28766.52913-1.68677-.87819.25118-.83939.49855-1.6799.49313-1.68155.95542-3.37129a.41112.41112,0,0,0-.50145-.50145,5.72919,5.72919,0,0,0-4.0678,4.2508.27759.27759,0,0,0,.53487.14746Z"/>
      <path d="M459.66667,137.32943a.49639.49639,0,0,0,0-.99219.49639.49639,0,0,0,0,.99219Z"/>
      <path d="M460.66667,139.16276a.49639.49639,0,0,0,0-.99219.49639.49639,0,0,0,0,.99219Z"/>
      <path d="M461.33333,140.49609a.49639.49639,0,0,0,0-.99219.49639.49639,0,0,0,0,.99219Z"/>
      <path d="M462.16667,142.66276a.49639.49639,0,0,0,0-.99219.49639.49639,0,0,0,0,.99219Z"/>
      <path d="M463.16667,144.82943a.49639.49639,0,0,0,0-.99219.49639.49639,0,0,0,0,.99219Z"/>
      <path d="M464,146.49609a.49639.49639,0,0,0,0-.99219.49639.49639,0,0,0,0,.99219Z"/>
      <path d="M465,148.99609a.49639.49639,0,0,0,0-.99219.49639.49639,0,0,0,0,.99219Z"/>
      <path d="M465.83333,150.32943a.49639.49639,0,0,0,0-.99219.49639.49639,0,0,0,0,.99219Z"/>
      <path d="M467.33333,151.49609a.49639.49639,0,0,0,0-.99219.49639.49639,0,0,0,0,.99219Z"/>
      <path d="M469.33333,152.49609a.49639.49639,0,0,0,0-.99219.49639.49639,0,0,0,0,.99219Z"/>
      <path d="M471,153.66276a.49639.49639,0,0,0,0-.99219.49639.49639,0,0,0,0,.99219Z"/>
      <path d="M473,155.16276a.49639.49639,0,0,0,0-.99219.49639.49639,0,0,0,0,.99219Z"/>
      <path d="M475,155.99609a.49639.49639,0,0,0,0-.99219.49639.49639,0,0,0,0,.99219Z"/>
      <path d="M470.66667,149.99609a.49639.49639,0,0,0,0-.99219.49639.49639,0,0,0,0,.99219Z"/>
      <path d="M472.83333,149.66276a.49639.49639,0,0,0,0-.99219.49639.49639,0,0,0,0,.99219Z"/>
      <path d="M475,149.16276a.49639.49639,0,0,0,0-.99219.49639.49639,0,0,0,0,.99219Z"/>
      <path d="M477,149.16276a.49639.49639,0,0,0,0-.99219.49639.49639,0,0,0,0,.99219Z"/>
      <path d="M440.36934,131.929c-.93369,2.988-4.23019,3.45151-6.55391,1.89228a.36309.36309,0,0,0-.5431.31165c.07429.99317,1.63448,1.89353,2.42688,2.23094a4.15674,4.15674,0,0,0,2.39975.26823c.53749-.09648,2.6441-1.41357,2.85316-1.33048.79816.31724.32126,3.33348-.15865,3.67348a10.03881,10.03881,0,0,1-3.41587,1.00611c-1.03369.14744-2.06865-.22708-3.07483.1473a5.67117,5.67117,0,0,0-2.20618,1.9447.402.402,0,0,0,.3877.666c1.23782-.30269,1.98176-.83976,3.00532.21537.17527.18068.143.57927.367.72766a1.949,1.949,0,0,0,1.76211.43511c1.736-.36762,2.63945-1.66948,4.67534-1.67072,2.39438-.00146,2.77969,1.5058,4.32343,2.59231.44366.31226.87219-.4218.42586-.72855-1.42659-.98046-1.56546-2.41715-3.3895-2.68957a8.69323,8.69323,0,0,0-3.79412.45831c-1.95232.72444-1.23606,1.43749-3.83906.0914-.1961-.10141-.28475-.55433-.567-.62633a7.30094,7.30094,0,0,0-3.18122.42653l.3877.666c1.32964-1.64413,2.92518-1.55629,4.832-1.80325,1.4503-.18784,2.61488-1.03119,4.12144-1.0893a.41639.41639,0,0,0,.40606-.40606,20.48746,20.48746,0,0,0-.26389-4.91408.38106.38106,0,0,0-.5571-.22665,11.68236,11.68236,0,0,1-1.96327,1.26188l-1.96107.56143a4.38236,4.38236,0,0,1-3.28011-1.88779l-.5431.31165c2.93977,2.0399,6.13382.8038,7.825-2.13332a.494.494,0,1,0-.90674-.38227Z"/>
      <path d="M448.6236,146.05c1.874,1.44354,4.51483.72456,6.25834,2.38679a.38748.38748,0,0,0,.65364-.27075,5.15045,5.15045,0,0,0-2.382-4.03838c-1.57574-1.21512-3.78848-1.42751-5.116-2.9416l-.41425.71162a15.928,15.928,0,0,0,3.5432.51572.40652.40652,0,0,0,0-.8125,16.74809,16.74809,0,0,1-3.31683-.52433c-.33234-.10179-.70535.31984-.48082.62545,1.96155,2.66987,7.217,2.23689,7.40094,6.464l.65364-.27075c-1.5169-1.87767-4.421-1.14678-6.19865-2.62445a.494.494,0,1,0-.60118.77915Z"/>
      <path d="M455.28655,141.26966c.8345-.28606,1.6734-.52509,2.51714-.775a.44178.44178,0,0,0-.23469-.85128c-.8487.23291-1.68575.47213-2.54621.66958-.62412.14322-.34115,1.1641.26376.95675Z"/>
      <path d="M456.973,138.77416a33.32049,33.32049,0,0,0-8.634-.33959c-.58121.051-.58727.96456,0,.91406a36.24015,36.24015,0,0,1,8.40137.26928c.54639.08011.79243-.74728.23261-.84374Z"/>
      <path d="M448.32633,138.47264c1.1457-1.42749,2.52021-1.87533,3.97956-2.82808a.45945.45945,0,0,0,.20345-.5c-.40575-1.85754-3.073-.27066-3.84177.33959a5.91905,5.91905,0,0,1-2.43006,1.49011c-1.61284.35614-1.33122-1.24328-1.41993-2.3915-.15272-1.97663-.24856-3.96193-.49429-5.9297-.05793-.46387-.76376-.49613-.75,0a46.44817,46.44817,0,0,0,.57551,8.15334c.21809,1.00669.65969,1.18759,1.68878,1.09386,1.95768-.17832,2.61844-1.49084,4.22829-2.32576.18455-.09571,1.56313-.7178.69723-.1715-.41547.26212-.87343.45009-1.27385.746a8.21165,8.21165,0,0,0-1.758,1.86442c-.24956.34533.3255.79508.5951.45917Z"/>
      <path d="M441.15287,130.912c-.13-.61113-.07645-1.21991-.17447-1.83014-.05445-.339-.52433-.26759-.61774,0a3.2415,3.2415,0,0,0,.14434,2.00875.33623.33623,0,0,0,.64787-.17861Z"/>
      <path d="M442.33333,130.16276a.49639.49639,0,0,0,0-.99219.49639.49639,0,0,0,0,.99219Z"/>
      <path d="M442.16667,131.32943a.49639.49639,0,0,0,0-.99219.49639.49639,0,0,0,0,.99219Z"/>
      <path d="M442.16667,133.49609a.49639.49639,0,0,0,0-.99219.49639.49639,0,0,0,0,.99219Z"/>
      <path d="M443.33333,135.32943a.49639.49639,0,0,0,0-.99219.49639.49639,0,0,0,0,.99219Z"/>
      <path d="M443.5,137.82943a.49639.49639,0,0,0,0-.99219.49639.49639,0,0,0,0,.99219Z"/>
      <path d="M443.39369,138.25519c.13013.30567.51381,1.38835,1.03791,1.10974.50777-.26993-.03922-1.277-.18119-1.61052-.24931-.58564-1.10425-.08066-.85672.50078Z"/>
      <path d="M445.66667,140.49609a.49639.49639,0,0,0,0-.99219.49639.49639,0,0,0,0,.99219Z"/>
      <path d="M447.5,143.16276a.49639.49639,0,0,0,0-.99219.49639.49639,0,0,0,0,.99219Z"/>
      <path d="M450.33333,144.99609a.49639.49639,0,0,0,0-.99219.49639.49639,0,0,0,0,.99219Z"/>
      <path d="M448.83333,140.16276a.49639.49639,0,0,0,0-.99219.49639.49639,0,0,0,0,.99219Z"/>
      <path d="M437.83333,140.99609a.49639.49639,0,0,0,0-.99219.49639.49639,0,0,0,0,.99219Z"/>
      <path d="M440.83333,140.32943a.49639.49639,0,0,0,0-.99219.49639.49639,0,0,0,0,.99219Z"/>
      <path class="cls-15" d="M388.86738,51.90141l-.28666.32863,1.33946-.47874"/>
      <path class="cls-15" d="M402.63261,88.501a31.52632,31.52632,0,0,0-.2604,4.74906"/>
      <path class="cls-15" d="M459.928,37.26421a2.95724,2.95724,0,0,1-1.88756,3.473,10.827,10.827,0,0,0-1.11981.31508,1.04646,1.04646,0,0,0-.68763.86085c-.0033.21377.09063.4234.06655.63583a1.082,1.082,0,0,1-.20693.46375,4.97711,4.97711,0,0,0-1.21978,2.43835"/>
      <path class="cls-19" d="M419.8079,151.48873c.2323.16494.44719.36431.66557.54767a7.68985,7.68985,0,0,0,3.38616,1.63626,22.332,22.332,0,0,0-6.29019.07542c-1.481.2292-3.19252.84775-3.54668,2.30394-.29011,1.19282.4842,2.34761,1.0653,3.429a12.26547,12.26547,0,0,1,1.38043,7.071,1.36449,1.36449,0,0,1-.26144.7779c-.32319.36465-.89362.30924-1.3665.42674-1.17671.29239-1.70359,1.66-1.87933,2.85986-.30407,2.0763-.602,3.74576-2.91284,4.222-1.48489.306-3.88084.751-3.52273-1.03948.35225-1.76124,2.61277-3.56513,3.34344-5.30874a10.17827,10.17827,0,0,0,.66864-6.41894c-.671-2.6128-2.65078-5.022-2.19513-7.68087a8.57094,8.57094,0,0,0,3.69809-4.79588,25.47782,25.47782,0,0,0,1.046-6.08841l-.79768,8.37027,2.95-1.652a3.53052,3.53052,0,0,0-1.69059,2.47166c.62378.86481,2.00482.41589,2.83662-.25191,1.63566-1.31323,3.11346-.70507,4.55116-1.79564a5.905,5.905,0,0,0,1.95266-4.99078.97062.97062,0,0,1,.08843-.68473.88025.88025,0,0,1,.52633-.266,25.67207,25.67207,0,0,1,3.80566-.60922,2.55222,2.55222,0,0,1,1.14249.08649c.87212.34026,1.14948,1.44779,1.86846,2.04731a4.533,4.533,0,0,0,3.01087.57319,14.19211,14.19211,0,0,1,5.2441.96284,15.12945,15.12945,0,0,0-4.9012,1.48473l7.78827-.30988c-4.39161,2.63767-10.47353.29945-14.92191,2.8402-.69836.39888-1.3302.907-2.03343,1.29723a7.11849,7.11849,0,0,1-5.24919.64029,6.96043,6.96043,0,0,1,1.66186-3.52535"/>
      <path class="cls-19" d="M423.66554,173.52076q8.65834-3.42053,17.09027-7.38079l-6.33989,3.20529c-5.55892,2.81045-11.12049,5.62216-16.80944,8.15922-1.39795.62343-4.79995,2.41237-6.0632,1.10375C415.01913,176.25476,419.76624,175.0612,423.66554,173.52076Z"/>
      <path class="cls-19" d="M415.34933,169.7124c4.56629-.93126,8.47366-4.16733,13.09883-4.73835a70.64479,70.64479,0,0,1-13.76535,6.25844,2.99631,2.99631,0,0,1,1.55322-1.75425,8.88864,8.88864,0,0,1,2.2922-.71714"/>
      <path class="cls-19" d="M395.56725,166.72453a36.91661,36.91661,0,0,0,2.76356,8.507c-3.18788-3.24944-4.92319-7.61413-6.57956-11.85417a37.20359,37.20359,0,0,0,3.62613,11.95959,7.85423,7.85423,0,0,0,2.22295,2.98219,70.70435,70.70435,0,0,1-5.64664-7.7882,27.78661,27.78661,0,0,0,9.67157,13.11119c-2.23629-1.31568-3.82593-3.46636-5.50016-5.44852s-3.62815-3.929-6.14338-4.566a38.30049,38.30049,0,0,1,2.29587,5.02794,6.718,6.718,0,0,0,.7863,1.7958,5.183,5.183,0,0,0,1.26236,1.14031,14.6973,14.6973,0,0,0,7.64966,2.97954c1.82834.07244,2.64162.03982,2.93534-1.80446a6.5947,6.5947,0,0,0-.46706-3.64959c-.88828-1.75024-3.01014-3.04416-4.24189-4.57936A32.30661,32.30661,0,0,1,395.56725,166.72453Z"/>
      <path class="cls-19" d="M464.307,174.03381l-7.80935.90755c4.001-2.487,9.11554-1.87355,13.72679-2.83766,2.41434-.50478,4.71181-1.45341,7.09146-2.10234a58.72666,58.72666,0,0,1,6.41375-1.24669l28.84888-4.50382,2.3121,11.38839-11.99456-.8639a5.33294,5.33294,0,0,1-2.36419-.54261,1.82622,1.82622,0,0,1-.92739-2.05681,7.40831,7.40831,0,0,0,5.13386-3.45942c-5.80115-1.968-11.89506,2.12269-18.02078,2.16775a17.70441,17.70441,0,0,0,7.38026.96569l-5.25274,1.84855q3.53793.35274,7.0327,1.03439a20.886,20.886,0,0,1-5.4473.72428c-12.16722.89037-23.34589,8.73508-35.52079,7.95678.084.00537,2.80153-4.60841,3.29259-5.17935A15.02455,15.02455,0,0,1,464.307,174.03381Z"/>
      <path class="cls-19" d="M488.59821,153.82933c-1.45856.95828-2.87925,2.14053-4.60831,2.37728a12.63268,12.63268,0,0,0,3.36648-.43937,49.39633,49.39633,0,0,0,10.18919-3.49937C494.96312,151.17189,490.82429,152.36678,488.59821,153.82933Z"/>
      <path class="cls-19" d="M497.28853,149.68657c6.27888.71137,12.5938-.56833,18.78328-1.84143-3.75735.95077-7.52023,1.90319-11.18169,3.17417a1.345,1.345,0,0,0-.81917.54846.92479.92479,0,0,0,.47633,1.151,2.63765,2.63765,0,0,0,1.35042.19258q4.33527-.15761,8.64231-.72858a13.68193,13.68193,0,0,0-6.06531,3.03755,1.04139,1.04139,0,0,0,.24876,1.3502,2.79285,2.79285,0,0,0,1.39536.53224,23.30459,23.30459,0,0,0,5.31824.30511,2.25857,2.25857,0,0,0,1.04093-.23823,2.39453,2.39453,0,0,0,.81888-2.01851c.2175-3.5259,2.22732-12.463-3.70756-10.57451-2.30419.73318-4.43034,1.87119-6.77146,2.5447C504.29458,147.84719,499.88634,149.9809,497.28853,149.68657Z"/>
      <path class="cls-19" d="M467.17052,137.42217a41.85419,41.85419,0,0,0,7.39464-.72908c.24352-.77711-.64863-1.42925-1.43669-1.63462a6.46688,6.46688,0,0,0-6.77682,2.523"/>
      <path class="cls-19" d="M489.02114,137.37214a7.83517,7.83517,0,0,0-6.38087,2.42514l3.261-.4885a9.597,9.597,0,0,0,4.02138-1.229.60264.60264,0,0,0,.27958-.31867c.09115-.36029-.41219-.5485-.78315-.571l-2.33838-.14166"/>
      <path class="cls-19" d="M470.68258,131.6221l-2.38545-.2085c3.11006.324,6.65894.508,8.91959-1.65233,1.55025-1.48142,2.74074-4.097,4.855-3.73925a4.66989,4.66989,0,0,1,2.13343,1.31345,24.06106,24.06106,0,0,0,7.78429,4.53739,4.175,4.175,0,0,1,1.59887.81493c.74655.73118.77753,1.92131,1.31175,2.81941a4.32751,4.32751,0,0,0,3.97729,1.6963c1.513-.06027,2.99407-.51321,4.50826-.52415,4.67634-.03379,8.59993,4.06573,13.27587,4.1353-4.00852,1.52692-8.17823-1.66221-12.42921-2.23566-3.74132-.5047-8.18838.86592-10.9049-1.75567-.76181-.73519-1.25848-1.70044-1.95108-2.50117-2.06811-2.391-5.48948-2.96746-8.62194-3.39379a3.54287,3.54287,0,0,0-1.49468.0105,4.86071,4.86071,0,0,0-1.50037,1.00468,8.80075,8.80075,0,0,1-6.39083,1.54634,26.13292,26.13292,0,0,1-6.46358-1.85414"/>
    </g>
    <text class="cls-20" transform="translate(12.5 21.33789)">A t<tspan class="cls-21" x="15.41357" y="0">r</tspan><tspan x="19.89355" y="0">aditional n</tspan><tspan class="cls-22" x="73.87598" y="0">e</tspan><tspan x="79.79785" y="0">w </tspan><tspan class="cls-23" x="91.30566" y="0">y</tspan><tspan x="96.83545" y="0">e</tspan><tspan class="cls-24" x="102.78516" y="0">a</tspan><tspan x="108.39941" y="0">r cu</tspan><tspan class="cls-25" x="128.0127" y="0">s</tspan><tspan class="cls-21" x="133.20703" y="0">t</tspan><tspan x="137.39307" y="0">om is </tspan><tspan class="cls-21" x="168.41553" y="0">t</tspan><tspan x="172.60156" y="0">o n</tspan><tspan class="cls-26" x="188.71484" y="0">a</tspan><tspan class="cls-24" x="194.38477" y="0">m</tspan><tspan x="203.55469" y="0">e the </tspan><tspan class="cls-23" x="233.17725" y="0">y</tspan><tspan x="238.70703" y="0">e</tspan><tspan class="cls-24" x="244.65674" y="0">a</tspan><tspan class="cls-27" x="250.271" y="0">r</tspan><tspan x="254.98877" y="0">s </tspan><tspan class="cls-28" x="263.71045" y="0">b</tspan><tspan x="270.03809" y="0">y one of </tspan><tspan class="cls-29" x="315.11572" y="0">1</tspan><tspan x="319.75049" y="0">2 </tspan><tspan class="cls-30" x="0" y="16.7998">a</tspan><tspan x="5.7124" y="16.7998">nimals in their zodiac c</tspan><tspan class="cls-31" x="123.64404" y="16.7998">y</tspan><tspan x="129.11768" y="16.7998">cle.</tspan><tspan x="0" y="50.40039">In 2</tspan><tspan class="cls-32" x="20.71924" y="50.40039">0</tspan><tspan class="cls-33" x="26.85107" y="50.40039">1</tspan><tspan class="cls-34" x="31.0376" y="50.40039">7</tspan><tspan x="36.48389" y="50.40039">, </tspan><tspan class="cls-30" x="43.49756" y="50.40039">w</tspan><tspan x="51.39404" y="50.40039">e ush</tspan><tspan class="cls-26" x="78.53906" y="50.40039">er</tspan><tspan x="88.85693" y="50.40039">ed in the </tspan><tspan class="cls-23" x="137.74268" y="50.40039">y</tspan><tspan x="143.27246" y="50.40039">e</tspan><tspan class="cls-24" x="149.22217" y="50.40039">a</tspan><tspan x="154.83643" y="50.40039">r of the </tspan><tspan class="cls-35" x="197.00244" y="50.40039">R</tspan><tspan x="204.07227" y="50.40039">oo</tspan><tspan class="cls-36" x="216.75586" y="50.40039">s</tspan><tspan class="cls-37" x="221.94971" y="50.40039">t</tspan><tspan class="cls-38" x="226.1499" y="50.40039">e</tspan><tspan x="231.95996" y="50.40039">r on J</tspan><tspan class="cls-39" x="260.39307" y="50.40039">a</tspan><tspan x="266.10498" y="50.40039">nu</tspan><tspan class="cls-24" x="278.49463" y="50.40039">a</tspan><tspan class="cls-40" x="284.10889" y="50.40039">r</tspan><tspan class="cls-41" x="289.10693" y="50.40039">y</tspan><tspan x="294.25879" y="50.40039">, 28th. </tspan><tspan x="0" y="67.2002">E</tspan><tspan class="cls-26" x="6.71973" y="67.2002">ve</tspan><tspan class="cls-40" x="17.8916" y="67.2002">r</tspan><tspan class="cls-42" x="22.88965" y="67.2002">y </tspan><tspan class="cls-29" x="32.05859" y="67.2002">1</tspan><tspan x="36.69336" y="67.2002">2 </tspan><tspan class="cls-23" x="47.20703" y="67.2002">y</tspan><tspan x="52.73682" y="67.2002">e</tspan><tspan class="cls-24" x="58.68652" y="67.2002">a</tspan><tspan class="cls-27" x="64.30078" y="67.2002">r</tspan><tspan x="69.01855" y="67.2002">s th</tspan><tspan class="cls-26" x="88.43604" y="67.2002">er</tspan><tspan x="98.75391" y="67.2002">e is a </tspan><tspan class="cls-35" x="129.34229" y="67.2002">R</tspan><tspan x="136.41211" y="67.2002">oo</tspan><tspan class="cls-36" x="149.0957" y="67.2002">s</tspan><tspan class="cls-37" x="154.28955" y="67.2002">t</tspan><tspan class="cls-38" x="158.48975" y="67.2002">e</tspan><tspan x="164.2998" y="67.2002">r </tspan><tspan class="cls-23" x="172.46143" y="67.2002">y</tspan><tspan x="177.99121" y="67.2002">e</tspan><tspan class="cls-24" x="183.94092" y="67.2002">a</tspan><tspan class="cls-43" x="189.55518" y="67.2002">r</tspan><tspan x="193.4751" y="67.2002">, beginning at Chin</tspan><tspan class="cls-44" x="290.25342" y="67.2002">e</tspan><tspan x="296.30127" y="67.2002">se </tspan><tspan class="cls-45" x="0" y="84">N</tspan><tspan class="cls-22" x="7.71436" y="84">e</tspan><tspan x="13.63623" y="84">w </tspan><tspan class="cls-46" x="25.14404" y="84">Y</tspan><tspan x="31.06592" y="84">e</tspan><tspan class="cls-24" x="37.01563" y="84">a</tspan><tspan class="cls-47" x="42.62988" y="84">r</tspan><tspan x="46.53613" y="84">. A </tspan><tspan class="cls-23" x="64.60938" y="84">y</tspan><tspan x="70.13916" y="84">e</tspan><tspan class="cls-24" x="76.08887" y="84">a</tspan><tspan x="81.70313" y="84">r of the </tspan><tspan class="cls-35" x="123.86914" y="84">R</tspan><tspan x="130.93896" y="84">oo</tspan><tspan class="cls-36" x="143.62256" y="84">s</tspan><tspan class="cls-37" x="148.81641" y="84">t</tspan><tspan class="cls-38" x="153.0166" y="84">e</tspan><tspan x="158.82666" y="84">r al</tspan><tspan class="cls-48" x="175.86426" y="84">w</tspan><tspan class="cls-23" x="183.57861" y="84">a</tspan><tspan class="cls-22" x="189.2627" y="84">y</tspan><tspan x="194.89063" y="84">s co</tspan><tspan class="cls-24" x="215.27393" y="84">m</tspan><tspan class="cls-49" x="224.44385" y="84">e</tspan><tspan x="230.49121" y="84">s a</tspan><tspan class="cls-50" x="245.02295" y="84">f</tspan><tspan class="cls-37" x="249.37646" y="84">t</tspan><tspan class="cls-26" x="253.57666" y="84">e</tspan><tspan x="259.38623" y="84">r a Mon</tspan><tspan class="cls-51" x="298.80908" y="84">k</tspan><tspan class="cls-25" x="304.31104" y="84">e</tspan><tspan x="310.24707" y="84">y </tspan><tspan class="cls-23" x="0" y="100.7998">y</tspan><tspan x="5.52979" y="100.7998">e</tspan><tspan class="cls-24" x="11.47949" y="100.7998">a</tspan><tspan x="17.09375" y="100.7998">r </tspan><tspan class="cls-30" x="25.25537" y="100.7998">a</tspan><tspan x="30.96777" y="100.7998">nd be</tspan><tspan class="cls-23" x="59.4707" y="100.7998">f</tspan><tspan x="63.33447" y="100.7998">o</tspan><tspan class="cls-38" x="69.67627" y="100.7998">r</tspan><tspan class="cls-42" x="74.18457" y="100.7998">e a Dog </tspan><tspan class="cls-52" x="116.88281" y="100.7998">y</tspan><tspan x="122.41309" y="100.7998">e</tspan><tspan class="cls-24" x="128.36279" y="100.7998">a</tspan><tspan class="cls-53" x="133.97705" y="100.7998">r</tspan><tspan x="137.88281" y="100.7998">.</tspan><tspan class="cls-33" x="0" y="134.40039">Y</tspan><tspan x="5.92236" y="134.40039">e</tspan><tspan class="cls-24" x="11.87207" y="134.40039">a</tspan><tspan class="cls-27" x="17.48633" y="134.40039">r</tspan><tspan x="22.2041" y="134.40039">s of the </tspan><tspan class="cls-35" x="64.93018" y="134.40039">R</tspan><tspan x="72" y="134.40039">oo</tspan><tspan class="cls-36" x="84.68359" y="134.40039">s</tspan><tspan class="cls-37" x="89.87744" y="134.40039">t</tspan><tspan class="cls-38" x="94.07764" y="134.40039">e</tspan><tspan x="99.8877" y="134.40039">r include </tspan><tspan class="cls-54" x="147.77979" y="134.40039">1</tspan><tspan x="152.11963" y="134.40039">933, </tspan><tspan class="cls-54" x="179.57275" y="134.40039">1</tspan><tspan class="cls-26" x="183.9126" y="134.40039">9</tspan><tspan x="190.77246" y="134.40039">45, </tspan><tspan class="cls-55" x="211.78613" y="134.40039">1</tspan><tspan x="216.12646" y="134.40039">9</tspan><tspan class="cls-56" x="223.12646" y="134.40039">5</tspan><tspan class="cls-34" x="229.52441" y="134.40039">7</tspan><tspan x="234.9707" y="134.40039">, </tspan><tspan class="cls-54" x="241.98438" y="134.40039">1</tspan><tspan x="246.32422" y="134.40039">969, </tspan><tspan class="cls-54" x="274.33789" y="134.40039">1</tspan><tspan x="278.67773" y="134.40039">9</tspan><tspan class="cls-57" x="285.67773" y="134.40039">8</tspan><tspan class="cls-58" x="291.9917" y="134.40039">1</tspan><tspan x="296.49951" y="134.40039">, </tspan><tspan class="cls-54" x="0" y="151.2002">1</tspan><tspan x="4.33984" y="151.2002">993, 2005, 2</tspan><tspan class="cls-59" x="74.08691" y="151.2002">0</tspan><tspan class="cls-46" x="80.21924" y="151.2002">1</tspan><tspan class="cls-34" x="84.40479" y="151.2002">7</tspan><tspan x="89.85107" y="151.2002">, </tspan><tspan class="cls-30" x="96.86475" y="151.2002">a</tspan><tspan x="102.57715" y="151.2002">nd 2029.</tspan></text>
  </g>
</svg>
