<svg xmlns="http://www.w3.org/2000/svg" xmlns:xlink="http://www.w3.org/1999/xlink" viewBox="0 0 512 180">
  <defs>
    <style>
      .cls-1 {
        fill: url(#linear-gradient);
      }

      .cls-2 {
        fill: url(#linear-gradient-2);
      }

      .cls-3 {
        fill: url(#linear-gradient-3);
      }

      .cls-10, .cls-11, .cls-12, .cls-13, .cls-4, .cls-5, .cls-6, .cls-7, .cls-8, .cls-9 {
        stroke: #000;
        stroke-miterlimit: 10;
        stroke-width: 0.2473px;
      }

      .cls-4 {
        fill: url(#linear-gradient-4);
      }

      .cls-5 {
        fill: url(#linear-gradient-5);
      }

      .cls-6 {
        fill: url(#linear-gradient-6);
      }

      .cls-7 {
        fill: url(#linear-gradient-7);
      }

      .cls-8 {
        fill: url(#linear-gradient-8);
      }

      .cls-9 {
        fill: url(#linear-gradient-9);
      }

      .cls-10 {
        fill: url(#linear-gradient-10);
      }

      .cls-11 {
        fill: url(#linear-gradient-11);
      }

      .cls-12 {
        fill: url(#linear-gradient-12);
      }

      .cls-13 {
        fill: url(#linear-gradient-13);
      }

      .cls-14 {
        fill: #fff;
      }

      .cls-15 {
        font-size: 14px;
        font-family: Ming, Ming;
      }

      .cls-16 {
        letter-spacing: -0.00098em;
      }

      .cls-17 {
        letter-spacing: -0.00698em;
      }

      .cls-18 {
        letter-spacing: -0.006em;
      }

      .cls-19 {
        letter-spacing: -0.01004em;
      }

      .cls-20 {
        letter-spacing: 0.00705em;
      }

      .cls-21 {
        letter-spacing: -0.009em;
      }

      .cls-22 {
        letter-spacing: -0.01402em;
      }

      .cls-23 {
        letter-spacing: -0.00997em;
      }

      .cls-24 {
        letter-spacing: 0.03697em;
      }

      .cls-25 {
        letter-spacing: -0.012em;
      }

      .cls-26 {
        letter-spacing: -0.00293em;
      }

      .cls-27 {
        letter-spacing: -0.00502em;
      }

      .cls-28 {
        letter-spacing: -0.00202em;
      }

      .cls-29 {
        letter-spacing: -0.04994em;
      }

      .cls-30 {
        letter-spacing: 0.00502em;
      }

      .cls-31 {
        letter-spacing: 0.02595em;
      }

      .cls-32 {
        letter-spacing: -0.01095em;
      }

      .cls-33 {
        letter-spacing: 0.003em;
      }

      .cls-34 {
        letter-spacing: -0.01102em;
      }

      .cls-35 {
        letter-spacing: -0.01702em;
      }

      .cls-36 {
        opacity: 0.39;
      }
    </style>
    <linearGradient id="linear-gradient" x1="260" y1="199" x2="260" y2="-5" gradientUnits="userSpaceOnUse">
      <stop offset="0" stop-color="#5b6599"/>
      <stop offset="0.37406" stop-color="#7179a5"/>
      <stop offset="1" stop-color="#9ea2bd"/>
    </linearGradient>
    <linearGradient id="linear-gradient-2" x1="303.79257" y1="137.45914" x2="453.41695" y2="51.07346" gradientTransform="matrix(-1, 0, 0, 1, 725.33435, 0)" gradientUnits="userSpaceOnUse">
      <stop offset="0" stop-color="#5b6599"/>
      <stop offset="0.18289" stop-color="#7179a5"/>
      <stop offset="0.48894" stop-color="#9ea2bd"/>
      <stop offset="1" stop-color="#6b729d"/>
    </linearGradient>
    <linearGradient id="linear-gradient-3" x1="272.82368" y1="156.03885" x2="422.44806" y2="69.65317" xlink:href="#linear-gradient-2"/>
    <linearGradient id="linear-gradient-4" x1="-12443.9674" y1="117.69286" x2="-12405.50573" y2="117.69286" gradientTransform="translate(12785.30846)" gradientUnits="userSpaceOnUse">
      <stop offset="0.01106" stop-color="#c11616"/>
      <stop offset="0.54867" stop-color="#e01b1b"/>
      <stop offset="0.58223" stop-color="#ea1212"/>
      <stop offset="0.64836" stop-color="#f50808"/>
      <stop offset="0.74147" stop-color="#fc0202"/>
      <stop offset="1" stop-color="#fe0000"/>
    </linearGradient>
    <linearGradient id="linear-gradient-5" x1="-12462.34029" y1="162.77015" x2="-12407.242" y2="162.77015" xlink:href="#linear-gradient-4"/>
    <linearGradient id="linear-gradient-6" x1="-12396.3123" y1="11.37494" x2="-12310.25211" y2="143.43283" xlink:href="#linear-gradient-4"/>
    <linearGradient id="linear-gradient-7" x1="-12338.81035" y1="127.7798" x2="-12324.39864" y2="127.7798" xlink:href="#linear-gradient-4"/>
    <linearGradient id="linear-gradient-8" x1="-12397.05582" y1="172.64921" x2="-12323.19628" y2="172.64921" xlink:href="#linear-gradient-4"/>
    <linearGradient id="linear-gradient-9" x1="-12324.69529" y1="123.10596" x2="-12295.68983" y2="123.10596" xlink:href="#linear-gradient-4"/>
    <linearGradient id="linear-gradient-10" x1="-12312.3731" y1="120.1544" x2="-12289.65798" y2="120.1544" xlink:href="#linear-gradient-4"/>
    <linearGradient id="linear-gradient-11" x1="-12342.24582" y1="127.30675" x2="-12321.23996" y2="127.30675" xlink:href="#linear-gradient-4"/>
    <linearGradient id="linear-gradient-12" x1="-12445.32451" y1="161.60045" x2="-12394.41006" y2="161.60045" xlink:href="#linear-gradient-4"/>
    <linearGradient id="linear-gradient-13" x1="-12494.2976" y1="150.0904" x2="-12408.79635" y2="150.0904" xlink:href="#linear-gradient-4"/>
  </defs>
  <title>seafooddiv</title>
  <g id="market">
    <g id="lobster">
      <rect class="cls-1" x="-10" y="-5" width="540" height="204"/>
      <path class="cls-2" d="M333.5828,41.93173c-22.5647,2.2223-45.20032,9.03356-63.01438,23.06081s-30.18769,35.98358-29.183,58.63518c33.397,10.26085,69.21668-2.921,100.62836-18.21655s63.39307-33.35488,98.33071-33.2604c5.75764.01557,12.07618.79054,16.03045,4.97555C438.50259,38.27586,368.00931,38.55445,333.5828,41.93173Z"/>
      <path d="M281.72172,81.76522l-.00151,13.931c-.00009.86645-.35629,2.06073-1.21069,1.91674-1.41206-3.5516-1.3544-7.49218-1.27632-11.31339.04867-2.38157.63893-5.43665,2.98661-5.83994"/>
      <path d="M272.68317,89.42542A42.64515,42.64515,0,0,1,288.72,87.07534a2.39641,2.39641,0,0,1-.5948,3.0738,6.26374,6.26374,0,0,1-3.17815,1.1978,40.14611,40.14611,0,0,1-11.31566.22885,9.10792,9.10792,0,0,0-.455-4.10255"/>
      <path d="M305.15227,65.41875c4.859,3.11811,6.26948,9.07664,6.71334,14.4977a.40251.40251,0,1,0,.79421-.10749c-.95543-5.611-1.61724-11.89455-7.28778-14.76619a.21788.21788,0,0,0-.21977.376Z"/>
      <path d="M309.56,61.10769a25.21238,25.21238,0,0,1,6.48761,8.02551c1.74556,3.44616,2.106,6.86947,2.47251,10.64178a.40979.40979,0,0,0,.819,0c.949-7.27053-3.56269-15.1519-9.28917-19.30232-.36869-.26722-.8431.34156-.49.635Z"/>
      <path d="M350.37969,66.90677a11.74568,11.74568,0,0,0,1.81157-7.99189.53358.53358,0,0,0-.51174-.38962c-2.204-.08233-4.41519-.1084-6.62082-.12853a.51868.51868,0,0,0,0,1.03673c2.20456.07369,4.41524.14173,6.62082.1532l-.5307-.5307a10.33343,10.33343,0,0,1-1.906,7.18627c-.48839.68344.674,1.38179,1.13689.66454Z"/>
      <path d="M350.33658,53.13884c-.02442-1.25074-.04118-2.5006-.10543-3.75a.51714.51714,0,0,0-.50952-.50952,7.95389,7.95389,0,0,1-4.4385-.93487c-.5525-.34348-1.07652.59173-.50233.85938a9.06891,9.06891,0,0,0,4.94082,1.09454l-.50952-.50952c.03472,1.2517.11688,2.50005.19141,3.75.03545.59447.94488.60523.93306,0Z"/>
      <path d="M357.76152,50.4782a4.49022,4.49022,0,0,1,5.80709,1.541,4.25852,4.25852,0,0,1-2.06246,5.88724c-2.03038.86855-4.68907.29893-5.41072,2.87094-.16223.57819.77918.82309.88973.24529.36417-1.90335,4.52866-1.63111,5.9194-2.66351a5.69549,5.69549,0,0,0,2.22767-4.605c-.06183-3.91224-4.65392-5.83157-7.83116-4.06366-.51735.28787-.06167,1.04612.46047.78777Z"/>
      <path class="cls-3" d="M364.55169,60.51145c-22.5647,2.2223-45.20032,9.03356-63.01438,23.06081s-30.18769,35.98358-29.183,58.63518c33.397,10.26085,69.21668-2.921,100.62836-18.21655s63.39307-33.35488,98.33071-33.2604c5.75764.01557,12.07618.79054,16.03045,4.97555C469.47149,56.85557,398.9782,57.13416,364.55169,60.51145Z"/>
      <g>
        <path class="cls-4" d="M364.44313,105.25608a34.49338,34.49338,0,0,0-7.6075.80315,21.23739,21.23739,0,0,0-14.515,12.80009,11.38248,11.38248,0,0,0-.68836,6.99333,6.03933,6.03933,0,0,0,4.93324,4.55478c3.00558.26582,5.42993-2.22934,8.0283-3.76317,5.08315-3.0006,11.42125-2.40881,17.22471-3.4867a11.3917,11.3917,0,0,0,4.45307-1.63012,8.93655,8.93655,0,0,0,3.51351-6.93793c.11727-2.36142-.30886-7.11063-2.54889-8.54454C374.449,104.26081,367.64471,105.19818,364.44313,105.25608Z"/>
        <path class="cls-5" d="M372.692,138.67376a32.19757,32.19757,0,0,1,1.45553,33.2023,4.97368,4.97368,0,0,1-.98461,1.341c-1.51514,1.33279-3.86861.60415-5.69787-.24778s-4.06338-1.74543-5.73916-.62127a5.25957,5.25957,0,0,0-1.81729,3.14146c-2.10328,7.7358-1.03629,16.53678-5.45019,23.22886a6.50055,6.50055,0,0,1-3.39908,2.89283,7.5926,7.5926,0,0,1-3.81561-.20574c-5.22748-1.24844-10.48939-3.28009-14.16753-7.19882a28.57873,28.57873,0,0,1-5.552-9.87185,74.25182,74.25182,0,0,1-3.97095-34.89266,32.34726,32.34726,0,0,1,2.86882-10.56933c4.62164-9.14969,15.33475-13.57345,25.50108-14.88577,4.47707-.57792,9.11244-.281,12.05043,3.52681C366.8193,131.20213,370.05522,134.8179,372.692,138.67376Z"/>
        <path class="cls-6" d="M510.2095,109.56539c-1.42228-8.08852-6.82162-14.89933-12.69516-20.63942C483.20791,74.94458,463.92858,64.86352,443.95,65.86861c-6.437.32383-12.75949,1.77226-19.0226,3.29324a75.2162,75.2162,0,0,0-12.14415,3.7217,60.36224,60.36224,0,0,0-13.606,8.6262c-11.10344,8.89838-20.87843,19.97808-25.87935,33.29943-1.90268,5.06832-3.07485,10.75786-1.23785,15.85035s7.58552,9.045,12.70491,7.28432c17.03093-5.85721,34.78646-4.75305,52.75569-3.54221a32.47815,32.47815,0,0,0,7.98159-.04212c7.75717-1.40886,12.86052-8.57727,18.94313-13.5933a38.72007,38.72007,0,0,1,8.02319-5.10141,17.19118,17.19118,0,0,1,8.20374-2.00815c4.68266.26367,8.614,3.41131,12.46208,6.09262,9.50057,6.62,20.3882,14.47223,31.88325,13.07628,3.42043-.41537,7.23826-1.11765,10.0385-3.12527s3.97954-6.58721,1.42369-8.89795l10.36749-.24323c1.606-.03768,3.41952-.17014,4.45043-1.40215a3.79886,3.79886,0,0,0,.34865-3.85661,9.874,9.874,0,0,0-2.4945-3.18354,25.1851,25.1851,0,0,0-19.51514-8.13466C522.706,103.90983,516.73072,107.2173,510.2095,109.56539Z"/>
        <path class="cls-7" d="M446.82869,132.89455a2.87983,2.87983,0,0,0-.28378,1.68441,2.52455,2.52455,0,0,0,.802,1.11933,27.61953,27.61953,0,0,0,6.21242,4.4046c1.65624.8585,3.84229,1.48928,5.24915.26415a4.97967,4.97967,0,0,0,1.3008-3.078,62.57974,62.57974,0,0,0,.57457-15.29051c-.163-1.90976-.47911-3.9549-1.80746-5.33664a8.49415,8.49415,0,0,0-4.65238-2.02447C445.629,112.96652,448.60426,128.06171,446.82869,132.89455Z"/>
        <path class="cls-8" d="M421.52311,148.37347a115.26018,115.26018,0,0,1-25.515,12.59079c-3.18184,1.10591-6.91252,2.592-7.64265,5.88047-.55677,2.50765,1.02106,5.07187,3.09464,6.588s4.5928,2.259,6.96281,3.24967c1.596.6671,3.29449,1.63079,3.78091,3.29079.46538,1.58818-.351,3.25919-1.29848,4.61607-1.48986,2.13353-3.35844,3.98085-4.85587,6.10907a10.97526,10.97526,0,0,0-2.36078,7.26272c.44448,4.17361,4.31422,7.09167,8.09836,8.90739a16.499,16.499,0,0,0,8.28464,2.01751A20.29619,20.29619,0,0,0,416.307,206.993l18.96489-8.07389a50.97749,50.97749,0,0,0,9.61344-4.92352c8.69433-6.14244,12.64-16.95274,15.25094-27.27282a49.82769,49.82769,0,0,0,1.96519-13.49066,20.10447,20.10447,0,0,0-4.42218-12.65863c-3.708-4.278-11.78726-5.02294-17.03887-3.40252C433.61187,139.33966,427.56758,144.38412,421.52311,148.37347Z"/>
        <path class="cls-9" d="M461.25132,118.45155a10.86526,10.86526,0,0,0,1.42408,5.33575,32.38379,32.38379,0,0,1-1.35892-5.11449,1.867,1.867,0,0,1,1.37938-2.55531,43.562,43.562,0,0,1,6.01048-1.99028c1.63963,1.20942,3.95705,1.03986,5.9283,1.5549a25.33386,25.33386,0,0,1,9.97276,4.71507,13.23971,13.23971,0,0,1,5.00966,9.55392,1.86494,1.86494,0,0,1-.20191,1.04932,2.06656,2.06656,0,0,1-1.54207.70359,17.23832,17.23832,0,0,1-6.7156.07082c-2.95568-.762-5.25913-3.00654-7.87353-4.58184a18.98,18.98,0,0,0-12.67078-2.46074"/>
        <path class="cls-10" d="M495.45471,125.81523c.271,1.24261.37572,2.688-.4652,3.64215-1.08181,1.22745-3.08754.93683-4.54949.20223-2.31291-1.16219-4.1192-3.11152-6.21866-4.62562-3.36234-2.42488-9.14556-4.07522-10.87831-8.21227-1.49348-3.56577,1.33362-6.814,4.947-6.80754C486.36238,110.02857,493.86277,118.51484,495.45471,125.81523Z"/>
        <path class="cls-11" d="M447.31114,114.40006a11.13229,11.13229,0,0,1,14.42894,2.72381c2.264,3.09727,2.7094,7.23131,2.04977,11.0107a43.03462,43.03462,0,0,1-3.95037,10.77133l-.94581,2.00488a1.13618,1.13618,0,0,1-1.71959.71468l-9.34865-2.96956a15.34928,15.34928,0,0,1-3.43133-1.16948c-1.70879-1.08535-1.40912-.3344-1.06729-2.0892.39627-2.03427,2.37663-4.33142,3.06919-6.42206A28.49872,28.49872,0,0,0,447.31114,114.40006Z"/>
        <path class="cls-12" d="M377.37985,149.27757c-4.57556,7.73173-11.13588,14.04879-17.2158,20.66317a145.4017,145.4017,0,0,0-16.3577,21.01421,24.73962,24.73962,0,0,0-3.8224,8.628c6.82089-11.21755,18.35905-18.57228,27.58423-27.9142a84.93945,84.93945,0,0,0,18.84954-29.41488c1.62408-4.27124,5.2832-12.1578,4.32233-16.78549-1.14987-5.53789-5.04836,2.95533-5.66555,4.66954C382.71785,136.68336,380.9604,143.2272,377.37985,149.27757Z"/>
        <path class="cls-13" d="M352.157,127.14885a162.65,162.65,0,0,0-16.06443,6.67466,132.25268,132.25268,0,0,0-21.2508,13.97312,84.01,84.01,0,0,0-10.76328,9.47294c-5.945,6.48686-9.98528,14.5052-13.0676,22.74666,7.26991-10.26527,16.25775-19.17954,25.33815-27.88435a90.731,90.731,0,0,1,12.62191-10.65418,94.43674,94.43674,0,0,1,10.9823-5.90929c9.14139-4.411,24.0405-8.6807,33.57589-11.92359,4.429-1.50626,3.27219-3.70168.7419-3.46219C369.9388,120.59267,356.22539,125.62624,352.157,127.14885Z"/>
        <ellipse cx="411.89275" cy="105.90415" rx="11.98883" ry="7.91358" transform="translate(102.13903 397.32131) rotate(-57.67226)"/>
        <ellipse class="cls-14" cx="412.27751" cy="104.52027" rx="4.84672" ry="3.19922" transform="translate(103.48742 397.0026) rotate(-57.67226)"/>
        <path d="M440.55905,69.81216c7.37751,1.50159,14.00278,7.33607,18.44771,13.24769,4.88414,6.49575,5.99017,14.06809,6.82285,21.9201.04342.40942.65945.43091.655,0-.15819-15.179-9.79949-32.54218-25.72983-35.87759-.46268-.09687-.65971.61536-.19569.70981Z"/>
        <path d="M479.55881,81.24682a50.06027,50.06027,0,0,1,2.24207,27.258c-.07885.41723.55207.59954.64274.1772a47.5395,47.5395,0,0,0-2.30355-27.5954c-.13995-.35435-.71672-.20765-.58126.16025Z"/>
        <path d="M500.246,98.28966c-.22125,5.19692,1.03719,10.46046-2.68462,14.75115a.33057.33057,0,0,0,.46722.46722c4.11339-3.86543,2.69354-10.21932,2.768-15.21837a.27548.27548,0,0,0-.55063,0Z"/>
        <path d="M510.2221,113.858c2.49244,5.24834,6.006,10.43893,12.11931,11.523.38416.06812.54654-.52279.16179-.58685-5.98346-.99625-9.3557-6.13347-11.88572-11.16723-.13311-.26484-.52065-.03269-.39537.23111Z"/>
      </g>
      <path d="M312.69061,100.34493l-.00151,13.931c-.00009.86645-.35629,2.06073-1.21069,1.91674-1.41206-3.5516-1.3544-7.49218-1.27632-11.31339.04867-2.38157.63893-5.43665,2.98661-5.83994"/>
      <path d="M303.65206,108.00513a42.64516,42.64516,0,0,1,16.03685-2.35008,2.39641,2.39641,0,0,1-.5948,3.0738,6.26373,6.26373,0,0,1-3.17815,1.1978,40.14611,40.14611,0,0,1-11.31566.22885,9.10791,9.10791,0,0,0-.455-4.10255"/>
      <path d="M336.12116,83.99846c4.859,3.11811,6.26948,9.07664,6.71334,14.4977a.40251.40251,0,1,0,.79421-.10749c-.95543-5.611-1.61724-11.89455-7.28778-14.76619a.21788.21788,0,0,0-.21977.376Z"/>
      <path d="M340.52888,79.6874a25.21238,25.21238,0,0,1,6.48761,8.02551c1.74556,3.44616,2.106,6.86947,2.47251,10.64178a.40979.40979,0,0,0,.819,0c.949-7.27053-3.56269-15.1519-9.28917-19.30232-.36869-.26722-.8431.34156-.49.635Z"/>
      <path d="M381.34858,85.48649a11.74568,11.74568,0,0,0,1.81157-7.99189.53358.53358,0,0,0-.51174-.38962c-2.204-.08233-4.41519-.1084-6.62082-.12853a.51868.51868,0,0,0,0,1.03673c2.20456.07369,4.41524.14173,6.62082.1532l-.5307-.5307a10.33343,10.33343,0,0,1-1.906,7.18627c-.48839.68344.674,1.38179,1.13689.66454Z"/>
      <path d="M381.30547,71.71856c-.02442-1.25074-.04118-2.5006-.10543-3.75a.51714.51714,0,0,0-.50952-.50952,7.95389,7.95389,0,0,1-4.4385-.93487c-.5525-.34348-1.07652.59173-.50233.85938a9.06891,9.06891,0,0,0,4.94082,1.09454l-.50952-.50952c.03472,1.2517.11688,2.50005.19141,3.75.03545.59447.94488.60523.93306,0Z"/>
      <path d="M388.73041,69.05792a4.49022,4.49022,0,0,1,5.80708,1.541,4.25852,4.25852,0,0,1-2.06246,5.88724c-2.03038.86855-4.68907.29893-5.41072,2.87094-.16223.57819.77918.82309.88973.24529.36417-1.90335,4.52866-1.63111,5.9194-2.66351a5.69549,5.69549,0,0,0,2.22767-4.605c-.06183-3.91224-4.65392-5.83157-7.83116-4.06366-.51735.28787-.06167,1.04612.46047.78777Z"/>
      <text class="cls-15" transform="translate(24 36.6709)"><tspan class="cls-16">F</tspan><tspan x="6.18848" y="0">ish </tspan><tspan class="cls-17" x="24.33203" y="0">a</tspan><tspan x="30.04395" y="0">nd </tspan><tspan class="cls-18" x="46.22754" y="0">o</tspan><tspan x="52.48535" y="0">th</tspan><tspan class="cls-19" x="63.18066" y="0">e</tspan><tspan x="68.99023" y="0">r typ</tspan><tspan class="cls-20" x="93.50293" y="0">e</tspan><tspan x="99.55176" y="0">s of sea</tspan><tspan class="cls-21" x="139.08691" y="0">f</tspan><tspan x="142.95117" y="0">ood </tspan><tspan class="cls-22" x="165.56055" y="0">a</tspan><tspan class="cls-23" x="171.17383" y="0">r</tspan><tspan x="175.68164" y="0">e </tspan><tspan x="0" y="16.7998">consid</tspan><tspan class="cls-23" x="32.62012" y="16.7998">er</tspan><tspan x="42.9375" y="16.7998">ed one of the se</tspan><tspan class="cls-23" x="126.04004" y="16.7998">v</tspan><tspan x="131.40234" y="16.7998">en lu</tspan><tspan class="cls-16" x="156.32129" y="16.7998">c</tspan><tspan class="cls-24" x="161.62793" y="16.7998">k</tspan><tspan x="168.0957" y="16.7998">y </tspan><tspan class="cls-21" x="177.26563" y="16.7998">f</tspan><tspan x="181.12988" y="16.7998">oods </tspan><tspan class="cls-25" x="0" y="33.59961">t</tspan><tspan x="4.18555" y="33.59961">o eat </tspan><tspan class="cls-22" x="33.66797" y="33.59961">d</tspan><tspan x="39.88379" y="33.59961">u</tspan><tspan class="cls-26" x="46.01563" y="33.59961">r</tspan><tspan x="50.62207" y="33.59961">ing </tspan><tspan class="cls-27" x="69.67578" y="33.59961">N</tspan><tspan class="cls-28" x="77.38965" y="33.59961">e</tspan><tspan x="83.31152" y="33.59961">w </tspan><tspan class="cls-29" x="94.81934" y="33.59961">Y</tspan><tspan x="100.74219" y="33.59961">e</tspan><tspan class="cls-22" x="106.69238" y="33.59961">a</tspan><tspan class="cls-30" x="112.30566" y="33.59961">r</tspan><tspan x="117.02344" y="33.59961">s.</tspan><tspan x="0" y="50.40039"></tspan><tspan class="cls-16" x="0" y="67.2002">F</tspan><tspan x="6.18848" y="67.2002">ish is o</tspan><tspan class="cls-31" x="42.47559" y="67.2002">f</tspan><tspan class="cls-32" x="46.8291" y="67.2002">t</tspan><tspan x="51.0293" y="67.2002">en as</tspan><tspan class="cls-33" x="77.76855" y="67.2002">s</tspan><tspan x="83.01855" y="67.2002">ocia</tspan><tspan class="cls-34" x="103.57031" y="67.2002">t</tspan><tspan x="107.76953" y="67.2002">ed with good lu</tspan><tspan class="cls-16" x="186.93848" y="67.2002">c</tspan><tspan x="192.24512" y="67.2002">k </tspan><tspan class="cls-17" x="0" y="84">a</tspan><tspan x="5.71191" y="84">nd </tspan><tspan class="cls-35" x="21.89551" y="84">a</tspan><tspan x="27.4668" y="84">b</tspan><tspan class="cls-23" x="33.83691" y="84">u</tspan><tspan x="39.8291" y="84">nd</tspan><tspan class="cls-17" x="52.49902" y="84">a</tspan><tspan x="58.21094" y="84">nt su</tspan><tspan class="cls-28" x="83.67578" y="84">r</tspan><tspan x="88.29492" y="84">plus.</tspan></text>
    </g>
  </g>
</svg>
