<svg xmlns="http://www.w3.org/2000/svg" xmlns:xlink="http://www.w3.org/1999/xlink" viewBox="0 0 234.20981 126.98408">
  <defs>
    <style>
      .cls-1 {
        fill: url(#linear-gradient);
      }

      .cls-2 {
        fill: url(#linear-gradient-2);
      }

      .cls-10, .cls-11, .cls-12, .cls-3, .cls-4, .cls-5, .cls-6, .cls-7, .cls-8, .cls-9 {
        stroke: #000;
        stroke-miterlimit: 10;
        stroke-width: 0.18636px;
      }

      .cls-3 {
        fill: url(#linear-gradient-3);
      }

      .cls-4 {
        fill: url(#linear-gradient-4);
      }

      .cls-5 {
        fill: url(#linear-gradient-5);
      }

      .cls-6 {
        fill: url(#linear-gradient-6);
      }

      .cls-7 {
        fill: url(#linear-gradient-7);
      }

      .cls-8 {
        fill: url(#linear-gradient-8);
      }

      .cls-9 {
        fill: url(#linear-gradient-9);
      }

      .cls-10 {
        fill: url(#linear-gradient-10);
      }

      .cls-11 {
        fill: url(#linear-gradient-11);
      }

      .cls-12 {
        fill: url(#linear-gradient-12);
      }

      .cls-13 {
        fill: #fff;
      }

      .cls-14 {
        opacity: 0.39;
      }
    </style>
    <linearGradient id="linear-gradient" x1="98.40679" y1="73.04163" x2="211.15893" y2="7.94415" gradientUnits="userSpaceOnUse">
      <stop offset="0" stop-color="#5b6599"/>
      <stop offset="0.18289" stop-color="#7179a5"/>
      <stop offset="0.48894" stop-color="#9ea2bd"/>
      <stop offset="1" stop-color="#6b729d"/>
    </linearGradient>
    <linearGradient id="linear-gradient-2" x1="75.06963" y1="87.04271" x2="187.82177" y2="21.94523" xlink:href="#linear-gradient"/>
    <linearGradient id="linear-gradient-3" x1="-12367.27617" y1="58.1464" x2="-12338.29269" y2="58.1464" gradientTransform="matrix(-1, 0, 0, 1, -12208.43269, 0)" gradientUnits="userSpaceOnUse">
      <stop offset="0.01106" stop-color="#c11616"/>
      <stop offset="0.54867" stop-color="#e01b1b"/>
      <stop offset="0.58223" stop-color="#ea1212"/>
      <stop offset="0.64836" stop-color="#f50808"/>
      <stop offset="0.74147" stop-color="#fc0202"/>
      <stop offset="1" stop-color="#fe0000"/>
    </linearGradient>
    <linearGradient id="linear-gradient-4" x1="-12381.12139" y1="92.1152" x2="-12339.60109" y2="92.1152" xlink:href="#linear-gradient-3"/>
    <linearGradient id="linear-gradient-5" x1="-12331.36482" y1="-21.97138" x2="-12266.51261" y2="77.54321" xlink:href="#linear-gradient-3"/>
    <linearGradient id="linear-gradient-6" x1="-12288.03319" y1="65.74759" x2="-12277.17298" y2="65.74759" xlink:href="#linear-gradient-3"/>
    <linearGradient id="linear-gradient-7" x1="-12331.92511" y1="99.55974" x2="-12276.26693" y2="99.55974" xlink:href="#linear-gradient-3"/>
    <linearGradient id="linear-gradient-8" x1="-12277.39654" y1="62.22553" x2="-12255.53895" y2="62.22553" xlink:href="#linear-gradient-3"/>
    <linearGradient id="linear-gradient-9" x1="-12268.11093" y1="60.00133" x2="-12250.99354" y2="60.00133" xlink:href="#linear-gradient-3"/>
    <linearGradient id="linear-gradient-10" x1="-12290.62205" y1="65.39112" x2="-12274.79271" y2="65.39112" xlink:href="#linear-gradient-3"/>
    <linearGradient id="linear-gradient-11" x1="-12368.29885" y1="91.23375" x2="-12329.93135" y2="91.23375" xlink:href="#linear-gradient-3"/>
    <linearGradient id="linear-gradient-12" x1="-12405.2034" y1="82.56014" x2="-12340.7724" y2="82.56014" xlink:href="#linear-gradient-3"/>
  </defs>
  <title>seafood</title>
  <g id="market">
    <g id="lobster">
      <path class="cls-1" d="M164.68986,1.05524c17.004,1.67466,34.06151,6.8074,47.48562,17.37788S234.924,45.54919,234.16685,62.61871c-25.16694,7.73225-52.15947-2.20117-75.83031-13.72741s-47.771-25.13517-74.09887-25.064c-4.33877.01173-9.10022.59572-12.08,3.74942C85.62567-1.69971,138.74714-1.48978,164.68986,1.05524Z"/>
      <path d="M203.77071,31.07247l.00114,10.498c.00007.65293.26849,1.5529.91233,1.44439,1.06408-2.67637,1.02063-5.64587.96179-8.52541-.03667-1.79468-.48148-4.09688-2.25062-4.40079"/>
      <path d="M210.58187,36.845A32.136,32.136,0,0,0,198.497,35.074a1.80586,1.80586,0,0,0,.44822,2.31632,4.72015,4.72015,0,0,0,2.395.90263,30.25283,30.25283,0,0,0,8.52712.17245,6.86343,6.86343,0,0,1,.34288-3.09155"/>
      <path d="M185.94859,18.471c-4.26259,2.1817-4.76693,6.88245-5.49184,11.12733a.30332.30332,0,1,0,.59849.081c.33751-4.098,1.399-8.55407,5.059-10.925a.16419.16419,0,0,0-.16561-.28333Z"/>
      <path d="M182.42345,15.02709c-4.384,3.21513-7.59746,8.98719-7,14.54561a.3088.3088,0,0,0,.61719,0c.48445-5.67773,2.2958-10.32126,6.75206-14.06707.26174-.22-.08926-.68385-.36923-.47854Z"/>
      <path d="M152.889,19.37485a7.79622,7.79622,0,0,1-1.43631-5.41534l-.39992.39992c1.66215-.00865,3.32788-.05992,4.98924-.11545a.39086.39086,0,0,0,0-.78125c-1.662.01517-3.32845.03482-4.98924.09686a.40494.40494,0,0,0-.38563.29361,8.857,8.857,0,0,0,1.36514,6.02243c.34841.53989,1.22511.01473.85672-.50078Z"/>
      <path d="M152.76787,9.50056c.05616-.94187.11808-1.88264.14424-2.82586l-.384.384a6.82357,6.82357,0,0,0,3.72325-.82481c.43221-.20147.03827-.90673-.37854-.6476a5.9796,5.9796,0,0,1-3.34471.70449.39066.39066,0,0,0-.384.384c-.04842.94151-.061,1.88332-.07945,2.82586-.00889.4553.67637.44871.70313,0Z"/>
      <path d="M146.81655,6.90195c-2.41-1.341-5.83213.11931-5.90132,3.06224a4.26712,4.26712,0,0,0,1.6787,3.47021c1.04053.76285,4.19054.59532,4.46067,2.00713.08318.43472.79294.25163.67048-.18484-.54624-1.94681-2.549-1.49229-4.07735-2.16345a3.2137,3.2137,0,0,1-1.69853-4.121,3.33091,3.33091,0,0,1,4.52035-1.47668c.39309.1945.73729-.37646.347-.59364Z"/>
      <path class="cls-2" d="M141.3527,15.05631c17.004,1.67466,34.06151,6.8074,47.48562,17.37788s22.74848,27.11607,21.99137,44.18559c-25.16694,7.73225-52.15947-2.20117-75.83031-13.72741s-47.771-25.13517-74.09887-25.064c-4.33877.01173-9.10022.59572-12.08,3.74942C62.2885,12.30136,115.41,12.5113,141.3527,15.05631Z"/>
      <g>
        <path class="cls-3" d="M141.4345,48.77444a25.99311,25.99311,0,0,1,5.73277.60523,16.00382,16.00382,0,0,1,10.938,9.64574,8.57747,8.57747,0,0,1,.51873,5.26995,4.551,4.551,0,0,1-3.71753,3.43234c-2.26491.20031-4.09182-1.68-6.04987-2.8358-3.8305-2.26116-8.60669-1.8152-12.98-2.62747a8.58442,8.58442,0,0,1-3.35569-1.22841,6.7343,6.7343,0,0,1-2.64767-5.2282c-.08837-1.77949.23275-5.35834,1.92076-6.43889C133.89439,48.02443,139.0219,48.73081,141.4345,48.77444Z"/>
        <path class="cls-4" d="M135.21844,73.95693a24.26306,24.26306,0,0,0-1.09684,25.02019,3.748,3.748,0,0,0,.742,1.01057c1.14176,1.00435,2.91526.45527,4.29374-.18672s3.062-1.3153,4.32485-.46817a3.96344,3.96344,0,0,1,1.36945,2.3673c1.585,5.82945.78092,12.46159,4.10709,17.50453a4.89861,4.89861,0,0,0,2.56144,2.17994,5.72154,5.72154,0,0,0,2.87532-.155c3.93926-.94078,7.90447-2.47177,10.6762-5.4248a21.536,21.536,0,0,0,4.1838-7.43911,55.95379,55.95379,0,0,0,2.99238-26.294,24.37586,24.37586,0,0,0-2.16185-7.96471c-3.48272-6.89491-11.55578-10.22852-19.2168-11.21744-3.37378-.4355-6.86684-.21177-9.08082,2.65769C139.6439,68.32655,137.20542,71.05127,135.21844,73.95693Z"/>
        <path class="cls-5" d="M31.58964,52.02179c1.07178-6.09525,5.14056-11.22766,9.56666-15.55321C51.93717,25.93266,66.46546,18.3359,81.52067,19.0933A77.58888,77.58888,0,0,1,95.85549,21.575a56.68052,56.68052,0,0,1,9.15145,2.80456A45.487,45.487,0,0,1,115.26,30.88c8.36719,6.70553,15.73332,15.05484,19.50185,25.09338,1.4338,3.81932,2.31711,8.10678.9328,11.94432s-5.7162,6.816-9.574,5.48923c-12.834-4.4138-26.214-3.58175-39.755-2.6693a24.4745,24.4745,0,0,1-6.01467-.03174C74.50541,69.6442,70.65969,64.24231,66.076,60.46239a29.1782,29.1782,0,0,0-6.046-3.84426,12.95472,12.95472,0,0,0-6.18207-1.51328c-3.52871.19869-6.49126,2.57065-9.391,4.5912-7.15932,4.9886-15.36389,10.90581-24.0262,9.85387-2.57753-.313-5.45452-.84223-7.56469-2.35511s-2.99885-4.96391-1.07284-6.70521l-7.81261-.18329c-1.21022-.02839-2.57684-.12822-3.3537-1.05661a2.8627,2.8627,0,0,1-.26273-2.90621,7.44074,7.44074,0,0,1,1.87978-2.399,22.00057,22.00057,0,0,1,8.34958-5.28926,22.21527,22.21527,0,0,1,6.3564-.84076C22.17265,47.75995,26.67546,50.25235,31.58964,52.02179Z"/>
        <path class="cls-6" d="M79.35138,69.6019a2.17015,2.17015,0,0,1,.21385,1.26932,1.90242,1.90242,0,0,1-.60435.84349,20.81319,20.81319,0,0,1-4.68148,3.31917c-1.24809.64694-2.89543,1.12227-3.95559.19906a3.75252,3.75252,0,0,1-.98024-2.31945,47.15809,47.15809,0,0,1-.433-11.52244,6.44183,6.44183,0,0,1,1.362-4.02152A6.40092,6.40092,0,0,1,73.77853,55.844C80.2554,54.58477,78.01337,65.96,79.35138,69.6019Z"/>
        <path class="cls-7" d="M98.42086,81.26632a86.85638,86.85638,0,0,0,19.22726,9.488c2.39773.83338,5.20905,1.95325,5.75926,4.43133.41956,1.88968-.76944,3.822-2.332,4.96449a24.73869,24.73869,0,0,1-5.247,2.44884c-1.20269.5027-2.48262,1.22891-2.84917,2.47983a4.25841,4.25841,0,0,0,.9785,3.47852c1.12271,1.60776,2.53081,2.99984,3.65923,4.6036a8.2706,8.2706,0,0,1,1.779,5.473c-.33495,3.1451-3.25106,5.34406-6.10267,6.71233a12.43311,12.43311,0,0,1-6.243,1.52033,15.29456,15.29456,0,0,1-4.6987-1.42645L88.06023,119.3559a38.415,38.415,0,0,1-7.24438-3.71021c-6.55177-4.62875-9.5251-12.775-11.49262-20.55192a37.54855,37.54855,0,0,1-1.4809-10.16613,15.15008,15.15008,0,0,1,3.33242-9.53914c2.79424-3.22378,8.8825-3.78512,12.83995-2.564C89.31116,74.45873,93.86594,78.26008,98.42086,81.26632Z"/>
        <path class="cls-8" d="M68.483,58.71812A8.18771,8.18771,0,0,1,67.40981,62.739a24.40339,24.40339,0,0,0,1.024-3.85411,1.40694,1.40694,0,0,0-1.03946-1.9256,32.827,32.827,0,0,0-4.52931-1.49981c-1.23557.91138-2.98191.7836-4.46738,1.17172a19.09079,19.09079,0,0,0-7.51515,3.55312,9.977,9.977,0,0,0-3.77512,7.19953,1.40536,1.40536,0,0,0,.15215.79073,1.55729,1.55729,0,0,0,1.16206.5302,12.99024,12.99024,0,0,0,5.06066.05337c2.2273-.57422,3.96311-2.26563,5.93324-3.45273a14.30271,14.30271,0,0,1,9.5483-1.85434"/>
        <path class="cls-9" d="M42.70837,64.26715a3.1306,3.1306,0,0,0,.35056,2.74461c.81522.925,2.32667.706,3.42835.15239,1.74293-.87579,3.1041-2.34474,4.68619-3.48572,2.53376-1.82731,6.8918-3.071,8.19754-6.1885,1.12544-2.68705-1.005-5.1348-3.7279-5.12994C49.56006,52.37083,43.908,58.76581,42.70837,64.26715Z"/>
        <path class="cls-10" d="M78.98783,55.66505a8.38894,8.38894,0,0,0-10.87319,2.05257A10.92881,10.92881,0,0,0,66.57,66.01494a32.42952,32.42952,0,0,0,2.97687,8.11693l.71273,1.51081a.85619.85619,0,0,0,1.29583.53856l7.04484-2.23777a11.56673,11.56673,0,0,0,2.58574-.88128c1.28769-.81788,1.06187-.252.80428-1.57435-.29862-1.533-1.791-3.264-2.31284-4.83946A21.47573,21.47573,0,0,1,78.98783,55.66505Z"/>
        <path class="cls-11" d="M131.68581,81.94762c3.448,5.82638,8.39164,10.58672,12.97328,15.5711a109.57007,109.57007,0,0,1,12.32664,15.83563,18.643,18.643,0,0,1,2.88044,6.50177c-5.14-8.45319-13.83479-13.99547-20.78659-21.03525a64.00765,64.00765,0,0,1-14.20441-22.16611c-1.22385-3.21867-3.98125-9.16173-3.25717-12.649.8665-4.17318,3.80428,2.227,4.26938,3.51882C127.66326,72.457,128.98762,77.38826,131.68581,81.94762Z"/>
        <path class="cls-12" d="M150.693,65.27212a122.56783,122.56783,0,0,1,12.10564,5.02981,99.66137,99.66137,0,0,1,16.01392,10.52969,63.30729,63.30729,0,0,1,8.11086,7.13851c4.48,4.88829,7.52459,10.93066,9.84733,17.14116-5.47837-7.73558-12.25132-14.45308-19.094-21.01275a68.372,68.372,0,0,0-9.51147-8.02865,71.1645,71.1645,0,0,0-8.27591-4.45305c-6.88865-3.324-18.11615-6.5415-25.30172-8.98524-3.33757-1.13507-2.46581-2.78947-.55907-2.609C137.29314,60.3316,147.62713,64.12473,150.693,65.27212Z"/>
        <ellipse cx="105.67799" cy="49.2628" rx="5.96342" ry="9.0344" transform="translate(-9.96408 64.14811) rotate(-32.32774)"/>
        <ellipse class="cls-13" cx="105.38805" cy="48.21996" rx="2.41083" ry="3.65234" transform="translate(-9.45135 63.83142) rotate(-32.32774)"/>
        <path d="M83.92852,21.53015C71.75968,24.23387,64.91589,37.006,64.53934,48.56635c-.01048.32189.4647.31111.49355,0,1.046-11.27646,6.7433-23.84074,19.04309-26.50131.34838-.07536.20121-.61236-.14746-.53489Z"/>
        <path d="M54.249,30.56107a36.01034,36.01034,0,0,0-1.73588,20.795c.0674.31775.54385.1815.48435-.13353A37.80625,37.80625,0,0,1,54.687,30.68182c.10161-.27677-.33277-.38853-.438-.12076Z"/>
        <path d="M38.68287,43.52476c.05619,3.77122-1.01614,8.553,2.08589,11.46808a.24911.24911,0,0,0,.35208-.35208c-2.7938-3.22083-1.85694-7.21431-2.023-11.116a.2076.2076,0,0,0-.41494,0Z"/>
        <path d="M14.16578,59.03138c3.8643-1.30237,8.248-.63806,11.87687-2.6727.30239-.16954.03648-.608-.26895-.46011-3.71638,1.79954-7.90413,1.2874-11.724,2.71164-.25939.09671-.1534.512.11611.42117Z"/>
        <path d="M31.2822,55.0824c-1.90639,3.793-4.44818,7.66459-8.9567,8.41527-.28948.0482-.16805.49365.12192.44223,4.60517-.8166,7.25482-4.72905,9.13272-8.68334.09432-.1986-.19752-.374-.29794-.17415Z"/>
      </g>
      <path d="M180.43355,45.07355l.00114,10.498c.00007.65293.26849,1.5529.91233,1.44439,1.06408-2.67637,1.02063-5.64587.96179-8.52541-.03667-1.79468-.48148-4.09688-2.25062-4.40079"/>
      <path d="M187.24471,50.846a32.136,32.136,0,0,0-12.08486-1.77094,1.80586,1.80586,0,0,0,.44822,2.31632,4.72015,4.72015,0,0,0,2.395.90263,30.25283,30.25283,0,0,0,8.52712.17245,6.86343,6.86343,0,0,1,.34288-3.09155"/>
      <path d="M162.61142,32.472c-4.26259,2.1817-4.76693,6.88245-5.49184,11.12733a.30332.30332,0,1,0,.59849.081c.33751-4.098,1.399-8.55407,5.059-10.925a.16419.16419,0,0,0-.16561-.28333Z"/>
      <path d="M159.08629,29.02816c-4.384,3.21513-7.59746,8.98719-7,14.54561a.3088.3088,0,0,0,.61719,0c.48445-5.67773,2.2958-10.32126,6.75206-14.06707.26174-.22-.08926-.68385-.36923-.47854Z"/>
      <path d="M129.55182,33.37593a7.79622,7.79622,0,0,1-1.43631-5.41534l-.39992.39992c1.66215-.00865,3.32788-.05992,4.98924-.11545a.39086.39086,0,0,0,0-.78125c-1.662.01517-3.32845.03482-4.98924.09686a.40494.40494,0,0,0-.38563.29361,8.857,8.857,0,0,0,1.36514,6.02243c.34841.53989,1.22511.01473.85672-.50078Z"/>
      <path d="M129.43071,23.50163c.05616-.94187.11808-1.88264.14424-2.82586l-.384.384a6.82357,6.82357,0,0,0,3.72325-.82481c.43221-.20147.03827-.90673-.37854-.6476a5.9796,5.9796,0,0,1-3.34471.70449.39066.39066,0,0,0-.384.384c-.04842.94151-.061,1.88332-.07945,2.82586-.00889.4553.67637.44871.70313,0Z"/>
      <path d="M123.47938,20.903c-2.41-1.341-5.83213.11931-5.90131,3.06224a4.26712,4.26712,0,0,0,1.6787,3.47021c1.04053.76285,4.19054.59532,4.46067,2.00713.08318.43472.79294.25163.67048-.18484-.54624-1.94681-2.549-1.49229-4.07735-2.16345a3.2137,3.2137,0,0,1-1.69853-4.121,3.33091,3.33091,0,0,1,4.52035-1.47668c.39309.1945.73729-.37646.347-.59364Z"/>
    </g>
  </g>
</svg>
