<svg id="plum_tree" data-name="plum tree" xmlns="http://www.w3.org/2000/svg" xmlns:xlink="http://www.w3.org/1999/xlink" viewBox="0 0 210.80846 289.94189">
  <defs>
    <style>
      .cls-1 {
        fill: url(#linear-gradient);
      }

      .cls-2 {
        fill: url(#linear-gradient-2);
      }

      .cls-3 {
        fill: url(#linear-gradient-3);
      }

      .cls-4 {
        fill: url(#linear-gradient-4);
      }

      .cls-5 {
        fill: url(#linear-gradient-5);
      }

      .cls-6 {
        fill: url(#linear-gradient-6);
      }

      .cls-7 {
        fill: url(#linear-gradient-7);
      }

      .cls-8 {
        fill: url(#linear-gradient-8);
      }

      .cls-9 {
        fill: url(#linear-gradient-9);
      }

      .cls-10 {
        fill: url(#linear-gradient-10);
      }

      .cls-11 {
        fill: url(#linear-gradient-11);
      }

      .cls-12 {
        fill: url(#linear-gradient-12);
      }

      .cls-13 {
        fill: url(#linear-gradient-13);
      }

      .cls-14 {
        fill: url(#linear-gradient-14);
      }

      .cls-15 {
        fill: url(#linear-gradient-15);
      }

      .cls-16 {
        fill: url(#linear-gradient-16);
      }

      .cls-17 {
        fill: url(#linear-gradient-17);
      }

      .cls-18 {
        fill: url(#linear-gradient-18);
      }

      .cls-19 {
        fill: url(#linear-gradient-19);
      }

      .cls-20 {
        fill: url(#linear-gradient-20);
      }

      .cls-21 {
        fill: url(#linear-gradient-21);
      }

      .cls-22 {
        fill: url(#linear-gradient-22);
      }

      .cls-23 {
        fill: url(#linear-gradient-23);
      }

      .cls-24 {
        fill: url(#linear-gradient-24);
      }

      .cls-25 {
        fill: url(#linear-gradient-25);
      }

      .cls-26 {
        fill: url(#linear-gradient-26);
      }

      .cls-27 {
        fill: url(#linear-gradient-27);
      }

      .cls-28 {
        fill: url(#linear-gradient-28);
      }

      .cls-29 {
        fill: url(#linear-gradient-29);
      }

      .cls-30 {
        fill: url(#linear-gradient-30);
      }

      .cls-31 {
        fill: url(#linear-gradient-31);
      }

      .cls-32 {
        fill: url(#linear-gradient-32);
      }

      .cls-33 {
        fill: url(#linear-gradient-33);
      }

      .cls-34 {
        fill: url(#linear-gradient-34);
      }

      .cls-35 {
        fill: url(#linear-gradient-35);
      }

      .cls-36 {
        fill: #8c177c;
      }

      .cls-37 {
        fill: url(#linear-gradient-36);
      }

      .cls-38 {
        fill: url(#linear-gradient-37);
      }

      .cls-39 {
        fill: url(#linear-gradient-38);
      }

      .cls-40 {
        fill: url(#linear-gradient-39);
      }

      .cls-41 {
        fill: url(#linear-gradient-40);
      }

      .cls-42 {
        fill: url(#linear-gradient-41);
      }

      .cls-43 {
        fill: url(#linear-gradient-42);
      }

      .cls-44 {
        fill: url(#linear-gradient-43);
      }

      .cls-45 {
        fill: url(#linear-gradient-44);
      }

      .cls-46 {
        fill: url(#linear-gradient-45);
      }

      .cls-47 {
        fill: url(#linear-gradient-46);
      }

      .cls-48 {
        fill: url(#linear-gradient-47);
      }

      .cls-49 {
        fill: url(#linear-gradient-48);
      }

      .cls-50 {
        fill: url(#linear-gradient-49);
      }

      .cls-51 {
        fill: url(#linear-gradient-50);
      }

      .cls-52 {
        fill: url(#linear-gradient-51);
      }

      .cls-53 {
        fill: url(#linear-gradient-52);
      }

      .cls-54 {
        fill: url(#linear-gradient-53);
      }

      .cls-55 {
        fill: url(#linear-gradient-54);
      }

      .cls-56 {
        fill: url(#linear-gradient-55);
      }

      .cls-57 {
        fill: url(#linear-gradient-56);
      }

      .cls-58 {
        fill: url(#linear-gradient-57);
      }

      .cls-59 {
        fill: url(#linear-gradient-58);
      }

      .cls-60 {
        fill: url(#linear-gradient-59);
      }

      .cls-61 {
        fill: url(#linear-gradient-60);
      }

      .cls-62 {
        fill: url(#linear-gradient-61);
      }

      .cls-63 {
        fill: url(#linear-gradient-62);
      }

      .cls-64 {
        opacity: 0.39;
      }
    </style>
    <linearGradient id="linear-gradient" x1="68.16028" y1="248.25926" x2="178.31064" y2="248.25926" gradientUnits="userSpaceOnUse">
      <stop offset="0" stop-color="#913214"/>
      <stop offset="0.03296" stop-color="#8b3114"/>
      <stop offset="0.35544" stop-color="#572310"/>
      <stop offset="0.63563" stop-color="#311a0e"/>
      <stop offset="0.85983" stop-color="#1a140d"/>
      <stop offset="1" stop-color="#11120c"/>
    </linearGradient>
    <linearGradient id="linear-gradient-2" x1="103.49062" y1="217.84379" x2="146.15489" y2="291.74046" gradientUnits="userSpaceOnUse">
      <stop offset="0" stop-color="#5b6599"/>
      <stop offset="0.42989" stop-color="#454d74"/>
      <stop offset="0.78061" stop-color="#373e5d"/>
      <stop offset="1" stop-color="#323854"/>
    </linearGradient>
    <linearGradient id="linear-gradient-3" x1="0.60154" y1="125.40056" x2="210.80846" y2="125.40056" gradientUnits="userSpaceOnUse">
      <stop offset="0" stop-color="#913214"/>
      <stop offset="0.30163" stop-color="#8f3114"/>
      <stop offset="0.47026" stop-color="#872f13"/>
      <stop offset="0.60607" stop-color="#792c12"/>
      <stop offset="0.72446" stop-color="#652711"/>
      <stop offset="0.83143" stop-color="#4c2110"/>
      <stop offset="0.92875" stop-color="#2d190e"/>
      <stop offset="1" stop-color="#11120c"/>
    </linearGradient>
    <linearGradient id="linear-gradient-4" x1="0.50827" y1="51.98405" x2="0.60154" y2="51.98405" xlink:href="#linear-gradient-3"/>
    <linearGradient id="linear-gradient-5" x1="56.20547" y1="135.75118" x2="66.7931" y2="135.75118" gradientUnits="userSpaceOnUse">
      <stop offset="0" stop-color="#5b6599"/>
      <stop offset="0.56454" stop-color="#5d679a"/>
      <stop offset="0.8798" stop-color="#656e9c"/>
      <stop offset="1" stop-color="#6b729d"/>
    </linearGradient>
    <linearGradient id="linear-gradient-6" x1="71.97847" y1="138.21017" x2="80.02875" y2="138.21017" xlink:href="#linear-gradient-5"/>
    <linearGradient id="linear-gradient-7" x1="35.79754" y1="134.53468" x2="45.82196" y2="134.53468" xlink:href="#linear-gradient-5"/>
    <linearGradient id="linear-gradient-8" x1="42.44627" y1="115.93144" x2="55.21482" y2="115.93144" xlink:href="#linear-gradient-5"/>
    <linearGradient id="linear-gradient-9" x1="24.76839" y1="122.28349" x2="35.37232" y2="122.28349" xlink:href="#linear-gradient-5"/>
    <linearGradient id="linear-gradient-10" x1="37.91861" y1="97.6469" x2="48.68119" y2="97.6469" xlink:href="#linear-gradient-5"/>
    <linearGradient id="linear-gradient-11" x1="67.12935" y1="108.92377" x2="79.33717" y2="108.92377" xlink:href="#linear-gradient-5"/>
    <linearGradient id="linear-gradient-12" x1="18.88813" y1="90.599" x2="37.19274" y2="90.599" xlink:href="#linear-gradient-5"/>
    <linearGradient id="linear-gradient-13" x1="42.07289" y1="79.3588" x2="56.37401" y2="79.3588" xlink:href="#linear-gradient-5"/>
    <linearGradient id="linear-gradient-14" x1="54.51716" y1="83.68917" x2="65.33047" y2="83.68917" xlink:href="#linear-gradient-5"/>
    <linearGradient id="linear-gradient-15" x1="53.81165" y1="62.55175" x2="67.50198" y2="62.55175" xlink:href="#linear-gradient-5"/>
    <linearGradient id="linear-gradient-16" x1="64.69552" y1="52.95297" x2="76.18812" y2="52.95297" xlink:href="#linear-gradient-5"/>
    <linearGradient id="linear-gradient-17" x1="87.25071" y1="67.42359" x2="97.24171" y2="67.42359" xlink:href="#linear-gradient-5"/>
    <linearGradient id="linear-gradient-18" x1="91.17998" y1="58.28926" x2="104.21209" y2="58.28926" xlink:href="#linear-gradient-5"/>
    <linearGradient id="linear-gradient-19" x1="90.57035" y1="51.75653" x2="99.66972" y2="51.75653" xlink:href="#linear-gradient-5"/>
    <linearGradient id="linear-gradient-20" x1="82.62102" y1="37.678" x2="93.6784" y2="37.678" xlink:href="#linear-gradient-5"/>
    <linearGradient id="linear-gradient-21" x1="75.77754" y1="27.80562" x2="86.3208" y2="27.80562" xlink:href="#linear-gradient-5"/>
    <linearGradient id="linear-gradient-22" x1="36.79143" y1="57.75042" x2="50.69961" y2="57.75042" xlink:href="#linear-gradient-5"/>
    <linearGradient id="linear-gradient-23" x1="28.46698" y1="53.97052" x2="33.44041" y2="53.97052" xlink:href="#linear-gradient-5"/>
    <linearGradient id="linear-gradient-24" x1="36.75266" y1="32.64799" x2="44.24584" y2="32.64799" xlink:href="#linear-gradient-5"/>
    <linearGradient id="linear-gradient-25" x1="14.72076" y1="32.01403" x2="23.56633" y2="32.01403" xlink:href="#linear-gradient-5"/>
    <linearGradient id="linear-gradient-26" x1="0" y1="30.73154" x2="13.51616" y2="30.73154" xlink:href="#linear-gradient-5"/>
    <linearGradient id="linear-gradient-27" x1="1.50301" y1="17.70751" x2="15.90975" y2="17.70751" xlink:href="#linear-gradient-5"/>
    <linearGradient id="linear-gradient-28" x1="0.82733" y1="6.23096" x2="28.22966" y2="6.23096" xlink:href="#linear-gradient-5"/>
    <linearGradient id="linear-gradient-29" x1="51.29637" y1="30.64917" x2="56.28596" y2="30.64917" xlink:href="#linear-gradient-5"/>
    <linearGradient id="linear-gradient-30" x1="57.36887" y1="36.7517" x2="65.42826" y2="36.7517" xlink:href="#linear-gradient-5"/>
    <linearGradient id="linear-gradient-31" x1="125.59877" y1="170.09164" x2="133.9786" y2="170.09164" xlink:href="#linear-gradient-5"/>
    <linearGradient id="linear-gradient-32" x1="131.61703" y1="180.57997" x2="140.92047" y2="180.57997" xlink:href="#linear-gradient-5"/>
    <linearGradient id="linear-gradient-33" x1="103.59066" y1="188.16927" x2="112.13056" y2="188.16927" xlink:href="#linear-gradient-5"/>
    <linearGradient id="linear-gradient-34" x1="110.46495" y1="197.8993" x2="119.59725" y2="197.8993" xlink:href="#linear-gradient-5"/>
    <linearGradient id="linear-gradient-35" x1="114.4465" y1="243.87455" x2="124.29249" y2="243.87455" xlink:href="#linear-gradient-5"/>
    <linearGradient id="linear-gradient-36" x1="108.00109" y1="250.4659" x2="116.69913" y2="250.4659" xlink:href="#linear-gradient-5"/>
    <linearGradient id="linear-gradient-37" x1="92.81316" y1="249.99186" x2="103.20638" y2="249.99186" xlink:href="#linear-gradient-5"/>
    <linearGradient id="linear-gradient-38" x1="83.26434" y1="243.70236" x2="89.59631" y2="243.70236" xlink:href="#linear-gradient-5"/>
    <linearGradient id="linear-gradient-39" x1="76.59792" y1="245.11622" x2="81.35068" y2="245.11622" xlink:href="#linear-gradient-5"/>
    <linearGradient id="linear-gradient-40" x1="122.87571" y1="138.67026" x2="128.68962" y2="138.67026" xlink:href="#linear-gradient-5"/>
    <linearGradient id="linear-gradient-41" x1="127.8558" y1="123.00675" x2="134.3777" y2="123.00675" xlink:href="#linear-gradient-5"/>
    <linearGradient id="linear-gradient-42" x1="116.85789" y1="117.28365" x2="124.92839" y2="117.28365" xlink:href="#linear-gradient-5"/>
    <linearGradient id="linear-gradient-43" x1="126.20058" y1="94.14521" x2="136.33089" y2="94.14521" xlink:href="#linear-gradient-5"/>
    <linearGradient id="linear-gradient-44" x1="130.65351" y1="85.19578" x2="148.08178" y2="85.19578" xlink:href="#linear-gradient-5"/>
    <linearGradient id="linear-gradient-45" x1="153.95736" y1="87.56539" x2="160.47202" y2="87.56539" xlink:href="#linear-gradient-5"/>
    <linearGradient id="linear-gradient-46" x1="165.41291" y1="90.37085" x2="175.33485" y2="90.37085" xlink:href="#linear-gradient-5"/>
    <linearGradient id="linear-gradient-47" x1="181.31276" y1="108.17589" x2="190.4561" y2="108.17589" xlink:href="#linear-gradient-5"/>
    <linearGradient id="linear-gradient-48" x1="163.34726" y1="144.73897" x2="176.15231" y2="144.73897" xlink:href="#linear-gradient-5"/>
    <linearGradient id="linear-gradient-49" x1="181.42032" y1="140.12016" x2="192.71394" y2="140.12016" xlink:href="#linear-gradient-5"/>
    <linearGradient id="linear-gradient-50" x1="182.01721" y1="134.83146" x2="194.03314" y2="134.83146" xlink:href="#linear-gradient-5"/>
    <linearGradient id="linear-gradient-51" x1="182.4762" y1="125.63902" x2="197.86648" y2="125.63902" xlink:href="#linear-gradient-5"/>
    <linearGradient id="linear-gradient-52" x1="196.32208" y1="125.05406" x2="205.79491" y2="125.05406" xlink:href="#linear-gradient-5"/>
    <linearGradient id="linear-gradient-53" x1="180.81792" y1="108.06167" x2="190.43996" y2="108.06167" xlink:href="#linear-gradient-5"/>
    <linearGradient id="linear-gradient-54" x1="176.17397" y1="97.71491" x2="187.61505" y2="97.71491" xlink:href="#linear-gradient-5"/>
    <linearGradient id="linear-gradient-55" x1="119.59114" y1="77.35308" x2="129.23622" y2="77.35308" xlink:href="#linear-gradient-5"/>
    <linearGradient id="linear-gradient-56" x1="111.78142" y1="69.45586" x2="120.55996" y2="69.45586" xlink:href="#linear-gradient-5"/>
    <linearGradient id="linear-gradient-57" x1="127.30821" y1="54.53883" x2="135.95945" y2="54.53883" xlink:href="#linear-gradient-5"/>
    <linearGradient id="linear-gradient-58" x1="144.10866" y1="55.61107" x2="151.99206" y2="55.61107" xlink:href="#linear-gradient-5"/>
    <linearGradient id="linear-gradient-59" x1="154.98315" y1="39.62309" x2="167.45795" y2="39.62309" xlink:href="#linear-gradient-5"/>
    <linearGradient id="linear-gradient-60" x1="158.16026" y1="61.3812" x2="169.71694" y2="61.3812" xlink:href="#linear-gradient-5"/>
    <linearGradient id="linear-gradient-61" x1="154.35027" y1="70.93546" x2="162.57264" y2="70.93546" xlink:href="#linear-gradient-5"/>
    <linearGradient id="linear-gradient-62" x1="119.61881" y1="41.78381" x2="126.00132" y2="41.78381" xlink:href="#linear-gradient-5"/>
  </defs>
  <title>tree</title>
  <g id="under_plum" data-name="under plum">
    <path class="cls-1" d="M81.6076,237.29754a28.96859,28.96859,0,0,0-8.67558,3.51181c-2.58933,1.76638-4.666,4.56973-4.76827,7.7025a3.52418,3.52418,0,0,0,.34444,1.81993,4.095,4.095,0,0,0,1.01762,1.11811c3.64587,3.0412,8.25966,4.63625,12.81126,5.98691,22.47731,6.67,46.61537,8.84048,69.47218,3.617,8.511-1.945,17.16078-5.137,23.00107-11.62632a13.32046,13.32046,0,0,0,3.29566-5.7141,6.75848,6.75848,0,0,0-1.46173-6.21972c-1.7661-1.79874-4.5092-2.10811-7.02159-2.31413a3.35748,3.35748,0,0,0-2.0929.281c-.685.43559-.98621,1.32293-1.68342,1.73872-1.525.90946-3.49771-1.03378-5.15818-.40481a8.16041,8.16041,0,0,0-1.65567,1.23725,6.34078,6.34078,0,0,1-3.324.85679,198.90435,198.90435,0,0,1-24.17995.10922,7.53454,7.53454,0,0,0-3.09735.24859c-.81659.30869-1.51141.90269-2.35107,1.1416-1.397.3975-2.85162-.2562-4.29349-.43151a14.38162,14.38162,0,0,0-5.35767.7848,73.31319,73.31319,0,0,1-16.37786,2.4168c-3.69231.12277-7.88232-.2633-10.20372-3.1372a.89627.89627,0,0,1-.266-.6465c.049-.35583.45315-.527.7968-.6316,3.15931-.96133,9.39335-2.46446,10.90656-5.72687-1.76168-1.45063-7.12027.93336-9.15523,1.45637Q86.85354,235.8282,81.6076,237.29754Z"/>
    <path class="cls-2" d="M167.96533,233.88246a10.45111,10.45111,0,0,1,8.017,3.28375,7.22135,7.22135,0,0,1,.92864,8.29756c-1.0802,1.72209-2.93238,2.77885-4.70942,3.76605l-7.6368,4.24249c-22.86487,12.70219-52.32765,9.21557-78.18214,5.254-5.12306-.785-10.41119-1.82132-14.607-4.86393a9.55384,9.55384,0,0,1-3.52842-4.24281,5.05024,5.05024,0,0,1,.88972-5.22819,7.72531,7.72531,0,0,1,2.04845-1.33828,121.52316,121.52316,0,0,1,34.11314-11.31837l.40723-4.74334c-16.03691-.30431-31.58673,6.42265-44.46711,15.98146-2.98433,2.21474-6.08563,5.00142-6.393,8.705-.29527,3.55745,2.08822,6.71754,4.34234,9.48549,2.26938,2.78667,4.54305,5.57815,7.066,8.13752a110.65783,110.65783,0,0,0,9.05486,7.95583c3.49426,2.84622,7.05126,5.71375,11.17147,7.53986a46.10055,46.10055,0,0,0,11.51135,2.98158c15.341,2.445,31.13025,3.24266,46.35014.13131s29.8982-10.37892,40.0771-22.11414c4.15886-4.79474,7.67158-11.08793,6.12-17.24247-1.24054-4.92091-5.39121-8.47755-9.31765-11.69273-3.15636-2.58459-6.58046-5.28257-10.64478-5.63467C169.11359,231.09877,167.18473,232.63871,167.96533,233.88246Z"/>
    <g>
      <path class="cls-3" d="M210.57957,115.94425q-1.80652-.13623-3.6134-.27271c1.04382-6.113-5.47327-12.18262-11.4967-10.70728,2.04077-3.70239,2.57568-8.3772.73743-12.18408-1.83826-3.80713-6.29517-6.38232-10.413-5.42456,1.52271-2.551-.481-5.77222-2.73-7.71362-2.24878-1.94141-5.03931-3.79541-5.53735-6.72412-.44312-2.60522,1.13635-5.14038,1.20947-7.78174q-1.5694-.42224-3.13892-.84424c1.78857-3.45752-1.897-7.69873-5.77808-7.99731s-7.45715,1.92358-10.7124,4.05811c-3.44092-2.7627-1.02209-8.38281,2.13452-11.46631s7.24829-6.51392,6.51929-10.866A5.77986,5.77986,0,0,0,156.76,36.6691a4.245,4.245,0,0,0-.20776,3.092c.69824,1.93677,3.07373,2.95361,3.5769,4.94971.70117,2.78223-2.6355,4.87573-5.47668,5.27612s-6.16321.32349-7.98084,2.5437c-.58569.71533-1.09937,1.7085-2.02271,1.75488a2.44912,2.44912,0,0,1-1.5791-.75635q-3.05292-2.53784-6.10571-5.07568a11.56369,11.56369,0,0,0,3.597-9.68848q-7.0069.09119-14.014.18262c-2.50549.03247-6.04089,1.54395-4.97583,3.81226a12.72038,12.72038,0,0,1-9.42651-1.45044,7.16526,7.16526,0,0,0-.18237-9.854,8.01486,8.01486,0,0,0-10.07544-.47607q-.35083-2.27161-.702-4.54272c-1.68665,1.238-4.0946.06665-5.5686-1.41846s-2.78845-3.38647-4.828-3.854a4.24667,4.24667,0,0,0-4.77759,5.03516,8.877,8.877,0,0,0-5.354-2.22632c-1.97058.01221-4.0304,1.35742-4.28442,3.31152s2.02136,3.91724,3.75281,2.97656c1.45129.49731,1.31433,2.70508.35608,3.90308-.95825,1.19824-2.4209,2.00757-3.061,3.40186-1.17847,2.56665.19873,6.95166-2.57764,7.47a2.91782,2.91782,0,0,1-1.31567-.10864c-3.42065-.96143-5.09888-4.67163-7.19482-7.541s-6.48462-5.14307-8.96472-2.59839q-.46124-2.56348-.92273-5.12671c-5.20361,2.15771-10.67432-3.08423-16.3042-2.88989-2.24023.07715-4.4021,1.02734-6.64233.94849-5.8136-.20508-11.4729-7.06055-16.29907-3.813-2.75073-4.42407-1.177-11.29712,3.67383-13.19653,1.66968-.65381,3.52551-.709,5.19971-1.35156s3.24854-2.228,2.93628-3.99365c-2.59985-1.41187-6.08752,2.57373-8.4469.78906-1.58752-1.20068-1.17688-4.217-3.02844-4.94775C15.49461.402,13.89915,3.41691,11.72923,3.72574,9.01011,4.113,6.48277.16129,4.144,1.60123,2.18894,2.80509,3.532,5.8444,5.16282,7.46036c1.63086,1.61621,3.54492,4.0498,2.16223,5.88257a11.89541,11.89541,0,0,0-3.70178-1.15137,4.19267,4.19267,0,0,0,1.44336,5.11108A4.53135,4.53135,0,0,0,2.45408,20.328c-.20508,1.3667,1.13977,2.9104,2.43335,2.42725-.2428.09058-.042,4.66479-.06567,5.16113C.44907,24.944.89915,32.42765.88279,34.46647.83665,40.27433.69639,46.08341.60154,51.891c.11719-.07642.31323-.11816.4082.01855.17676.25488.311.6897.60815.60107C3.90452,53.57487,7.45432,54.38907,8.9885,56.391c1.53394,2.002,1.89551,5.14624.10327,6.9209-.69727.69067-1.74927,1.61841-1.1543,2.39893l9.2168.08789A11.51807,11.51807,0,0,1,14.7617,76.01041a7.84817,7.84817,0,0,0,5.93616.15259,9.70958,9.70958,0,0,0-.95569,4.78271c.23669,1.62793,1.63672,3.21167,3.27173,3.03223.83484,1.18872-1.28784,2.10205-2.39526,3.042a2.673,2.673,0,1,0,4.085,3.30176c.81763,4.28662,6.81494,6.50732,10.22729,3.78711,1.55273-1.23779,3.70264-3.25684,5.01184-1.76392a9.97119,9.97119,0,0,0-1.07117,7.83252c-1.09473-.198-1.89221,1.06567-2.04041,2.16821s-.02563,2.33154-.70435,3.21313c-.94653,1.22925-2.81873,1.04932-4.34082.748q-4.7525-.94006-9.50513-1.88062c-.89319,1.8042.96252,3.86816,2.90039,4.41309,1.93787.54468,4.06116.27686,5.938,1.00439,1.87683.728,3.32312,3.25269,1.95532,4.72974-1.15613,1.24829-3.17371.69287-4.87219.59351-2.15576-.126-4.28711.65771-6.44336.5376-2.156-.12036-4.55518-1.771-4.20056-3.90112a6.15188,6.15188,0,0,0,7.23987,8.20166,5.20363,5.20363,0,0,0,3.94189,6.52173c2.02441.31812,4.40918-.5376,5.96265.79883,1.8855,1.62207.67993,4.69336,1.15063,7.13525a5.20645,5.20645,0,0,0,7.35938,3.35254c1.1958-.69336,2.18335-1.91406,3.56177-2.01489,1.88721-.13843,3.15417,1.82886,4.76746,2.81763,3.77478,2.31348,8.556-1.02783,12.96924-.67383a3.56475,3.56475,0,0,1,1.43567.37061,6.41789,6.41789,0,0,1,1.64807,1.68823,8.48251,8.48251,0,0,0,8.7738,2.59766c1.59351-.489,3.42468.39551,5.28418,1.439-.01379.04492-.03394.08716-.04639.13257-.803,2.91064,4.73474,5.85449,6.6416,8.37231,2.07764,2.74292,4.02966,5.68872,6.85229,7.65674a6.30079,6.30079,0,0,1,1.64136,1.37256,1.64957,1.64957,0,0,1,.064,1.99023,2.29851,2.29851,0,0,1-1.87476.49292,5.76349,5.76349,0,0,1-3.05884-.7749,8.16914,8.16914,0,0,1-1.66431-1.877,26.43426,26.43426,0,0,0-4.71094-4.417,15.74759,15.74759,0,0,0-3.48608-2.29761,15.73408,15.73408,0,0,0-3.41516-.88989q-3.08954-.5625-6.17908-1.12427a22.88671,22.88671,0,0,0-5.68726-.55029,7.707,7.707,0,0,0-5.14307,2.20239,19.87417,19.87417,0,0,0-2.40845,4.14209,3.35719,3.35719,0,0,1-.88281,1.1228,2.683,2.683,0,0,1-1.76477.43091c-2.18762-.1394-3.90063-1.83521-5.55261-3.27612-1.6521-1.44067-3.83679-2.79-5.91223-2.08447a63.82465,63.82465,0,0,0,6.92664,7.78516c1.92908,1.84058,4.48035,3.68213,7.03564,2.92065,1.93848-.57739,3.13416-2.45947,4.21631-4.16846s2.44653-3.53149,4.4447-3.845c2.19617-.34473,4.1593,1.26123,5.88782,2.65894,2.9834,2.41284,6.21008,3.90356,9.14478,6.37549a45.89915,45.89915,0,0,0,5.87109,4.61768,75.55893,75.55893,0,0,1,9.32117,6.59473,13.13982,13.13982,0,0,1,3.8418,4.4165,11.26377,11.26377,0,0,1,.75525,5.26025,8.23166,8.23166,0,0,0,.16675,3.0708,2.3297,2.3297,0,0,0,2.28491,1.71436c-1.75049,1.84717-3.59668,3.897-3.8291,6.43115-.11548,1.25757.10986,2.73828-.82214,3.59058a4.0679,4.0679,0,0,1-2.23633.73267A6.364,6.364,0,0,0,93.706,205.029c-.97876,1.36255-.793,3.6189.70752,4.36963a5.06452,5.06452,0,0,0,2.35742.30762,26.29,26.29,0,0,1,6.45435.71313,5.5161,5.5161,0,0,1,2.21265.92554,2.17665,2.17665,0,0,1,.86255,2.12085c-1.95435-.97485-4.11169-1.89844-6.2561-1.48535s-4.0166,2.77686-3.11206,4.7644a1.91419,1.91419,0,0,0,1.00977,1.0271,3.486,3.486,0,0,0,1.89771-.09131,8.825,8.825,0,0,1,3.2876-.03027c1.67444.30249,3.4353,1.33447,3.72046,3.012a5.486,5.486,0,0,1-.08484,1.76294,22.31188,22.31188,0,0,1-1.44165,5.76074c-1.78589,3.96021-5.6864,6.5127-9.57007,8.45947a67.205,67.205,0,0,1-7.41785,3.17627c3.042,1.03125,1.60474,6.2356,4.55493,7.50586,2.33936,1.00732,5.08337-1.63623,7.43188-.65039,1.52112.63818,2.25964,2.60742,3.8645,2.98877a5.424,5.424,0,0,0,3.09766-.65674,13.41473,13.41473,0,0,1,6.891-.73047c.45557-1.35742-.60339-2.80713-.40161-4.22461a3.70089,3.70089,0,0,1,2.68933-2.675,7.41994,7.41994,0,0,1,8.62842,3.4519,2.05586,2.05586,0,0,0,.42358.62891c.77808.67041,1.85-.28564,2.64771-.93262a4.84115,4.84115,0,0,1,5.93616.02148c.94128.7749,1.629,1.94385,2.79431,2.30273,1.53442.47241,3.04175-.66846,4.5708-1.15747,2.98706-.95532,6.58215.55,9.21509-1.15356,3.36963-2.18042,7.83325-.55835,11.05933-2.94629a16.39541,16.39541,0,0,1,1.39575-1.08521c1.10132-.64478,2.46631-.55,3.71509-.81323s2.593-1.23535,2.40442-2.49756a3.164,3.164,0,0,0-.408-1.01709q-.31915-.5874-.63831-1.1748c-.595.15674-1.22766-.9165-1.40784-1.50488a3.58778,3.58778,0,0,1,.08533-1.82178c.63757-2.8374,1.40967-5.7688,3.30054-7.978a84.823,84.823,0,0,0-8.94189,8.56909q.10144-3.62878.20313-7.25708a48.45739,48.45739,0,0,1,.67139-8.02319,24.28649,24.28649,0,0,1,3.6958-8.87964,15.42791,15.42791,0,0,0-8.28027,9.11377,21.546,21.546,0,0,0-.31079,12.48853c-3.64819-.8916-7.47681-1.87915-10.19092-4.4751s-3.74341-7.35669-1.14893-10.072a7.098,7.098,0,0,0,1.314-1.46606,2.1325,2.1325,0,0,0-3.5249-2.35767,11.85925,11.85925,0,0,0,1.76465-5.82861,1.49115,1.49115,0,0,0-.27588-1.09717c-.39746-.4187-1.07507-.283-1.64917-.22339-2.46484.2561-4.75964-1.594-5.82288-3.83228-1.06335-2.23853-1.16418-4.79639-1.24634-7.27295a7.29134,7.29134,0,0,1,.26831-2.7854c.55591-1.49976,2.00232-2.44629,3.0531-3.65234a8.19239,8.19239,0,0,0,1.40271-8.23169c-.58032-1.45679-1.571-3.166-.6405-4.428,1.27124-1.72363,4.37988-.21851,5.99976-1.61963,1.40015-1.21094.58911-3.54761-.63367-4.9375s-2.86047-2.70776-2.95618-4.55664a5.95429,5.95429,0,0,1,1.20483-3.334,61.91759,61.91759,0,0,1,4.66675-6.47949c2.655-3.22559,6.23059-6.41675,10.39307-6.06006,2.18518.18726,4.149,1.34277,6.0658,2.40869s3.986,2.09692,6.17688,1.99707c2.19092-.09961,4.46326-1.75464,4.45728-3.94775-.00317-1.2019-.64746-2.49219-.05811-3.53955.64746-1.15063,2.26086-1.14771,3.50366-1.59375a4.50624,4.50624,0,0,0,1.936-1.38428l1.459,2.04858,7.42786-.09375a2.44233,2.44233,0,0,0,2.93689-2.62354q.94885-6.08752,1.89795-12.1748c2.33618,1.3335,5.26868,2.01,7.71753.89648,2.449-1.11328,3.87415-4.488,2.30054-6.66992C208.37437,123.01774,211.7241,119.17228,210.57957,115.94425Z"/>
      <path class="cls-4" d="M.59812,52.07706c.001-.062.00232-.124.00342-.186C.50047,51.95695.45725,52.04874.59812,52.07706Z"/>
    </g>
    <path class="cls-5" d="M61.41949,139.83156a8.06189,8.06189,0,0,0,3.10069-.51666,3.63206,3.63206,0,0,0,2.12428-2.20476c1.23881-4.25933-5.58512-6.64655-8.6138-4.81934a4.42758,4.42758,0,0,0-1.775,4.33459C56.64818,139.19485,59.164,139.85217,61.41949,139.83156Z"/>
    <path class="cls-6" d="M72.19053,136.59105a3.52411,3.52411,0,0,0,.27921,2.96844,4.37917,4.37917,0,0,0,3.783,2.2663,3.92358,3.92358,0,0,0,3.578-2.4806,3.55727,3.55727,0,0,0-1.3187-4.08426,4.63888,4.63888,0,0,0-2.2194-.658C74.90834,134.5076,72.754,135.20545,72.19053,136.59105Z"/>
    <path class="cls-7" d="M36.68559,137.30462a3.46157,3.46157,0,0,0,2.38,1.16923,7.264,7.264,0,0,0,2.68444-.34965,7.64707,7.64707,0,0,0,2.56569-1.19465,3.72374,3.72374,0,0,0,1.47861-2.34971,3.794,3.794,0,0,0-2.98957-3.88229C39.45937,129.85955,33.55213,133.43239,36.68559,137.30462Z"/>
    <path class="cls-8" d="M42.49006,116.95483a3.298,3.298,0,0,0,.61006,2.65136,4.27885,4.27885,0,0,0,2.83,1.01818,17.40748,17.40748,0,0,0,4.41154.08054,5.86065,5.86065,0,0,0,3.8079-2.03465,5.487,5.487,0,0,0,1.037-2.83606,4.49773,4.49773,0,0,0-.24057-2.10343,4.72067,4.72067,0,0,0-3.62666-2.55269C47.45093,110.44515,43.02338,112.80282,42.49006,116.95483Z"/>
    <path class="cls-9" d="M24.82487,124.1837a3.54652,3.54652,0,0,0,.46154,1.2861,4.41106,4.41106,0,0,0,4.19313,1.6474,7.052,7.052,0,0,0,4.04918-1.63172,5.2609,5.2609,0,0,0,1.84356-3.89077,2.96172,2.96172,0,0,0-.37-1.51346,3.44623,3.44623,0,0,0-.89173-.92836c-1.51924-1.16431-4.231-2.35832-6.09183-1.34192A6.85542,6.85542,0,0,0,24.82487,124.1837Z"/>
    <path class="cls-10" d="M38.64733,95.16245a6.2,6.2,0,0,0-.56079,4.37524,4.77938,4.77938,0,0,0,1.65062,2.76458c1.68031,1.27534,4.16637.82885,5.91367-.35306a6.68287,6.68287,0,0,0,2.98835-4.47965,4.61666,4.61666,0,0,0-2.25945-4.68544A6.113,6.113,0,0,0,38.64733,95.16245Z"/>
    <path class="cls-11" d="M67.16058,109.85605a2.594,2.594,0,0,0,.248.94283,3.29922,3.29922,0,0,0,.50425.66921,7.8658,7.8658,0,0,0,1.95225,1.69722c2.06434,1.14181,4.66562.432,6.74771-.67711A6.53114,6.53114,0,0,0,78.59542,111.02a2.82344,2.82344,0,0,0,.70149-2.29566,4.19157,4.19157,0,0,0-.87436-1.64448,8.84291,8.84291,0,0,0-1.31826-1.48837C73.44142,102.49923,66.61128,104.36217,67.16058,109.85605Z"/>
    <path class="cls-12" d="M22.9822,84.85613A3.35521,3.35521,0,0,0,19.915,86.35376a6.45127,6.45127,0,0,0-1.0132,3.39494,4.32968,4.32968,0,0,0,.43212,2.4448,3.48741,3.48741,0,0,0,3.141,1.50429,9.02479,9.02479,0,0,0,3.47666-1.04312,15.926,15.926,0,0,0,4.45689,3.197,4.49,4.49,0,0,0,1.63047.50928,4.037,4.037,0,0,0,3.35684-2.05382c1.6354-2.43476,1.84561-5.53845,1.789-8.47092A12.53628,12.53628,0,0,1,27.57689,87.773,5.9845,5.9845,0,0,1,24.835,86.4041C24.30275,85.89306,23.71306,84.95779,22.9822,84.85613Z"/>
    <path class="cls-13" d="M42.42062,78.30379a5.11481,5.11481,0,0,0,1.275,5.63465,3.22965,3.22965,0,0,0,3.486.568c.7857-.42063,1.40079-1.28346,2.292-1.28848a3.17488,3.17488,0,0,1,.86121.17511c2.0275.56769,4.53507.02589,5.57476-1.805a4.54494,4.54494,0,0,0-.835-5.11055A8.73987,8.73987,0,0,0,50.212,74.04079,7.04834,7.04834,0,0,0,42.42062,78.30379Z"/>
    <path class="cls-14" d="M54.5301,85.73946a4.04057,4.04057,0,0,0,3.74147,3.35064,6.784,6.784,0,0,0,4.93852-1.9358c1.46-1.31238,2.577-3.34964,1.9348-5.20477a6.15464,6.15464,0,0,0-1.93414-2.46277,5.05824,5.05824,0,0,0-1.62308-1.06711,3.66024,3.66024,0,0,0-3.37934.79489C56.57644,80.53122,54.32611,83.55114,54.5301,85.73946Z"/>
    <path class="cls-15" d="M56.60239,65.51234a11.22484,11.22484,0,0,0,3.67773.98273,30.74108,30.74108,0,0,0,3.217.2385,6.47415,6.47415,0,0,0,2.27993-.25193A2.543,2.543,0,0,0,67.40624,64.966a3.087,3.087,0,0,0-.868-2.82153,7.18388,7.18388,0,0,0-2.22911-1.74039c-1.877-.93961-6.878-2.78227-8.94889-1.71714C52.23456,60.29462,54.46115,64.28878,56.60239,65.51234Z"/>
    <path class="cls-16" d="M76.17819,53.09622a1.968,1.968,0,0,0-.14-.55451A4.22091,4.22091,0,0,0,73.491,50.4128c-1.77246-.68309-3.35462-1.54643-5.1621-.96228A5.61189,5.61189,0,0,0,65.23658,51.632a3.19862,3.19862,0,0,0,.03907,3.61843,3.63509,3.63509,0,0,0,1.53256,1.0425C68.90068,57.11447,76.50011,56.69343,76.17819,53.09622Z"/>
    <path class="cls-17" d="M87.30586,67.1715a4.09459,4.09459,0,0,0,.87769,2.17059,5.74684,5.74684,0,0,0,3.05,1.4841,10.3166,10.3166,0,0,0,2.69888.42851,3.60176,3.60176,0,0,0,2.50173-.94289,3.30283,3.30283,0,0,0,.355-3.85215,5.34981,5.34981,0,0,0-3.28569-2.36151C90.63092,63.29389,86.74132,62.92,87.30586,67.1715Z"/>
    <path class="cls-18" d="M92.55179,60.30959a6.24324,6.24324,0,0,0,1.90968,1.29087c2.50646,1.08405,5.49035.39181,7.79858-1.06751a3.7205,3.7205,0,0,0,1.93287-2.4049,2.6809,2.6809,0,0,0-.78674-2.15192,5.11914,5.11914,0,0,0-2.01577-1.2055C98.45193,53.72274,87.33947,55.14687,92.55179,60.30959Z"/>
    <path class="cls-19" d="M90.82589,50.41344a4.32419,4.32419,0,0,0,.67294,4.11757,5.08471,5.08471,0,0,0,3.78771,1.87323,4.68,4.68,0,0,0,2.81073-.762,3.576,3.576,0,0,0,1.54505-2.42566,5.22106,5.22106,0,0,0-1.238-3.60918,6.9023,6.9023,0,0,0-2.27239-2.12964C93.81661,46.258,91.65774,48.24165,90.82589,50.41344Z"/>
    <path class="cls-20" d="M84.90814,34.00938a3.62452,3.62452,0,0,0-2.14888,4.38776A4.78232,4.78232,0,0,0,86.76272,41.579a7.13,7.13,0,0,0,5.0567-1.51924,3.89369,3.89369,0,0,0,1.84941-3.21169A3.26153,3.26153,0,0,0,91.353,34.26554,13.74021,13.74021,0,0,0,84.90814,34.00938Z"/>
    <path class="cls-21" d="M75.8333,27.3156a4.25757,4.25757,0,0,0,2.99964,4.76724,7.00434,7.00434,0,0,0,3.90513-.55646q1.28659-.46618,2.544-1.00809a1.65971,1.65971,0,0,0,.69406-.454,1.69214,1.69214,0,0,0,.25811-.87565,5.56236,5.56236,0,0,0-.21188-2.88616,4.40249,4.40249,0,0,0-2.75233-2.10452c-1.68109-.55923-3.19985-1.23712-4.83885-.33416A5.02869,5.02869,0,0,0,75.8333,27.3156Z"/>
    <path class="cls-22" d="M40.8971,64.83565c-1.66642-.853-4.411-4.31541-4.07793-6.24428.21563-1.24857,1.384-2.54659,2.0127-3.61115.93727-1.58694,1.85651-3.18483,2.7847-4.77711.87714-.17134,1.9331-.28715,2.52639.38123a2.5063,2.5063,0,0,1,.47659,1.42864,31.35859,31.35859,0,0,1,.16925,4.39636,5.299,5.299,0,0,0,1.5993-2.05007,2.76635,2.76635,0,0,1,1.97224-1.57744c1.1651-.07486,2.00533,1.15152,2.22879,2.29744A9.10362,9.10362,0,0,1,49.51465,60.663,8.85079,8.85079,0,0,1,46.08139,64.759,5.62974,5.62974,0,0,1,40.8971,64.83565Z"/>
    <path class="cls-23" d="M29.21691,56.029a2.48071,2.48071,0,0,0,1.82756,1.097,2.2323,2.2323,0,0,0,1.66863-.8787c1.441-1.72742.6968-5.19642-1.84295-5.4211C28.091,50.58033,27.98911,54.42811,29.21691,56.029Z"/>
    <path class="cls-24" d="M37.43838,34.00452A4.095,4.095,0,0,0,41.657,35.57459a3.549,3.549,0,0,0,2.587-3.08773c.06644-1.78747-1.65508-2.2055-3.08814-2.68306C38.46528,28.9072,35.34494,31.15145,37.43838,34.00452Z"/>
    <path class="cls-25" d="M14.74545,34.8989a2.41545,2.41545,0,0,0,.27691.97322,1.94149,1.94149,0,0,0,.77571.70115c1.511.80292,3.387.06217,4.77047-.94475,2.61175-1.901,5.217-8.05969-.08-8.503C17.1014,26.842,14.4345,32.072,14.74545,34.8989Z"/>
    <path class="cls-26" d="M.027,30.30869a5.10812,5.10812,0,0,0,3.078,3.99909,6.32208,6.32208,0,0,0,4.80079-.19965,12.42056,12.42056,0,0,0,3.94289-2.90855c1.02031-1.055,2.00706-2.48638,1.55463-3.88262a.76356.76356,0,0,0-.27222-.41922.80822.80822,0,0,0-.39771-.10473c-1.7084-.11052-3.23446,1.05149-4.92207,1.33923a6.19484,6.19484,0,0,1-2.97249-.22456C4.178,27.67,3.64821,27.02912,2.993,26.8537.9382,26.30354-.19254,28.5964.027,30.30869Z"/>
    <path class="cls-27" d="M3.91329,22.0558a16.34305,16.34305,0,0,0,5.81.26493,8.84762,8.84762,0,0,0,5.12459-2.58485,3.85536,3.85536,0,0,0,1.01833-1.81171,2.03211,2.03211,0,0,0-.57616-1.9235c-1.042-.89153-2.65575-.16636-3.99871-.44414a6.03919,6.03919,0,0,1-1.46005-.60293,21.60017,21.60017,0,0,0-5.407-1.87573A3.81393,3.81393,0,0,0,2.6307,13.028a1.47314,1.47314,0,0,0-1.1268,1.2635c-.05663,2.0299,2.62043,2.33605,1.367,4.24534C1.74381,20.2536,1.377,21.54365,3.91329,22.0558Z"/>
    <path class="cls-28" d="M1.931,7.24634a3.46641,3.46641,0,0,1-.55827-4.4377A6.49675,6.49675,0,0,1,5.36221.17455,3.14486,3.14486,0,0,1,7.10329.09179C8.33877.48161,8.78258,1.99907,9.77007,2.83766a2.94438,2.94438,0,0,0,3.79244-.09879C14.3844,1.96376,14.82881.6541,15.93266.41369c1.162-.25309,2.1409.89087,2.63215,1.974s.90865,2.36021,1.98794,2.85975c1.20492.55768,2.576-.14153,3.80046-.65481s2.92225-.70886,3.62558.41727c.697,1.116-.18813,2.52754-1.0704,3.50363a11.61015,11.61015,0,0,1-3.72765,3.01661,12.00382,12.00382,0,0,1-4.168.80225q-2.67157.16344-5.35044.1207a5.6929,5.6929,0,0,1-3.72322-.98192C8.56763,10.27806,8.54126,8.68168,6.6092,8.21634,5.067,7.8449,3.27871,8.27689,1.931,7.24634Z"/>
    <path class="cls-29" d="M53.66788,28.81887c-.64664.15412-1.44691-.23533-1.9315.21972a1.24229,1.24229,0,0,0-.30345.57672,2.59716,2.59716,0,0,0,.678,2.81308,3.55514,3.55514,0,0,0,2.35607.39795,2.56057,2.56057,0,0,0,1.03452-.2126,1.8023,1.8023,0,0,0,.73114-1.99934,2.88874,2.88874,0,0,0-3.18388-2.13551"/>
    <path class="cls-30" d="M57.67434,34.35907a3.3044,3.3044,0,0,0-.30086,1.51576,5.29043,5.29043,0,0,0,.29563,2.19174c.65411,1.55538,2.4968,2.29179,4.18406,2.30653a4.50471,4.50471,0,0,0,2.28019-.50494,2.4749,2.4749,0,0,0,1.28845-1.86988,3.42905,3.42905,0,0,0-1.38473-2.62379C62.56636,34.04058,59.14468,31.66839,57.67434,34.35907Z"/>
    <path class="cls-31" d="M129.21476,167.60743a4.791,4.791,0,0,0-2.954,1.6994,2.43658,2.43658,0,0,0-.63306,1.91729,2.17373,2.17373,0,0,0,1.69618,1.563,5.959,5.959,0,0,0,2.42005-.08446,6.21464,6.21464,0,0,0,3.5343-1.49882c.8942-.94719,1.00676-2.72518-.10011-3.41192a2.56835,2.56835,0,0,0-.62733-.264,5.58,5.58,0,0,0-3.89074.28"/>
    <path class="cls-32" d="M140.64718,178.946a3.97723,3.97723,0,0,1-1.47191,4.63209,6.573,6.573,0,0,1-5.03723.89613,3.085,3.085,0,0,1-2.18887-1.22266,2.66739,2.66739,0,0,1-.32138-1.17442,5.69313,5.69313,0,0,1,2.66544-4.91425c1.93651-1.196,4.07836-.40648,6.08066.2579C140.59265,178.40491,140.23375,178.02659,140.64718,178.946Z"/>
    <path class="cls-33" d="M108.04793,185.08232a10.56033,10.56033,0,0,0-2.77729.10585,2.68506,2.68506,0,0,0-1.67144,2.72876,3.61528,3.61528,0,0,0,1.85994,2.74041,5.61756,5.61756,0,0,0,3.33584.60882,4.41185,4.41185,0,0,0,1.934-.59317,3.05689,3.05689,0,0,0-2.49107-5.51777"/>
    <path class="cls-34" d="M110.75744,195.58007a3.62,3.62,0,0,0-.28569,1.7612,5.881,5.881,0,0,0,1.24992,3.48245,4.0966,4.0966,0,0,0,3.28952,1.53377,4.66913,4.66913,0,0,0,2.07606-.68628,5.35516,5.35516,0,0,0,1.91739-1.83043,4.41417,4.41417,0,0,0-.06036-4.51962C117.35581,192.81087,112.157,192.71914,110.75744,195.58007Z"/>
    <path class="cls-35" d="M114.55851,244.837a3.33821,3.33821,0,0,0,2.40563,1.98957,11.49184,11.49184,0,0,0,4.46648.51806,3.136,3.136,0,0,0,2.54579-1.19953,2.56213,2.56213,0,0,0,.31224-1.20548,4.60349,4.60349,0,0,0-1.92823-3.89749C119.91688,239.33675,113.5253,240.952,114.55851,244.837Z"/>
    <path class="cls-36" d="M129.69861,243.63234a2.71952,2.71952,0,0,0-2.3547.5946,2.68383,2.68383,0,0,0-.446,1.47572c-.077.785-.08159,1.73361.57488,2.17089a2.01823,2.01823,0,0,0,.84052.26422,12.15382,12.15382,0,0,0,2.86008.0771c1.18979-.10877,2.53623-.53547,2.97183-1.648a2.46585,2.46585,0,0,0-1.60374-2.97323,5.16926,5.16926,0,0,0-3.66352.30637"/>
    <path class="cls-37" d="M110.01,253.10841a6.64226,6.64226,0,0,0,3.59778.68259,4.11489,4.11489,0,0,0,2.09193-.723,2.36334,2.36334,0,0,0,.9982-1.91019,3.24057,3.24057,0,0,0-.92569-1.91054c-1.37783-1.59739-3.70968-2.75069-5.75806-1.77692C107.28141,248.76942,107.38054,251.77737,110.01,253.10841Z"/>
    <path class="cls-38" d="M94.15712,246.84663a3.61177,3.61177,0,0,0-1.25119,3.54351,4.85347,4.85347,0,0,0,1.89369,2.50889,6.01375,6.01375,0,0,0,3.4525,1.39914,5.50245,5.50245,0,0,0,3.32745-1.21272,4.39087,4.39087,0,0,0,1.23594-1.32252,3.7304,3.7304,0,0,0-.20362-3.66382C101.02611,245.463,96.48278,244.89432,94.15712,246.84663Z"/>
    <path class="cls-39" d="M87.37387,241.44309a4.16835,4.16835,0,0,0-3.115.05846,2.59175,2.59175,0,0,0-.26513,3.85681,4.31853,4.31853,0,0,0,4.13257.92791,2.024,2.024,0,0,0,.81362-.35517,1.75427,1.75427,0,0,0,.51861-.83837,3.37779,3.37779,0,0,0-2.25974-4.13186"/>
    <path class="cls-40" d="M78.41521,246.33656a1.02855,1.02855,0,0,1-1.7079-.246,1.73463,1.73463,0,0,1,.556-1.90278,2.75241,2.75241,0,0,1,3.64022.07171,1.30266,1.30266,0,0,1,.44719.885c.002.67571-.77253,1.09251-1.44759,1.12236a10.62833,10.62833,0,0,0-2.01985-.00681"/>
    <path class="cls-41" d="M126.10676,136.31783c-1.35294-.63929-3.06074.60428-3.21671,2.09251a2.98573,2.98573,0,0,0,1.75272,2.97487,2.92862,2.92862,0,1,0,.91123-5.62432"/>
    <path class="cls-42" d="M131.30645,120.30974a2.41593,2.41593,0,0,0-2.41749.52928,3.39551,3.39551,0,0,0-1.02674,2.32294,4.26911,4.26911,0,0,0,.41466,2.07941,3.47031,3.47031,0,0,0,3.37149,2.03372c1.93919-.24068,3.10043-2.57685,2.62165-4.47135a6.61655,6.61655,0,0,0-3.92217-4.08572"/>
    <path class="cls-43" d="M116.90191,116.78579a3.80451,3.80451,0,0,0,2.6503,4.16757,4.66334,4.66334,0,0,0,3.02747-.33627,4.11845,4.11845,0,0,0,1.92065-1.5573,3.60208,3.60208,0,0,0-.37909-3.94953A4.03765,4.03765,0,0,0,116.90191,116.78579Z"/>
    <path class="cls-44" d="M127.37763,90.27579a2.89852,2.89852,0,0,0-1.1333,3.03207,6.18546,6.18546,0,0,0,4.11434,4.88826,5.02059,5.02059,0,0,0,4.2131-.42486,3.71847,3.71847,0,0,0,1.694-3.74984,4.13764,4.13764,0,0,0-.81135-1.65859C133.97329,90.451,129.65567,89.06587,127.37763,90.27579Z"/>
    <path class="cls-45" d="M134.47544,89.36848a13.33,13.33,0,0,0,5.4257,2.69758,7.16173,7.16173,0,0,0,5.80363-1.18756,6.55086,6.55086,0,0,0,2.34941-4.55755,8.82015,8.82015,0,0,0-1.19749-5.053,4.58579,4.58579,0,0,0-2.60452-2.34828,2.19793,2.19793,0,0,0-2.76089,1.57234c-.04246.36283-.00362.81278-.3148,1.00378-.31586.19387-3.05223-2.84429-3.95525-3.11334a4.54965,4.54965,0,0,0-4.37081.93228C128.6819,82.32463,131.141,86.79184,134.47544,89.36848Z"/>
    <path class="cls-46" d="M159.19694,89.49212a3.34609,3.34609,0,0,1-5.23907-2.6965,2.01673,2.01673,0,0,1,.48492-1.45216,2.51567,2.51567,0,0,1,1.548-.605,5.48,5.48,0,0,1,2.62283.23084,2.875,2.875,0,0,1,1.78185,1.84123c.39348,1.47791-.791,2.95988-2.161,3.63965"/>
    <path class="cls-47" d="M165.414,91.319a3.74961,3.74961,0,0,0,.185,1.43428,3.081,3.081,0,0,0,.93148,1.18147,5.73843,5.73843,0,0,0,6.82874.40256C180.61412,89.09761,165.56443,79.02032,165.414,91.319Z"/>
    <path class="cls-48" d="M183.01927,104.46984a3.287,3.287,0,0,1,2.43586-.6339c3.7463.46011,6.91137,4.54383,3.6282,7.73925a5.39853,5.39853,0,0,1-6.98734-.783A4.84031,4.84031,0,0,1,183.01927,104.46984Z"/>
    <path class="cls-49" d="M163.51619,142.67281a5.71419,5.71419,0,0,0,2.75174,1.14125,4.23758,4.23758,0,0,0,3.05972-1.80679,11.00087,11.00087,0,0,1,2.53126-2.63526,2.432,2.432,0,0,1,1.67294-.37119,2.36144,2.36144,0,0,1,1.58025,1.362,6.984,6.984,0,0,1,.50933,2.094l.40485,2.97833a4.82863,4.82863,0,0,1-.32919,3.28271,4.50554,4.50554,0,0,1-3.01931,1.59863C167.872,151.32181,162.3016,148.35813,163.51619,142.67281Z"/>
    <path class="cls-50" d="M181.43676,140.23294a3.87617,3.87617,0,0,0,.66814,2.00758c.84191,1.13436,2.39408,1.4363,3.80256,1.54472q1.28047.09856,2.56639.07889a3.69674,3.69674,0,0,0,1.113-.13854,2.79092,2.79092,0,0,0,1.12165-.77084,8.45277,8.45277,0,0,0,1.67852-3.24878,4.48473,4.48473,0,0,0,.31313-1.84247,1.64253,1.64253,0,0,0-1.04564-1.43577,2.65745,2.65745,0,0,0-1.52829.19277C187.22921,137.53754,181.0608,135.64376,181.43676,140.23294Z"/>
    <path class="cls-51" d="M182.056,134.371a3.5073,3.5073,0,0,0,1.1517,3.1349,4.92469,4.92469,0,0,0,2.2855,1.01326,7.703,7.703,0,0,0,5.49934-.92206,6.42581,6.42581,0,0,0,3.01842-4.61809,1.64894,1.64894,0,0,0-.40165-1.49279,1.85936,1.85936,0,0,0-1.11614-.29856C189.4611,131.05087,182.73063,130.04175,182.056,134.371Z"/>
    <path class="cls-52" d="M185.07095,125.7135a3.327,3.327,0,0,0-2.06742.65319,1.92122,1.92122,0,0,0-.43177.88088,3.57064,3.57064,0,0,0,.37911,2.59706c.85407,1.4718,2.63062,2.12791,4.30725,2.41867a6.1328,6.1328,0,0,0,2.85806-.04031,6.88719,6.88719,0,0,0,2.252-1.38024q1.60246-1.31961,3.07661-2.78549a8.24356,8.24356,0,0,0,1.91075-2.53082,9.08645,9.08645,0,0,0,.504-3.31049,3.63793,3.63793,0,0,0-.571-2.547c-1.80253-2.05759-4.50412.33081-5.73291,1.67855C189.75877,123.31836,187.85826,125.32642,185.07095,125.7135Z"/>
    <path class="cls-53" d="M196.8245,124.36623c-.45313,1.444-.85029,3.12172-.01471,4.38357a3.40311,3.40311,0,0,0,3.60871,1.1904,7.24589,7.24589,0,0,0,3.357-2.16372,6.86314,6.86314,0,0,0,1.82351-2.82038,8.51816,8.51816,0,0,0,.16475-2.70667,2.16419,2.16419,0,0,0-.33043-1.27383c-.87106-1.0962-3.979-1.061-5.24461-.64882C198.30847,120.93913,197.37793,122.60259,196.8245,124.36623Z"/>
    <path class="cls-54" d="M182.41492,104.67253a8.80391,8.80391,0,0,0-1.46358,3.91,3.53152,3.53152,0,0,0-.08328,1.47937,2.64662,2.64662,0,0,0,.57967,1.06492,5.28773,5.28773,0,0,0,5.71784,1.57945,5.08331,5.08331,0,0,0,3.26724-4.91174C190.21015,103.89546,185.11447,101.33435,182.41492,104.67253Z"/>
    <path class="cls-55" d="M177.96694,93.78362a8.055,8.055,0,0,0-1.782,4.88509,4.70785,4.70785,0,0,0,1.09128,3.65689c1.26825,1.23473,3.30974,1.07506,5.04.702a8.281,8.281,0,0,0,2.56808-.89518,6.04894,6.04894,0,0,0,2.62229-4.13967,4.7104,4.7104,0,0,0-.19806-2.72238C185.8051,91.82934,180.33889,91.04579,177.96694,93.78362Z"/>
    <path class="cls-56" d="M120.37759,74.07973a5.56527,5.56527,0,0,0-.61825,1.90322,6.82624,6.82624,0,0,0,.11942,3.49867,4.31243,4.31243,0,0,0,3.40412,2.74236,5.76747,5.76747,0,0,0,3.44475-.75985,5.31078,5.31078,0,0,0,1.69569-1.34765,4.42946,4.42946,0,0,0,.07615-5.00632C126.95052,72.714,122.17665,71.05525,120.37759,74.07973Z"/>
    <path class="cls-57" d="M112.88516,71.77289a4.85335,4.85335,0,0,0,2.75664,1.12144c2.034.19756,4.33587-.89589,4.83063-2.87864a2.50811,2.50811,0,0,0-.02878-1.41486,3.08339,3.08339,0,0,0-1.33343-1.50356c-1.44108-.92038-3.79363-1.53577-5.39806-.72711A3.25292,3.25292,0,0,0,112.88516,71.77289Z"/>
    <path class="cls-58" d="M127.83938,52.21419a5.16,5.16,0,0,0-.31214,3.65372,4.52852,4.52852,0,0,0,1.51627,1.87325,4.93639,4.93639,0,0,0,4.44022,1.09927,4.03713,4.03713,0,0,0,2.36261-4.72321C135.00481,50.70052,129.478,47.9942,127.83938,52.21419Z"/>
    <path class="cls-59" d="M144.64888,58.478a3.456,3.456,0,0,0,3.84841,1.433,4.422,4.422,0,0,0,.8706-8.3598C145.46969,49.69256,142.94707,55.4689,144.64888,58.478Z"/>
    <path class="cls-60" d="M155.74325,38.10432a7.07519,7.07519,0,0,0-.545,4.76135,4.59319,4.59319,0,0,0,3.2312,3.04094,6.20589,6.20589,0,0,0,3.36862-.242,8.37653,8.37653,0,0,0,5.08358-4.381,6.45578,6.45578,0,0,0-.69223-6.53437C163.20769,31.02053,157.13747,34.792,155.74325,38.10432Z"/>
    <path class="cls-61" d="M158.19039,62.41223a4.26353,4.26353,0,0,0,.17525,1.90322,3.49225,3.49225,0,0,0,1.28059,1.52234c2.34107,1.66229,5.74664,1.22784,8.02856-.51476a5.58017,5.58017,0,0,0,1.55759-1.73093c1.63793-3.02279-1.12188-7.75808-4.60477-7.71115C160.97252,55.9302,158.47256,59.02785,158.19039,62.41223Z"/>
    <path class="cls-62" d="M156.42866,74.68034a4.30758,4.30758,0,0,0,4.611-.59838c3.15485-2.69868,1.075-7.32863-2.92378-7.30689C154.1039,66.79688,152.91868,72.92157,156.42866,74.68034Z"/>
    <path class="cls-63" d="M126.00132,40.02926a3.47163,3.47163,0,0,0-1.83348,4.07514c-1.76158.17193-5.32308-.9399-4.39829-3.35579.384-1.00312,1.20515-1.17882,2.16846-1.2933C122.90857,39.34,125.31187,40.33619,126.00132,40.02926Z"/>
  </g>
</svg>
